<?xml version="1.0" encoding="utf-8"?>
<!-- Generator: Adobe Illustrator 18.1.1, SVG Export Plug-In . SVG Version: 6.00 Build 0)  -->
<svg version="1.1" id="Layer_1" xmlns="http://www.w3.org/2000/svg" xmlns:xlink="http://www.w3.org/1999/xlink" x="0px" y="0px"
	 viewBox="0 0 350.7 29.6" enable-background="new 0 0 350.7 29.6" xml:space="preserve">
<g>
	<path d="M76.4-89.7c-0.5,0.2-1.4,0.5-2.7,0.5c-2.9,0-5-1.8-5-5.1c0-3.2,2.1-5.3,5.3-5.3c1.3,0,2.1,0.3,2.4,0.4l-0.3,1.1
		c-0.5-0.2-1.2-0.4-2-0.4c-2.4,0-3.9,1.5-3.9,4.2c0,2.5,1.4,4.1,3.9,4.1c0.8,0,1.6-0.2,2.1-0.4L76.4-89.7z"/>
	<path d="M78-100h1.3v10.6H78V-100z"/>
	<path d="M85.6-89.4l-0.1-0.9h0c-0.4,0.6-1.2,1.1-2.2,1.1c-1.5,0-2.2-1-2.2-2.1c0-1.8,1.6-2.7,4.4-2.7v-0.2c0-0.6-0.2-1.7-1.6-1.7
		c-0.7,0-1.4,0.2-1.9,0.5l-0.3-0.9c0.6-0.4,1.5-0.6,2.4-0.6c2.2,0,2.8,1.5,2.8,3v2.7c0,0.6,0,1.2,0.1,1.7H85.6z M85.4-93.1
		c-1.4,0-3.1,0.2-3.1,1.6c0,0.9,0.6,1.3,1.2,1.3c0.9,0,1.5-0.6,1.8-1.2c0-0.1,0.1-0.3,0.1-0.4V-93.1z"/>
	<path d="M88.8-94.3c0-0.9,0-1.6-0.1-2.3h1.2l0,1.4H90c0.3-1,1.1-1.6,2-1.6c0.2,0,0.3,0,0.4,0v1.2c-0.1,0-0.3,0-0.5,0
		c-0.9,0-1.6,0.7-1.8,1.7c0,0.2-0.1,0.4-0.1,0.6v3.9h-1.3V-94.3z"/>
	<path d="M94.3-92.7c0,1.8,1.2,2.5,2.5,2.5c0.9,0,1.5-0.2,2-0.4l0.2,0.9c-0.5,0.2-1.3,0.4-2.4,0.4c-2.2,0-3.6-1.5-3.6-3.7
		c0-2.2,1.3-3.9,3.4-3.9c2.4,0,3,2.1,3,3.4c0,0.3,0,0.5,0,0.6H94.3z M98.2-93.7c0-0.8-0.3-2.1-1.8-2.1c-1.3,0-1.9,1.2-2,2.1H98.2z"
		/>
	<path d="M102.7-98.7v2.1h1.9v1h-1.9v3.9c0,0.9,0.3,1.4,1,1.4c0.3,0,0.6,0,0.8-0.1l0.1,1c-0.3,0.1-0.7,0.2-1.2,0.2
		c-0.6,0-1.1-0.2-1.4-0.6c-0.4-0.4-0.5-1-0.5-1.9v-4h-1.1v-1h1.1v-1.7L102.7-98.7z"/>
	<path d="M110.4-89.4l-2.6-10.1h1.4l1.2,5.1c0.3,1.3,0.6,2.5,0.8,3.5h0c0.2-1,0.5-2.2,0.8-3.5l1.3-5.1h1.4l1.2,5.1
		c0.3,1.2,0.6,2.4,0.7,3.5h0c0.2-1.1,0.5-2.2,0.8-3.5l1.3-5.1h1.3l-2.9,10.1h-1.4l-1.3-5.3c-0.3-1.3-0.5-2.3-0.7-3.3h0
		c-0.2,1-0.4,2-0.8,3.3l-1.4,5.3H110.4z"/>
	<path d="M122.6-98.7c0,0.5-0.3,0.8-0.8,0.8c-0.5,0-0.8-0.4-0.8-0.8c0-0.5,0.3-0.8,0.8-0.8C122.3-99.5,122.6-99.1,122.6-98.7z
		 M121.1-89.4v-7.3h1.3v7.3H121.1z"/>
	<path d="M124.6-94.6c0-0.8,0-1.4-0.1-2h1.2l0.1,1.2h0c0.4-0.7,1.2-1.4,2.4-1.4c1,0,2.6,0.6,2.6,3.1v4.3h-1.3v-4.2
		c0-1.2-0.4-2.1-1.7-2.1c-0.9,0-1.5,0.6-1.8,1.3c-0.1,0.2-0.1,0.4-0.1,0.6v4.4h-1.3V-94.6z"/>
	<path d="M133.7-92.7c0,1.8,1.2,2.5,2.5,2.5c0.9,0,1.5-0.2,2-0.4l0.2,0.9c-0.5,0.2-1.3,0.4-2.4,0.4c-2.2,0-3.6-1.5-3.6-3.7
		c0-2.2,1.3-3.9,3.4-3.9c2.4,0,3,2.1,3,3.4c0,0.3,0,0.5,0,0.6H133.7z M137.6-93.7c0-0.8-0.3-2.1-1.8-2.1c-1.3,0-1.9,1.2-2,2.1H137.6
		z"/>
	<path d="M140.3-90.7c0.4,0.3,1.1,0.5,1.7,0.5c1,0,1.4-0.5,1.4-1.1c0-0.6-0.4-1-1.3-1.3c-1.3-0.5-1.9-1.2-1.9-2.1
		c0-1.2,0.9-2.1,2.5-2.1c0.7,0,1.4,0.2,1.8,0.5l-0.3,1c-0.3-0.2-0.8-0.4-1.5-0.4c-0.8,0-1.2,0.4-1.2,1c0,0.6,0.4,0.9,1.4,1.2
		c1.3,0.5,1.9,1.1,1.9,2.2c0,1.3-1,2.2-2.7,2.2c-0.8,0-1.5-0.2-2-0.5L140.3-90.7z"/>
	<path d="M149.6-99.5h1.3v9h4.3v1.1h-5.6V-99.5z"/>
	<path d="M163-93c0,2.7-1.9,3.9-3.6,3.9c-2,0-3.5-1.4-3.5-3.7c0-2.4,1.6-3.9,3.6-3.9C161.6-96.8,163-95.3,163-93z M157.3-93
		c0,1.6,0.9,2.8,2.2,2.8c1.3,0,2.2-1.2,2.2-2.8c0-1.2-0.6-2.8-2.2-2.8C158-95.8,157.3-94.3,157.3-93z"/>
	<path d="M171-96.6c0,0.5-0.1,1.1-0.1,2v4.2c0,1.7-0.3,2.7-1,3.3c-0.7,0.7-1.7,0.9-2.6,0.9c-0.9,0-1.8-0.2-2.4-0.6l0.3-1
		c0.5,0.3,1.2,0.6,2.1,0.6c1.3,0,2.3-0.7,2.3-2.5v-0.8h0c-0.4,0.7-1.2,1.2-2.3,1.2c-1.8,0-3.1-1.5-3.1-3.5c0-2.5,1.6-3.9,3.3-3.9
		c1.3,0,2,0.7,2.3,1.3h0l0.1-1.1H171z M169.6-93.7c0-0.2,0-0.4-0.1-0.6c-0.2-0.8-0.9-1.4-1.8-1.4c-1.3,0-2.2,1.1-2.2,2.7
		c0,1.4,0.7,2.6,2.1,2.6c0.8,0,1.5-0.5,1.8-1.3c0.1-0.2,0.1-0.5,0.1-0.7V-93.7z"/>
	<path d="M179.7-93c0,2.7-1.9,3.9-3.6,3.9c-2,0-3.5-1.4-3.5-3.7c0-2.4,1.6-3.9,3.6-3.9C178.3-96.8,179.7-95.3,179.7-93z M173.9-93
		c0,1.6,0.9,2.8,2.2,2.8c1.3,0,2.2-1.2,2.2-2.8c0-1.2-0.6-2.8-2.2-2.8C174.6-95.8,173.9-94.3,173.9-93z"/>
	<path d="M189.8-94.1h-3.9v3.6h4.4v1.1h-5.7v-10.1h5.5v1.1h-4.2v3.2h3.9V-94.1z"/>
	<path d="M191.9-94.6c0-0.8,0-1.4-0.1-2h1.2l0.1,1.2h0c0.4-0.7,1.2-1.4,2.4-1.4c1,0,2.6,0.6,2.6,3.1v4.3h-1.3v-4.2
		c0-1.2-0.4-2.1-1.7-2.1c-0.9,0-1.5,0.6-1.8,1.3c-0.1,0.2-0.1,0.4-0.1,0.6v4.4h-1.3V-94.6z"/>
	<path d="M206.5-96.6c0,0.5-0.1,1.1-0.1,2v4.2c0,1.7-0.3,2.7-1,3.3c-0.7,0.7-1.7,0.9-2.6,0.9c-0.9,0-1.8-0.2-2.4-0.6l0.3-1
		c0.5,0.3,1.2,0.6,2.1,0.6c1.3,0,2.3-0.7,2.3-2.5v-0.8h0c-0.4,0.7-1.2,1.2-2.3,1.2c-1.8,0-3.1-1.5-3.1-3.5c0-2.5,1.6-3.9,3.3-3.9
		c1.3,0,2,0.7,2.3,1.3h0l0.1-1.1H206.5z M205.1-93.7c0-0.2,0-0.4-0.1-0.6c-0.2-0.8-0.9-1.4-1.8-1.4c-1.3,0-2.2,1.1-2.2,2.7
		c0,1.4,0.7,2.6,2.1,2.6c0.8,0,1.5-0.5,1.8-1.3c0.1-0.2,0.1-0.5,0.1-0.7V-93.7z"/>
	<path d="M208.6-100h1.3v10.6h-1.3V-100z"/>
	<path d="M213.6-98.7c0,0.5-0.3,0.8-0.8,0.8c-0.5,0-0.8-0.4-0.8-0.8c0-0.5,0.3-0.8,0.8-0.8C213.3-99.5,213.6-99.1,213.6-98.7z
		 M212.1-89.4v-7.3h1.3v7.3H212.1z"/>
	<path d="M215.5-90.7c0.4,0.3,1.1,0.5,1.7,0.5c1,0,1.4-0.5,1.4-1.1c0-0.6-0.4-1-1.3-1.3c-1.3-0.5-1.9-1.2-1.9-2.1
		c0-1.2,0.9-2.1,2.5-2.1c0.7,0,1.4,0.2,1.8,0.5l-0.3,1c-0.3-0.2-0.8-0.4-1.5-0.4c-0.8,0-1.2,0.4-1.2,1c0,0.6,0.4,0.9,1.4,1.2
		c1.3,0.5,1.9,1.1,1.9,2.2c0,1.3-1,2.2-2.7,2.2c-0.8,0-1.5-0.2-2-0.5L215.5-90.7z"/>
	<path d="M221.6-100h1.3v4.5h0c0.2-0.4,0.5-0.7,0.9-0.9c0.4-0.2,0.9-0.4,1.4-0.4c1,0,2.5,0.6,2.5,3.1v4.3h-1.3v-4.2
		c0-1.2-0.4-2.2-1.7-2.2c-0.9,0-1.5,0.6-1.8,1.3c-0.1,0.2-0.1,0.4-0.1,0.6v4.4h-1.3V-100z"/>
	<path d="M239.5-89.4c-0.3-0.3-0.6-0.6-0.9-1c-0.9,0.8-1.8,1.2-3,1.2c-2,0-3.1-1.3-3.1-2.8c0-1.4,0.8-2.3,2-3v0
		c-0.5-0.7-0.8-1.4-0.8-2.1c0-1.2,0.9-2.5,2.6-2.5c1.3,0,2.2,0.8,2.2,2.1c0,1.1-0.6,1.9-2.2,2.7v0c0.9,1,1.8,2.1,2.5,2.8
		c0.5-0.7,0.8-1.7,1-3h1.2c-0.3,1.6-0.7,2.9-1.5,3.7c0.5,0.6,1.1,1.1,1.7,1.8H239.5z M237.9-91.1c-0.6-0.7-1.7-1.9-2.8-3.2
		c-0.5,0.3-1.3,1-1.3,2.1c0,1.2,0.9,2,2.1,2C236.7-90.2,237.4-90.6,237.9-91.1z M234.8-97.3c0,0.7,0.3,1.3,0.8,1.8
		c1-0.6,1.7-1.1,1.7-2c0-0.6-0.3-1.3-1.2-1.3C235.2-98.7,234.8-98,234.8-97.3z"/>
	<path d="M252.5-89.7c-0.5,0.2-1.4,0.5-2.7,0.5c-2.9,0-5-1.8-5-5.1c0-3.2,2.1-5.3,5.3-5.3c1.3,0,2.1,0.3,2.4,0.4l-0.3,1.1
		c-0.5-0.2-1.2-0.4-2-0.4c-2.4,0-3.9,1.5-3.9,4.2c0,2.5,1.4,4.1,3.9,4.1c0.8,0,1.6-0.2,2.1-0.4L252.5-89.7z"/>
	<path d="M254-100h1.3v4.5h0c0.2-0.4,0.5-0.7,0.9-0.9c0.4-0.2,0.9-0.4,1.4-0.4c1,0,2.5,0.6,2.5,3.1v4.3h-1.3v-4.2
		c0-1.2-0.4-2.2-1.7-2.2c-0.9,0-1.5,0.6-1.8,1.3c-0.1,0.2-0.1,0.4-0.1,0.6v4.4H254V-100z"/>
	<path d="M263.8-98.7c0,0.5-0.3,0.8-0.8,0.8c-0.5,0-0.8-0.4-0.8-0.8c0-0.5,0.3-0.8,0.8-0.8C263.5-99.5,263.8-99.1,263.8-98.7z
		 M262.4-89.4v-7.3h1.3v7.3H262.4z"/>
	<path d="M265.9-94.6c0-0.8,0-1.4-0.1-2h1.2l0.1,1.2h0c0.4-0.7,1.2-1.4,2.4-1.4c1,0,2.6,0.6,2.6,3.1v4.3h-1.3v-4.2
		c0-1.2-0.4-2.1-1.7-2.1c-0.9,0-1.5,0.6-1.8,1.3c-0.1,0.2-0.1,0.4-0.1,0.6v4.4h-1.3V-94.6z"/>
	<path d="M274.9-92.7c0,1.8,1.2,2.5,2.5,2.5c0.9,0,1.5-0.2,2-0.4l0.2,0.9c-0.5,0.2-1.3,0.4-2.4,0.4c-2.2,0-3.6-1.5-3.6-3.7
		c0-2.2,1.3-3.9,3.4-3.9c2.4,0,3,2.1,3,3.4c0,0.3,0,0.5,0,0.6H274.9z M278.8-93.7c0-0.8-0.3-2.1-1.8-2.1c-1.3,0-1.9,1.2-2,2.1H278.8
		z"/>
	<path d="M281.5-90.7c0.4,0.3,1.1,0.5,1.7,0.5c1,0,1.4-0.5,1.4-1.1c0-0.6-0.4-1-1.3-1.3c-1.3-0.5-1.9-1.2-1.9-2.1
		c0-1.2,0.9-2.1,2.5-2.1c0.7,0,1.4,0.2,1.8,0.5l-0.3,1c-0.3-0.2-0.8-0.4-1.5-0.4c-0.8,0-1.2,0.4-1.2,1c0,0.6,0.4,0.9,1.4,1.2
		c1.3,0.5,1.9,1.1,1.9,2.2c0,1.3-1,2.2-2.7,2.2c-0.8,0-1.5-0.2-2-0.5L281.5-90.7z"/>
	<path d="M288.4-92.7c0,1.8,1.2,2.5,2.5,2.5c0.9,0,1.5-0.2,2-0.4l0.2,0.9c-0.5,0.2-1.3,0.4-2.4,0.4c-2.2,0-3.6-1.5-3.6-3.7
		c0-2.2,1.3-3.9,3.4-3.9c2.4,0,3,2.1,3,3.4c0,0.3,0,0.5,0,0.6H288.4z M292.3-93.7c0-0.8-0.3-2.1-1.8-2.1c-1.3,0-1.9,1.2-2,2.1H292.3
		z"/>
</g>
<g>
	<g>
		<g>
			<g>
				<path fill="#A90F3D" d="M60.5,0.4c3.4,0,11,1.2,11,5.7v3.8h-4.7V7.7c0-2.1-3.7-2.8-6.1-2.8c-5.5,0-9.4,3.8-9.4,9.8
					c0,6.4,4.1,10.5,9.7,10.5c1.7,0,6.1-0.6,6.1-2.8v-2.2h4.7V24c0,4.2-7.3,5.6-11.2,5.6c-8.6,0-14.8-6.5-14.8-14.7
					C45.9,6.5,52.3,0.4,60.5,0.4z"/>
				<path fill="#A90F3D" d="M75.9,25.2h3.4V5h-3.4V0.8h12V5h-3.4v19.9h8.4v-4.4h4.5v8.6H75.9V25.2z"/>
				<path fill="#A90F3D" d="M98.8,25.2h2.6l8.5-24.4h5.9l8.5,24.4h2.6v3.9h-10.6v-3.9h2.8l-1.8-5.3h-8.9l-1.8,5.3h2.8v3.9H98.8V25.2
					z M116.1,15.9l-2.7-8c-0.4-1.4-0.5-2.5-0.5-2.5h-0.1c0,0-0.1,1.1-0.5,2.5l-2.7,8H116.1z"/>
				<path fill="#A90F3D" d="M129.3,25.2h3.4V4.8h-3.4V0.8h12.5c2.1,0,3.8,0.1,5.4,0.6c3.1,1,5.2,3.6,5.2,7.6c0,3.9-2.1,6.7-5.3,7.8
					v0.1c0,0,0.8,0.4,1.4,1.5l3.3,5.9c0.4,0.7,1,0.9,1.9,0.9h0.9v3.9h-3.3c-2.3,0-3.1-0.5-3.9-2.1l-4-7.3c-0.6-1.1-1.1-1.4-2.7-1.4
					h-2.6v6.9h3.3v3.9h-11.9V25.2z M142.6,14.1c2.7,0,4.5-1.6,4.5-4.7c0-1.8-0.7-3.3-2.2-3.9c-0.8-0.4-1.9-0.5-3.2-0.5h-3.8v9.1
					H142.6z"/>
				<path fill="#A90F3D" d="M157.7,25.2h3.4V4.8h-3.4V0.8h21v7.3h-4.5V5h-7.9v7.8h9.3V17h-9.3v8h8.5v-3.2h4.5v7.4h-21.6V25.2z"/>
			</g>
			<path fill="#A90F3D" d="M205.5,1c-0.2-0.2-0.3-0.1-0.6-0.1c-0.6,0-1.2,0-1.9,0.1C202,1,201,1,199.9,1.1c-1,0-2-0.1-3-0.1
				c-1.3-0.1-2.7-0.1-4-0.2c-0.5,0-1.1,0.1-1.6,0.1c-0.8,0-1.5,0.1-2.3,0.1c-0.4,0-0.8,0-1.2,0c-0.6-0.1-1.2-0.2-1.8-0.2
				c-0.9-0.1-1.9,0-2.8-0.1c-0.3,0-0.4,0.2-0.5,0.4c-0.1,0.8-0.2,1.6-0.2,2.5c0,0.4,0,0.8,0,1.2c0,0.2,0,0.4,0,0.6
				c0,0.1,0,0.4,0.1,0.4l0,0c0,0.2,0,0.3,0.1,0.4l0,0c0,0.1,0.1,0.1,0.2,0.1c1.7,0.1,3.4-0.1,5.2-0.2c0.9,0,1.8,0.1,2.7,0.2
				c0.5,0,0.9,0.1,1.4,0.1c0,0.6,0.1,1.4,0.1,3c0,0.1,0,0.3,0.2,0.3c0.1,0,0.2,0.1,0.3,0.1c0,0,0.5,0,0.5,0c0,0.1,0,0.2,0,0.3
				c0,0.1,0,0.2,0,0.3c0,0.2-0.1,0.4-0.1,0.7c-0.2,0.8-0.2,1.6,0.9,2.3c0.7,0.4,1.4,0.9,2,1.3c0.2,0.2,0.6,0.2,0.2,0.5
				c-0.1,0.1-0.3,0.1-0.5,0.2c-0.8,0.2-1.7,0.5-2.6,0.7c-0.7,0.2-1.4,0.3-1.8,0.6c-0.3,0.2-0.5,0.4-0.5,0.6c0,0.3,0.3,0.6,0.8,0.8
				c0.1,0.1,1.8,0.6,1.9,0.5c0.6,0.2,1.1,0.3,1.7,0.5c0.1,0,0.1,0.1,0.1,0.1c-0.4,0.4-2.5,0.6-3.3,0.8c-1.3,0.4-2.1,1.1-0.6,1.7
				c1.1,0.4,2.4,0.7,3.6,1c0.1,0.1,0.1,0.1,0.2,0.2c0.1,0.2-3.4,0.8-3.7,0.9c-1.1,0.3-1.8,1-0.6,1.5c0.3,0.1,0.6,0.2,0.9,0.3
				c0.5,0.2,1.8,0.4,2.5,0.7c0.3,0.1,0.2,0.4-0.2,0.5c-1,0.2-2.1,0.2-3,0.5c-0.6,0.1-1.4,0.7-0.4,0.9c1.2,0.2,2.2,0.6,3.4,0.9
				c0.2,0,0.4,0.1,0.5,0c0.2-0.1-0.3-0.3-0.7-0.6c-0.3-0.2-0.1-0.4,0.3-0.4c0.8-0.1,1.6-0.2,2.1-0.5c1.8-1.1-0.5-1.9-2.3-2.5
				c-0.4-0.1-0.3-0.4,0.1-0.5c0.5-0.1,1-0.2,1.5-0.3c1.1-0.4,2.3-0.9,1.8-1.6c-0.4-0.6-1.7-1-2.8-1.3c0,0-0.1,0-0.1,0
				c-0.4-0.1-0.4-0.4,0-0.5l0.2,0c1.1-0.3,2.8-0.6,3-1.3c0.2-0.6-0.9-1.2-1.9-1.5c-0.7-0.2-1.4-0.4-2.1-0.5c-0.2,0-0.3,0-0.4-0.1
				c0.2,0,0.4,0,0.5-0.1c0,0,0,0,0,0l0.7-0.2c0,0,0,0,0,0c0.9-0.2,1.8-0.4,2.6-0.7c2.3-1,0.8-2.2-0.6-3.2c-1.5-1-1.1-1.9-0.9-3
				c0-0.1,0.1-0.2,0.1-0.2s0.4,0,0.4,0c0.3,0,0.5-0.1,0.5-0.3c0-1.1,0.1-2.1,0.1-3.2c0.6-0.1,1.2-0.1,1.8-0.1c0.7,0,1.4,0,2.1,0.1
				c1.4,0.1,2.9,0.3,4.3,0.2c0.3,0,0.5,0,0.7-0.2c0.1-0.2,0.1-0.5,0.1-0.7c0-0.3,0-0.6,0-0.9c0,0,0,0,0,0c0-0.2,0-0.5,0-0.7
				c0-0.4,0-0.9,0.1-1.3C205.7,2.2,205.9,1.5,205.5,1z"/>
		</g>
		<g>
			<g>
				<path fill="#55565A" d="M211.9,0.8h11v3.9h-3.3l3.7,16.1c0.2,1.2,0.3,2.5,0.3,2.5h0.2c0,0,0.1-1.3,0.4-2.5l5.3-20.1h4.2
					l5.3,20.1c0.3,1.2,0.4,2.5,0.4,2.5h0.2c0,0,0.1-1.3,0.3-2.5l3.7-16.1h-3.3V0.8h11v3.9h-2.6l-6,24.3h-5.9L232,11.3
					c-0.3-1.2-0.4-2.6-0.4-2.6h-0.1c0,0-0.1,1.4-0.4,2.6l-4.7,17.8h-5.9l-6-24.3h-2.6V0.8z"/>
				<path fill="#55565A" d="M265.7,25.2h3.4V4.8h-3.4V0.8h8.6L286.3,19c0.6,0.9,1,2.4,1,2.4h0.1c0,0-0.2-1.6-0.2-2.7v-14h-3.5V0.8
					h12.1v3.9h-3.4v24.3h-5.2L275.3,11c-0.6-1-1-2.4-1-2.4h-0.2c0,0,0.2,1.6,0.2,2.6v14h3.5v3.9h-12.1V25.2z"/>
				<path fill="#55565A" d="M299.5,25.2h3.4V4.8h-3.4V0.8h21v7.3H316V5h-7.9v7.8h9.3V17h-9.3v8h8.5v-3.2h4.5v7.4h-21.6V25.2z"/>
				<path fill="#55565A" d="M329.6,20v2.1c0,1.8,2.3,2.9,5,2.9c2.9,0,4.9-1.2,4.9-3.5c0-2.9-3.2-3.8-6.5-5.1
					c-3.8-1.4-7.5-3.1-7.5-8.2c0-5.7,4.6-7.9,9.5-7.9c4.5,0,9,1.7,9,5v3.7h-4.7V7.1c0-1.4-2.1-2.2-4.2-2.2c-2.3,0-4.2,1-4.2,3.1
					c0,2.6,2.6,3.5,5.6,4.6c4.2,1.5,8.4,3.2,8.4,8.5c0,5.8-4.9,8.4-10.2,8.4c-4.7,0-9.7-2.1-9.7-6.4V20H329.6z"/>
			</g>
			<path fill="#55565A" d="M261.6,5.3c-1-1.7-1.7-2-1.9-2.4c-0.1-0.4-0.1-2.3-0.1-2.3l-0.2-5l0.2-0.1l0-0.9l-0.2-0.2V-6l-0.3-0.1
				l-2.3,0L256.6-6v0.4l-0.2,0.2v0.9l0.2,0.1l-0.2,5.4c0,0,0,1.7-0.1,2c-0.1,0.2-0.6,0.6-0.9,1.1c-0.3,0.4-1.8,2-1.7,4.3
				c0,2.3,0.1,20,0.1,20l0,0.5c0,0-0.1,0.3,0.5,0.4c0.3,0,1.9,0.2,3.9,0.1c1.2,0,2.7-0.1,4-0.2c0.2,0,0.4-0.2,0.4-0.4l0.1-20.4
				C262.4,8.2,262.6,7,261.6,5.3z M260.8,26c-0.2,0.9-1.9,1-1.9,1V5.2c0,0,1.8,2,1.8,3.4C260.7,9.2,260.9,25.4,260.8,26z"/>
		</g>
	</g>
	<g>
		<path fill-rule="evenodd" clip-rule="evenodd" fill="#A90F3D" d="M35.3,28.8c0.2-0.2,0.6-0.2,0.9-0.4c0.7-0.5,0.8-0.7,1-1.2
			c0.1,0,0.1,0,0.1-0.1c0-0.1,0.1-0.3,0.1-0.4c-0.1-1.1-0.1-2.3-0.2-3.4c0.3-1.4,0.4-3.5,0.6-5l-0.1-2.8c-0.1-0.3-0.5-0.4-0.4-0.8
			c0.1-0.2,0.3-0.4,0.4-0.6c0.3-1.2-0.1-2.3-0.2-3.3c-0.1-0.6,0.2-0.9,0.3-1.3c0-0.7-0.1-1.4-0.2-2c-0.1-1.1,0-2.4,0-3.5
			c0-0.3,0-0.6,0-1c-0.3-1-1.2-1.3-1.5-2.2c-1.9-0.5-4.3-0.2-6.2-0.4c0,0,0,0.1,0,0c0,0-0.1,0-0.1-0.1c0,0-0.1,0-0.1,0
			c0,0-0.1,0-0.1,0c0,0.2-0.2,0.2-0.3,0.5c0,0-0.1-0.1-0.1-0.1c0,0.1-0.1,0.1,0,0.1c-0.1,0-0.2,0-0.3,0c-0.1,0.1-0.1,0.3-0.2,0.4
			L28,0.9c0-0.2,0-0.3,0-0.5c-0.2,0-0.4,0-0.6,0.1C26.6,0.3,26,0.1,25,0.3c-0.4,0.1-0.8,0.2-1.3,0.3c-0.1-0.1-0.2-0.2-0.4-0.3
			c-0.9,0.1-1.7,0.2-2.6,0.3c-0.7-0.1-1.8-0.2-2.6-0.4c-1.5-0.2-4.1,0.2-5.9,0.1C11.4,0.9,10.1,0,9.5,1c0.1,0.2,0.3,0.4,0.4,0.6
			c-0.2,0.4-0.8,0.6-1,1C8.8,3.1,8.6,6.6,8.7,7C8.8,7.4,8.9,7.8,9,8.1c-0.6,4,0.2,7.5-0.4,11.7C8.5,20.6,8.9,20.7,9,21
			c0.1,0.4-0.3,0.9-0.4,1.2c-0.2,0.6,0,1.3,0.1,1.8c0.4,1.7-0.6,2.8,0.4,4c0.2,0.2,0.3,0.5,0.5,0.7c0.3,0.2,0.8,0.3,1.5,0.4
			c0-0.1,0-0.2,0-0.3c0.1,0,0.1-0.1,0.2-0.1c0.1,0.1,0.2,0.1,0.3,0.1c0.4,0.4,0.8,0.4,1.1,0.2c0,0.1,0,0.1-0.1,0.2
			c1.3,0.1,2.7,0.1,3.3,0c0.5-0.1,0.9-0.4,1.3-0.4c0.5,0,0.7,0.3,1,0.4c1.7,0,3.3,0.1,5,0.1c0.2,0,4.1-0.1,4.3-0.2
			c0.2-0.1,0.2-0.3,0.6-0.2c0.2,0.1,0.3,0.2,0.5,0.3c1.2,0.4,3.5,0.1,4.8,0c0.5,0,1,0.1,1.6,0.1C35.1,29.2,35.1,29,35.3,28.8z"/>
		<g>
			<path fill="#FFFFFF" d="M18.5,11.6c0.9,0,1.3-0.1,1.8-0.2c0.4-0.1,0.9-0.2,1.7-0.2c0.9,0,1.3,0.1,1.7,0.1
				c0.4,0.1,0.9,0.1,1.8,0.1c0.1,0,0.2,0,0.3-0.1c0.1-0.1,0.1-0.3,0.1-0.4l0-0.1c0-0.3-0.1-0.4-0.5-0.5c-1,0-1.7,0-2.3,0
				c-0.4,0-0.8,0-1.2,0c1.9-0.1,3.1-0.9,3.3-2.3c0.1-0.5,0.3-1.4,0.3-2.8c0-0.5-0.4-0.6-0.6-0.6c0,0,0,0,0,0c0,0,0,0,0,0
				c0,0-0.1,0-0.1,0c-0.1,0-0.2,0-0.3,0.2C24.2,4.9,24.1,5,24,5c-0.1,0-0.2,0.1-0.3,0.1c-0.1,0-0.2,0-0.3-0.1c0-0.4-0.2-0.7-0.2-0.9
				l0,0c0-0.2-0.1-0.3-0.3-0.3c0,0,0,0-0.1,0c0,0,0,0-0.1,0c-0.1,0-0.3,0-0.4,0.2c0,0.1,0,0.2,0,0.4c0,0.2,0.1,0.4,0.1,0.7
				c-0.2,0.1-0.4,0.1-0.5,0.1c-0.2,0-0.3,0-0.5-0.1c0-0.2,0-0.4,0.1-0.6c0-0.2,0.1-0.4,0-0.5c0,0-0.1-0.2-0.3-0.2
				c-0.1,0-0.1,0-0.2,0c0,0-0.1,0-0.1,0c0,0,0,0-0.1,0l-0.1,0c-0.2,0-0.3,0.1-0.3,0.2c0,0.1,0,0.2,0,0.4c0,0.2,0,0.4,0,0.7
				c-0.1,0-0.2,0.1-0.3,0.1c-0.2,0-0.3,0-0.4-0.1c-0.1,0-0.3-0.1-0.5-0.1c-0.1-0.3-0.3-0.4-0.5-0.4c-0.3,0-0.3,0.2-0.3,0.5
				c0,0.1,0,0.1,0,0.2c0,0.3,0,0.6,0,0.8c0,0.8,0,1.5,0.1,1.9c0.4,1.5,1.5,2.3,3.2,2.4c-0.3,0-0.6,0-0.9,0l-2.2,0
				c-0.4,0-0.6,0.1-0.6,0.5C18.1,11.2,18.1,11.6,18.5,11.6z M20.5,6.9C20.3,6.9,20.1,7,20,7c-0.1,0-0.3,0-0.5-0.1l-0.1,0
				c0-0.1,0-0.2,0-0.4c0-0.1,0-0.3,0-0.4C19.6,6,19.7,6,19.8,5.9c0.2-0.1,0.3-0.1,0.5-0.1c0.1,0,0.1,0,0.2,0l0,0
				C20.5,6.1,20.5,6.5,20.5,6.9z M19.8,7.5c0.1,0,0.3-0.1,0.4-0.1c0.1,0,0.2,0,0.4,0.2c0.3,0.5,0.3,0.6,0.1,1.1c0,0,0,0.1,0,0.1
				c-0.3-0.2-0.6-0.5-0.8-1c0,0,0-0.1-0.1-0.2c0-0.1-0.1-0.1-0.1-0.2C19.7,7.6,19.7,7.6,19.8,7.5z M23.4,7c0-0.1,0-0.3,0-0.5
				c0-0.2,0-0.4,0-0.6l0,0c0.2-0.1,0.3-0.1,0.5-0.1c0.1,0,0.2,0,0.4,0.1c0,0.2,0,0.4-0.1,0.6c0,0.1,0,0.1,0,0.2
				c-0.2,0.1-0.3,0.1-0.4,0.2C23.8,7,23.7,7,23.5,7C23.5,7,23.5,7,23.4,7z M23.7,7.6c0.1,0,0.2,0,0.3,0.1c0.1,0,0.1,0,0.2,0.1
				c0,0.1-0.1,0.2-0.1,0.2L24,8c0,0,0,0,0,0c-0.1,0.4-0.4,0.7-0.7,0.9c-0.2-0.5-0.2-0.7,0.2-1.2C23.5,7.6,23.6,7.6,23.7,7.6z
				 M22.4,5.9c0,0.3,0,0.6,0,0.9C22.2,7,22.1,7,22,7c-0.1,0-0.2,0-0.4-0.1c0-0.1,0-0.2,0-0.3c0-0.2,0-0.3,0-0.5
				C21.7,6,21.8,6,21.9,5.9c0.1-0.1,0.2-0.1,0.4-0.1c0,0,0.1,0,0.1,0L22.4,5.9z M21.4,7.6c0.1-0.2,0.3-0.2,0.4-0.2
				c0.2,0,0.5,0.1,0.6,0.3c0.3,0.4,0.2,0.6,0.1,1c0,0.1-0.1,0.3-0.1,0.5c-0.1,0-0.1,0-0.2,0.1c-0.1,0-0.3,0.1-0.4,0.1c0,0,0,0,0,0
				c0,0-0.1-0.1-0.1-0.1c0-0.3-0.2-0.6-0.3-0.8C21.3,8.2,21.2,8,21.4,7.6z M25.7,11L25.7,11L25.7,11L25.7,11z"/>
			<path fill="#FFFFFF" d="M17.5,18.7c0-0.6,0-1.2,0-2.4c0-1.2,0-1.8,0-2.4c0-0.6,0-1.2,0-2.4c0-1.2,0.1-1.8,0.1-2.4
				c0.1-0.6,0.1-1.2,0.1-2.4c0-0.6-0.5-0.6-0.7-0.6c-0.2,0-0.3,0.1-0.4,0.1c0,0-0.1-0.1-0.1-0.1C16.5,6.1,16.4,6,16.3,6
				c0-0.2,0-0.3,0-0.5c0-0.2,0-0.4,0-0.6c0.1,0,0.1,0,0.2,0c0.1,0,0.3,0,0.4,0.1c0.2,0.1,0.4,0.2,0.7,0.2c0.1,0,0.2,0,0.3-0.1
				c0.1-0.1,0.1-0.3,0.1-0.4l0-0.1c0-0.3-0.1-0.5-0.5-0.5c-0.8,0-1.3,0-1.7,0c-0.6,0-1,0-1.6,0c-0.4,0-0.9,0-1.7,0
				c-0.4,0-0.6,0.1-0.6,0.5c0,0.2,0,0.3,0.1,0.4c0.1,0.1,0.2,0.1,0.3,0.1h0h0c0.3,0,0.3,0,0.7,0.1c0,0.2,0.1,0.4,0.2,0.5
				c0.1,0.1,0.1,0.2,0.1,0.4c-0.2,0-0.5,0-0.7,0.1l-0.1,0c-0.1-0.1-0.2-0.3-0.4-0.3c-0.3,0-0.6,0.2-0.6,0.7c0,1.2,0,1.7,0,2.3
				c0,0.6,0,1.2,0,2.3c0,1.2,0,1.7,0,2.3c0,0.6,0,1.2,0,2.3c0,1.2,0.1,1.8,0.1,2.3c0.1,0.6,0.1,1.1,0.1,2.3c0,3.7,1,5.5,3,5.5
				c1.3,0,2.8-0.8,2.8-4.8C17.6,20,17.6,19.3,17.5,18.7z M16.5,11.5c-0.3-0.9-0.7-2.1-0.7-3.4c0-0.2,0-0.3,0.1-0.5
				C16,7.4,16,7.2,16,7.1c0.1,0,0.3,0,0.5,0.1c0,0.8,0.2,1.3,0.3,1.8C16.9,9.7,17.1,10.3,16.5,11.5z M16.3,19.9c0,0.3,0,0.6,0,1
				c0,2.7-0.5,3.9-1.5,3.9c-1.3,0-1.9-1.3-1.9-4.4c0-1.6-0.1-2.5-0.1-3.3c-0.1-0.8-0.1-1.6-0.1-3.1c0,0,0.1,0,0.1,0
				c0.7,0,1.1,0,1.4-0.1c0.3,0,0.7-0.1,1.4-0.1c0.4,0,0.5-0.3,0.5-0.5c0-0.4-0.3-0.4-0.6-0.4c-0.6,0-0.9-0.1-1.2-0.1
				c-0.3-0.1-0.6-0.1-1.3-0.1h-0.1c-0.1,0-0.2,0.1-0.3,0.2c0,0,0,0-0.1,0c0-0.1,0-0.2,0-0.3c0.8-1,1.8-2.3,1.8-4.1
				c0-0.4-0.1-0.7-0.2-1.1c-0.1-0.2-0.1-0.4-0.1-0.5c0,0,0.1,0,0.1,0c0.1,0,0.3,0.1,0.4,0.1c0.1,0,0.2,0,0.3-0.1C15,7,15.1,7,15.2,7
				c0,0.1,0,0.1,0,0.2C15,7.5,15,7.8,15,8.1c0,1.9,0.5,3.5,1.5,4.7c0.2,1.3,0.2,1.7,0.1,2.6c0,0.4-0.1,0.8-0.1,1.4
				C16.3,18.5,16.3,18.8,16.3,19.9z M15.4,5.1c-0.1,0.3-0.3,0.6-0.3,0.9C15,6,14.9,6,14.8,6.1c-0.1,0-0.1,0.1-0.2,0.1
				c-0.1,0-0.2,0-0.3-0.1C14.3,6.1,14.2,6,14,6c-0.1-0.3-0.1-0.7-0.2-1C14,5,14.2,4.9,14.4,4.9c0.2-0.1,0.4-0.1,0.6-0.1
				c0.2,0,0.4,0.1,0.6,0.2C15.5,5,15.5,5,15.4,5.1z M12.7,11.2c-0.2-1.8-0.3-2.1,0.2-4.1c0.1,0,0.2,0,0.2-0.1c0.1,0,0.2,0,0.2-0.1
				c0,0.2,0,0.4-0.1,0.5c0,0.2-0.1,0.4-0.1,0.6C13.2,9.2,13,10.2,12.7,11.2L12.7,11.2z M17.7,4.7L17.7,4.7
				C17.7,4.7,17.7,4.7,17.7,4.7L17.7,4.7z"/>
			<path fill="#FFFFFF" d="M25.5,24.7C25.5,24.7,25.5,24.7,25.5,24.7c-0.3,0-0.5,0.1-0.6,0.2c-0.1,0-0.1,0.1-0.2,0.1
				c0,0-0.1,0-0.1-0.1c-0.5-1.7-0.7-3.5-0.7-5.6c0-0.5,0-1.1,0-1.6c0-0.9-0.1-1.8,0-2.6c0.5-0.2,1-0.4,1.2-0.9
				c0.1-0.3,0.1-0.8,0.1-1.3c0-0.2,0-0.3,0-0.5c0-0.4-0.2-0.6-0.5-0.7c0,0,0,0,0,0c0,0,0,0-0.1,0c-0.2,0.1-0.3,0.2-0.4,0.3
				c-0.3,0-0.7-0.1-1-0.2c-0.5-0.1-0.9-0.2-1.4-0.2c-0.4,0-0.8,0.1-1.2,0.2c-0.3,0.1-0.6,0.2-0.8,0.2c-0.1-0.1-0.2-0.3-0.4-0.3
				c-0.5,0-0.6,0.3-0.7,0.6c0,0.7,0.3,1.1,0.5,1.4c0,0.1,0.1,0.1,0.1,0.1l0.1,0.2c0.2,0.4,0.3,0.7,0.7,0.9c0.1,0.5,0.2,1,0.2,1.5
				c0.2,0.9,0.3,1.7,0.3,2.5c0,2.3-0.5,4.4-0.9,5.7C19.4,25,19.3,25,19.2,25c-0.1,0-0.2,0-0.3-0.1c-0.2-0.1-0.4-0.1-0.7-0.1
				c0,0,0,0,0,0c-0.3,0-0.8,0.1-0.8,0.5c0,0.4,0.2,0.7,0.6,0.7c1,0,1.4-0.1,1.9-0.2c0.1,0,0.2-0.1,0.4-0.1c0.3,0.3,0.7,0.4,1.1,0.4
				c0.5,0,1-0.2,1.7-0.5c0.2,0,0.4,0,0.6,0c0.5,0,0.9,0,1.9,0h0h0c0.2,0,0.5,0,0.5-0.4C26.1,25,25.9,24.7,25.5,24.7z M21.8,25.3
				c-0.7,0-1.1,0.1-1.4,0.1c-0.1-0.1-0.2-0.2-0.3-0.4c1-1.8,1.5-3.6,1.5-5.4c0-1.7-0.4-3.1-0.9-4.2c0.4,0.1,0.9,0.2,1.3,0.2
				c0.4,0,0.9-0.1,1.3-0.2c-0.4,1.3-0.6,2.6-0.6,4c0,2.2,0.4,4.1,1.2,5.6c-0.1,0.1-0.3,0.1-0.4,0.2c-0.1,0.1-0.3,0.1-0.4,0.2
				C22.7,25.3,22.3,25.3,21.8,25.3z M21.9,14.6c-1.2,0-1.8-0.6-2-0.9c0,0-0.1-0.2-0.2-0.7c0,0,0,0,0.1,0c0.3,0,0.6,0,0.9,0.1
				c0.3,0,0.6,0.1,0.9,0.1c0.4,0,0.8-0.1,1.2-0.1c0.4-0.1,0.8-0.1,1.2-0.1c0,0,0,0,0,0c-0.1,0.4-0.3,0.7-0.3,0.7c0,0,0,0,0,0.1
				C23.6,14,23.2,14.6,21.9,14.6z"/>
		</g>
		<g>
			<g>
				<path fill="#FFFFFF" d="M29.5,9.1L29.5,9.1c-0.1,0-0.1,0-0.2,0c-0.1,0-0.2,0.1-0.2,0.2c0,0.4,0,0.7,0,1c0,0.2,0,0.4,0,0.6
					c0,0.7-0.3,1.8-0.8,3.1c0,0,0,0,0,0.1c0,0.1,0,0.1,0,0.2c0,0,0.1,0.1,0.1,0.1c0.1,0,0.2,0,0.3-0.1c0.7-0.9,1.1-2.1,1.1-3.4
					c0-0.6,0-1.2-0.1-1.7C29.8,9.2,29.7,9.1,29.5,9.1z M28.6,14.3L28.6,14.3L28.6,14.3L28.6,14.3z"/>
				<path fill="#FFFFFF" d="M30.8,9.3c-0.1,0-0.3,0.1-0.3,0.2c0,0.2,0,0.5,0,0.8c0,0.4,0.1,0.8,0,1.3c0,1,0,1.7,0.1,2
					c0,0,0,0.1,0,0.1c0,0.1,0,0.2,0.1,0.2c0,0,0,0,0,0c0.1,0,0.3-0.1,0.3-0.3c0.1-0.2,0.1-0.7,0.1-2.1c0-0.9,0-1.6-0.1-2.1
					C31,9.3,30.9,9.3,30.8,9.3z"/>
				<path fill="#FFFFFF" d="M32.1,9.3c-0.1,0-0.3,0.1-0.3,0.2c0,0.2,0,0.5,0,0.9c0,0.3,0,0.7,0,1.2c0,1,0,1.7,0.1,2c0,0,0,0.1,0,0.1
					c0,0,0,0.2,0.1,0.2c0,0,0,0,0,0c0.1,0,0.3-0.1,0.3-0.3c0.1-0.2,0.1-0.7,0.1-2.1c0-0.9,0-1.6-0.1-2.1C32.4,9.3,32.2,9.3,32.1,9.3
					z"/>
				<path fill="#FFFFFF" d="M33.7,11.1c0-0.6,0-1.2-0.1-1.9c0,0,0-0.2-0.3-0.2l0,0c0,0,0,0,0,0C33.1,9,33,9,33,9.1
					c0,0.4,0,0.7,0,1.1c0,0.3,0,0.5,0,0.8c0,1.2,0.4,2.2,1.1,3.1c0,0,0,0,0,0c0,0,0.1,0.2,0.2,0.2c0.1,0,0.3-0.2,0.3-0.3
					c0,0,0,0,0-0.1C34,12.6,33.7,11.7,33.7,11.1z"/>
				<path fill="#FFFFFF" d="M34.8,8.7c-1.1-0.9-1.6-1.9-1.8-3.2c0,0,0,0,0-0.1c0.2,0,0.3,0,0.4,0c0.2,0,0.3,0,0.7,0l0.1,0l0,0
					c0.2,0,0.3-0.1,0.3-0.2c0-0.2-0.2-0.2-0.3-0.2l-0.1,0c0,0,0,0,0,0c-0.1,0-0.1,0-0.1,0c0,0,0,0-0.1,0c0,0,0,0,0-0.1
					c0,0,0-0.1,0-0.2c0,0,0-0.1,0-0.1c0-0.1,0-0.4-0.2-0.4c-0.2,0-0.4,0.3-0.4,0.5c0,0.1,0.1,0.2,0.1,0.3C33.2,5,33.1,5,33,5
					c-0.1,0-0.1,0-0.2,0c0-0.1,0-0.1,0-0.2c0-0.2,0.1-0.4,0.1-0.6c0-0.2-0.1-0.4-0.3-0.4c-0.2,0-0.3,0.2-0.3,0.3c0,0.1,0,0.3,0,0.4
					c0,0.1,0,0.2,0,0.4C32,4.8,32,4.8,31.8,4.8l-0.1,0l-0.1,0l0,0c0,0,0,0,0,0c0,0,0-0.1,0-0.1c0-0.1-0.1-0.3-0.3-0.3
					c-0.4,0-0.5,0-0.7,0.1c-0.2,0-0.3,0-0.6,0c0-0.1,0-0.3,0-0.4C30,4,30,3.9,29.8,3.9c0,0,0,0-0.1,0c-0.1,0-0.1,0-0.1,0
					c-0.1,0-0.2,0.1-0.2,0.2c-0.3,1.2-0.7,2-1.4,2.5C28,6.6,28,6.7,28,6.8c0,0.1,0.1,0.2,0.2,0.2c0,0,0,0,0.1,0c0,0,0.1,0,0.1,0
					c0.2-0.1,0.5-0.3,0.7-0.4c0,0,0,0,0,0v0c0,0,0,0.2,0.1,0.3C29.2,6.9,29.2,7,29.3,7c0.1,0,0.1,0.1,0.3,0.2c0,0,0,0,0,0
					c-0.2,0.4-0.4,0.6-0.6,0.8c-0.2,0.3-0.5,0.4-0.7,0.5c-0.1,0-0.1,0-0.2,0.1c-0.1,0-0.2,0.1-0.2,0.2c0,0,0,0.1,0,0.1
					c0,0.1,0,0.2,0.2,0.2c0,0,0,0,0.1,0c0,0,0,0,0.1,0c0,0,0,0,0,0c0.3-0.1,0.5-0.2,0.8-0.4l0,0c0.2-0.1,0.5-0.3,0.8-0.6
					c0.3-0.5,0.7-1.1,0.9-1.7c0.2-0.3,0.3-0.6,0.4-0.8c0.1,0.1,0.1,0.1,0.2,0.1c0.2,0,0.3,0,0.4-0.1c0.1,0,0.1,0,0.2,0
					c0,0,0.1,0,0.1,0c-0.1,0.5-0.2,0.9-0.4,1.4c-0.3,0.7-0.6,1.3-1,1.7l0,0c-0.1,0-0.2,0.1-0.2,0.2c0,0,0,0.2,0.2,0.2l0.1,0
					c0,0,0,0,0.1,0C31.5,8.6,32,8,32.3,7.2c0.1-0.2,0.1-0.3,0.2-0.5C32.6,7,32.8,7.3,33,7.6l0.1,0.2c0.4,0.7,0.9,1.1,1.5,1.3
					c0,0,0,0,0.1,0h0c0.2,0,0.3-0.1,0.3-0.2C34.8,8.8,34.8,8.7,34.8,8.7z M30.1,5.6c0,0-0.1-0.1-0.2-0.2c0,0,0,0-0.1-0.1
					c0,0,0,0-0.1-0.1c0-0.1,0.1-0.2,0.1-0.3c0,0,0,0,0,0C30,5,30,5,30,5c0.2,0,0.2,0,0.3,0c0.1,0,0.1,0,0.2,0c0,0.1-0.1,0.1-0.1,0.2
					c-0.1,0.1-0.1,0.2-0.2,0.4C30.2,5.7,30.2,5.7,30.1,5.6z M29.6,5.8C29.6,5.8,29.6,5.8,29.6,5.8C29.7,5.9,29.7,6,29.8,6
					c0,0.1,0.1,0.2,0.2,0.3c0,0,0,0,0,0c0,0,0,0.1-0.1,0.1l0,0.1c0,0,0,0-0.1,0.1c0,0,0,0,0,0c-0.1-0.1-0.1-0.1-0.2-0.1
					c-0.1-0.1-0.1-0.1-0.2-0.2c-0.1-0.1-0.2-0.1-0.2-0.1C29.4,6.1,29.5,6,29.6,5.8z M33.8,5.1L33.8,5.1L33.8,5.1L33.8,5.1z"/>
			</g>
			<g>
				<path fill="#FFFFFF" d="M30.3,16.6c-0.2,0-0.2,0.2-0.3,0.3c0,0.1,0,0.3,0,0.4c0,0.2,0,0.4-0.1,0.6c-0.2,0-0.3,0-0.4,0.1
					c-0.1,0-0.1,0-0.2,0c0,0-0.1,0-0.2-0.1c0-0.6-0.1-1-0.2-1.1c0,0,0,0,0,0c0-0.1,0-0.3-0.2-0.3c0,0,0,0-0.1,0c0,0-0.1,0-0.2,0.3
					c-0.1,0.2-0.1,0.7-0.1,1.1C28.3,18,28,18,28,18.3c0,0.2,0.2,0.3,0.4,0.3c0.3,0,0.5,0,0.6,0c0.1,0,0.2,0,0.3,0
					c0.2,0,0.3,0,0.6,0.1c0,0.1,0,0.2,0,0.3c0,0.2,0,0.3-0.1,0.6c-0.3,0-0.5,0-0.7,0c-0.2,0-0.4,0-0.8,0l-0.1,0
					c-0.2,0-0.4,0.1-0.4,0.3c0,0.1,0,0.1,0,0.2c0.1,0.1,0.2,0.1,0.2,0.1c0.2,0,0.3,0,0.4,0c0.1,0,0.1,0,0.2,0c0,0,0.1,0,0.2,0
					c-0.2,0.2-0.4,0.5-0.4,0.8c0,1,0,1.8-0.1,2.6c0,0.1,0,0.2,0,0.3c0,0.2,0,0.5-0.1,0.7c-0.1,0.2-0.2,0.4-0.3,0.6
					c-0.1,0.1-0.2,0.3-0.2,0.5c0,0,0,0,0,0.1c0,0,0,0.3,0.2,0.3c0.1,0,0.1-0.1,0.2-0.1c0,0,0-0.1,0.1-0.1c0.3-0.3,0.4-0.7,0.6-1.1
					c0-0.1,0.1-0.2,0.1-0.3c0.1-0.3,0.2-0.6,0.2-0.9c0-0.4,0-0.9,0-1.5c0-0.4,0-0.7,0-1.2c0-0.2,0-0.6,0.3-0.9c0.1,0,0.1,0,0.2,0
					c0.1,0,0.1,0,0.3,0.1l0,0c0,0.2,0,0.4,0,0.6c0,0.2,0,0.4,0,0.7c0,2.2,0,3.6,0.1,4.2l0,0.1c0,0.2,0,0.3,0.1,0.3c0,0,0,0,0.1,0
					c0,0,0.1,0,0.1-0.1c0.1-0.1,0-0.1,0-0.2c0,0,0-0.1,0-0.1c0.1-0.4,0.2-1.8,0.2-4.2c0-0.5,0-1,0-1.5c0-1.2,0-2.2-0.1-2.9
					C30.5,16.7,30.4,16.6,30.3,16.6z"/>
				<path fill="#FFFFFF" d="M33.6,18c0.2,0.1,0.4,0.1,0.7,0.1c0.3,0,0.4-0.2,0.4-0.3c0-0.1-0.1-0.3-0.4-0.3l-0.1,0
					c-0.2,0-0.4,0-0.5,0c-0.1,0-0.2,0-0.3,0c-0.1,0-0.3,0-0.4,0c0-0.1,0-0.2-0.1-0.3c0-0.1-0.1-0.2-0.1-0.3c0,0,0-0.1,0-0.1
					c0,0,0,0,0,0c0.1,0.1,0.2,0.1,0.2,0.1c0.2,0,0.3-0.2,0.3-0.5c0,0,0.1,0,0.1,0c0.1,0,0.1,0,0.2,0c0.1,0,0.2,0.1,0.4,0.1
					c0.4,0,0.4-0.2,0.4-0.3c0-0.1,0-0.3-0.5-0.3l0,0c-0.1,0-0.2,0-0.3,0c-0.1,0-0.1,0-0.2,0c0,0-0.1,0-0.1,0c0-0.3-0.2-0.5-0.4-0.5
					c-0.1,0-0.3,0.1-0.4,0.5c0,0,0,0,0,0c-0.2,0-0.3,0-0.5,0c-0.5,0-0.8,0-1.3-0.1c-0.2,0-0.5-0.1-0.9-0.1c0-0.1-0.1-0.3-0.3-0.3
					c-0.1,0-0.3,0.1-0.4,0.4c-0.2,0-0.3,0.1-0.4,0.1c0,0-0.1,0-0.1,0c-0.1,0-0.2,0-0.3,0h0c-0.1,0-0.6,0-0.6,0.3
					c0,0.2,0.2,0.4,0.5,0.4c0.3,0,0.4,0,0.5-0.1c0.1,0,0.2-0.1,0.3-0.1c0,0,0.1,0,0.1,0c0.1,0.2,0.1,0.5,0.3,0.5
					c0.2,0,0.2-0.2,0.3-0.4c0.6,0,1-0.1,1.3-0.1c0.4,0,0.7,0,1.4,0.1c0,0,0,0,0,0.1c0,0,0,0-0.1,0c-0.2,0-0.2,0.3-0.3,0.4
					c0,0.1,0,0.2,0,0.3c0,0.1,0,0.1,0,0.2c-0.3,0-0.4,0.1-0.6,0.1c-0.1,0-0.1,0-0.2,0c-0.1,0-0.2,0-0.4,0l-0.1,0
					c-0.1,0-0.4,0-0.4,0.3c0,0.1,0,0.3,0.3,0.3c0.3,0,0.5-0.1,0.7-0.1c0.1,0,0.2,0,0.3,0c0.1,0,0.2,0,0.4,0.1c0,0.5,0,1.1,0,1.7
					c0,0.4,0,0.8,0,1.3c0,1.9,0,3.2,0.1,3.9c-0.2,0-0.3,0-0.4,0c-0.1,0-0.3,0-0.6,0c-0.3,0-0.3,0.2-0.3,0.3l0,0c0,0.1,0,0.2,0.1,0.3
					c0,0,0.1,0.1,0.2,0.1c0.6,0,1,0,1.3-0.1c0.3,0,0.6-0.1,1.3-0.1c0.1,0,0.3,0,0.3-0.3c0-0.1,0-0.3-0.4-0.3l-0.1,0
					c-0.3,0-0.4,0-0.6,0c-0.1,0-0.2,0-0.4,0c0.1-0.3,0.2-1.6,0.2-4.1c0-0.9-0.1-1.7-0.1-2.4c0-0.3,0-0.5,0-0.7
					c0.1-0.1,0.2-0.1,0.3-0.1C33.3,17.9,33.4,18,33.6,18z"/>
			</g>
		</g>
	</g>
</g>
</svg>
