<?xml version="1.0" encoding="utf-8"?>
<!-- Generator: Adobe Illustrator 18.1.1, SVG Export Plug-In . SVG Version: 6.00 Build 0)  -->
<svg version="1.1" id="Layer_1" xmlns="http://www.w3.org/2000/svg" xmlns:xlink="http://www.w3.org/1999/xlink" x="0px" y="0px"
	 viewBox="0 0 739.5 289.5" enable-background="new 0 0 739.5 289.5" xml:space="preserve">
<path fill="#FFFFFF" d="M477.6,223.9c-2-1.9-4-3.8-6-5.5c-2-1.8-4.1-3.6-6.2-5.3c-0.8-0.6-1.7-1.1-2.7-0.4c-1,0.7-0.6,1.7-0.5,2.6
	c0,0.1,0.1,0.2,0.1,0.3c0.6,1.9,0.8,3.8,0.4,5.7c-1.2,5.7-4.1,10-9.4,12.7c-2.8,1.4-5.3,1.1-7.5-1.2c-1.4-1.4-1.6-1.4-0.7-3.2
	c2-3.9,3-8,3.1-12.4c0-2.8-1.1-5-3.4-6.5c-2.6-1.7-5.4-0.5-7,2.9c-2.6,5.8-2.1,11.5,0.5,17.1c0.1,0.3,0.3,0.8,0.2,1.1
	c-1.4,4.4-6.4,6.7-10.7,5c-0.5-0.2-1-0.5-1.5-0.4c-0.7,0.1-1.4,0.5-2.1,0.7c0.3,0.6,0.4,1.4,0.9,1.8c2.3,2,5.1,2.5,8.1,2
	c3-0.5,5.1-2.4,7.1-4.4c0.9-0.9,1.4-0.8,2.2,0c1.9,1.8,4.1,3.1,6.7,3.5c4,0.6,7.1-1.2,9.8-3.7c3.7-3.4,5.8-7.8,7.7-12.4
	c0.3-0.8,0.5-1.5,0.8-2.5c1.5,1.7,2.8,3.2,4.3,4.7c2.4,2.3,2.4,3.1,0.6,6c-2.3,3.7-4.4,7.5-6.6,11.3c-0.9,1.5-0.6,3,0.4,4.4
	c0.6,0.8,1.3,0.9,2,0.2c0.5-0.5,1.1-1.1,1.5-1.7c1.9-3.1,3.7-6.3,5.6-9.5c1.6-2.7,3.1-3,5.6-1.1c1.8,1.4,3.7,2.8,5.6,4.1
	c3,1.9,3.4,3,2.5,6.4c-2.5,8.9-5,17.8-7.5,26.7c-1.1,3.9-2,7.7-1.6,11.8c0.1,1.3,0.7,2.3,1.9,2.8c0.9,0.4,2.5-0.4,3.2-1.5
	c0.7-1.1,1.5-2.3,1.9-3.6c0.8-2.3,1.3-4.6,1.9-6.9c2.4-9.3,4.7-18.6,7.1-27.9c0.6-2.3,1.6-3,3.7-2.7c5.3,0.7,10.5,0.6,15.7-0.5
	c4-0.9,7.9-2.1,11.8-3.3c2-0.6,3-0.3,4.3,1.4c0.5,0.7,1,1.4,1.5,2c2,2.3,4.5,3.3,7.5,2.5c4.8-1.3,9-3.8,12-7.8
	c2.8-3.8,5.3-7.8,8-11.8c0.8-1.2,1.6-2.4,2.6-3.4c1.4-1.5,3.5-1.8,5.3-1c-1.5,2.6-2.9,5.2-4.4,7.8c-1.8,3.3-3,6.8-2.7,10.6
	c0.3,3.3,1.8,5.9,6.2,5.2c5.1-0.8,9.5-3,13.5-6.2c1.2-1,2.4-2,3.5-2.9c0.7,1.7,1.2,3.3,1.9,4.8c1,2.1,2.9,3,5.2,2.6
	c1.8-0.4,3.6-0.9,5.3-1.6c2-0.9,4.1-0.6,5.5,1c3.1,3.5,5.4,3.7,8.6,0.2c6.3-6.7,12.5-13.5,18.7-20.3c0.4-0.4,0.8-0.8,1.2-1.2
	c0.2,0.1,0.3,0.1,0.5,0.2c-0.3,2.3-0.5,4.7-1.1,6.9c-1,3.8-2.5,7.5-3.5,11.3c-0.4,1.5-0.2,3.1-0.1,4.7c0.1,0.9,0.7,1.2,1.5,0.5
	c0.3-0.3,0.7-0.6,0.9-0.9c1.2-2,2.5-3.9,3.4-6c2.2-5.3,4.8-10.4,8.2-15.1c1.1-1.5,2.3-2.9,4.4-2.6c2.2,0.3,3,2.2,3.6,4.1
	c1,3.5,0.9,7,0.3,10.6c-0.3,2.1-0.7,4.2-0.8,6.3c-0.1,1.7,1.4,2.8,3.1,2.3c1.9-0.6,3.6-1.6,4.8-3.2c0.4-0.5,0.6-1.2,0.9-1.8
	c-0.1-0.1-0.2-0.2-0.3-0.2c-0.8,0.3-1.6,0.5-2.4,0.8c-1.5,0.5-1.9,0.1-1.7-1.4c0.2-1.6,0.5-3.2,0.5-4.8c-0.1-4-0.1-8-0.6-11.9
	c-0.3-2.8-2.3-4.7-5-5.5c-2.7-0.9-5.1-0.2-7,1.8c-1.2,1.3-2.3,2.7-3.4,4.1c-0.6,0.7-1.1,1.4-1.8,2.3c0-0.6,0-0.9,0-1.1
	c-0.1-1.9,0.1-3.8-0.4-5.6c-0.8-2.9-3-3.3-5-1c-5,6-10,12.1-14.9,18.2c-1.8,2.3-3.8,4.3-6.5,5.6c-0.9,0.4-2.7,0.2-3.1-0.7
	c-0.3-0.6-0.1-1.6,0.1-2.3c0.1-0.4,0.5-0.7,0.8-1c1-0.9,2-1.8,3-2.7c2.2-1.9,4.1-4.1,5.5-6.8c2.4-4.8,1.7-11-1.6-14.4
	c-1.3-1.3-2.3-1.5-3.9-0.6c-2.3,1.2-3.8,3.1-4.9,5.4c-2.2,4.5-3,9.4-3.9,14.2c-0.4,1.9-0.3,4-2,5.4c-1.6,1.3-3.3,2.3-5.3,2.5
	c-2,0.2-3.2-0.7-3.5-2.7c-0.3-2.3,0.2-4.5,0.9-6.7c1-3.2,2-6.5,2.9-9.7c0.4-1.6,0.6-3.2-0.6-4.6c-1.1-1.3-1.8-1.4-2.7,0.1
	c-1.1,1.8-2,3.7-3,5.6c-1.2,2.1-2.2,4.5-3.8,6.3c-3,3.4-6.3,6.6-9.5,9.8c-1.5,1.5-3.6,1.8-5.7,1.7c-1.5-0.1-2.1-0.8-1.7-2.4
	c1.2-4.7,3-9.1,6.1-12.9c1.8-2.2,4.1-4.1,6.1-6.1c0.9-0.9,1.1-2.1,0.6-3c-0.6-1.2-1.7-0.9-2.7-0.7c-1.7,0.4-3.4,0.9-5,1.5
	c-1.7,0.6-3.4,1.2-5.2,1.9c-0.1-0.3-0.3-0.6-0.4-0.8c-0.4-1.4-0.7-2.8-1.2-4.1c-0.4-1.1-1.1-1.3-2-0.9c-2.1,1-3.8,4.4-3.3,6.7
	c0.2,1.1,0.1,1.9-0.4,2.9c-4.3,7.8-9.7,14.6-16.9,19.9c-3,2.2-5.6,0.9-7.1-1.5c-0.6-1.1-0.6-2.1,0.2-3c0.7-0.9,1.5-1.6,2.3-2.4
	c1.7-1.8,3.5-3.5,5.2-5.3c2.2-2.4,3.2-5.3,2.7-8.6c-0.4-3.2-1.5-4.4-4.3-4.7c-3.8-0.4-6.8,1-9.3,3.7c-3.1,3.4-3.6,7.7-3.1,12
	c0.4,3.7-0.9,6.1-4.5,7c-4.8,1.3-9.5,2.5-14.3,3.7c-1.2,0.3-2.5,0-3.8,0c-0.1-0.2-0.1-0.4-0.2-0.6c0.7-0.5,1.3-1.2,2-1.6
	c6.5-3.9,11.8-9,15.2-15.8c0.7-1.5,1.4-3.1,1.6-4.7c0.5-5-4.6-9.2-9.8-8.2c-2.8,0.5-5.2,1.8-7.6,3.1c-0.4,0.2-0.7,0.3-1.3,0.6
	c0.1-0.5,0.2-0.7,0.2-0.9c0.3-1.4,0.7-2.9,1-4.3c0.1-0.9-0.5-1.3-1.2-0.7c-0.8,0.6-1.7,1.3-2.1,2.2c-3.6,7.9-7.1,15.8-10.7,23.7
	c-0.3,0.6-0.6,1.2-0.9,1.9c-2-1.4-3.8-2.8-5.6-4.1c-1.3-1-2.5-2-3.6-3.2c-1.4-1.6-1.3-2.1-0.2-3.9c2-3.1,4-6.3,5.9-9.4
	c0.8-1.3,0.7-2.4-0.1-3c-0.8-0.6-1.6-0.4-2.8,0.8c-1.2,1.2-2.3,2.4-3.4,3.7C480.7,220.1,479.2,222,477.6,223.9"/>
<path fill="#FFFFFF" d="M361.1,179.8c2-0.2,5.5-0.6,8.9-1.1c1.1-0.2,2.2-0.6,3.1-1.1c1.1-0.6,1.1-1.4,0-2.1c-0.3-0.2-0.6-0.3-1-0.4
	c-1.5-0.5-3.1-0.9-4.6-1.3c-4.1-1.2-6.6-4-6.7-8.3c-0.2-6.6-0.2-13.3-0.1-19.9c0-2.3,1.2-4,2.9-5.4c3.8-3.2,7.7-6.4,11.4-9.7
	c1.2-1.1,2.3-2.4,3.1-3.8c2.6-4.5,2.4-9.4,1.6-14.3c-1.1-6.3-3-12.4-5-18.4c-0.8-2.5-2.5-4.1-4.9-4.9c-6.7-2.2-13.5-2.3-20.2,0
	c-2.1,0.7-3.9,2-4.6,4.1c-2.5,7.2-4.8,14.5-5.7,22.2c-0.7,6.4,0.9,11.9,6.1,16.1c3.4,2.8,6.7,5.7,10.1,8.5c1.6,1.3,2.9,2.9,3.1,5.1
	c0.1,1.2,0.1,2.3,0.1,3.5c0,5.4-0.1,10.8-0.1,16.2c0,0.7-0.1,1.4-0.3,2c-0.9,3.6-2.7,6.3-6.5,7.1c-1.4,0.3-2.7,0.7-4,1.1
	c-0.9,0.3-2.3,0.4-2.3,1.7c0,1.2,1.3,1.3,2.2,1.6C351.6,179.5,355.6,179.6,361.1,179.8"/>
<path fill="#FFFFFF" d="M211.8,50.2c0.8,1.9,0.5,3.6-0.1,5.3c-0.8,2.5-1.8,4.9-2.6,7.4c-0.3,0.9-0.6,1.8-0.6,2.8
	c-0.1,1.5,0.9,2.2,2.3,1.6c0.9-0.4,1.7-1.1,2.3-1.8c3.1-3.7,6.2-7.4,9.3-11.2c0.7-0.9,1.4-1.8,2.3-2.8c0.1,0.5,0.1,0.7,0.1,0.8
	c0.5,3.2,0.8,6.5,1.5,9.7c1,4.6,4.4,6.9,8.9,6.2c1.6-0.3,3.2-1.2,4.8-1.8c3.3,2.9,7.2,3.7,11.4,1.8c4-1.8,7.5-4.2,10.6-7.2
	c0.7-0.7,1-1.8,1.1-2.8c0.1-0.6-0.2-1.5-0.7-1.9c-0.3-0.2-1.2,0.2-1.8,0.6c-3.1,2-6.1,4.1-9.3,5.9c-1.2,0.7-2.7,1-4.1,1.2
	c-0.7,0.1-1.7-0.4-2.1-0.9c-0.6-0.8,0.2-1.5,0.7-2c0.2-0.2,0.5-0.4,0.7-0.6c1.8-1.9,3.7-3.7,5.3-5.7c2.2-2.8,2.8-6.1,2.3-9.6
	c-0.4-2.7-2.5-4.6-5-4.3c-3.7,0.5-8.6,3-9.8,8.3c-0.5,2.4-0.5,4.9-0.8,7.4c-0.2,1.5-0.3,3.1-0.7,4.6c-0.6,1.9-2.5,2.9-4.7,2.6
	c-1.9-0.2-2.9-1.1-3-3.4c-0.2-4.6-0.2-9.2-0.2-13.7c0-1.1-0.1-2.1-1.2-2.7c-1-0.5-1.9,0-2.6,0.6c-1.9,1.6-3.7,3.2-5.5,4.8
	c-0.9,0.8-1.8,1.6-2.9,2.7c0.3-1.7,0.5-3.1,0.7-4.4c0.6-3.5,1.8-6.6,4.3-9.3c4.4-4.9,8.7-10,11.9-15.7c1.5-2.7,3-5.4,3.9-8.3
	c1.1-3.4-0.1-4.7-3.4-4.8c-1.3,0-2.7,0.5-3.9,1.2c-3.6,2-6.3,5-8.5,8.5c-3.1,4.8-5,10.2-6.3,15.7c-1.1,4.7-3,8.8-6.8,11.9
	c-2.9,2.4-5.6,5-8.4,7.5c-3.2,2.8-6.5,5.6-9.8,8.3c-0.8,0.7-1.9,1.5-3,0.8c-1.2-0.7-1-2.1-0.7-3.2c0.6-2.7,1.2-5.4,2-8.1
	c2.3-7.3,6.8-12.4,14.5-14.4c1.4-0.4,2.7-1.2,4.1-2c0.5-0.3,1-0.8,1.4-1.3c0.6-0.8,0.3-1.5-0.7-1.5c-0.6,0-1.3,0-1.9,0.2
	c-2.5,0.6-5.1,1.3-7.7,1.9c0.1-0.3,0.1-0.6,0.2-0.8c1-2.1,1.9-4.2,2.9-6.3c1-2.1,2-4.2,3-6.4c0.3-0.6,0.5-1.4-0.4-1.7
	c-1-0.4-3.2,0.4-3.7,1.4c-2.3,4-4.8,8-6.9,12.2c-1.7,3.5-4.2,5.7-7.6,7.2c-0.3,0.1-0.5,0.2-0.8,0.3c-0.2,0.2-0.5,0.4-0.6,0.7
	c-0.5,1.8,0,2.5,1.8,2.7c0.2,0,0.4,0.2,0.9,0.3c-0.7,1.3-1.3,2.5-2.1,3.6c-3.6,4.9-7.9,9.3-12.3,13.5c-0.7,0.7-0.7,1.1,0.1,1.7
	c0.8,0.6,1.8,0.9,2.7,0.3c1.2-0.7,2.3-1.4,3.4-2.2c1-0.7,2-1.6,3.2-2.5c0,1.2,0.1,2.1,0,3c-0.5,4.4,2.4,7,6.7,6.2
	c3-0.6,5.4-2.2,7.6-4.1C202.6,60,207.3,55.4,211.8,50.2"/>
<path fill="#FFFFFF" d="M456.7,116.5c0,1.7,0,1.6,1.3,1.9c0.6,0.1,1.2,0.3,1.8,0.5c2.4,1.1,3.4,2.9,2.6,5.4
	c-1.9,5.8-3.9,11.5-5.9,17.3c-0.6,1.8-1.4,3.5-2.1,5.5c-0.2-0.5-0.4-0.9-0.5-1.2c-2.3-6.2-4.5-12.3-6.7-18.5
	c-0.8-2.4-1.4-4.8-2.1-7.2c-0.2-0.8,0.2-1.2,0.9-1.4c1-0.3,2-0.5,3-0.7c0-0.6-0.1-1.1-0.1-1.7h-16.5v1.3c0.1-0.1,0.2-0.2,0.2-0.3
	c1.1,0.6,2.2,1,3.1,1.7c0.8,0.7,1.6,1.8,2,2.8c2.9,6.6,5.8,13.2,8.6,19.8c2.2,5.3,4.2,10.7,6.2,16c0.3,0.7,0.7,0.9,1.2,0.7
	c0.4-0.1,0.7-0.5,0.9-0.9c0.2-0.4,0.3-0.8,0.4-1.2c3.2-9.3,6.4-18.6,9.6-27.9c0.3-0.7,0.5-1.5,0.8-2.5c1,2.5,1.8,4.6,2.6,6.8
	c3.2,8.3,6.3,16.6,9.5,24.9c0.3,0.8,0.7,1.1,1.5,1.1c0.9,0,1.2-0.4,1.4-1.1c1.4-4.3,2.7-8.7,4.1-13c2.1-6.6,4.1-13.2,6.2-19.8
	c1-3.2,3.1-5.6,6.4-6.6c1.2-0.4,1.4-0.9,1.2-2h-14.3c0,1.4,0.1,1.3,1.2,1.9c0.5,0.2,0.9,0.5,1.3,0.9c1.5,1.4,1.5,3.2,1,5
	c-1.7,5.6-3.3,11.1-5.1,16.7c-0.6,2-1.4,3.8-2.2,6c-0.3-0.5-0.4-0.7-0.5-0.9c-1.9-4.3-3.8-8.6-5.5-13c-1.4-3.6-2.7-7.2-4-10.9
	c-0.6-1.7,0.1-2.8,1.8-3.5c0.8-0.3,1.7-0.5,2.6-0.7c0-0.2,0-0.4,0-0.6c0-0.3,0-0.5,0-0.8H456.7z"/>
<path fill="#FFFFFF" d="M691.5,238.2c3.1-3,6-5.8,8.8-8.7c1.7-1.7,2.9-3.8,2.9-6.4c-0.1-3.4-1.1-6.5-4.4-8.1
	c-3.1-1.5-6.1-0.7-8.7,1.5c-3.5,2.9-5.3,6.7-5.5,11.3c-0.1,2.1,0,4.2,0,6.2c0,1,0,2.1-1.2,2.6c-4.6,1.8-9.2,3.7-13.8,5.4
	c-2,0.7-4.3-0.7-4.5-2.9c-0.5-5.6,1.1-10.6,4.7-14.8c0.5-0.6,1.3-0.8,2.1-1.1c1.2-0.4,1.8,0,2,1.2c0.1,0.7,0.1,1.3,0.1,2
	c0.1,1.1,0.6,1.5,1.5,1.1c0.8-0.3,1.7-0.9,2-1.6c0.7-1.6,1.4-3.3,1.5-5c0.2-3.6-2.3-5.4-5.7-4.3c-3.5,1.1-6.6,3.1-8.9,6.1
	c-4,5.2-5,11.3-4.4,17.7c0.3,3.3,2.2,5.4,5.1,5.8c1.6,0.2,3.3,0.2,4.8-0.3c5-1.7,9.9-3.6,14.8-5.5c1-0.4,1.5-0.3,1.8,0.7
	c0.1,0.2,0.2,0.4,0.3,0.6c1.9,3.1,4.5,5,8.3,4.9c5.5-0.1,11.6-4.8,13.2-10.2c0.4-1.4,0.4-2.8-0.2-4.2c-0.6-1.3-1-1.4-2.3-1
	c-1.5,0.5-2,1.8-2.7,3c-1,1.7-2,3.6-3.3,5.1C697.8,241.8,692.2,241.4,691.5,238.2"/>
<path fill="#FFFFFF" d="M649.2,158.2c-0.1-2.7-0.4-5.4-0.4-8c0-6.3,0.1-12.6,0.3-18.9c0.1-3.2,0.3-6.5,0.8-9.7c0.4-3,1-3.3,3.9-3.6
	c0.1,0,0.1-0.1,0.2-0.2c0-0.4,0-0.7-0.1-1.2h-14c-0.3,1.2,0,1.7,1.3,1.7c2.7,0.1,3.8,1,4.1,3.3c0.1,0.9,0.2,1.9,0.2,2.9
	c0,6.6,0,13.1-0.1,19.7c0,0.9-0.1,1.8-0.2,2.4c-1-0.9-2.1-1.7-3-2.7c-4.8-4.9-9.5-9.8-14.2-14.8c-2.8-3-5.5-6.1-8.2-9.2
	c-1-1.1-1.5-2.9-2.7-3.4c-1.3-0.6-3.1-0.1-4.6-0.1c-2.2,0-4.4,0-6.5,0c-0.3,1.9-0.3,1.9,1.4,2.2c2.7,0.6,5,1.7,5.7,4.7
	c0.2,0.9,0.3,1.9,0.3,2.9c0,3.7,0.1,7.4,0.1,11.2c0,4.4,0.1,8.9,0,13.3c-0.1,3.2-1.8,5.4-4.2,6c-0.6,0.2-1.2,0.2-1.9,0.3v1.4h15.1
	c0.4-1.5,0.3-1.6-1.1-1.8c-2.5-0.4-3.7-1.5-4.2-4.1c-0.1-0.7-0.2-1.3-0.2-2c0-7.1,0-14.2,0-21.4c0-0.9,0-1.8,0-2.7
	c0.1-0.1,0.2-0.1,0.3-0.2c1.3,1.4,2.7,2.8,4,4.2c8.3,9,16.7,18,25,27C647.3,158.2,648.1,158.5,649.2,158.2"/>
<path fill="#FFFFFF" d="M159.9,156.6c-0.5-0.1-0.9-0.1-1.3-0.2c-2.5-0.4-3.9-1.8-4.2-4.1c-0.1-0.8-0.1-1.7-0.2-2.5
	c0-6-0.1-12.1-0.1-18.1c0-1.8,0-3.6,0-5.8c0.7,0.7,1.1,1,1.5,1.4c3.9,4.1,7.8,8.1,11.6,12.3c5.5,5.9,11,11.9,16.4,17.8
	c0.8,0.9,1.6,1,2.7,0.7c-0.1-1.8-0.3-3.5-0.3-5.2c0-7.6,0.1-15.2,0.3-22.8c0.1-3.2,0.5-6.4,0.9-9.6c0.2-1.8,1.3-2.5,3.1-2.6
	c0.2,0,0.5,0,0.7-0.1v-1.4h-13.8c-0.2,1.6-0.2,1.6,1.3,1.7c2.8,0.3,3.8,1.2,4.1,4c0.1,0.6,0.1,1.2,0.1,1.8c0,2.4,0,4.7,0,7.1
	c0,4.4,0,8.8,0,13.2c0,0.8,0,1.6,0,2.7c-0.5-0.5-0.7-0.6-0.9-0.9c-5.6-5.8-11.2-11.5-16.7-17.4c-2.8-2.9-5.4-6-8-9
	c-0.9-1.1-1.5-2.8-2.7-3.3c-1.2-0.6-2.9-0.1-4.4-0.1c-2.3,0-4.5,0-6.8,0v1.9c0.5,0.1,0.9,0.2,1.4,0.3c4.3,0.8,6,2.9,6,7.3
	c0,1.8,0.1,3.7,0.1,5.5c0,6,0.1,11.9,0.1,17.9c0,1.3-0.3,2.6-0.7,3.9c-0.7,2.2-2.2,3.4-4.5,3.7c-0.3,0-0.6,0.1-0.9,0.2v1.4
	c2.6,0,5.1,0,7.6,0c2.5,0,5.1,0,7.6,0V156.6z"/>
<path fill="#FFFFFF" d="M338.5,109.1c-2.9-0.2-5.9,0.1-8.6,1.4c-1,0.5-1.9,1.6-2.3,2.6c-1.7,4.6-3.1,9.2-3.7,14.1
	c-0.5,4.2,0.4,7.9,3.8,10.7c2.2,1.9,4.4,3.8,6.7,5.6c1.5,1.2,2.3,2.6,2.3,4.5c0,3.9,0.1,7.8,0,11.7c-0.1,3.7-1.7,5.6-5.3,6.6
	c-0.9,0.2-1.8,0.5-2.7,0.8c-0.3,0.1-0.7,0.5-0.7,0.7c0,0.2,0.3,0.6,0.6,0.7c0.5,0.3,1,0.5,1.6,0.6c3.9,0.9,7.9,0.9,11.9,0.4
	c1-0.1,2.1-0.3,3-0.7c0.5-0.2,1-0.7,1.5-1c-0.5-0.4-0.9-0.8-1.4-1c-0.9-0.3-1.8-0.5-2.7-0.8c-2.7-0.8-4.4-2.9-4.4-5.7
	c-0.1-3.8,0-7.5-0.1-11.3c-0.1-2.7,0.9-4.6,3.2-6.3c2.6-1.9,4.9-4.2,7.5-6.3c-1.6-1.4-2.9-2.7-4.3-3.9c-4.8-3.9-6.8-9.1-6.6-15.2
	C337.7,114.6,338.2,111.9,338.5,109.1"/>
<path fill="#FFFFFF" d="M271.5,148.9c-1.2-0.4-1.6-0.2-2,0.8c-0.8,2.4-2.5,4.1-4.8,5c-2.6,1.1-5.3,1.4-8.1,1.1c-4-0.4-5.7-2-6-5.9
	c-0.3-3.7,0-7.3,0.1-11c0-0.3,0.5-0.7,0.8-0.7c3-0.1,6.1-0.3,9.1-0.2c4,0,4.7,0.7,4.9,4.7c0.1,1.4,0.1,1.5,1.6,1.2v-12.6
	c-1.1-0.3-1.5,0-1.7,1.1c-0.6,2.5-1.3,3-3.9,3.2c-0.6,0.1-1.1,0.1-1.7,0.1c-3.1,0-6.1,0-9.2,0c0-5.1,0-10,0-14.8
	c0-1,0.7-1.1,1.3-1.1c3.5,0,6.9-0.2,10.4,0c3.3,0.2,4.7,1.7,5.1,5h1.7v-8.5h-29.9c-0.4,1.1,0.2,1.2,0.9,1.4c2.3,0.6,3,1.3,3,3.6
	c0.2,6.9,0.4,13.8,0.5,20.7c0,3.6-0.3,7.2-0.5,10.8c-0.2,2.8-0.8,3.7-3.3,4.2c-1.2,0.3-1.3,0.9-1.1,1.9c2.4-0.1,4.8-0.3,7.1-0.3
	c6.3,0,12.5,0,18.8,0.2c3.9,0.2,3.9,0.4,5.2-3.2c0.1-0.3,0.3-0.6,0.3-0.9C270.7,152.7,271.1,150.8,271.5,148.9"/>
<path fill="#FFFFFF" d="M734.2,148.8c-1.1-0.4-1.5,0.1-1.9,1c-0.8,2.2-2.3,3.8-4.4,4.8c-2.7,1.2-5.6,1.6-8.5,1.3
	c-3.8-0.4-5.6-2-5.9-5.5c-0.3-3.8,0-7.7,0-11.5c0-0.2,0.4-0.6,0.6-0.6c3.9,0,7.9-0.1,11.8,0c1.2,0,2,0.8,2.1,2.1
	c0.1,1.2,0.3,2.4,0.4,3.5h1.4v-12.6c-1.3-0.2-1.4-0.2-1.7,1.1c-0.4,1.6-1.1,2.9-3.1,3.1c-3.9,0.5-7.7,0.4-11.7,0.1V120
	c0.5-0.1,0.8-0.3,1.1-0.3c3.6,0,7.3-0.1,10.9,0c2.2,0.1,4,1.2,4.6,3.5c0.1,0.4,0.2,0.9,0.2,1.4h1.8v-8.5h-29.9
	c-0.3,0.9-0.1,1.3,0.7,1.4c2,0.3,3,1.4,3.1,3.4c0.1,1.3,0.1,2.6,0.2,3.8c0.7,9.5,0.6,19.1-0.3,28.6c-0.2,2-0.9,2.8-2.9,3.4
	c-0.4,0.1-0.9,0.2-1.4,0.4c0,0.5-0.1,1-0.1,1.4c6.5-0.1,12.8-0.3,19.2-0.3c3.3,0,6.5,0.3,9.8,0.4c0.3,0,0.9-0.1,1-0.4
	C732.9,155.4,734,152.3,734.2,148.8"/>
<path fill="#FFFFFF" d="M380.9,109.1c0.3,2.5,0.7,4.9,0.9,7.4c0.4,6.1-1.2,11.4-6,15.6c-2,1.8-4,3.6-6.2,5.5
	c0.3,0.3,0.6,0.5,0.9,0.7c2.1,1.8,4.2,3.6,6.3,5.3c1.2,1,2.1,2.2,2.1,3.8c0,4.5,0.1,8.9-0.1,13.4c-0.1,2.7-1.8,4.5-4.4,5.2
	c-0.8,0.2-1.7,0.4-2.5,0.7c-0.6,0.3-1.1,0.7-1.6,1.1c0.5,0.4,1,0.9,1.6,1c3.1,0.9,6.4,1.1,9.6,0.9c2.1-0.2,4.2-0.6,6.2-1
	c0.4-0.1,0.8-0.7,1.2-1c-0.4-0.3-0.7-0.7-1.2-0.9c-1.1-0.4-2.2-0.6-3.3-1c-2.4-0.8-4.1-2.8-4.1-5.4c-0.1-4-0.1-8.1-0.1-12.1
	c0-2.2,0.8-3.8,2.5-5.1c2.2-1.7,4.3-3.6,6.4-5.4c3.5-2.9,4.6-6.8,3.7-11.1c-0.9-4.6-2.2-9-3.5-13.5c-0.2-0.8-0.8-1.6-1.4-2.1
	C385.8,109.4,383.3,109.3,380.9,109.1"/>
<path fill="#FFFFFF" d="M5.4,118.4c0.6,0.1,1.1,0.2,1.6,0.3c2.2,0.5,2.8,1.1,3.1,3.2c0.1,0.7,0.2,1.4,0.2,2.1
	c0.4,9.2,0.6,18.4-0.2,27.7c-0.2,2.7-1,3.6-3.5,4.3c-0.2,0-0.4,0.1-0.5,0.2v1.4h15.2V156c-0.5-0.1-1-0.1-1.5-0.2
	c-2.6-0.5-3.2-1.2-3.2-3.9c0-1.8-0.2-3.5-0.2-5.3c0-2.4,0-4.8,0-7.3c3.4,0,6.6-0.1,9.8,0c1.4,0,2.4,1,2.9,2.3c0.2,0.6,0.4,1.3,0.6,2
	c0.5,0,1,0.1,1.5,0.1v-12.4c-0.5,0-0.9,0.1-1.2,0.1c-0.5,2.7-1.4,3.7-3.7,4.2c-0.5,0.1-1,0.2-1.5,0.2c-2.8,0-5.5,0-8.3,0
	c0-1.2,0-2.1,0-3c0-4,0-7.9,0-11.9c0-1,0.3-1.3,1.3-1.3c1.8,0,3.7-0.2,5.5-0.2c2.3,0,4.6,0,6.6,1.3c0.7,0.4,1.1,1.3,1.5,2
	c0.3,0.7,0.3,1.6,0.5,2.4c0.6,0,1-0.1,1.5-0.1c0.1-3,0.3-5.9,0.4-8.8H5.4V118.4z"/>
<path fill="#FFFFFF" d="M543.5,117.9c0.4,0.1,0.8,0.2,1.1,0.2c2.5,0.6,3.9,2.1,4.1,4.7c0.1,1.9,0.2,3.8,0.2,5.6c0,4.5,0,9-0.1,13.4
	c-0.1,3.7-0.2,7.4-0.5,11.1c-0.1,1.9-1.2,2.9-3.1,3.3c-0.5,0.1-1.1,0.2-1.6,0.3v1.5h15.9v-1.5c-0.7-0.1-1.3-0.2-1.8-0.4
	c-2-0.5-2.8-1.5-3.1-3.5c-0.1-0.5-0.1-1-0.1-1.6c0-8.2,0-16.5,0-24.7c0-1.8,0.2-3.6,0.5-5.4c0.3-2,1.2-2.7,3.2-2.7
	c0.4,0,0.8,0,1.3,0v-1.9h-16V117.9z"/>
<path fill="#FFFFFF" d="M80.6,117.9c0.4,0.1,0.7,0.1,1,0.2c2.1,0.4,4.3,2.3,4.2,4.8c-0.1,2.1,0.2,4.1,0.2,6.2c0,4.5,0,9.1-0.1,13.6
	c-0.1,3.2-0.2,6.4-0.4,9.6c-0.2,2.5-1.2,3.8-3.6,4c-1.3,0.1-1.4,0.7-1.1,1.7h15.7c0.4-1,0.5-1.7-0.9-1.7c-0.6,0-1.2-0.3-1.7-0.5
	c-1.3-0.5-2-1.5-2.1-2.8c-0.1-0.8-0.1-1.7-0.1-2.5c0-7.2-0.1-14.5-0.1-21.7c0-2.7,0.3-5.3,0.7-8c0.3-1.9,1.1-2.5,3.1-2.6
	c0.4,0,0.8,0,1.2,0v-1.9H80.8C80.7,116.9,80.7,117.4,80.6,117.9"/>
<path fill="#FFFFFF" d="M323.7,119.5c-2.6-0.5-5.1-0.3-7.5,0.9c-0.7,0.3-1.4,1.3-1.6,2.1c-0.9,2.9-1.8,5.9-2.3,8.9
	c-0.6,3.1,0.1,6,2.7,8.2c1.5,1.2,2.9,2.4,4.3,3.6c1.1,0.9,1.8,2,1.7,3.5c-0.1,2.1-0.1,4.2,0,6.4c0.1,3.7-0.7,5.8-4.8,6.5
	c-0.4,0.1-0.8,0.5-1.1,0.7c0.4,0.3,0.7,0.7,1.2,0.8c2.7,0.7,5.5,0.7,8.2,0.4c1.2-0.1,2.5-0.2,3.8-1.4c-1-0.4-1.9-0.7-2.7-0.9
	c-2.4-0.7-3.5-1.8-3.6-4.3c-0.1-2.9,0-5.7,0-8.6c0-1.3,0.6-2.2,1.7-3c1.4-1.1,2.6-2.2,4-3.3c-4.1-3.2-6-7.4-5-13.5
	C322.8,124,323.3,121.8,323.7,119.5"/>
<path fill="#FFFFFF" d="M400.6,159.9c-0.8-0.3-1.6-0.6-2.3-0.8c-2.9-0.8-3.8-2.1-3.8-5c0-2.4,0.1-4.9,0-7.3
	c-0.1-1.7,0.6-2.8,1.8-3.8c1.6-1.3,3.2-2.7,4.7-4c1.6-1.4,2.3-3.2,2.3-5.3c0-4.2-1.4-8-2.7-11.9c-0.2-0.4-0.6-0.9-1-1.1
	c-2-1.2-4.2-1.4-6.4-1.3c0.5,2.6,1.1,5,1.4,7.5c0.5,3.8,0,7.5-2.6,10.6c-0.9,1.1-1.9,2.2-3,3.3c0.8,0.6,1.8,1.5,2.8,2.3
	c1.3,0.9,1.8,2.1,1.8,3.7c0,2.4,0,4.8,0,7.2c0,0.3,0,0.6-0.1,0.8c-0.3,2.7-1.2,3.7-3.8,4.4c-0.8,0.2-1.5,0.6-2.5,0.9
	C389.6,162,398.7,162,400.6,159.9"/>
<path fill="#FFFFFF" d="M597.7,205c0-1.8-1.4-3.2-3.3-3.2c-1.8,0-3.3,1.4-3.3,3.2c0,1.8,1.5,3.3,3.3,3.3
	C596.3,208.2,597.7,206.8,597.7,205"/>
<path d="M477.6,223.9c1.6-1.9,3.2-3.8,4.8-5.6c1.1-1.3,2.3-2.5,3.4-3.7c1.2-1.2,2-1.4,2.8-0.8c0.8,0.6,0.9,1.7,0.1,3
	c-1.9,3.2-3.9,6.3-5.9,9.4c-1.1,1.8-1.2,2.3,0.2,3.9c1,1.2,2.3,2.2,3.6,3.2c1.8,1.4,3.6,2.7,5.6,4.1c0.4-0.7,0.7-1.3,0.9-1.9
	c3.5-7.9,7-15.8,10.7-23.7c0.4-0.9,1.3-1.6,2.1-2.2c0.7-0.5,1.3-0.1,1.2,0.7c-0.2,1.4-0.6,2.9-1,4.3c-0.1,0.2-0.1,0.5-0.2,0.9
	c0.5-0.2,0.9-0.4,1.3-0.6c2.4-1.3,4.8-2.6,7.6-3.1c5.2-0.9,10.2,3.2,9.8,8.2c-0.2,1.6-0.8,3.2-1.6,4.7c-3.5,6.8-8.7,11.9-15.2,15.8
	c-0.7,0.4-1.3,1.1-2,1.6c0.1,0.2,0.1,0.4,0.2,0.6c1.3,0,2.6,0.2,3.8,0c4.8-1.1,9.6-2.4,14.3-3.7c3.6-1,4.9-3.3,4.5-7
	c-0.5-4.4,0-8.6,3.1-12c2.4-2.7,5.5-4.2,9.3-3.7c2.9,0.3,3.9,1.6,4.3,4.7c0.4,3.3-0.5,6.2-2.7,8.6c-1.7,1.8-3.4,3.6-5.2,5.3
	c-0.8,0.8-1.6,1.6-2.3,2.4c-0.8,0.9-0.8,1.9-0.2,3c1.4,2.4,4,3.7,7.1,1.5c7.3-5.3,12.6-12.2,16.9-19.9c0.5-0.9,0.7-1.8,0.4-2.9
	c-0.5-2.3,1.3-5.6,3.3-6.7c1-0.5,1.7-0.3,2,0.9c0.5,1.4,0.8,2.7,1.2,4.1c0.1,0.3,0.2,0.5,0.4,0.8c1.8-0.6,3.5-1.3,5.2-1.9
	c1.7-0.5,3.3-1.1,5-1.5c0.9-0.2,2-0.5,2.7,0.7c0.5,1,0.3,2.1-0.6,3c-2,2-4.3,3.9-6.1,6.1c-3.1,3.7-4.9,8.2-6.1,12.9
	c-0.4,1.5,0.1,2.2,1.7,2.4c2.1,0.2,4.1-0.1,5.7-1.7c3.2-3.2,6.5-6.3,9.5-9.8c1.6-1.8,2.6-4.2,3.8-6.3c1-1.8,1.9-3.8,3-5.6
	c0.9-1.5,1.6-1.4,2.7-0.1c1.2,1.5,1,3.1,0.6,4.6c-0.9,3.3-1.9,6.5-2.9,9.7c-0.6,2.2-1.2,4.4-0.9,6.7c0.3,2,1.4,2.9,3.5,2.7
	c2.1-0.2,3.8-1.1,5.3-2.5c1.8-1.5,1.7-3.5,2-5.4c0.9-4.8,1.7-9.7,3.9-14.2c1.1-2.3,2.6-4.2,4.9-5.4c1.6-0.8,2.6-0.6,3.9,0.6
	c3.3,3.4,4,9.6,1.6,14.4c-1.3,2.6-3.3,4.8-5.5,6.8c-1,0.9-2,1.8-3,2.7c-0.3,0.3-0.7,0.7-0.8,1c-0.1,0.8-0.4,1.7-0.1,2.3
	c0.5,0.9,2.2,1.2,3.1,0.7c2.7-1.2,4.6-3.3,6.5-5.6c4.9-6.1,9.9-12.2,14.9-18.2c1.9-2.3,4.2-1.9,5,1c0.5,1.8,0.3,3.7,0.4,5.6
	c0,0.3,0,0.5,0,1.1c0.7-0.9,1.2-1.6,1.8-2.3c1.1-1.4,2.2-2.9,3.4-4.1c1.9-2,4.3-2.7,7-1.8c2.7,0.9,4.7,2.7,5,5.5
	c0.5,3.9,0.5,7.9,0.6,11.9c0,1.6-0.3,3.2-0.5,4.8c-0.2,1.5,0.3,1.9,1.7,1.4c0.8-0.2,1.6-0.5,2.4-0.8c0.1,0.1,0.2,0.2,0.3,0.2
	c-0.3,0.6-0.5,1.3-0.9,1.8c-1.2,1.6-2.9,2.6-4.8,3.2c-1.6,0.5-3.2-0.6-3.1-2.3c0.1-2.1,0.5-4.2,0.8-6.3c0.5-3.5,0.7-7.1-0.3-10.6
	c-0.5-1.9-1.4-3.7-3.6-4.1c-2-0.3-3.3,1.1-4.4,2.6c-3.4,4.7-6,9.8-8.2,15.1c-0.9,2.1-2.2,4-3.4,6c-0.2,0.4-0.6,0.6-0.9,0.9
	c-0.8,0.7-1.4,0.4-1.5-0.5c-0.1-1.6-0.3-3.2,0.1-4.7c1-3.8,2.5-7.5,3.5-11.3c0.6-2.2,0.7-4.6,1.1-6.9c-0.2-0.1-0.3-0.1-0.5-0.2
	c-0.4,0.4-0.8,0.8-1.2,1.2c-6.2,6.8-12.4,13.6-18.7,20.3c-3.2,3.4-5.5,3.3-8.6-0.2c-1.5-1.6-3.5-1.9-5.5-1c-1.7,0.7-3.5,1.2-5.3,1.6
	c-2.3,0.4-4.1-0.5-5.2-2.6c-0.8-1.5-1.3-3.1-1.9-4.8c-1.1,0.9-2.3,1.9-3.5,2.9c-4,3.2-8.4,5.4-13.5,6.2c-4.4,0.7-5.9-1.9-6.2-5.2
	c-0.3-3.8,0.9-7.3,2.7-10.6c1.4-2.6,2.9-5.2,4.3-7.8c-1.8-0.8-3.8-0.5-5.3,1c-1,1-1.8,2.3-2.6,3.4c-2.7,3.9-5.2,8-8,11.8
	c-3,4-7.2,6.5-12,7.8c-3,0.8-5.5-0.2-7.5-2.5c-0.6-0.6-1-1.3-1.5-2c-1.2-1.7-2.2-2-4.3-1.4c-3.9,1.1-7.8,2.4-11.8,3.3
	c-5.2,1.1-10.5,1.2-15.7,0.5c-2.1-0.3-3.1,0.4-3.7,2.7c-2.4,9.3-4.7,18.6-7.1,27.9c-0.6,2.3-1.2,4.6-1.9,6.9
	c-0.4,1.3-1.2,2.4-1.9,3.6c-0.7,1.1-2.3,1.8-3.2,1.5c-1.2-0.5-1.8-1.5-1.9-2.8c-0.4-4.1,0.5-7.9,1.6-11.8c2.5-8.9,5-17.8,7.5-26.7
	c1-3.4,0.5-4.4-2.5-6.4c-1.9-1.3-3.8-2.7-5.6-4.1c-2.5-1.9-4-1.7-5.6,1.1c-1.9,3.2-3.7,6.3-5.6,9.5c-0.4,0.6-0.9,1.2-1.5,1.7
	c-0.7,0.7-1.4,0.6-2-0.2c-1-1.4-1.3-2.8-0.4-4.4c2.2-3.8,4.3-7.6,6.6-11.3c1.8-2.8,1.7-3.6-0.6-6c-1.5-1.5-2.8-3-4.3-4.7
	c-0.3,0.9-0.5,1.7-0.8,2.5c-1.9,4.6-4,9-7.7,12.4c-2.8,2.5-5.9,4.3-9.8,3.7c-2.6-0.4-4.8-1.7-6.7-3.5c-0.8-0.8-1.4-0.9-2.2,0
	c-2,2-4.2,3.9-7.1,4.4c-3,0.5-5.7,0-8.1-2c-0.5-0.4-0.6-1.2-0.9-1.8c0.7-0.3,1.4-0.6,2.1-0.7c0.5-0.1,1,0.2,1.5,0.4
	c4.3,1.7,9.3-0.6,10.7-5c0.1-0.3,0-0.8-0.2-1.1c-2.6-5.6-3.1-11.3-0.5-17.1c1.6-3.4,4.3-4.6,7-2.9c2.3,1.5,3.4,3.7,3.4,6.5
	c-0.1,4.4-1.1,8.5-3.1,12.4c-0.9,1.8-0.7,1.8,0.7,3.2c2.2,2.3,4.7,2.6,7.5,1.2c5.3-2.6,8.2-7,9.4-12.7c0.4-1.9,0.3-3.8-0.4-5.7
	c0-0.1-0.1-0.2-0.1-0.3c-0.1-0.9-0.5-1.9,0.5-2.6c1-0.7,2-0.2,2.7,0.4c2.1,1.7,4.2,3.5,6.2,5.3C473.6,220.2,475.5,222,477.6,223.9
	 M498.5,239c0.1,0.1,0.2,0.3,0.4,0.4c1.7-0.2,3.6,0.1,5.1-0.7c7.3-3.6,12.1-9.6,15-17.2c1.2-3.1-0.3-5.1-3.6-5.2
	c-5.1-0.2-10.5,3.2-12.4,8c-1.3,3.2-2.5,6.4-3.5,9.6C498.9,235.6,498.8,237.3,498.5,239 M532.7,231.8c3.6-0.2,8.4-4.4,8.8-7.8
	c0.2-1.4,0.3-3.1-1.1-3.9c-1.4-0.8-2.8-0.1-4,0.8C532.7,223.6,531.9,227.4,532.7,231.8 M603.4,233.2c3.9-3.1,6.9-6.4,8.2-10.9
	c0.4-1.4,0.2-2.8-0.6-4.1c-0.6-1-1.3-1.3-2.2-0.5c-0.8,0.6-1.5,1.5-2,2.3C604.6,224,604,228.4,603.4,233.2 M491.7,251.3
	c-0.1,0-0.2-0.1-0.3-0.1c-0.2,0.4-0.4,0.7-0.5,1.1c-2.3,7.4-4.7,14.8-6.9,22.2c-0.6,1.9-0.8,3.8-1.1,5.7c-0.1,0.4,0.4,0.8,0.6,1.3
	c0.4-0.3,0.9-0.5,1.2-0.8c0.3-0.4,0.4-0.9,0.5-1.3c1.8-7.1,3.5-14.1,5.2-21.2C491,256,491.3,253.6,491.7,251.3 M441.7,227.6
	c0.8-1.7,1.5-3.3,2.1-4.8c0.8-2.1,0.9-4.2,0.2-6.3c-0.3-1-0.7-2.2-1.9-2.3c-1.2-0.1-2,1-2.3,2c-0.4,1.5-0.8,3-0.7,4.5
	C439.1,223.1,439.9,225.4,441.7,227.6"/>
<path d="M361.1,179.8c-5.4-0.2-9.4-0.3-13.3-1.5c-0.9-0.3-2.2-0.5-2.2-1.6c0-1.3,1.3-1.4,2.3-1.7c1.3-0.4,2.7-0.8,4-1.1
	c3.9-0.8,5.7-3.6,6.5-7.1c0.2-0.7,0.2-1.3,0.3-2c0.1-5.4,0.1-10.8,0.1-16.2c0-1.2,0-2.3-0.1-3.5c-0.2-2.2-1.5-3.7-3.1-5.1
	c-3.4-2.8-6.7-5.7-10.1-8.5c-5.2-4.2-6.8-9.7-6.1-16.1c0.8-7.7,3.2-14.9,5.7-22.2c0.7-2.1,2.5-3.4,4.6-4.1c6.7-2.2,13.5-2.2,20.2,0
	c2.4,0.8,4.1,2.4,4.9,4.9c2,6.1,3.9,12.1,5,18.4c0.8,4.9,1,9.8-1.6,14.3c-0.8,1.4-1.9,2.7-3.1,3.8c-3.7,3.3-7.6,6.5-11.4,9.7
	c-1.7,1.4-2.9,3.2-2.9,5.4c0,6.6-0.1,13.3,0.1,19.9c0.1,4.3,2.6,7.1,6.7,8.3c1.5,0.4,3.1,0.9,4.6,1.3c0.3,0.1,0.7,0.2,1,0.4
	c1.1,0.7,1.1,1.5,0,2.1c-1,0.5-2.1,0.9-3.1,1.1C366.6,179.2,363.1,179.5,361.1,179.8"/>
<path d="M211.8,50.2c-4.4,5.2-9.2,9.7-14.1,14.1c-2.2,1.9-4.6,3.5-7.6,4.1c-4.4,0.9-7.2-1.7-6.7-6.2c0.1-0.9,0-1.8,0-3
	c-1.2,0.9-2.2,1.8-3.2,2.5c-1.1,0.8-2.2,1.5-3.4,2.2c-0.9,0.5-1.9,0.2-2.7-0.3c-0.8-0.6-0.8-1-0.1-1.7c4.4-4.2,8.7-8.6,12.3-13.5
	c0.8-1.1,1.4-2.4,2.1-3.6c-0.4-0.2-0.7-0.3-0.9-0.3c-1.8-0.3-2.2-1-1.8-2.7c0.1-0.3,0.3-0.5,0.6-0.7c0.2-0.2,0.5-0.2,0.8-0.3
	c3.4-1.5,5.9-3.7,7.6-7.2c2-4.2,4.5-8.1,6.9-12.2c0.6-1,2.7-1.8,3.7-1.4c0.9,0.3,0.7,1.1,0.4,1.7c-1,2.1-2,4.3-3,6.4
	c-1,2.1-1.9,4.2-2.9,6.3c-0.1,0.2-0.1,0.5-0.2,0.8c2.6-0.7,5.2-1.3,7.7-1.9c0.6-0.1,1.3-0.2,1.9-0.2c1,0,1.3,0.7,0.7,1.5
	c-0.4,0.5-0.8,1-1.4,1.3c-1.3,0.7-2.6,1.6-4.1,2c-7.6,2-12.2,7.1-14.5,14.4c-0.8,2.6-1.4,5.4-2,8.1c-0.2,1.1-0.4,2.5,0.7,3.2
	c1.1,0.7,2.2-0.1,3-0.8c3.3-2.7,6.5-5.5,9.8-8.3c2.8-2.5,5.6-5.1,8.4-7.5c3.7-3.2,5.7-7.3,6.8-11.9c1.3-5.5,3.1-10.9,6.3-15.7
	c2.2-3.4,4.9-6.4,8.5-8.5c1.2-0.7,2.6-1.2,3.9-1.2c3.2,0.1,4.4,1.4,3.4,4.8c-0.9,2.9-2.4,5.6-3.9,8.3c-3.3,5.8-7.5,10.8-11.9,15.7
	c-2.4,2.7-3.7,5.8-4.3,9.3c-0.2,1.3-0.4,2.7-0.7,4.4c1.1-1,2-1.9,2.9-2.7c1.8-1.6,3.7-3.2,5.5-4.8c0.7-0.6,1.6-1.1,2.6-0.6
	c1.1,0.6,1.2,1.6,1.2,2.7c0,4.6,0,9.2,0.2,13.7c0.1,2.3,1.1,3.2,3,3.4c2.2,0.3,4.2-0.7,4.7-2.6c0.4-1.5,0.5-3,0.7-4.6
	c0.3-2.5,0.3-5,0.8-7.4c1.1-5.3,6.1-7.9,9.8-8.3c2.5-0.3,4.7,1.6,5,4.3c0.5,3.5-0.1,6.8-2.3,9.6c-1.6,2-3.5,3.8-5.3,5.7
	c-0.2,0.2-0.5,0.4-0.7,0.6c-0.6,0.6-1.3,1.3-0.7,2c0.4,0.5,1.4,1,2.1,0.9c1.4-0.2,2.9-0.5,4.1-1.2c3.2-1.9,6.2-4,9.3-5.9
	c0.5-0.3,1.5-0.8,1.8-0.6c0.4,0.4,0.8,1.3,0.7,1.9c-0.2,1-0.5,2.1-1.1,2.8c-3.1,3-6.6,5.5-10.6,7.2c-4.3,1.9-8.1,1-11.4-1.8
	c-1.6,0.6-3.1,1.6-4.8,1.8c-4.5,0.7-7.9-1.6-8.9-6.2c-0.7-3.2-1-6.5-1.5-9.7c0-0.2-0.1-0.4-0.1-0.8c-0.9,1.1-1.6,2-2.3,2.8
	c-3.1,3.7-6.1,7.5-9.3,11.2c-0.6,0.7-1.4,1.4-2.3,1.8c-1.4,0.6-2.4-0.1-2.3-1.6c0.1-0.9,0.3-1.9,0.6-2.8c0.8-2.5,1.8-4.9,2.6-7.4
	C212.2,53.9,212.6,52.1,211.8,50.2 M222.1,31.7c0.2,0.2,0.3,0.3,0.5,0.5c0.2-0.4,0.4-0.8,0.6-1.1c3.2-4,6.5-8,9.8-11.9
	c1.2-1.5,1.9-3.1,2.2-4.9c0.2-1.1-0.2-1.5-1.3-1.3c-2.1,0.3-3.5,1.5-4.8,3.1C225.2,20.5,223.7,26.1,222.1,31.7 M243.1,56.6
	c0.3-0.2,0.5-0.3,0.6-0.5c1.9-2.4,4-4.8,5.8-7.3c0.7-0.9,0.8-2.3,0.9-3.5c0.1-1.1-0.8-1.8-1.8-1.3c-1.2,0.5-2.4,1.2-3.3,2.1
	C242.6,49.1,242.6,52.7,243.1,56.6"/>
<path d="M456.7,116.5h18.1c0,0.2,0,0.5,0,0.8c0,0.2,0,0.4,0,0.6c-0.9,0.2-1.8,0.4-2.6,0.7c-1.7,0.6-2.4,1.7-1.8,3.5
	c1.2,3.7,2.5,7.3,4,10.9c1.8,4.4,3.7,8.7,5.5,13c0.1,0.2,0.3,0.5,0.5,0.9c0.8-2.2,1.6-4.1,2.2-6c1.7-5.5,3.4-11.1,5.1-16.7
	c0.5-1.8,0.6-3.6-1-5c-0.4-0.3-0.8-0.7-1.3-0.9c-1.1-0.5-1.2-0.5-1.2-1.9h14.3c0.2,1.1-0.1,1.6-1.2,2c-3.3,1-5.4,3.4-6.4,6.6
	c-2.2,6.6-4.2,13.2-6.2,19.8c-1.4,4.3-2.7,8.6-4.1,13c-0.2,0.7-0.5,1.1-1.4,1.1c-0.9,0-1.2-0.3-1.5-1.1c-3.1-8.3-6.3-16.6-9.5-24.9
	c-0.8-2.2-1.7-4.3-2.6-6.8c-0.3,1-0.6,1.7-0.8,2.5c-3.2,9.3-6.4,18.6-9.6,27.9c-0.1,0.4-0.2,0.9-0.4,1.2c-0.2,0.3-0.5,0.7-0.9,0.9
	c-0.6,0.2-1-0.1-1.2-0.7c-2-5.4-4-10.7-6.2-16c-2.8-6.7-5.7-13.3-8.6-19.8c-0.5-1-1.2-2-2-2.8c-0.9-0.8-2.1-1.2-3.1-1.7
	c-0.1,0.1-0.2,0.2-0.2,0.3v-1.3h16.5c0,0.7,0.1,1.2,0.1,1.7c-1,0.3-2,0.5-3,0.7c-0.7,0.2-1.1,0.6-0.9,1.4c0.7,2.4,1.2,4.9,2.1,7.2
	c2.2,6.2,4.5,12.4,6.7,18.5c0.1,0.3,0.3,0.6,0.5,1.2c0.8-2,1.5-3.7,2.1-5.5c2-5.8,4-11.5,5.9-17.3c0.8-2.5-0.2-4.3-2.6-5.4
	c-0.6-0.3-1.2-0.4-1.8-0.5C456.7,118.1,456.7,118.2,456.7,116.5"/>
<path d="M691.5,238.2c0.7,3.2,6.3,3.5,8.3,1.1c1.3-1.5,2.2-3.4,3.3-5.1c0.7-1.2,1.2-2.5,2.7-3c1.3-0.4,1.7-0.3,2.3,1
	c0.6,1.4,0.7,2.8,0.2,4.2c-1.7,5.4-7.8,10.1-13.2,10.2c-3.8,0.1-6.4-1.8-8.3-4.9c-0.1-0.2-0.2-0.4-0.3-0.6c-0.4-0.9-0.8-1-1.8-0.7
	c-4.9,1.9-9.8,3.8-14.8,5.5c-1.5,0.5-3.3,0.5-4.8,0.3c-2.9-0.4-4.8-2.5-5.1-5.8c-0.5-6.4,0.5-12.4,4.4-17.7c2.3-3,5.3-4.9,8.9-6.1
	c3.4-1.1,5.9,0.7,5.7,4.3c-0.1,1.7-0.8,3.4-1.5,5c-0.3,0.7-1.2,1.3-2,1.6c-1,0.4-1.5,0-1.5-1.1c0-0.7,0-1.4-0.1-2
	c-0.3-1.2-0.8-1.5-2-1.2c-0.7,0.2-1.6,0.5-2.1,1.1c-3.6,4.3-5.2,9.3-4.7,14.8c0.2,2.2,2.5,3.6,4.5,2.9c4.6-1.7,9.2-3.5,13.8-5.4
	c1.1-0.4,1.1-1.6,1.2-2.6c0.1-2.1,0-4.2,0-6.2c0.2-4.6,2-8.3,5.5-11.3c2.6-2.2,5.5-3,8.7-1.5c3.3,1.6,4.3,4.7,4.4,8.1
	c0.1,2.6-1.2,4.6-2.9,6.4C697.4,232.5,694.5,235.2,691.5,238.2 M689.1,232.9c2.7-1.2,5.2-2.7,6.9-5.1c1.1-1.5,1.9-3.2,1.9-5.2
	c-0.1-2.5-1.5-3.5-3.8-2.4C689.7,222.1,687.2,228.4,689.1,232.9"/>
<path d="M649.2,158.2c-1.1,0.3-1.9,0-2.8-0.9c-8.3-9-16.6-18-25-27c-1.3-1.4-2.7-2.8-4-4.2c-0.1,0.1-0.2,0.1-0.3,0.2
	c0,0.9,0,1.8,0,2.7c0,7.1,0,14.2,0,21.4c0,0.7,0.1,1.4,0.2,2c0.5,2.5,1.6,3.7,4.2,4.1c1.4,0.2,1.5,0.4,1.1,1.8h-15.1v-1.4
	c0.6-0.1,1.3-0.2,1.9-0.3c2.5-0.7,4.1-2.8,4.2-6c0.1-4.4,0-8.9,0-13.3c0-3.7,0-7.4-0.1-11.2c0-1-0.1-1.9-0.3-2.9
	c-0.6-3.1-3-4.1-5.7-4.7c-1.6-0.4-1.6-0.3-1.4-2.2c2.2,0,4.3,0,6.5,0c1.6,0,3.3-0.5,4.6,0.1c1.2,0.6,1.7,2.3,2.7,3.4
	c2.7,3.1,5.4,6.2,8.2,9.2c4.7,5,9.4,9.9,14.2,14.8c0.9,1,2,1.8,3,2.7c0-0.7,0.2-1.6,0.2-2.4c0-6.6,0.1-13.1,0.1-19.7
	c0-1-0.1-1.9-0.2-2.9c-0.4-2.3-1.4-3.1-4.1-3.3c-1.2-0.1-1.6-0.5-1.3-1.7h14c0,0.5,0,0.9,0.1,1.2c-0.1,0.1-0.2,0.2-0.2,0.2
	c-2.9,0.3-3.5,0.7-3.9,3.6c-0.4,3.2-0.7,6.4-0.8,9.7c-0.2,6.3-0.3,12.6-0.3,18.9C648.9,152.8,649.1,155.5,649.2,158.2"/>
<path d="M159.9,156.6v1.7c-2.5,0-5.1,0-7.6,0c-2.5,0-5,0-7.6,0v-1.4c0.3-0.1,0.6-0.1,0.9-0.2c2.3-0.2,3.9-1.5,4.5-3.7
	c0.4-1.2,0.7-2.6,0.7-3.9c0-6,0-11.9-0.1-17.9c0-1.8-0.1-3.7-0.1-5.5c0-4.4-1.7-6.4-6-7.3c-0.4-0.1-0.9-0.2-1.4-0.3v-1.9
	c2.3,0,4.5,0,6.8,0c1.5,0,3.2-0.4,4.4,0.1c1.2,0.6,1.7,2.2,2.7,3.3c2.6,3,5.3,6.1,8,9c5.5,5.8,11.1,11.6,16.7,17.4
	c0.2,0.2,0.4,0.4,0.9,0.9c0-1.1,0-1.9,0-2.7c0-4.4,0-8.8,0-13.2c0-2.4,0-4.7,0-7.1c0-0.6,0-1.2-0.1-1.8c-0.4-2.8-1.3-3.7-4.1-4
	c-1.4-0.1-1.4-0.1-1.3-1.7h13.8v1.4c-0.2,0-0.5,0.1-0.7,0.1c-1.8,0.1-2.8,0.8-3.1,2.6c-0.4,3.2-0.8,6.4-0.9,9.6
	c-0.2,7.6-0.2,15.2-0.3,22.8c0,1.7,0.2,3.4,0.3,5.2c-1.1,0.2-1.9,0.2-2.7-0.7c-5.4-6-10.9-11.9-16.4-17.8
	c-3.8-4.1-7.7-8.2-11.6-12.3c-0.4-0.4-0.8-0.8-1.5-1.4c0,2.2,0,4,0,5.8c0,6,0,12.1,0.1,18.1c0,0.8,0.1,1.7,0.2,2.5
	c0.3,2.3,1.7,3.7,4.2,4.1C159,156.5,159.4,156.5,159.9,156.6"/>
<path d="M338.5,109.1c-0.3,2.8-0.8,5.5-0.9,8.2c-0.2,6.1,1.8,11.3,6.6,15.2c1.4,1.2,2.8,2.5,4.3,3.9c-2.5,2.2-4.9,4.4-7.5,6.3
	c-2.2,1.6-3.3,3.6-3.2,6.3c0.1,3.8,0.1,7.5,0.1,11.3c0.1,2.8,1.8,4.9,4.4,5.7c0.9,0.3,1.9,0.4,2.8,0.8c0.5,0.2,1,0.7,1.4,1
	c-0.5,0.4-0.9,0.9-1.5,1c-1,0.3-2,0.5-3,0.7c-4,0.5-8,0.4-11.9-0.4c-0.5-0.1-1.1-0.3-1.6-0.6c-0.3-0.1-0.6-0.5-0.6-0.7
	c0-0.3,0.4-0.6,0.7-0.7c0.9-0.3,1.8-0.6,2.7-0.8c3.6-1,5.2-2.9,5.3-6.6c0.1-3.9,0-7.8,0-11.7c0-1.9-0.8-3.3-2.3-4.5
	c-2.3-1.8-4.5-3.8-6.7-5.6c-3.4-2.8-4.3-6.5-3.8-10.7c0.6-4.9,2-9.5,3.7-14.1c0.4-1,1.3-2.1,2.3-2.6
	C332.6,109.1,335.6,108.9,338.5,109.1"/>
<path d="M271.5,148.9c-0.4,1.9-0.9,3.8-1.3,5.7c-0.1,0.3-0.2,0.6-0.3,0.9c-1.3,3.6-1.3,3.4-5.2,3.2c-6.3-0.3-12.5-0.2-18.8-0.2
	c-2.3,0-4.7,0.2-7.1,0.3c-0.2-1-0.1-1.6,1.1-1.9c2.5-0.5,3.2-1.4,3.3-4.2c0.2-3.6,0.5-7.2,0.5-10.8c0-6.9-0.3-13.8-0.5-20.7
	c-0.1-2.3-0.7-3-3-3.6c-0.7-0.2-1.3-0.3-0.9-1.4h29.9v8.5h-1.7c-0.4-3.3-1.8-4.8-5.1-5c-3.5-0.2-6.9,0-10.4,0
	c-0.7,0-1.3,0.1-1.3,1.1c0,4.8,0,9.7,0,14.8c3.1,0,6.2,0,9.2,0c0.6,0,1.1-0.1,1.7-0.1c2.6-0.2,3.3-0.8,3.9-3.2
	c0.2-1,0.6-1.4,1.7-1.1v12.6c-1.4,0.3-1.5,0.2-1.6-1.2c-0.2-4-0.9-4.7-4.9-4.7c-3,0-6.1,0.1-9.1,0.2c-0.3,0-0.8,0.5-0.8,0.7
	c-0.1,3.7-0.3,7.4-0.1,11c0.3,3.9,2.1,5.6,6,5.9c2.8,0.3,5.5-0.1,8.1-1.1c2.3-1,4-2.6,4.8-5C269.9,148.7,270.4,148.5,271.5,148.9"/>
<path d="M734.2,148.8c-0.2,3.4-1.3,6.6-2.7,9.6c-0.1,0.2-0.7,0.4-1,0.4c-3.3-0.1-6.5-0.4-9.8-0.4c-6.4,0-12.7,0.2-19.2,0.3
	c0-0.3,0.1-0.8,0.1-1.4c0.5-0.1,0.9-0.3,1.4-0.4c2-0.5,2.8-1.3,2.9-3.4c0.8-9.5,1-19.1,0.3-28.6c-0.1-1.3-0.1-2.6-0.2-3.8
	c-0.1-2-1.2-3.2-3.1-3.4c-0.8-0.1-1-0.5-0.7-1.4h29.9v8.5h-1.8c-0.1-0.5-0.1-1-0.2-1.4c-0.6-2.4-2.3-3.4-4.6-3.5
	c-3.6-0.1-7.3,0-10.9,0c-0.3,0-0.6,0.1-1.1,0.3v15.4c3.9,0.3,7.8,0.4,11.7-0.1c2-0.2,2.6-1.5,3.1-3.1c0.3-1.2,0.3-1.2,1.7-1.1v12.6
	h-1.4c-0.1-1.2-0.3-2.4-0.4-3.5c-0.1-1.3-1-2-2.1-2.1c-3.9-0.1-7.9-0.1-11.8,0c-0.2,0-0.6,0.4-0.6,0.6c-0.1,3.8-0.3,7.7,0,11.5
	c0.2,3.4,2.1,5,5.9,5.5c2.9,0.3,5.8,0,8.5-1.3c2.2-1,3.7-2.5,4.4-4.8C732.7,148.9,733.1,148.4,734.2,148.8"/>
<path d="M380.9,109.1c2.5,0.2,5,0.4,7,2c0.6,0.5,1.2,1.3,1.4,2.1c1.2,4.5,2.6,8.9,3.5,13.5c0.8,4.3-0.2,8.2-3.7,11.1
	c-2.2,1.8-4.2,3.7-6.4,5.4c-1.7,1.3-2.6,3-2.5,5.1c0.1,4,0,8.1,0.1,12.1c0.1,2.6,1.7,4.6,4.1,5.4c1.1,0.3,2.2,0.6,3.3,1
	c0.4,0.2,0.8,0.6,1.2,0.9c-0.4,0.3-0.7,0.9-1.2,1c-2.1,0.4-4.1,0.8-6.2,1c-3.2,0.3-6.5,0-9.6-0.9c-0.6-0.2-1.1-0.7-1.6-1
	c0.5-0.4,1-0.9,1.6-1.1c0.8-0.3,1.7-0.5,2.5-0.7c2.6-0.7,4.3-2.5,4.4-5.2c0.2-4.5,0.1-8.9,0.1-13.4c0-1.6-0.9-2.8-2.1-3.8
	c-2.1-1.7-4.2-3.5-6.3-5.3c-0.3-0.2-0.5-0.4-0.9-0.7c2.2-1.9,4.2-3.8,6.2-5.5c4.8-4.1,6.4-9.5,6-15.6
	C381.6,114,381.2,111.6,380.9,109.1"/>
<path d="M5.4,118.4v-2h28.3c-0.1,2.9-0.3,5.8-0.4,8.8c-0.5,0-0.9,0.1-1.5,0.1c-0.2-0.8-0.2-1.7-0.5-2.4c-0.3-0.7-0.8-1.6-1.5-2
	c-2-1.3-4.3-1.3-6.6-1.3c-1.8,0-3.7,0.2-5.5,0.2c-1,0-1.3,0.3-1.3,1.3c0,4,0,7.9,0,11.9c0,0.9,0,1.8,0,3c2.8,0,5.6,0,8.3,0
	c0.5,0,1-0.1,1.5-0.2c2.3-0.6,3.2-1.6,3.7-4.2c0.4,0,0.7-0.1,1.2-0.1v12.4c-0.5,0-1-0.1-1.5-0.1c-0.2-0.7-0.4-1.3-0.6-2
	c-0.5-1.4-1.5-2.3-2.9-2.3c-3.2-0.1-6.5,0-9.8,0c0,2.5,0,4.9,0,7.3c0,1.8,0.1,3.5,0.2,5.3c0.1,2.7,0.6,3.4,3.2,3.9
	c0.5,0.1,0.9,0.1,1.5,0.2v1.5H6.2v-1.4c0.1,0,0.3-0.1,0.5-0.2c2.6-0.7,3.3-1.6,3.5-4.3c0.8-9.2,0.6-18.4,0.2-27.7
	c0-0.7-0.1-1.4-0.2-2.1c-0.3-2.1-0.9-2.8-3.1-3.2C6.6,118.6,6,118.5,5.4,118.4"/>
<path d="M543.5,117.9v-1.5h16v1.9c-0.4,0-0.9,0-1.3,0c-1.9,0.1-2.9,0.8-3.2,2.7c-0.3,1.8-0.5,3.6-0.5,5.4c-0.1,8.2,0,16.5,0,24.7
	c0,0.5,0,1,0.1,1.6c0.3,2,1.1,3,3.1,3.5c0.6,0.2,1.2,0.3,1.8,0.4v1.5h-15.9v-1.5c0.5-0.1,1.1-0.2,1.6-0.3c1.9-0.4,2.9-1.4,3.1-3.3
	c0.3-3.7,0.4-7.4,0.5-11.1c0.1-4.5,0.1-9,0.1-13.4c0-1.9,0-3.8-0.2-5.6c-0.2-2.6-1.6-4-4.1-4.7C544.3,118.1,543.9,118,543.5,117.9"
	/>
<path d="M80.6,117.9c0-0.6,0.1-1,0.1-1.6h15.9v1.9c-0.5,0-0.8,0-1.2,0c-2,0-2.8,0.6-3.1,2.6c-0.4,2.6-0.6,5.3-0.7,8
	c-0.1,7.2,0,14.5,0.1,21.7c0,0.8,0,1.7,0.1,2.5c0.2,1.3,0.8,2.3,2.1,2.8c0.6,0.2,1.1,0.5,1.7,0.5c1.4,0.1,1.3,0.8,0.9,1.7H80.8
	c-0.3-1.1-0.1-1.6,1.1-1.7c2.3-0.3,3.4-1.5,3.6-4c0.2-3.2,0.3-6.4,0.4-9.6c0.1-4.5,0.1-9.1,0.1-13.6c0-2.1-0.2-4.2-0.2-6.2
	c0.1-2.5-2.1-4.4-4.2-4.8C81.3,118,81.1,118,80.6,117.9"/>
<path d="M323.7,119.5c-0.4,2.3-0.9,4.6-1.3,6.9c-0.9,6.1,0.9,10.3,5,13.5c-1.3,1.1-2.6,2.2-4,3.3c-1,0.8-1.7,1.7-1.7,3
	c0,2.9-0.1,5.8,0,8.6c0.1,2.5,1.2,3.6,3.6,4.3c0.8,0.2,1.7,0.6,2.7,0.9c-1.2,1.2-2.5,1.2-3.8,1.4c-2.8,0.3-5.5,0.3-8.2-0.4
	c-0.4-0.1-0.8-0.5-1.2-0.8c0.4-0.3,0.7-0.7,1.1-0.7c4.2-0.6,5-2.7,4.8-6.5c-0.1-2.1,0-4.2,0-6.4c0-1.5-0.6-2.6-1.7-3.5
	c-1.5-1.2-2.9-2.4-4.3-3.6c-2.7-2.1-3.3-5-2.7-8.2c0.6-3,1.4-6,2.3-8.9c0.2-0.8,0.9-1.7,1.6-2.1
	C318.6,119.2,321.2,118.9,323.7,119.5"/>
<path d="M400.6,159.9c-1.9,2-10.9,2.1-13.3,0c0.9-0.3,1.7-0.7,2.5-0.9c2.6-0.7,3.5-1.7,3.8-4.4c0-0.3,0.1-0.6,0.1-0.8
	c0-2.4,0-4.8,0-7.2c0-1.6-0.5-2.8-1.8-3.7c-1.1-0.8-2-1.6-2.8-2.3c1-1.1,2-2.2,3-3.3c2.6-3.1,3.1-6.8,2.6-10.6
	c-0.3-2.5-0.9-4.9-1.4-7.5c2.2-0.1,4.4,0.1,6.4,1.3c0.4,0.3,0.9,0.7,1,1.1c1.3,3.9,2.7,7.7,2.7,11.9c0,2.1-0.8,3.9-2.3,5.3
	c-1.6,1.4-3.1,2.7-4.7,4c-1.2,1-1.9,2.1-1.8,3.8c0.1,2.4,0,4.9,0,7.3c0,3,1,4.3,3.8,5C399,159.3,399.7,159.6,400.6,159.9"/>
<path d="M597.7,205c0,1.8-1.4,3.3-3.2,3.3c-1.8,0-3.3-1.5-3.3-3.3c0-1.8,1.4-3.2,3.3-3.2C596.3,201.7,597.7,203.1,597.7,205"/>
<path fill="#FFFFFF" d="M498.5,239c0.3-1.7,0.4-3.4,0.9-5c1.1-3.3,2.3-6.5,3.5-9.6c1.9-4.7,7.3-8.2,12.4-8c3.3,0.1,4.8,2.1,3.6,5.2
	c-2.9,7.5-7.7,13.5-15,17.2c-1.5,0.7-3.4,0.5-5.1,0.7C498.7,239.3,498.6,239.2,498.5,239"/>
<path fill="#FFFFFF" d="M532.7,231.8c-0.7-4.4,0-8.2,3.7-10.9c1.2-0.9,2.6-1.6,4-0.8c1.4,0.8,1.3,2.5,1.1,3.9
	C541.1,227.4,536.3,231.6,532.7,231.8"/>
<path fill="#FFFFFF" d="M603.4,233.2c0.5-4.8,1.2-9.2,3.4-13.2c0.5-0.9,1.2-1.7,2-2.3c0.9-0.8,1.6-0.5,2.2,0.5
	c0.8,1.3,1,2.7,0.6,4.1C610.3,226.8,607.3,230.1,603.4,233.2"/>
<path fill="#FFFFFF" d="M491.7,251.3c-0.4,2.3-0.7,4.6-1.3,6.9c-1.7,7.1-3.5,14.1-5.2,21.2c-0.1,0.5-0.2,1-0.5,1.3
	c-0.3,0.4-0.8,0.6-1.2,0.8c-0.2-0.4-0.7-0.9-0.6-1.3c0.3-1.9,0.5-3.9,1.1-5.7c2.2-7.4,4.6-14.8,6.9-22.2c0.1-0.4,0.3-0.8,0.5-1.1
	C491.5,251.3,491.6,251.3,491.7,251.3"/>
<path fill="#FFFFFF" d="M441.7,227.6c-1.8-2.2-2.6-4.5-2.6-6.9c0-1.5,0.3-3.1,0.7-4.5c0.3-1,1.1-2,2.3-2c1.3,0.1,1.6,1.3,1.9,2.3
	c0.7,2.1,0.6,4.2-0.2,6.3C443.3,224.3,442.5,225.8,441.7,227.6"/>
<path fill="#FFFFFF" d="M222.1,31.7c1.6-5.6,3.2-11.2,7-15.8c1.3-1.5,2.7-2.8,4.8-3.1c1.1-0.2,1.5,0.2,1.3,1.3
	c-0.3,1.8-1,3.5-2.2,4.9c-3.3,3.9-6.5,8-9.8,11.9c-0.3,0.3-0.4,0.8-0.6,1.1C222.4,32,222.2,31.8,222.1,31.7"/>
<path fill="#FFFFFF" d="M243.1,56.6c-0.4-3.9-0.5-7.6,2.2-10.5c0.9-0.9,2.1-1.6,3.3-2.1c1-0.4,1.9,0.3,1.8,1.3
	c-0.1,1.2-0.3,2.6-0.9,3.5c-1.8,2.5-3.8,4.9-5.8,7.3C243.6,56.3,243.4,56.4,243.1,56.6"/>
<path fill="#FFFFFF" d="M689.1,232.9c-1.8-4.5,0.7-10.8,4.9-12.7c2.3-1,3.7-0.1,3.8,2.4c0.1,2-0.8,3.6-1.9,5.2
	C694.2,230.2,691.8,231.7,689.1,232.9"/>
</svg>
