<?xml version="1.0" encoding="utf-8"?>
<!-- Generator: Adobe Illustrator 18.1.1, SVG Export Plug-In . SVG Version: 6.00 Build 0)  -->
<svg version="1.1" id="Layer_1" xmlns="http://www.w3.org/2000/svg" xmlns:xlink="http://www.w3.org/1999/xlink" x="0px" y="0px"
	 viewBox="0 0 365.5 57.5" enable-background="new 0 0 365.5 57.5" xml:space="preserve">
<g>
	<path fill="#231F20" stroke="#231F20" stroke-width="0.12" d="M27,24.7c0,1.6,0.2,2.5,0.9,2.8c0.1,0.1,0.1,0.4,0,0.5
		c-0.5,0-1.2,0.2-1.9,0.4c-2.1,0.6-4.9,1-7,1c-4.7,0-9-1.3-12-4.4c-2.4-2.4-3.6-5.5-3.6-8.9c0-3.3,1.1-6.7,3.5-9.3
		c2.6-2.8,6.5-4.6,12.5-4.6c2.2,0,4.3,0.4,5,0.6c0.7,0.2,2,0.4,2.4,0.4c0,1.3,0.2,3.3,0.6,5.7c-0.1,0.3-0.8,0.4-1.1,0.1
		c-1.1-4.2-4.1-5.6-8.1-5.6c-7.6,0-11,5.4-11,11.3c0,7.6,3.9,13.5,11.8,13.5c2.4,0,3.9-0.5,4.3-1.2c0.2-0.3,0.4-1,0.4-2.2v-1.6
		c0-3.3-0.1-3.5-2.6-3.8l-1.7-0.2c-0.3-0.2-0.3-0.9,0-1c1.1,0.1,3.3,0.1,5.6,0.1c1.5,0,2.9,0,4.2-0.1c0.3,0.2,0.3,0.7,0,1l-0.6,0.1
		C27,19.4,27,20.5,27,22.5V24.7z"/>
	<path fill="#231F20" stroke="#231F20" stroke-width="0.12" d="M39.8,8.7c0-4.2-0.1-4.8-2.4-5l-1-0.1c-0.2-0.2-0.2-0.9,0.1-1
		c2,0.1,3.3,0.1,5,0.1c1.6,0,2.9,0,4.9-0.1c0.2,0.1,0.3,0.8,0.1,1l-1,0.1c-2.3,0.2-2.4,0.9-2.4,5v14c0,4.2,0.1,4.7,2.4,5l1,0.1
		c0.2,0.2,0.2,0.9-0.1,1c-2-0.1-3.3-0.1-4.9-0.1c-1.7,0-3,0-5,0.1c-0.2-0.1-0.3-0.7-0.1-1l1-0.1c2.3-0.3,2.4-0.8,2.4-5V8.7z"/>
	<path fill="#231F20" stroke="#231F20" stroke-width="0.12" d="M78.2,22c0,1.2,0,5.9,0.1,6.9c-0.1,0.2-0.3,0.4-0.7,0.4
		c-0.5-0.7-1.6-2-5-5.9L63.4,13c-1.1-1.2-3.7-4.4-4.6-5.3h-0.1c-0.2,0.5-0.2,1.4-0.2,2.6v8.6c0,1.8,0,7,0.7,8.1c0.2,0.4,1,0.7,2,0.7
		l1.2,0.1c0.2,0.3,0.2,0.8-0.1,1c-1.8-0.1-3.1-0.1-4.6-0.1c-1.7,0-2.7,0-4.1,0.1c-0.3-0.2-0.3-0.7-0.1-1l1.1-0.1
		c0.9-0.1,1.5-0.4,1.7-0.8c0.6-1.4,0.5-6.2,0.5-8.1V7.4c0-1.1,0-1.9-0.9-2.8c-0.6-0.6-1.5-0.8-2.4-0.9L53,3.6
		c-0.2-0.2-0.2-0.8,0.1-1c1.7,0.1,3.7,0.1,4.4,0.1c0.6,0,1.3,0,1.8-0.1c0.8,2,5.4,7.2,6.7,8.7l3.8,4.3c2.7,3,4.6,5.2,6.5,7.1h0.1
		c0.2-0.2,0.2-0.8,0.2-1.7v-8.4c0-1.8,0-7-0.8-8.1c-0.2-0.4-0.9-0.6-2.4-0.8l-0.7-0.1c-0.3-0.2-0.2-0.9,0.1-1
		c1.8,0.1,3.1,0.1,4.6,0.1c1.7,0,2.7,0,4.1-0.1c0.3,0.2,0.3,0.7,0.1,1L81,3.7c-1.3,0.2-2,0.5-2.2,0.8c-0.7,1.4-0.6,6.3-0.6,8.1V22z"
		/>
	<path fill="#231F20" stroke="#231F20" stroke-width="0.12" d="M95.6,29.3c-3.3,0-5.4-1-6.1-1.5c-0.5-0.9-1-3.7-1.1-5.5
		c0.2-0.3,0.8-0.4,0.9-0.1c0.6,2,2.2,5.9,6.8,5.9c3.3,0,4.9-2.2,4.9-4.5c0-1.7-0.4-3.7-3.2-5.5L94,15.6c-2-1.3-4.2-3.5-4.2-6.8
		c0-3.7,2.9-6.8,8-6.8c1.2,0,2.6,0.2,3.7,0.5c0.5,0.2,1.1,0.2,1.4,0.2c0.4,0.9,0.7,3.1,0.7,4.8c-0.2,0.2-0.8,0.4-1,0.1
		c-0.5-1.9-1.6-4.4-5.3-4.4c-3.9,0-4.7,2.6-4.7,4.4c0,2.3,1.9,3.9,3.3,4.8l3.1,2c2.5,1.5,4.9,3.8,4.9,7.6
		C103.9,26.4,100.7,29.3,95.6,29.3z"/>
	<path fill="#231F20" stroke="#231F20" stroke-width="0.12" d="M114.9,7.8c0-2.9-0.2-3.7-1.9-3.8l-1.3-0.1c-0.3-0.2-0.3-0.8,0-1
		c2.1-0.2,4.8-0.3,8.5-0.3c2.5,0,4.8,0.2,6.6,1.1c1.7,0.8,3,2.4,3,4.9c0,2.8-1.7,4.3-4,5.4c0,0.4,0.3,0.5,0.7,0.6
		c2.1,0.4,5.3,2.4,5.3,6.6c0,4.6-3.4,7.6-10.5,7.6c-1.1,0-3.1-0.1-4.7-0.1c-1.7,0-3.1,0.1-4.5,0.1c-0.2-0.1-0.3-0.7-0.1-1l0.7-0.1
		c2.1-0.4,2.2-0.8,2.2-4.9V7.8z M118.2,13.1c0,1.1,0,1.2,2,1.1c4-0.2,6.2-1.3,6.2-5c0-3.9-2.9-5.3-5.9-5.3c-0.9,0-1.5,0.1-1.8,0.2
		c-0.4,0.1-0.6,0.3-0.6,1V13.1z M118.2,22.2c0,1.4,0.1,3.4,0.8,4.3c0.7,0.9,1.9,1.1,3.1,1.1c3.5,0,6.2-1.6,6.2-5.5
		c0-3.1-1.6-6.7-7.8-6.7c-2.1,0-2.3,0.2-2.3,1V22.2z"/>
	<path fill="#231F20" stroke="#231F20" stroke-width="0.12" d="M142.7,8.6c0-4.1-0.1-4.7-2.4-5l-0.6-0.1c-0.2-0.2-0.2-0.9,0.1-1
		c1.7,0.1,3,0.1,4.6,0.1h7.4c2.5,0,4.8,0,5.3-0.1c0.2,0.7,0.5,3.5,0.6,5.2c-0.2,0.2-0.8,0.3-1,0.1c-0.6-1.8-0.9-3.2-3-3.7
		c-0.8-0.2-2.1-0.2-3.8-0.2h-2.8c-1.2,0-1.2,0.1-1.2,1.6v7.9c0,1.1,0.1,1.1,1.3,1.1h2.3c1.7,0,2.9-0.1,3.3-0.2
		c0.5-0.2,0.7-0.4,0.9-1.4l0.3-1.6c0.2-0.2,0.9-0.2,1,0c0,0.9-0.2,2.5-0.2,4c0,1.4,0.2,2.9,0.2,3.8c-0.2,0.3-0.8,0.3-1,0l-0.4-1.5
		c-0.2-0.7-0.4-1.3-1.2-1.5c-0.6-0.2-1.5-0.2-3-0.2h-2.3c-1.2,0-1.3,0-1.3,1.1v5.5c0,2.1,0.1,3.4,0.7,4.1c0.5,0.5,1.3,0.9,4.8,0.9
		c3,0,4.2-0.2,5-0.6c0.7-0.4,1.8-1.8,2.8-3.8c0.3-0.2,0.8-0.1,1,0.3c-0.3,1.4-1.3,4.4-1.8,5.5c-3.5-0.1-7-0.1-10.5-0.1h-3.5
		c-1.7,0-3,0-5.3,0.1c-0.2-0.1-0.3-0.7-0.1-1l1.3-0.1c2.2-0.2,2.4-0.8,2.4-4.9V8.6z"/>
	<path fill="#231F20" stroke="#231F20" stroke-width="0.12" d="M169.6,8.7c0-3.7-0.1-4.4-1.7-4.6l-1.3-0.2c-0.3-0.2-0.3-0.8,0-1
		c2.2-0.2,4.9-0.3,8.8-0.3c2.4,0,4.8,0.2,6.6,1.2c1.9,1,3.3,2.8,3.3,5.5c0,3.7-3,5.8-4.9,6.6c-0.2,0.2,0,0.6,0.2,0.9
		c3.1,5.1,5.2,8.2,7.9,10.5c0.7,0.6,1.7,1,2.7,1.1c0.2,0.1,0.2,0.4,0,0.6c-0.4,0.1-1,0.2-1.7,0.2c-3.3,0-5.3-1-8.1-5
		c-1-1.5-2.6-4.2-3.9-5.9c-0.6-0.9-1.2-1.3-2.8-1.3c-1.8,0-1.8,0-1.8,0.9v5c0,4.1,0.1,4.6,2.4,4.9l0.8,0.1c0.2,0.2,0.2,0.9-0.1,1
		c-1.8-0.1-3.1-0.1-4.7-0.1c-1.7,0-3.1,0-4.9,0.1c-0.2-0.1-0.3-0.7-0.1-1l1-0.1c2.3-0.3,2.4-0.8,2.4-4.9V8.7z M172.8,14.3
		c0,0.7,0,1.1,0.1,1.3c0.1,0.1,0.7,0.2,2.7,0.2c1.4,0,2.9-0.2,4.1-1c1.1-0.8,2-2.2,2-4.9c0-3.1-1.9-6.1-6.3-6.1
		c-2.4,0-2.6,0.2-2.6,1.3V14.3z"/>
	<path fill="#231F20" stroke="#231F20" stroke-width="0.12" d="M216.2,24.7c0,1.6,0.2,2.5,0.9,2.8c0.1,0.1,0.1,0.4,0,0.5
		c-0.5,0-1.2,0.2-1.9,0.4c-2.1,0.6-4.9,1-7,1c-4.7,0-9-1.3-12-4.4c-2.4-2.4-3.6-5.5-3.6-8.9c0-3.3,1.1-6.7,3.5-9.3
		c2.6-2.8,6.5-4.6,12.5-4.6c2.2,0,4.3,0.4,5,0.6c0.7,0.2,2,0.4,2.4,0.4c0,1.3,0.2,3.3,0.6,5.7c-0.1,0.3-0.8,0.4-1.1,0.1
		c-1.1-4.2-4.1-5.6-8.1-5.6c-7.6,0-11,5.4-11,11.3c0,7.6,3.9,13.5,11.8,13.5c2.4,0,3.9-0.5,4.3-1.2c0.2-0.3,0.4-1,0.4-2.2v-1.6
		c0-3.3-0.1-3.5-2.6-3.8l-1.7-0.2c-0.3-0.2-0.3-0.9,0-1c1.1,0.1,3.3,0.1,5.6,0.1c1.5,0,2.9,0,4.2-0.1c0.3,0.2,0.3,0.7,0,1l-0.6,0.1
		c-1.7,0.2-1.7,1.3-1.7,3.3V24.7z"/>
	<path fill="#231F20" stroke="#231F20" stroke-width="0.12" d="M228.8,24.8v-7.1h-6.4v-1.9h6.4V9.3h2.3v6.5h6.4v1.9h-6.4v7.1H228.8z
		"/>
	<path fill="#231F20" stroke="#231F20" stroke-width="0.12" d="M248,5.4c2.9-2.2,6.5-3.3,10.6-3.3c2.1,0,5.1,0.4,7,0.9
		c0.5,0.1,0.7,0.2,1.1,0.2c0,0.9,0.2,3.4,0.6,5.8c-0.2,0.3-0.8,0.3-1.1,0.1c-0.6-2.7-2.4-5.7-8.1-5.7c-6,0-11.1,3.8-11.1,12
		c0,8.3,5.2,12.8,11.7,12.8c5.1,0,7.3-3.3,8.2-5.6c0.3-0.2,0.9-0.1,1,0.2c-0.3,2-1.3,4.6-1.9,5.4c-0.5,0.1-0.9,0.2-1.4,0.4
		c-0.9,0.3-3.7,0.9-6.2,0.9c-3.5,0-6.9-0.7-9.8-2.6c-3.1-2.2-5.6-5.7-5.6-10.8C243,11.5,245,7.8,248,5.4z"/>
	<path fill="#231F20" stroke="#231F20" stroke-width="0.12" d="M282.8,16c-1.9,0-2,0.1-2,1.3v5.5c0,4.1,0.2,4.7,2.4,4.9l1.1,0.1
		c0.2,0.2,0.2,0.9-0.1,1c-2.1-0.1-3.5-0.1-5-0.1c-1.7,0-3,0.1-4.6,0.1c-0.2-0.1-0.3-0.7-0.1-1l0.7-0.1c2.2-0.4,2.3-0.8,2.3-4.9V8.6
		c0-4.1-0.3-4.8-2.3-5l-1-0.1c-0.2-0.2-0.2-0.9,0.1-1c1.9,0,3.3,0.1,5,0.1c1.5,0,2.9,0,4.6-0.1c0.2,0.1,0.3,0.8,0.1,1l-0.7,0.1
		c-2.3,0.2-2.4,0.8-2.4,5v4.5c0,1.2,0.1,1.3,2,1.3h11.3c1.9,0,2,0,2-1.3V8.6c0-4.1-0.1-4.7-2.4-5l-0.7-0.1c-0.2-0.2-0.2-0.9,0.1-1
		c1.8,0.1,3.1,0.1,4.8,0.1c1.5,0,2.9,0,4.6-0.1c0.2,0.1,0.3,0.8,0.1,1l-0.8,0.1c-2.3,0.2-2.4,0.8-2.4,5v14.2c0,4.1,0.1,4.6,2.4,4.9
		l0.9,0.1c0.2,0.2,0.2,0.9-0.1,1c-1.9-0.1-3.2-0.1-4.8-0.1c-1.6,0-3,0-4.8,0.1c-0.2-0.1-0.3-0.7-0.1-1l0.7-0.1
		c2.4-0.4,2.4-0.8,2.4-4.9v-5.5c0-1.2-0.1-1.3-2-1.3H282.8z"/>
	<path fill="#231F20" stroke="#231F20" stroke-width="0.12" d="M324.3,19.6c-0.3-0.9-0.4-1-1.6-1h-5.9c-1,0-1.2,0.1-1.5,0.9
		l-1.4,4.1c-0.6,1.8-0.9,2.8-0.9,3.3c0,0.5,0.2,0.7,1.1,0.8l1.3,0.1c0.3,0.2,0.3,0.8-0.1,1c-1-0.1-2.2-0.1-4.1-0.1
		c-1.3,0-2.7,0.1-3.8,0.1c-0.2-0.2-0.3-0.8-0.1-1l1.3-0.1c0.9-0.1,1.8-0.5,2.4-1.9c0.7-1.8,1.8-4.4,3.5-8.8l4-10.6
		c0.6-1.4,0.8-2.2,0.7-2.8c0.9-0.3,1.6-1,2-1.5c0.2,0,0.5,0.1,0.6,0.4c0.5,1.7,1.1,3.5,1.7,5.3l5.4,15.8c1.1,3.4,1.7,4,3.3,4.2
		l1.1,0.1c0.3,0.2,0.2,0.8,0,1c-1.6-0.1-3-0.1-4.8-0.1c-1.9,0-3.4,0.1-4.5,0.1c-0.3-0.2-0.4-0.8-0.1-1l1.1-0.1
		c0.8-0.1,1.4-0.3,1.4-0.7c0-0.4-0.2-1.1-0.5-2.1L324.3,19.6z M316.5,16.1c-0.3,0.9-0.3,0.9,0.8,0.9h4.8c1.1,0,1.2-0.2,0.9-1.2
		l-2.1-6.4c-0.3-0.9-0.7-2-0.9-2.5h-0.1c-0.1,0.2-0.5,1.1-0.9,2.3L316.5,16.1z"/>
	<path fill="#231F20" stroke="#231F20" stroke-width="0.12" d="M362.9,22c0,1.2,0,5.9,0.1,6.9c-0.1,0.2-0.3,0.4-0.7,0.4
		c-0.5-0.7-1.6-2-5-5.9L348.1,13c-1.1-1.2-3.7-4.4-4.6-5.3h-0.1c-0.2,0.5-0.2,1.4-0.2,2.6v8.6c0,1.8,0,7,0.7,8.1
		c0.2,0.4,1,0.7,2,0.7l1.2,0.1c0.2,0.3,0.2,0.8-0.1,1c-1.8-0.1-3.1-0.1-4.6-0.1c-1.7,0-2.7,0-4.1,0.1c-0.3-0.2-0.3-0.7-0.1-1
		l1.1-0.1c0.9-0.1,1.5-0.4,1.7-0.8c0.6-1.4,0.5-6.2,0.5-8.1V7.4c0-1.1,0-1.9-0.9-2.8c-0.6-0.6-1.5-0.8-2.4-0.9l-0.7-0.1
		c-0.2-0.2-0.2-0.8,0.1-1c1.7,0.1,3.7,0.1,4.4,0.1c0.6,0,1.3,0,1.8-0.1c0.8,2,5.4,7.2,6.7,8.7l3.8,4.3c2.7,3,4.6,5.2,6.5,7.1h0.1
		c0.2-0.2,0.2-0.8,0.2-1.7v-8.4c0-1.8,0-7-0.8-8.1c-0.2-0.4-0.9-0.6-2.4-0.8l-0.7-0.1c-0.3-0.2-0.2-0.9,0.1-1
		c1.8,0.1,3.1,0.1,4.6,0.1c1.7,0,2.7,0,4.1-0.1c0.3,0.2,0.3,0.7,0.1,1l-0.6,0.1c-1.3,0.2-2,0.5-2.2,0.8c-0.7,1.4-0.6,6.3-0.6,8.1V22
		z"/>
</g>
<g>
	<path fill="#CC3333" d="M62.4,43.7h1.3l3.1,9l3-9h1l3,9l3.1-9h1.3l-3.8,10.8h-1l-3-8.7l-3,8.7h-1L62.4,43.7z"/>
	<path fill="#CC3333" d="M83.1,43.7h1.2v10.8h-1.2V43.7z"/>
	<path fill="#CC3333" d="M90.3,43.7h1.1l6.8,8.6v-8.6h1.2v10.8h-1l-7-8.8v8.8h-1.2V43.7z"/>
	<path fill="#CC3333" d="M105.2,43.7h7.8v1.1h-6.6v3.7h5.9v1.1h-5.9v3.8h6.6v1.1h-7.9V43.7z"/>
	<path fill="#CC3333" d="M127.2,43.7h1.2l3.9,5.9l3.9-5.9h1.2v10.8h-1.2v-8.7l-3.9,5.8h-0.1l-3.9-5.8v8.7h-1.2V43.7z"/>
	<path fill="#CC3333" d="M143.3,43.7h7.8v1.1h-6.6v3.7h5.9v1.1h-5.9v3.8h6.6v1.1h-7.9V43.7z"/>
	<path fill="#CC3333" d="M156.4,43.7h4.6c1.3,0,2.4,0.4,3.1,1.1c0.5,0.5,0.8,1.3,0.8,2.1v0c0,1.8-1.2,2.8-2.9,3.1l3.3,4.4h-1.5
		l-3.1-4.2h0h-3v4.2h-1.2V43.7z M160.9,49.2c1.6,0,2.8-0.8,2.8-2.2v0c0-1.3-1-2.1-2.8-2.1h-3.3v4.4H160.9z"/>
	<path fill="#CC3333" d="M169.8,49.1L169.8,49.1c0-3.1,2.3-5.6,5.4-5.6c2,0,3.1,0.7,4.2,1.7l-0.8,0.9c-0.9-0.9-1.9-1.5-3.4-1.5
		c-2.4,0-4.2,1.9-4.2,4.4v0c0,2.5,1.8,4.4,4.2,4.4c1.5,0,2.4-0.6,3.5-1.6l0.8,0.8c-1.1,1.1-2.4,1.9-4.3,1.9
		C172.1,54.6,169.8,52.2,169.8,49.1z"/>
	<path fill="#CC3333" d="M184.4,43.7h1.2v4.8h6.2v-4.8h1.2v10.8h-1.2v-4.8h-6.2v4.8h-1.2V43.7z"/>
	<path fill="#CC3333" d="M202.8,43.6h1.1l4.9,10.8h-1.3l-1.3-2.8h-5.9l-1.3,2.8h-1.2L202.8,43.6z M205.8,50.5l-2.4-5.5l-2.5,5.5
		H205.8z"/>
	<path fill="#CC3333" d="M213.8,43.7h1.1l6.8,8.6v-8.6h1.2v10.8h-1l-7-8.8v8.8h-1.2V43.7z"/>
	<path fill="#CC3333" d="M231.5,44.8h-3.6v-1.1h8.5v1.1h-3.6v9.6h-1.2V44.8z"/>
	<path fill="#CC3333" d="M240.5,52.9l0.8-0.9c1.1,1,2.2,1.5,3.7,1.5c1.4,0,2.4-0.8,2.4-1.8v0c0-1-0.5-1.6-2.8-2
		c-2.5-0.5-3.6-1.3-3.6-3.1v0c0-1.7,1.5-2.9,3.5-2.9c1.6,0,2.7,0.4,3.8,1.3l-0.7,0.9c-1-0.8-2-1.2-3.1-1.2c-1.4,0-2.3,0.8-2.3,1.7v0
		c0,1,0.6,1.6,2.9,2.1c2.4,0.5,3.5,1.4,3.5,3v0c0,1.8-1.5,3-3.7,3C243.2,54.6,241.8,54,240.5,52.9z"/>
	<path fill="#CC3333" d="M266.7,43.6h1.1l4.9,10.8h-1.3l-1.3-2.8h-5.9l-1.3,2.8h-1.2L266.7,43.6z M269.7,50.5l-2.4-5.5l-2.5,5.5
		H269.7z"/>
	<path fill="#CC3333" d="M276.7,52.9l0.8-0.9c1.1,1,2.2,1.5,3.7,1.5c1.4,0,2.4-0.8,2.4-1.8v0c0-1-0.5-1.6-2.8-2
		c-2.5-0.5-3.6-1.3-3.6-3.1v0c0-1.7,1.5-2.9,3.5-2.9c1.6,0,2.7,0.4,3.8,1.3l-0.7,0.9c-1-0.8-2-1.2-3.1-1.2c-1.4,0-2.3,0.8-2.3,1.7v0
		c0,1,0.6,1.6,2.9,2.1c2.4,0.5,3.5,1.4,3.5,3v0c0,1.8-1.5,3-3.7,3C279.4,54.6,278,54,276.7,52.9z"/>
	<path fill="#CC3333" d="M290.1,43.7h1.2v10.8h-1.2V43.7z"/>
	<path fill="#CC3333" d="M301.3,43.6h1.1l4.9,10.8H306l-1.3-2.8h-5.9l-1.3,2.8h-1.2L301.3,43.6z M304.3,50.5l-2.4-5.5l-2.5,5.5
		H304.3z"/>
</g>
<g>
	<path fill="#FF0000" d="M566.2,24.6c0,1.9,0.3,3,1.1,3.4c0.1,0.1,0.1,0.4,0,0.6c-0.6,0-1.4,0.2-2.3,0.4c-2.5,0.7-5.9,1.2-8.5,1.2
		c-5.6,0-10.8-1.6-14.4-5.2c-2.8-2.8-4.3-6.6-4.3-10.7c0-4,1.3-8.1,4.2-11.2c3.2-3.3,7.8-5.5,15-5.5c2.7,0,5.2,0.5,6,0.7
		c0.9,0.2,2.4,0.5,2.9,0.4c0,1.6,0.3,4,0.7,6.8c-0.1,0.4-1,0.4-1.3,0.1C564,0.6,560.5-1,555.7-1c-9.2,0-13.2,6.5-13.2,13.6
		c0,9.1,4.7,16.2,14.2,16.2c2.9,0,4.7-0.6,5.2-1.4c0.2-0.3,0.5-1.2,0.5-2.7v-1.9c0-4-0.1-4.2-3.1-4.6l-2.1-0.2c-0.4-0.2-0.3-1,0-1.2
		c1.4,0.1,4,0.1,6.8,0.1c1.8,0,3.4,0,5-0.1c0.3,0.2,0.4,0.9,0,1.2l-0.8,0.1c-2,0.2-2,1.6-2,4V24.6z"/>
	<path fill="#FF0000" d="M581.6,5.5c0-5-0.1-5.8-2.9-6l-1.2-0.1c-0.3-0.2-0.2-1,0.1-1.2c2.4,0.1,4,0.1,5.9,0.1c1.9,0,3.5,0,5.9-0.1
		c0.3,0.1,0.4,1,0.1,1.2l-1.2,0.1c-2.8,0.2-2.9,1-2.9,6v16.8c0,5,0.1,5.7,2.9,6l1.2,0.1c0.3,0.2,0.2,1-0.1,1.2
		c-2.4-0.1-4-0.1-5.9-0.1c-2,0-3.6,0-5.9,0.1c-0.3-0.1-0.4-0.9-0.1-1.2l1.2-0.1c2.8-0.3,2.9-1,2.9-6V5.5z"/>
	<path fill="#FF0000" d="M627.7,21.4c0,1.4,0,7,0.1,8.3c-0.1,0.3-0.4,0.5-0.9,0.5c-0.6-0.8-1.9-2.5-6-7.1l-11-12.5
		c-1.3-1.5-4.5-5.3-5.5-6.4h-0.1c-0.2,0.6-0.2,1.7-0.2,3.1v10.3c0,2.2,0,8.4,0.8,9.8c0.3,0.5,1.2,0.8,2.4,0.9l1.5,0.1
		c0.3,0.4,0.2,0.9-0.1,1.2c-2.1-0.1-3.8-0.1-5.5-0.1c-2,0-3.3,0-4.9,0.1c-0.3-0.2-0.4-0.9-0.1-1.2l1.3-0.1c1.1-0.1,1.8-0.4,2.1-0.9
		c0.7-1.7,0.6-7.5,0.6-9.7V4c0-1.3,0-2.3-1-3.4c-0.7-0.7-1.8-1-2.9-1.1l-0.8-0.1c-0.3-0.3-0.3-1,0.1-1.2c2,0.1,4.5,0.1,5.3,0.1
		c0.8,0,1.6,0,2.2-0.1c0.9,2.4,6.5,8.6,8.1,10.4l4.6,5.1c3.3,3.6,5.6,6.3,7.8,8.5h0.1c0.2-0.2,0.2-1,0.2-2V10.1c0-2.2,0-8.4-0.9-9.8
		c-0.3-0.4-1-0.7-2.9-0.9l-0.8-0.1c-0.3-0.3-0.3-1,0.1-1.2c2.2,0.1,3.8,0.1,5.6,0.1c2,0,3.3,0,4.9-0.1c0.4,0.2,0.4,0.9,0.1,1.2
		L631-0.6c-1.5,0.2-2.5,0.6-2.6,1c-0.8,1.7-0.7,7.6-0.7,9.7V21.4z"/>
	<path fill="#FF0000" d="M648.5,30.2c-4,0-6.5-1.2-7.4-1.7c-0.6-1-1.2-4.4-1.3-6.6c0.2-0.3,0.9-0.4,1.1-0.1c0.7,2.4,2.6,7,8.1,7
		c4,0,5.9-2.6,5.9-5.4c0-2.1-0.4-4.4-3.9-6.6l-4.5-2.9c-2.4-1.6-5.1-4.2-5.1-8.1c0-4.5,3.5-8.1,9.6-8.1c1.5,0,3.2,0.3,4.4,0.6
		c0.6,0.2,1.3,0.3,1.7,0.3c0.4,1.1,0.8,3.8,0.8,5.8c-0.2,0.3-0.9,0.4-1.2,0.1C656.3,2.1,655-1,650.5-1c-4.6,0-5.6,3.1-5.6,5.2
		c0,2.7,2.3,4.7,4,5.8l3.8,2.4c3,1.8,5.9,4.6,5.9,9.1C658.6,26.7,654.6,30.2,648.5,30.2z"/>
	<path fill="#FF0000" d="M671.8,4.4c0-3.5-0.2-4.4-2.3-4.6l-1.5-0.1c-0.4-0.3-0.3-1,0-1.2c2.5-0.2,5.8-0.4,10.1-0.4
		c3,0,5.8,0.2,7.9,1.3c2,1,3.6,2.9,3.6,5.9c0,3.4-2,5.1-4.8,6.5c0,0.5,0.4,0.6,0.9,0.7c2.5,0.5,6.3,2.8,6.3,7.9
		c0,5.5-4.1,9.2-12.6,9.2c-1.4,0-3.7-0.1-5.7-0.1c-2.1,0-3.7,0.1-5.4,0.1c-0.3-0.1-0.4-0.9-0.1-1.2l0.8-0.1c2.5-0.4,2.6-0.9,2.6-5.9
		V4.4z M675.6,10.7c0,1.3,0,1.4,2.5,1.3c4.8-0.2,7.4-1.6,7.4-6c0-4.6-3.4-6.4-7-6.4c-1,0-1.7,0.1-2.2,0.3c-0.5,0.1-0.7,0.4-0.7,1.2
		V10.7z M675.6,21.7c0,1.7,0.1,4.1,1,5.1c0.9,1.1,2.3,1.3,3.7,1.3c4.2,0,7.4-1.9,7.4-6.6c0-3.7-1.9-8.1-9.4-8.1
		c-2.5,0-2.7,0.3-2.7,1.2V21.7z"/>
	<path fill="#FF0000" d="M705,5.4c0-4.9-0.1-5.6-2.9-5.9l-0.8-0.1c-0.3-0.2-0.2-1,0.1-1.2c2,0.1,3.6,0.1,5.6,0.1h8.9
		c3,0,5.8,0,6.4-0.1c0.3,0.8,0.6,4.2,0.8,6.3c-0.2,0.3-0.9,0.4-1.2,0.1c-0.7-2.2-1.1-3.9-3.6-4.5c-1-0.2-2.5-0.3-4.6-0.3h-3.4
		c-1.4,0-1.4,0.1-1.4,1.9v9.4c0,1.3,0.1,1.3,1.6,1.3h2.7c2,0,3.4-0.1,4-0.3c0.6-0.2,0.9-0.5,1.1-1.7l0.4-1.9c0.2-0.3,1-0.3,1.2,0
		c0,1.1-0.2,3-0.2,4.8c0,1.7,0.2,3.5,0.2,4.5c-0.2,0.3-1,0.3-1.2,0l-0.4-1.8c-0.2-0.8-0.5-1.6-1.5-1.8c-0.7-0.2-1.8-0.2-3.6-0.2
		h-2.7c-1.4,0-1.6,0-1.6,1.3V22c0,2.5,0.1,4.1,0.9,4.9c0.6,0.6,1.6,1.1,5.7,1.1c3.6,0,5-0.2,6-0.7c0.8-0.5,2.1-2.1,3.4-4.6
		c0.3-0.2,1-0.1,1.2,0.3c-0.3,1.7-1.5,5.3-2.1,6.6c-4.2-0.1-8.4-0.1-12.7-0.1h-4.2c-2,0-3.6,0-6.4,0.1c-0.3-0.1-0.4-0.9-0.1-1.2
		l1.6-0.1c2.7-0.2,2.9-0.9,2.9-5.9V5.4z"/>
	<path fill="#FF0000" d="M737.3,5.4c0-4.5-0.1-5.3-2.1-5.5l-1.5-0.2c-0.3-0.2-0.3-1,0-1.2c2.6-0.2,5.9-0.4,10.5-0.4
		c2.9,0,5.7,0.2,7.9,1.4c2.3,1.2,3.9,3.3,3.9,6.6c0,4.5-3.5,6.9-5.9,7.9c-0.2,0.3,0,0.8,0.2,1.1c3.8,6.1,6.3,9.9,9.5,12.6
		c0.8,0.7,2,1.2,3.3,1.3c0.2,0.1,0.3,0.5,0,0.7c-0.4,0.1-1.2,0.2-2.1,0.2c-4,0-6.4-1.2-9.8-5.9c-1.2-1.7-3.2-5-4.6-7.1
		c-0.7-1-1.5-1.5-3.4-1.5c-2.1,0-2.2,0-2.2,1v5.9c0,5,0.1,5.5,2.8,5.9l1,0.1c0.3,0.2,0.2,1-0.1,1.2c-2.1-0.1-3.7-0.1-5.6-0.1
		c-2,0-3.7,0-5.9,0.1c-0.3-0.1-0.4-0.8-0.1-1.2l1.2-0.1c2.7-0.3,2.8-0.9,2.8-5.9V5.4z M741.2,12.2c0,0.8,0,1.4,0.1,1.6
		c0.1,0.1,0.8,0.2,3.3,0.2c1.7,0,3.5-0.2,4.9-1.2c1.3-1,2.4-2.6,2.4-5.9c0-3.7-2.3-7.3-7.6-7.3c-2.9,0-3.1,0.2-3.1,1.5V12.2z"/>
	<path fill="#FF0000" d="M793.3,24.6c0,1.9,0.3,3,1.1,3.4c0.1,0.1,0.1,0.4,0,0.6c-0.6,0-1.4,0.2-2.3,0.4c-2.5,0.7-5.9,1.2-8.4,1.2
		c-5.6,0-10.8-1.6-14.4-5.2c-2.8-2.8-4.3-6.6-4.3-10.7c0-4,1.3-8.1,4.2-11.2c3.2-3.3,7.8-5.5,15-5.5c2.7,0,5.2,0.5,6,0.7
		c0.9,0.2,2.4,0.5,2.9,0.4c0,1.6,0.3,4,0.7,6.8c-0.1,0.4-1,0.4-1.3,0.1c-1.3-5.1-4.9-6.7-9.7-6.7c-9.2,0-13.2,6.5-13.2,13.6
		c0,9.1,4.7,16.2,14.2,16.2c2.9,0,4.7-0.6,5.2-1.4c0.2-0.3,0.5-1.2,0.5-2.7v-1.9c0-4-0.1-4.2-3.1-4.6l-2.1-0.2c-0.4-0.2-0.3-1,0-1.2
		c1.4,0.1,4,0.1,6.8,0.1c1.8,0,3.4,0,5-0.1c0.3,0.2,0.4,0.9,0,1.2l-0.8,0.1c-2,0.2-2,1.6-2,4V24.6z"/>
	<path fill="#FF0000" d="M808.4,24.8v-8.5h-7.7V14h7.7V6.2h2.8V14h7.7v2.3h-7.7v8.5H808.4z"/>
	<path fill="#FF0000" d="M831.4,1.6c3.4-2.7,7.8-4,12.7-4c2.5,0,6.1,0.5,8.4,1.1c0.6,0.1,0.9,0.2,1.3,0.2c0,1.1,0.3,4.1,0.7,6.9
		c-0.2,0.3-0.9,0.4-1.3,0.1c-0.7-3.2-2.8-6.9-9.7-6.9c-7.2,0-13.4,4.6-13.4,14.4c0,9.9,6.3,15.4,14,15.4c6.1,0,8.8-4,9.9-6.8
		c0.3-0.2,1-0.1,1.2,0.2c-0.3,2.5-1.6,5.6-2.3,6.5c-0.6,0.1-1.1,0.3-1.7,0.5c-1,0.4-4.4,1.1-7.5,1.1c-4.2,0-8.3-0.8-11.8-3.2
		c-3.8-2.6-6.7-6.9-6.7-13C825.5,8.8,827.8,4.3,831.4,1.6z"/>
	<path fill="#FF0000" d="M873.2,14.2c-2.3,0-2.4,0.1-2.4,1.5v6.7c0,5,0.2,5.6,2.9,5.9l1.4,0.1c0.3,0.2,0.2,1-0.1,1.2
		c-2.5-0.1-4.2-0.1-6-0.1c-2,0-3.6,0.1-5.5,0.1c-0.3-0.1-0.4-0.9-0.1-1.2l0.8-0.1c2.6-0.5,2.7-0.9,2.7-5.9v-17c0-5-0.3-5.8-2.8-5.9
		L863-0.7c-0.3-0.2-0.2-1,0.1-1.2c2.3,0,3.9,0.1,5.9,0.1c1.8,0,3.4,0,5.5-0.1c0.3,0.1,0.4,1,0.1,1.2l-0.9,0.1
		c-2.7,0.3-2.8,1-2.8,5.9v5.4c0,1.5,0.1,1.5,2.4,1.5h13.5c2.3,0,2.4,0,2.4-1.5V5.4c0-5-0.1-5.7-2.9-5.9l-0.9-0.1
		c-0.3-0.2-0.2-1,0.1-1.2c2.2,0.1,3.8,0.1,5.7,0.1c1.8,0,3.4,0,5.6-0.1c0.3,0.1,0.4,1,0.1,1.2l-1,0.1c-2.7,0.3-2.8,1-2.8,5.9v17
		c0,5,0.1,5.6,2.8,5.9l1.1,0.1c0.3,0.2,0.2,1-0.1,1.2c-2.3-0.1-3.9-0.1-5.7-0.1c-1.9,0-3.6,0-5.7,0.1c-0.3-0.1-0.4-0.9-0.1-1.2
		l0.9-0.1c2.9-0.5,2.9-0.9,2.9-5.9v-6.7c0-1.4-0.1-1.5-2.4-1.5H873.2z"/>
	<path fill="#FF0000" d="M922.9,18.5c-0.3-1-0.5-1.2-1.9-1.2h-7.1c-1.2,0-1.5,0.1-1.8,1.1l-1.7,5c-0.7,2.1-1,3.4-1,3.9
		c0,0.6,0.2,0.8,1.4,0.9l1.6,0.1c0.3,0.2,0.3,1-0.1,1.2c-1.2-0.1-2.7-0.1-4.9-0.1c-1.6,0-3.3,0.1-4.5,0.1c-0.3-0.2-0.4-0.9-0.1-1.2
		l1.6-0.1c1.1-0.1,2.2-0.6,2.8-2.3c0.8-2.2,2.2-5.2,4.2-10.5l4.8-12.7c0.7-1.7,0.9-2.6,0.8-3.4c1.1-0.3,1.9-1.2,2.5-1.8
		c0.3,0,0.6,0.1,0.7,0.4c0.6,2.1,1.4,4.2,2.1,6.3l6.5,19c1.4,4.1,2,4.8,4,5l1.3,0.1c0.3,0.2,0.2,1,0,1.2c-1.9-0.1-3.6-0.1-5.7-0.1
		c-2.3,0-4.1,0.1-5.4,0.1c-0.4-0.2-0.4-0.9-0.1-1.2l1.4-0.1c1-0.1,1.7-0.4,1.7-0.8c0-0.5-0.2-1.4-0.6-2.5L922.9,18.5z M913.6,14.3
		c-0.4,1.1-0.3,1.1,1,1.1h5.8c1.4,0,1.5-0.2,1-1.5l-2.5-7.7c-0.4-1.1-0.8-2.4-1.1-3h-0.1c-0.1,0.2-0.6,1.4-1.1,2.8L913.6,14.3z"/>
	<path fill="#FF0000" d="M969.3,21.4c0,1.4,0,7,0.1,8.3c-0.1,0.3-0.4,0.5-0.9,0.5c-0.6-0.8-1.9-2.5-6-7.1l-11-12.5
		c-1.3-1.5-4.5-5.3-5.5-6.4H946c-0.2,0.6-0.2,1.7-0.2,3.1v10.3c0,2.2,0,8.4,0.8,9.8c0.3,0.5,1.2,0.8,2.4,0.9l1.5,0.1
		c0.3,0.4,0.2,0.9-0.1,1.2c-2.1-0.1-3.8-0.1-5.5-0.1c-2,0-3.3,0-4.9,0.1c-0.3-0.2-0.4-0.9-0.1-1.2l1.3-0.1c1.1-0.1,1.8-0.4,2.1-0.9
		c0.7-1.7,0.6-7.5,0.6-9.7V4c0-1.3,0-2.3-1-3.4c-0.7-0.7-1.8-1-2.9-1.1L939-0.7c-0.3-0.3-0.3-1,0.1-1.2c2,0.1,4.5,0.1,5.3,0.1
		c0.8,0,1.6,0,2.2-0.1c0.9,2.4,6.5,8.6,8.1,10.4l4.6,5.1c3.3,3.6,5.6,6.3,7.8,8.5h0.1c0.2-0.2,0.2-1,0.2-2V10.1c0-2.2,0-8.4-0.9-9.8
		c-0.3-0.4-1-0.7-2.9-0.9l-0.8-0.1c-0.3-0.3-0.3-1,0.1-1.2c2.2,0.1,3.8,0.1,5.6,0.1c2,0,3.3,0,4.9-0.1c0.4,0.2,0.4,0.9,0.1,1.2
		l-0.7,0.1c-1.5,0.2-2.5,0.6-2.6,1c-0.8,1.7-0.7,7.6-0.7,9.7V21.4z"/>
</g>
<g>
	<path fill="#231F20" stroke="#231F20" stroke-width="0.12" d="M608.7,47.4h1.6l3.7,10.8l3.5-10.8h1.2l3.5,10.8l3.7-10.8h1.5
		l-4.6,13h-1.2L618.1,50l-3.6,10.5h-1.2L608.7,47.4z"/>
	<path fill="#231F20" stroke="#231F20" stroke-width="0.12" d="M633.6,47.4h1.5v12.9h-1.5V47.4z"/>
	<path fill="#231F20" stroke="#231F20" stroke-width="0.12" d="M642.1,47.4h1.4l8.1,10.4V47.4h1.4v12.9h-1.2l-8.3-10.6v10.6h-1.4
		V47.4z"/>
	<path fill="#231F20" stroke="#231F20" stroke-width="0.12" d="M660,47.4h9.3v1.3h-7.9v4.4h7.1v1.3h-7.1V59h8v1.3H660V47.4z"/>
	<path fill="#231F20" stroke="#231F20" stroke-width="0.12" d="M686.4,47.4h1.5l4.7,7.1l4.7-7.1h1.5v12.9h-1.5V49.9l-4.7,6.9h-0.1
		l-4.7-6.9v10.4h-1.4V47.4z"/>
	<path fill="#231F20" stroke="#231F20" stroke-width="0.12" d="M705.8,47.4h9.3v1.3h-7.9v4.4h7v1.3h-7V59h8v1.3h-9.4V47.4z"/>
	<path fill="#231F20" stroke="#231F20" stroke-width="0.12" d="M721.5,47.4h5.6c1.6,0,2.9,0.5,3.7,1.3c0.6,0.6,1,1.5,1,2.5v0
		c0,2.1-1.5,3.4-3.5,3.8l4,5.3h-1.8l-3.7-5h0h-3.7v5h-1.5V47.4z M726.9,54c1.9,0,3.3-1,3.3-2.7v0c0-1.6-1.2-2.5-3.3-2.5h-4V54H726.9
		z"/>
	<path fill="#231F20" stroke="#231F20" stroke-width="0.12" d="M737.6,53.9L737.6,53.9c0-3.7,2.7-6.7,6.5-6.7c2.3,0,3.7,0.8,5,2
		l-1,1.1c-1.1-1-2.3-1.8-4.1-1.8c-2.9,0-5,2.3-5,5.3v0c0,3,2.2,5.3,5,5.3c1.8,0,2.9-0.7,4.2-1.9l1,0.9c-1.3,1.4-2.8,2.3-5.2,2.3
		C740.3,60.6,737.6,57.6,737.6,53.9z"/>
	<path fill="#231F20" stroke="#231F20" stroke-width="0.12" d="M755.1,47.4h1.5v5.7h7.5v-5.7h1.5v12.9H764v-5.8h-7.5v5.8h-1.5V47.4z
		"/>
	<path fill="#231F20" stroke="#231F20" stroke-width="0.12" d="M777.2,47.3h1.4l5.9,13h-1.6l-1.5-3.4h-7l-1.5,3.4h-1.5L777.2,47.3z
		 M780.8,55.6l-2.9-6.6l-3,6.6H780.8z"/>
	<path fill="#231F20" stroke="#231F20" stroke-width="0.12" d="M790.3,47.4h1.4l8.1,10.4V47.4h1.4v12.9h-1.2l-8.3-10.6v10.6h-1.4
		V47.4z"/>
	<path fill="#231F20" stroke="#231F20" stroke-width="0.12" d="M811.6,48.8h-4.3v-1.3h10.2v1.3h-4.3v11.6h-1.5V48.8z"/>
	<path fill="#231F20" stroke="#231F20" stroke-width="0.12" d="M822.4,58.5l0.9-1.1c1.3,1.2,2.6,1.8,4.4,1.8c1.7,0,2.9-0.9,2.9-2.2
		v0c0-1.2-0.6-1.9-3.4-2.5c-3-0.6-4.3-1.6-4.3-3.7v0c0-2,1.8-3.5,4.2-3.5c1.9,0,3.2,0.5,4.5,1.6l-0.8,1.1c-1.2-1-2.4-1.4-3.7-1.4
		c-1.7,0-2.8,0.9-2.8,2.1v0c0,1.2,0.7,1.9,3.5,2.5c2.9,0.6,4.2,1.7,4.2,3.7v0c0,2.2-1.8,3.7-4.4,3.7
		C825.6,60.5,823.9,59.9,822.4,58.5z"/>
	<path fill="#231F20" stroke="#231F20" stroke-width="0.12" d="M853.9,47.3h1.4l5.9,13h-1.6l-1.5-3.4h-7l-1.5,3.4H848L853.9,47.3z
		 M857.5,55.6l-2.9-6.6l-3,6.6H857.5z"/>
	<path fill="#231F20" stroke="#231F20" stroke-width="0.12" d="M865.9,58.5l0.9-1.1c1.3,1.2,2.6,1.8,4.4,1.8c1.7,0,2.9-0.9,2.9-2.2
		v0c0-1.2-0.6-1.9-3.4-2.5c-3-0.6-4.3-1.6-4.3-3.7v0c0-2,1.8-3.5,4.2-3.5c1.9,0,3.2,0.5,4.5,1.6l-0.8,1.1c-1.2-1-2.4-1.4-3.7-1.4
		c-1.7,0-2.8,0.9-2.8,2.1v0c0,1.2,0.7,1.9,3.5,2.5c2.9,0.6,4.2,1.7,4.2,3.7v0c0,2.2-1.8,3.7-4.4,3.7
		C869.1,60.5,867.4,59.9,865.9,58.5z"/>
	<path fill="#231F20" stroke="#231F20" stroke-width="0.12" d="M882,47.4h1.5v12.9H882V47.4z"/>
	<path fill="#231F20" stroke="#231F20" stroke-width="0.12" d="M895.3,47.3h1.4l5.9,13H901l-1.5-3.4h-7l-1.5,3.4h-1.5L895.3,47.3z
		 M898.9,55.6L896,49l-3,6.6H898.9z"/>
</g>
</svg>
