<?xml version="1.0" encoding="utf-8"?>
<!-- Generator: Adobe Illustrator 18.1.1, SVG Export Plug-In . SVG Version: 6.00 Build 0)  -->
<svg version="1.1" id="l_x2018___mperatrice" xmlns="http://www.w3.org/2000/svg" xmlns:xlink="http://www.w3.org/1999/xlink"
	 x="0px" y="0px" viewBox="0 0 801.2 319.8" enable-background="new 0 0 801.2 319.8" xml:space="preserve">
<g>
	<g>
		<path fill="#EF3706" d="M74.7,17.3"/>
	</g>
	<g>
		<path fill="#FF4612" d="M151.6,87.3c-0.3-5.7-3.7-19.3-3.7-19.3l-10.3-50.7c-12.3,1.3-14.2,1.4-29.5,1.4h-0.3h0h-0.3
			c-15.3,0-17.2-0.1-29.5-1.4L67.6,68c0,0-3.3,13.7-3.7,19.3c-0.3,5.7,0,11.5,0,11.5s0.7,4.5,1,6.1c0.3,1.6,1,4.8,2.1,7.2
			c1.1,2.4,6.4,10.4,8.8,12.2c2.4,1.8,3.5,4.1,12.4,10.4c8.9,6.3,8.9,6.3,8.9,6.3s4,2.8,5.5,5.6s2.4,8.8,2.3,9.4
			c-0.1,0.7,0.1,89.6,0.1,89.6s0,1.3-0.9,2.2c0,0-2.3,3-3.4,4.2c-1.4,1.5-4.7,4.3-4.7,4.3s-2,1.3-4.3,2.3c-2.3,1.1-6.4,2.4-6.4,2.4
			s-1.9,0.3-4.9,0.5c-7.9,0.5-8.8,2-8.8,2s-0.8,0.3-0.9,0.7c-0.2,0.3,4,1.3,4,1.3s5.2,0.7,9.1,1.1c3.9,0.4,11.8,1.1,17.9,1.6
			c2,0.2,4.1,0.2,6.1,0.2l0,0c0,0,0,0,0,0c0,0,0,0,0,0l0,0c2,0,4-0.1,6.1-0.2c6.1-0.5,14-1.2,17.9-1.6c3.9-0.4,9.1-1.1,9.1-1.1
			s4.2-0.9,4-1.3c-0.2-0.3-0.9-0.7-0.9-0.7s-0.9-1.5-8.8-2c-3-0.2-4.9-0.5-4.9-0.5s-4.1-1.3-6.4-2.4c-2.3-1.1-4.3-2.3-4.3-2.3
			s-3.2-2.8-4.7-4.3c-1.1-1.2-3.4-4.2-3.4-4.2c-0.9-0.9-0.9-2.2-0.9-2.2s0.2-88.9,0.1-89.6c-0.1-0.7,0.8-6.7,2.3-9.4
			s5.5-5.6,5.5-5.6s0,0,8.9-6.3c8.9-6.3,10-8.7,12.4-10.4c2.4-1.8,7.8-9.8,8.8-12.2c1.1-2.4,1.8-5.6,2.1-7.2c0.3-1.6,1-6.1,1-6.1
			S151.9,93,151.6,87.3z"/>
	</g>
	<g>
		<line fill="none" x1="104.7" y1="17.3" x2="104.7" y2="297.5"/>
	</g>
	<g>
		<path fill="#FFFFFF" d="M106.8,64.3c4.1-0.1,10.8,0.9,15.8,8.2c0.6,0.8,1.2,0,1.9,0.3c0.8,0.3,3.1,1.8,3.8,1.3
			c0.8-0.4,1.3,1.1,1,1.6s-1.9,1.9-1.4,2.5c0.5,0.6,2.5,2.2,2.4,2.9c-0.1,0.8-0.2,2.4,0.8,2.3s1.2,1.6,0.6,2.2
			c-0.7,0.6-1.6,1.2-1.7,2.4c-0.1,1.3,0.3,1.7-1.3,2.7c-1.5,1-2.7-0.4-3.2,0s0,1-0.8,2s-1.9,1.3-2.5,1.2c-0.6-0.2-1.3-1-1.8-1.1
			c-0.6-0.1-1.9,0.8-2.3,1.8c-0.4,0.9-1.3,2.2-1.2,4.4c0.1,2.3,0.2,7.5,0.9,9.2c0.8,1.7,1.5,3.6,1.4,4.5c0,0.9,0.1,1.4-0.9,1.3
			c-0.9-0.1-1.2-0.9-2.4-0.9s-2.8-0.2-5.1,0.9c-2.3,1.2-4.8,4.9-10.1,7.5c-5.3,2.6-3.3-1-3-1.3s2.7-3.7,3-4.8
			c0.3-1.2,0.3-10.3-0.1-11.3c-0.3-0.9-1.1-2.2-2.8-2.3c-1.7-0.2-4.4-0.4-5.3-1.2c-0.8-0.8-1.5-1.5-1.5-2.4c0-0.9,0.8-1.4,0.3-2
			c-0.5-0.6-1-1.2-1-1.2v-0.6c0,0,0.1-0.1,0.3-0.4c0.2-0.3-0.3-1.3-0.3-1.3s-0.1-0.7-1.1-0.9c-1-0.3-2.1-0.9-2.1-0.9s-0.5-0.5,0-0.7
			c0.5-0.2,2.1-3.2,2.6-4.3c0.5-1,1.1-1.9,1.4-2.8c0.3-1,0.2-4,0.1-4.8c0-0.8,0-3.7,1.3-6.8c1.3-3,6-5.3,6.8-5.8
			S106.8,64.3,106.8,64.3z"/>
	</g>
	<g>
		<path d="M5.1,149.5l0.5-0.6l18.3-5.3h1.2v87c0,4.7,0.5,8.2,1.4,10.3c1.3,3.3,4,5.3,8,5.9l0.9,1.2l-0.6,1.1H4.1l-0.6-1.1l0.8-1.2
			c4.2-0.6,7.1-2.5,8.6-5.6c1.1-2.2,1.7-5.7,1.7-10.6V162c0-3.2-0.3-5.5-0.8-6.8c-0.8-2.1-2.6-3.4-5.3-3.8L5.7,151L5.1,149.5z"/>
		<path d="M47.6,182.3c-3,0-5.4-1.3-7.1-3.8c-1.5-2.2-2.3-4.9-2.3-8c0.1-4.2,1.5-8.4,4.3-12.6c2.8-4.1,6.1-7,9.9-8.6
			c0.9,0.5,1.4,1,1.4,1.5l-0.2,0.6c-6,4.3-9.1,9.3-9.1,15c0.5,1.2,1.4,1.8,2.6,1.8c0.6,0,1.2,0,1.7,0l1.5,0.1
			c3.5,0.7,5.3,2.9,5.3,6.6c0,2.2-0.8,4-2.3,5.3C51.9,181.6,49.9,182.3,47.6,182.3z"/>
		<path d="M254.9,230.5c-0.2,9.8,2.9,15.2,9.2,16.2l1.2,1.2l-0.6,1.1h-29.9l-0.6-1.1l0.6-1.2c3.9-0.6,6.6-2.5,7.9-5.7
			c0.8-2,1.3-5.5,1.4-10.4l0.3-25c0.1-6.3-1-11.3-3.3-15.1c-2.8-4.6-7.2-7-13.1-7c-5,0-9.6,2.2-13.9,6.5c-3.9,3.9-6.4,8.5-7.4,13.8
			v26.8c0,9.9,2.6,15.3,7.7,16.2l0.9,1.2l-0.5,1.1h-29l-0.6-1.1l0.8-1.2c4-0.6,6.8-2.5,8.2-5.6c0.9-2,1.4-5.5,1.4-10.6v-25
			c0-14.7-5.1-22.1-15.4-22.1c-4.9,0-9.6,2.2-14.1,6.6c-4.4,4.4-7.2,9.1-8.2,14.1v26.3c0,4.7,0.4,8.1,1.1,10.1
			c1.2,3.4,3.6,5.4,7.1,6.1l1.1,1.2l-0.6,1.1h-28.9l-0.6-1.1l0.6-1.2c4-0.6,6.7-2.6,8-5.9c0.9-2.1,1.4-5.5,1.4-10.3v-32.2
			c0-6.5-1.7-10-5.1-10.6l-2.6-0.5l-0.6-1.5l0.5-0.6l16.8-5.9h1.4v15.3c3.2-4.3,7.2-8,11.8-10.9c5.2-3.3,10.3-5,15.1-5
			c11.2,0,18.3,5.4,21.3,16.3c2.7-4.8,6.6-8.8,11.6-11.8c5-3,10.3-4.5,15.7-4.5c7.5,0,13.1,2.4,16.9,7.2c3.8,4.8,5.7,11,5.6,18.5
			L254.9,230.5z"/>
		<path d="M283.6,241.7v21.4c0,4.9,0.6,8.4,1.7,10.6c1.5,3.1,4.4,5,8.7,5.6l1.2,1.2l-0.6,1.1h-31.4l-0.6-1.1l0.8-1.2
			c3.9-0.6,6.7-2.5,8.2-5.8c1-2.2,1.5-5.7,1.5-10.5v-64.8c0-6.5-1.8-10-5.3-10.6l-2.6-0.5l-0.6-1.5l0.5-0.6l16.8-5.9h1.4v15.9
			c7.4-11,16.6-16.5,27.8-16.5c9,0,16.4,3.4,22.4,10.2c5.9,6.8,8.9,14.7,8.9,23.8c0,10.3-3.6,19.1-10.7,26.5
			c-7.1,7.4-15.8,11.1-26.1,11.1C296.7,250.2,289.4,247.4,283.6,241.7z M283.6,224.5c0.9,6.2,3.5,11.4,7.7,15.4c4.2,4,9.5,6,15.6,6
			c7.7,0,13.6-3.2,17.7-9.5c3.5-5.3,5.3-12,5.3-20.1c0-8.7-1.9-15.9-5.6-21.7c-4.3-6.8-10.6-10.3-18.8-10.3c-6.1,0-11.1,2.2-15,6.5
			c-3.4,3.7-5.8,8.8-7,15.1V224.5z"/>
		<path d="M415.8,227.5c-2.5,7.1-6.9,12.7-13.1,16.9c-6.2,4.2-13.1,6.4-20.6,6.4c-9.9,0-18-3.6-24.3-10.7
			c-6.1-6.9-9.2-15.3-9.2-25.4c0-10.4,3.4-19,10.1-25.8c6.8-6.8,15.3-10.2,25.6-10.2c7.1,0,13.8,2.4,20.3,7.1
			c6.4,4.7,10.1,10.5,11,17.4c0,1.4-2.5,2.1-7.6,2.1h-47.5c-0.2,1.6-0.3,3.8-0.3,6.5v1.2c0,9.2,2.3,16.6,6.8,22.4
			c4.9,6.3,11.9,9.4,20.9,9.4c5.5,0,10.7-1.7,15.6-5.1c4.8-3.4,8.2-7.6,10-12.8c0.5-0.2,1-0.3,1.4-0.2
			C415.1,226.9,415.5,227.1,415.8,227.5z M361.2,201.5H402c-0.5-6-2.5-10.7-5.9-14.3c-3.4-3.6-8.1-5.4-13.9-5.4
			C371.2,181.8,364.2,188.4,361.2,201.5z"/>
		<path d="M439.2,230.5c0,5.1,0.7,8.8,2.1,11c1.7,2.9,5,4.6,9.8,5.1h0.6l0.9,1.2l-0.8,1.1h-32.8l-0.6-1.1l0.6-1.2
			c4-0.6,6.8-2.5,8.2-5.7c0.9-2.1,1.4-5.6,1.4-10.4v-33c0-6.5-1.9-10-5.6-10.6l-2.7-0.5l-0.6-1.5l0.5-0.6l17.2-5.9h1.5v19.1
			c6.4-12.7,13.7-19.1,21.6-19.1l7.3,2.4l-4.2,11.8l-4-1.3c-1.2-1.2-2.4-1.7-3.7-1.7c-1.2-0.4-2.4-0.6-3.5-0.6
			c-3.5,0-6.2,1.9-8.1,5.6c-2.5,4.8-4.2,10.6-5,17.4V230.5z"/>
		<path d="M513.1,237.5c-5.9,9.1-13.8,13.6-23.4,13.6c-6.3,0-11.4-1.3-15.4-3.9c-4.8-3.1-7.3-7.6-7.3-13.5c0-11.4,9.7-18.1,29.2-20
			c4.7-0.5,10.1-1.8,16.2-3.8v-8.5c0-12.5-5.6-18.8-16.8-18.8c-4.5,0-8.6,1.2-12.1,3.5c-4.1,2.6-6.2,6.1-6.2,10.4
			c-1.5-0.7-3-1.4-4.4-2.1c-2-1-3.2-2-3.5-3c0.9-3,4.9-6,12.1-8.9c6.5-2.6,11.7-3.9,15.4-3.9c7.9,0,14.1,1.8,18.7,5.3
			c5.2,3.9,7.9,9.7,7.9,17.2v31.3c0,8.4,1.6,12.6,4.8,12.6c1.6,0,3-0.5,4.1-1.4l0.5,1.5c-6.9,3.1-11.4,4.7-13.8,4.7
			c-3.3,0-5.3-4-6-12V237.5z M512.4,226.3v-13c-0.6,0.3-4.7,1.4-12.2,3.3c-14.2,1.2-21.3,6.6-21.3,16.2c0,4.1,1.4,7.5,4.3,10
			c2.9,2.5,6.4,3.8,10.7,3.8c5.2,0,9.7-2,13.2-6.1C510.6,236.4,512.4,231.7,512.4,226.3z"/>
		<path d="M553.5,221.7c0,15.7,3.6,23.5,10.7,23.5c1.9,0,3.7-1.3,5.3-3.9l1.1,1.5c-3,4.6-7.8,7-14.2,7c-9,0-13.5-5.4-13.5-16.2
			v-45.8h-8.5c-0.4-0.2-0.6-0.4-0.6-0.8c0-0.3,0.2-0.6,0.6-0.9l-0.2-0.6c8.1-4.2,13.7-11.1,16.8-20.7h0.8c0.3-0.5,0.6-0.8,0.9-0.8
			c0.4,0,0.6,0.2,0.7,0.6v18h18.9l-1.7,5.1h-17.2V221.7z"/>
		<path d="M593.2,230.5c0,5.1,0.7,8.8,2.1,11c1.7,2.9,5,4.6,9.8,5.1h0.6l0.9,1.2l-0.8,1.1h-32.8l-0.6-1.1l0.6-1.2
			c4-0.6,6.8-2.5,8.2-5.7c0.9-2.1,1.4-5.6,1.4-10.4v-33c0-6.5-1.9-10-5.6-10.6l-2.7-0.5l-0.6-1.5l0.5-0.6l17.2-5.9h1.5v19.1
			c6.4-12.7,13.7-19.1,21.6-19.1l7.3,2.4l-4.2,11.8l-4-1.3c-1.2-1.2-2.4-1.7-3.7-1.7c-1.2-0.4-2.4-0.6-3.5-0.6
			c-3.5,0-6.2,1.9-8.1,5.6c-2.5,4.8-4.2,10.6-5,17.4V230.5z"/>
		<path d="M641,230.5c0,4.5,0.5,8,1.4,10.3c1.3,3.3,3.9,5.3,7.7,5.9l0.9,1.2l-0.6,1.1h-29.9l-0.6-1.1l0.8-1.2
			c4.1-0.6,6.9-2.5,8.3-5.7c1-2.2,1.5-5.7,1.5-10.4v-32.2c0-3.2-0.3-5.5-0.8-6.8c-0.8-2.1-2.6-3.4-5.3-3.8l-2.7-0.5l-0.6-1.5
			l0.5-0.6l18.3-5.9h1.2V230.5z M628.3,155.5c0-1.8,0.7-3.4,2-4.6c1.4-1.3,2.9-1.9,4.8-1.9c1.8,0,3.4,0.6,4.8,1.8
			c1.4,1.2,2,2.7,2,4.5c0,1.8-0.7,3.4-2,4.6c-1.4,1.3-2.9,1.9-4.8,1.9c-1.8,0-3.4-0.6-4.8-1.8C629,158.8,628.3,157.3,628.3,155.5z"
			/>
		<path d="M717.2,230.7l2,0.6l0.3,0.9c-7.1,12.4-17.5,18.6-31.3,18.6c-10.1,0-18.2-3.3-24.3-10c-6.1-6.7-9.1-15-9.1-25.1
			c0-10.9,3.7-19.8,11.2-26.7c7.5-6.9,16.7-10.4,27.7-10.4c12.5,0,20.8,2.9,24.9,8.6c-0.4,2.4-1.6,4.8-3.6,7.1
			c-0.9,1-1.8,1.5-2.6,1.5c-1.1,0-2.2-0.9-3.3-2.7c-2.8-7.2-8.9-10.7-18.1-10.7c-8.2,0-14.4,3.4-18.6,10.3
			c-3.6,5.7-5.4,12.9-5.4,21.6c0,8.6,2.1,15.7,6.3,21.6c4.7,6.5,11.2,9.8,19.5,9.8c4.8,0,9.5-1.4,14-4.3
			C711.2,238.6,714.7,235,717.2,230.7z"/>
		<path d="M791.7,227.5c-2.5,7.1-6.9,12.7-13.1,16.9c-6.2,4.2-13.1,6.4-20.6,6.4c-9.9,0-18-3.6-24.3-10.7
			c-6.1-6.9-9.2-15.3-9.2-25.4c0-10.4,3.4-19,10.1-25.8c6.8-6.8,15.3-10.2,25.5-10.2c7.1,0,13.8,2.4,20.3,7.1
			c6.4,4.7,10.1,10.5,11,17.4c0,1.4-2.5,2.1-7.6,2.1h-47.5c-0.2,1.6-0.3,3.8-0.3,6.5v1.2c0,9.2,2.3,16.6,6.8,22.4
			c4.9,6.3,11.9,9.4,20.9,9.4c5.5,0,10.7-1.7,15.6-5.1c4.8-3.4,8.2-7.6,10-12.8c0.5-0.2,1-0.3,1.4-0.2
			C791.1,226.9,791.4,227.1,791.7,227.5z M737.2,201.5H778c-0.5-6-2.5-10.7-5.9-14.3c-3.4-3.6-8.1-5.4-13.9-5.4
			C747.2,181.8,740.2,188.4,737.2,201.5z"/>
	</g>
	<g>
		<path d="M655.3,96.5H667v6.9h-12.2c-0.5,3.7-1.2,7.1-2.2,10.1c-1,3.1-2,5.2-2.9,6.4c-1,1.2-2.3,2.2-3.9,3
			c-1.6,0.9-3.2,1.4-4.8,1.7c-1.6,0.3-5,0.4-10.3,0.4c-3.2,0-6.7,0-10.5-0.1l-1.5-8.3h14.9c3,0,5.4-0.8,7.3-2.4
			c1.9-1.6,3.2-5.2,3.9-10.9h-69.6l-0.8,7.8h-9.1l4.5-44.3h-10.4v-7.1h11.1l3.6-35.6h82.5v35.6h13.7v7.1h-13.8
			C656.4,78.3,656,88.1,655.3,96.5z M575.9,96.5h69.6c0.8-8.2,1.3-18,1.5-29.6h-68L575.9,96.5z M647.1,59.7V30.8h-64.5l-3,28.9
			H647.1z M615.1,92.5c-4-5.5-8.9-11.3-14.7-17.5l7.4-5c3.5,3.4,8.7,9.2,15.4,17.4L615.1,92.5z M615.2,55.4
			c-1.6-2.3-6.1-7.5-13.5-15.6l6.9-4.7c2.2,1.9,6.9,7.1,14.2,15.4L615.2,55.4z"/>
		<path d="M696.9,73.3c0-4.6,0.1-8.6,0.4-14.8c-4,7.7-6.5,11.2-13.9,19.6c-1.8-3.5-2.5-4.4-4.9-6.8c10.2-9.6,18-21.6,23.9-36.7
			c2.5-6.5,4.1-12.1,4.9-17.2l8.3,2.6c-1.2,3-1.2,3-4,11.2c-1.7,4.6-3.5,9.1-7,16.9v65.6c0,5.5,0.1,9.7,0.6,14h-9
			c0.5-4.7,0.7-8.2,0.7-14.4V73.3z M782.8,30c-0.8,3-1.6,6.6-2.3,10.4c-1.9,10.9-6.8,26.3-11.9,37c-3.6,7.7-6.8,12.7-12.6,19.6
			c10.3,10.2,18.5,15.2,35,21.8c-2.4,2.6-4.1,5.3-5.2,7.9c-12.5-5.9-20.2-10.7-29.5-18.7c-2-1.8-3.4-3-5.6-5.3
			c-3.8,4-6.6,6.4-11,9.7c-8.5,6.4-14.2,9.7-24.1,14.2c-1.7-3.5-2.8-5-5-7.3c10.7-4.2,16.8-7.4,25.1-13.6c4.1-2.9,7.1-5.4,10.2-8.5
			c-11.2-14-18-30.6-23.4-56.4c-0.5-2.4-0.6-2.9-1.2-4.7l8.6-1.8c0.1,3.5,2.4,14.5,4.6,22.6c3.8,14.5,9,25.2,16.7,34.6
			c9.5-12.8,14.3-23,18.5-39.8c1.9-8.2,3.2-16.7,3.2-22.8c0-0.2,0-0.7,0-1.3L782.8,30z M752.5,44.9c-4.6-9.1-8-14.3-15.2-22.7
			l6.2-3.8c6.7,7.4,8.9,10.4,15.7,22L752.5,44.9z"/>
	</g>
	<g>
		<path d="M430.9,285.2l5.7,13l4.5-10.5c0.2-0.5,0.3-1,0.3-1.5c0-1.2-0.7-1.9-2.1-2.1l-0.3-0.4l0.2-0.4l3.2,0.1l3.2-0.1l0.2,0.4
			l-0.2,0.3c-1.3,0.5-2.3,1.7-3.2,3.6l-6.4,14.5c-0.2,0.2-0.4,0.3-0.5,0.3c-0.2,0-0.3-0.1-0.5-0.3l-5.8-13.7l-5.8,13.7
			c-0.2,0.2-0.4,0.3-0.5,0.3c-0.2,0-0.3-0.1-0.5-0.3l-7-15.4c-0.7-1.4-1.5-2.3-2.6-2.7l-0.3-0.4l0.2-0.4l3.6,0.1l3.6-0.1l0.2,0.4
			l-0.2,0.3c-0.9,0.2-1.4,0.6-1.6,1.2l0,0.2c0,0.8,0.3,1.8,1,3.2l4.6,9.7l5.2-12.5l-0.3-0.6c-0.3-0.9-0.8-1.4-1.7-1.5v-0.4h4.5
			l0.1,0.2v0.2c-0.4,0-0.7,0.1-0.9,0.3c-0.1,0.1-0.1,0.2-0.1,0.4C430.7,284.7,430.8,284.9,430.9,285.2z"/>
		<path d="M464.9,285.2l5.7,13l4.5-10.5c0.2-0.5,0.3-1,0.3-1.5c0-1.2-0.7-1.9-2.1-2.1l-0.3-0.4l0.2-0.4l3.2,0.1l3.2-0.1l0.2,0.4
			l-0.2,0.3c-1.3,0.5-2.3,1.7-3.2,3.6l-6.4,14.5c-0.2,0.2-0.4,0.3-0.5,0.3c-0.2,0-0.3-0.1-0.5-0.3l-5.8-13.7l-5.8,13.7
			c-0.2,0.2-0.4,0.3-0.5,0.3c-0.2,0-0.3-0.1-0.5-0.3l-7-15.4c-0.7-1.4-1.5-2.3-2.6-2.7l-0.3-0.4l0.2-0.4l3.6,0.1l3.6-0.1l0.2,0.4
			l-0.2,0.3c-0.9,0.2-1.4,0.6-1.6,1.2l0,0.2c0,0.8,0.3,1.8,1,3.2l4.6,9.7l5.2-12.5l-0.3-0.6c-0.3-0.9-0.8-1.4-1.7-1.5v-0.4h4.5
			l0.1,0.2v0.2c-0.4,0-0.7,0.1-0.9,0.3c-0.1,0.1-0.1,0.2-0.1,0.4C464.8,284.7,464.8,284.9,464.9,285.2z"/>
		<path d="M499,285.2l5.7,13l4.5-10.5c0.2-0.5,0.3-1,0.3-1.5c0-1.2-0.7-1.9-2.1-2.1l-0.3-0.4l0.2-0.4l3.2,0.1l3.2-0.1l0.2,0.4
			l-0.2,0.3c-1.3,0.5-2.3,1.7-3.2,3.6l-6.4,14.5c-0.2,0.2-0.4,0.3-0.5,0.3c-0.2,0-0.3-0.1-0.5-0.3l-5.8-13.7l-5.8,13.7
			c-0.2,0.2-0.4,0.3-0.5,0.3c-0.2,0-0.3-0.1-0.5-0.3l-7-15.4c-0.7-1.4-1.5-2.3-2.6-2.7l-0.3-0.4l0.2-0.4l3.6,0.1l3.6-0.1l0.2,0.4
			L488,284c-0.9,0.2-1.4,0.6-1.6,1.2l0,0.2c0,0.8,0.3,1.8,1,3.2l4.6,9.7l5.2-12.5l-0.3-0.6c-0.3-0.9-0.8-1.4-1.7-1.5v-0.4h4.5
			l0.1,0.2v0.2c-0.4,0-0.7,0.1-0.9,0.3c-0.1,0.1-0.1,0.2-0.1,0.4C498.9,284.7,498.9,284.9,499,285.2z"/>
		<path d="M520.2,298.5c0.5,0,1,0.2,1.4,0.6c0.4,0.4,0.6,0.8,0.6,1.4c0,0.5-0.2,1-0.6,1.4c-0.4,0.4-0.9,0.6-1.4,0.6
			c-0.5,0-1-0.2-1.4-0.6c-0.4-0.4-0.6-0.8-0.6-1.4c0-0.5,0.2-1,0.6-1.4C519.2,298.7,519.7,298.5,520.2,298.5z"/>
		<path d="M533.4,297c0,1.2,0.1,2.2,0.4,2.8c0.4,0.9,1.1,1.4,2.1,1.6l0.2,0.3l-0.2,0.3h-8.1l-0.2-0.3l0.2-0.3
			c1.1-0.2,1.9-0.7,2.3-1.6c0.3-0.6,0.4-1.5,0.4-2.8v-8.7c0-0.9-0.1-1.5-0.2-1.8c-0.2-0.6-0.7-0.9-1.4-1l-0.7-0.1l-0.2-0.4l0.1-0.2
			l5-1.6h0.3V297z M530,276.6c0-0.5,0.2-0.9,0.6-1.3c0.4-0.3,0.8-0.5,1.3-0.5c0.5,0,0.9,0.2,1.3,0.5c0.4,0.3,0.6,0.7,0.6,1.2
			c0,0.5-0.2,0.9-0.6,1.3c-0.4,0.3-0.8,0.5-1.3,0.5c-0.5,0-0.9-0.2-1.3-0.5C530.1,277.5,530,277.1,530,276.6z"/>
		<path d="M570.3,297c-0.1,2.7,0.8,4.1,2.5,4.4l0.3,0.3l-0.2,0.3h-8.1l-0.2-0.3l0.2-0.3c1.1-0.2,1.8-0.7,2.1-1.6
			c0.2-0.5,0.3-1.5,0.4-2.8l0.1-6.8c0-1.7-0.3-3.1-0.9-4.1c-0.8-1.3-1.9-1.9-3.5-1.9c-1.4,0-2.6,0.6-3.8,1.8c-1.1,1.1-1.7,2.3-2,3.7
			v7.3c0,2.7,0.7,4.1,2.1,4.4l0.2,0.3l-0.1,0.3h-7.9l-0.2-0.3l0.2-0.3c1.1-0.2,1.8-0.7,2.2-1.5c0.2-0.5,0.4-1.5,0.4-2.9v-6.8
			c0-4-1.4-6-4.2-6c-1.3,0-2.6,0.6-3.8,1.8c-1.2,1.2-1.9,2.5-2.2,3.8v7.1c0,1.3,0.1,2.2,0.3,2.7c0.3,0.9,1,1.5,1.9,1.6l0.3,0.3
			l-0.2,0.3h-7.8l-0.2-0.3l0.2-0.3c1.1-0.2,1.8-0.7,2.2-1.6c0.2-0.6,0.4-1.5,0.4-2.8v-8.7c0-1.7-0.5-2.7-1.4-2.9l-0.7-0.1l-0.2-0.4
			l0.1-0.2l4.5-1.6h0.4v4.1c0.9-1.2,1.9-2.2,3.2-3c1.4-0.9,2.8-1.4,4.1-1.4c3,0,5,1.5,5.8,4.4c0.7-1.3,1.8-2.4,3.2-3.2
			c1.4-0.8,2.8-1.2,4.3-1.2c2,0,3.5,0.7,4.6,1.9c1,1.3,1.5,3,1.5,5L570.3,297z"/>
		<path d="M580.1,300v5.8c0,1.3,0.2,2.3,0.5,2.9c0.4,0.9,1.2,1.4,2.4,1.5l0.3,0.3l-0.2,0.3h-8.5l-0.2-0.3l0.2-0.3
			c1.1-0.2,1.8-0.7,2.2-1.6c0.3-0.6,0.4-1.5,0.4-2.8v-17.6c0-1.8-0.5-2.7-1.4-2.9l-0.7-0.1l-0.2-0.4l0.1-0.2l4.5-1.6h0.4v4.3
			c2-3,4.5-4.5,7.5-4.5c2.4,0,4.5,0.9,6.1,2.8c1.6,1.8,2.4,4,2.4,6.4c0,2.8-1,5.2-2.9,7.2c-1.9,2-4.3,3-7.1,3
			C583.6,302.3,581.6,301.5,580.1,300z M580.1,295.3c0.2,1.7,0.9,3.1,2.1,4.2c1.2,1.1,2.6,1.6,4.2,1.6c2.1,0,3.7-0.9,4.8-2.6
			c1-1.4,1.4-3.3,1.4-5.4c0-2.3-0.5-4.3-1.5-5.9c-1.2-1.9-2.9-2.8-5.1-2.8c-1.6,0-3,0.6-4.1,1.8c-0.9,1-1.6,2.4-1.9,4.1V295.3z"/>
		<path d="M617.9,296.2c-0.7,1.9-1.9,3.4-3.5,4.6c-1.7,1.1-3.5,1.7-5.6,1.7c-2.7,0-4.9-1-6.6-2.9c-1.7-1.9-2.5-4.2-2.5-6.9
			c0-2.8,0.9-5.1,2.7-7c1.8-1.8,4.1-2.8,6.9-2.8c1.9,0,3.7,0.6,5.5,1.9c1.7,1.3,2.7,2.9,3,4.7c0,0.4-0.7,0.6-2,0.6h-12.9
			c-0.1,0.4-0.1,1-0.1,1.8v0.3c0,2.5,0.6,4.5,1.8,6.1c1.3,1.7,3.2,2.5,5.7,2.5c1.5,0,2.9-0.5,4.2-1.4c1.3-0.9,2.2-2.1,2.7-3.5
			c0.1-0.1,0.3-0.1,0.4,0C617.7,296,617.8,296,617.9,296.2z M603.1,289.1h11.1c-0.1-1.6-0.7-2.9-1.6-3.9c-0.9-1-2.2-1.5-3.8-1.5
			C605.9,283.8,604,285.6,603.1,289.1z"/>
		<path d="M626.3,297c0,1.4,0.2,2.4,0.6,3c0.5,0.8,1.4,1.3,2.7,1.4h0.2l0.2,0.3l-0.2,0.3h-8.9l-0.2-0.3l0.2-0.3
			c1.1-0.2,1.8-0.7,2.2-1.6c0.2-0.6,0.4-1.5,0.4-2.8V288c0-1.7-0.5-2.7-1.5-2.9l-0.7-0.1l-0.2-0.4l0.1-0.2l4.7-1.6h0.4v5.2
			c1.7-3.4,3.7-5.2,5.9-5.2l2,0.7l-1.1,3.2l-1.1-0.4c-0.3-0.3-0.7-0.5-1-0.5c-0.3-0.1-0.6-0.2-1-0.2c-0.9,0-1.7,0.5-2.2,1.5
			c-0.7,1.3-1.1,2.9-1.4,4.7V297z"/>
		<path d="M648.4,298.9c-1.6,2.5-3.7,3.7-6.3,3.7c-1.7,0-3.1-0.4-4.2-1.1c-1.3-0.8-2-2.1-2-3.6c0-3.1,2.6-4.9,7.9-5.4
			c1.3-0.1,2.7-0.5,4.4-1v-2.3c0-3.4-1.5-5.1-4.5-5.1c-1.2,0-2.3,0.3-3.3,0.9c-1.1,0.7-1.7,1.7-1.7,2.8c-0.4-0.2-0.8-0.4-1.2-0.6
			c-0.5-0.3-0.9-0.5-0.9-0.8c0.2-0.8,1.3-1.6,3.3-2.4c1.8-0.7,3.2-1.1,4.2-1.1c2.1,0,3.8,0.5,5.1,1.4c1.4,1.1,2.1,2.6,2.1,4.7v8.5
			c0,2.3,0.4,3.4,1.3,3.4c0.4,0,0.8-0.1,1.1-0.4l0.1,0.4c-1.9,0.8-3.1,1.3-3.7,1.3c-0.9,0-1.4-1.1-1.6-3.2V298.9z M648.2,295.8v-3.5
			c-0.2,0.1-1.3,0.4-3.3,0.9c-3.9,0.3-5.8,1.8-5.8,4.4c0,1.1,0.4,2,1.2,2.7c0.8,0.7,1.7,1,2.9,1c1.4,0,2.6-0.6,3.6-1.7
			C647.7,298.6,648.2,297.3,648.2,295.8z"/>
		<path d="M661.4,294.6c0,4.2,1,6.4,2.9,6.4c0.5,0,1-0.4,1.4-1.1l0.3,0.4c-0.8,1.3-2.1,1.9-3.8,1.9c-2.4,0-3.6-1.5-3.6-4.4v-12.4
			h-2.3c-0.1-0.1-0.2-0.1-0.2-0.2c0-0.1,0.1-0.2,0.2-0.2l0-0.2c2.2-1.1,3.7-3,4.6-5.6h0.2c0.1-0.1,0.2-0.2,0.2-0.2
			c0.1,0,0.2,0.1,0.2,0.2v4.9h5.1l-0.5,1.4h-4.7V294.6z"/>
		<path d="M674.2,297c0,1.4,0.2,2.4,0.6,3c0.5,0.8,1.4,1.3,2.7,1.4h0.2l0.2,0.3l-0.2,0.3h-8.9l-0.2-0.3l0.2-0.3
			c1.1-0.2,1.8-0.7,2.2-1.6c0.2-0.6,0.4-1.5,0.4-2.8V288c0-1.7-0.5-2.7-1.5-2.9l-0.7-0.1l-0.2-0.4l0.1-0.2l4.7-1.6h0.4v5.2
			c1.7-3.4,3.7-5.2,5.9-5.2l2,0.7l-1.1,3.2l-1.1-0.4c-0.3-0.3-0.7-0.5-1-0.5c-0.3-0.1-0.6-0.2-1-0.2c-0.9,0-1.7,0.5-2.2,1.5
			c-0.7,1.3-1.1,2.9-1.4,4.7V297z"/>
		<path d="M689.2,297c0,1.2,0.1,2.2,0.4,2.8c0.4,0.9,1.1,1.4,2.1,1.6l0.2,0.3l-0.2,0.3h-8.1l-0.2-0.3l0.2-0.3
			c1.1-0.2,1.9-0.7,2.3-1.6c0.3-0.6,0.4-1.5,0.4-2.8v-8.7c0-0.9-0.1-1.5-0.2-1.8c-0.2-0.6-0.7-0.9-1.4-1l-0.7-0.1l-0.2-0.4l0.1-0.2
			l5-1.6h0.3V297z M685.7,276.6c0-0.5,0.2-0.9,0.6-1.3c0.4-0.3,0.8-0.5,1.3-0.5c0.5,0,0.9,0.2,1.3,0.5c0.4,0.3,0.6,0.7,0.6,1.2
			c0,0.5-0.2,0.9-0.6,1.3c-0.4,0.3-0.8,0.5-1.3,0.5c-0.5,0-0.9-0.2-1.3-0.5C685.9,277.5,685.7,277.1,685.7,276.6z"/>
		<path d="M711.9,297l0.5,0.2l0.1,0.2c-1.9,3.4-4.7,5-8.5,5c-2.7,0-4.9-0.9-6.6-2.7c-1.7-1.8-2.5-4.1-2.5-6.8c0-3,1-5.4,3-7.2
			c2-1.9,4.5-2.8,7.5-2.8c3.4,0,5.6,0.8,6.8,2.3c-0.1,0.7-0.4,1.3-1,1.9c-0.2,0.3-0.5,0.4-0.7,0.4c-0.3,0-0.6-0.2-0.9-0.7
			c-0.8-1.9-2.4-2.9-4.9-2.9c-2.2,0-3.9,0.9-5,2.8c-1,1.6-1.5,3.5-1.5,5.8c0,2.3,0.6,4.3,1.7,5.8c1.3,1.8,3,2.7,5.3,2.7
			c1.3,0,2.6-0.4,3.8-1.2C710.2,299.1,711.2,298.2,711.9,297z"/>
		<path d="M734.1,296.2c-0.7,1.9-1.9,3.4-3.5,4.6c-1.7,1.1-3.5,1.7-5.6,1.7c-2.7,0-4.9-1-6.6-2.9c-1.7-1.9-2.5-4.2-2.5-6.9
			c0-2.8,0.9-5.1,2.7-7c1.8-1.8,4.1-2.8,6.9-2.8c1.9,0,3.7,0.6,5.5,1.9c1.7,1.3,2.7,2.9,3,4.7c0,0.4-0.7,0.6-2,0.6h-12.9
			c-0.1,0.4-0.1,1-0.1,1.8v0.3c0,2.5,0.6,4.5,1.8,6.1c1.3,1.7,3.2,2.5,5.7,2.5c1.5,0,2.9-0.5,4.2-1.4c1.3-0.9,2.2-2.1,2.7-3.5
			c0.1-0.1,0.3-0.1,0.4,0C733.9,296,734,296,734.1,296.2z M719.3,289.1h11.1c-0.1-1.6-0.7-2.9-1.6-3.9c-0.9-1-2.2-1.5-3.8-1.5
			C722,283.8,720.1,285.6,719.3,289.1z"/>
		<path d="M741.8,298.5c0.5,0,1,0.2,1.4,0.6c0.4,0.4,0.6,0.8,0.6,1.4c0,0.5-0.2,1-0.6,1.4c-0.4,0.4-0.9,0.6-1.4,0.6
			c-0.5,0-1-0.2-1.4-0.6c-0.4-0.4-0.6-0.8-0.6-1.4c0-0.5,0.2-1,0.6-1.4C740.8,298.7,741.3,298.5,741.8,298.5z"/>
		<path d="M766.7,297l0.5,0.2l0.1,0.2c-1.9,3.4-4.7,5-8.5,5c-2.7,0-4.9-0.9-6.6-2.7c-1.7-1.8-2.5-4.1-2.5-6.8c0-3,1-5.4,3-7.2
			c2-1.9,4.5-2.8,7.5-2.8c3.4,0,5.6,0.8,6.8,2.3c-0.1,0.7-0.4,1.3-1,1.9c-0.2,0.3-0.5,0.4-0.7,0.4c-0.3,0-0.6-0.2-0.9-0.7
			c-0.8-1.9-2.4-2.9-4.9-2.9c-2.2,0-3.9,0.9-5,2.8c-1,1.6-1.5,3.5-1.5,5.8c0,2.3,0.6,4.3,1.7,5.8c1.3,1.8,3,2.7,5.3,2.7
			c1.3,0,2.6-0.4,3.8-1.2C765.1,299.1,766,298.2,766.7,297z"/>
		<path d="M789.2,297c-0.1,2.7,0.7,4.1,2.3,4.4l0.3,0.3l-0.2,0.3h-8l-0.2-0.3l0.2-0.3c1.1-0.2,1.8-0.7,2.2-1.6
			c0.2-0.5,0.3-1.5,0.4-2.8l0.2-6.6c0-1.7-0.3-3.1-0.9-4.2c-0.8-1.3-2-2-3.5-2c-1.5,0-2.9,0.5-4.2,1.6c-1.3,1.1-2.1,2.4-2.4,3.8v7.3
			c0,2.7,0.7,4.1,2.2,4.4l0.3,0.3l-0.2,0.3H770l-0.2-0.3l0.2-0.3c1-0.2,1.7-0.7,2.1-1.6c0.2-0.6,0.4-1.5,0.4-2.8v-8.7
			c0-1.7-0.5-2.7-1.4-2.9l-0.7-0.1l-0.2-0.4l0.1-0.2l4.5-1.6h0.4v4.1c0.9-1.2,2-2.2,3.4-3.1c1.4-0.8,2.8-1.2,4.3-1.2
			c2.1,0,3.7,0.6,4.9,1.9c1.1,1.2,1.6,2.9,1.6,5L789.2,297z"/>
	</g>
</g>
<g>
	<g>
		<path fill="#EF3706" d="M77.7,467.8"/>
	</g>
	<g>
		<path fill="#FF4612" d="M154.5,537.9c-0.3-5.7-3.7-19.3-3.7-19.3l-10.3-50.7c-12.3,1.3-14.2,1.4-29.5,1.4h-0.3h0h-0.3
			c-15.3,0-17.2-0.1-29.5-1.4l-10.3,50.7c0,0-3.3,13.7-3.7,19.3c-0.3,5.7,0,11.5,0,11.5s0.7,4.5,1,6.1c0.3,1.6,1,4.8,2.1,7.2
			c1.1,2.4,6.4,10.4,8.8,12.2c2.4,1.8,3.5,4.1,12.4,10.4c8.9,6.3,8.9,6.3,8.9,6.3s4,2.8,5.5,5.6s2.4,8.8,2.3,9.4
			c-0.1,0.7,0.1,89.6,0.1,89.6s0,1.3-0.9,2.2c0,0-2.3,3-3.4,4.2c-1.4,1.5-4.7,4.3-4.7,4.3s-2,1.3-4.3,2.3c-2.3,1.1-6.4,2.4-6.4,2.4
			s-1.9,0.3-4.9,0.5c-7.9,0.5-8.8,2-8.8,2s-0.8,0.3-0.9,0.7c-0.2,0.3,4,1.3,4,1.3s5.2,0.7,9.1,1.1c3.9,0.4,11.8,1.1,17.9,1.6
			c2,0.2,4.1,0.2,6.1,0.2l0,0c0,0,0,0,0,0c0,0,0,0,0,0l0,0c2,0,4-0.1,6.1-0.2c6.1-0.5,14-1.2,17.9-1.6c3.9-0.4,9.1-1.1,9.1-1.1
			s4.2-0.9,4-1.3c-0.2-0.3-0.9-0.7-0.9-0.7s-0.9-1.5-8.8-2c-3-0.2-4.9-0.5-4.9-0.5s-4.1-1.3-6.4-2.4c-2.3-1.1-4.3-2.3-4.3-2.3
			s-3.2-2.8-4.7-4.3c-1.1-1.2-3.4-4.2-3.4-4.2c-0.9-0.9-0.9-2.2-0.9-2.2s0.2-88.9,0.1-89.6c-0.1-0.7,0.8-6.7,2.3-9.4
			s5.5-5.6,5.5-5.6s0,0,8.9-6.3c8.9-6.3,10-8.7,12.4-10.4c2.4-1.8,7.8-9.8,8.8-12.2c1.1-2.4,1.8-5.6,2.1-7.2c0.3-1.6,1-6.1,1-6.1
			S154.8,543.5,154.5,537.9z"/>
	</g>
	<g>
		<path fill="#FFFFFF" d="M109.7,514.8c4.1-0.1,10.8,0.9,15.8,8.2c0.6,0.8,1.2,0,1.9,0.3c0.7,0.3,3.1,1.8,3.8,1.3
			c0.8-0.4,1.3,1.1,1,1.6s-1.9,1.9-1.4,2.5c0.5,0.6,2.5,2.2,2.4,2.9c-0.1,0.8-0.2,2.4,0.8,2.3c1-0.1,1.2,1.6,0.6,2.2
			c-0.7,0.6-1.6,1.2-1.7,2.4c-0.1,1.3,0.3,1.7-1.3,2.7s-2.7-0.4-3.2,0c-0.5,0.4,0,1-0.8,2s-1.9,1.3-2.5,1.2c-0.6-0.2-1.3-1-1.8-1.1
			c-0.6-0.1-1.9,0.8-2.3,1.8c-0.4,0.9-1.3,2.2-1.2,4.4c0.1,2.3,0.2,7.5,0.9,9.2c0.8,1.7,1.5,3.6,1.4,4.5c0,0.9,0.1,1.4-0.9,1.3
			c-0.9-0.1-1.2-0.9-2.4-0.9c-1.2,0-2.8-0.2-5.1,0.9s-4.8,4.9-10.1,7.5c-5.3,2.6-3.3-1-3-1.3s2.7-3.7,3-4.8
			c0.3-1.2,0.3-10.3-0.1-11.3c-0.3-0.9-1.1-2.2-2.8-2.3c-1.7-0.2-4.4-0.4-5.3-1.2c-0.8-0.8-1.5-1.5-1.5-2.4c0-0.9,0.8-1.4,0.3-2
			c-0.5-0.6-1-1.2-1-1.2V545c0,0,0.1-0.1,0.3-0.4c0.2-0.3-0.3-1.3-0.3-1.3s-0.1-0.7-1.1-0.9c-1-0.3-2.1-0.9-2.1-0.9s-0.5-0.5,0-0.7
			c0.5-0.2,2.1-3.2,2.6-4.3c0.5-1,1.1-1.9,1.4-2.8c0.3-1,0.2-4,0.1-4.8c0-0.8,0-3.7,1.3-6.8c1.3-3,6-5.3,6.8-5.8
			S109.7,514.8,109.7,514.8z"/>
	</g>
	<g>
		<path fill="#FFFFF9" d="M8.1,600l0.5-0.6l18.3-5.3H28v87c0,4.7,0.5,8.2,1.4,10.3c1.3,3.3,4,5.3,8,5.9l0.9,1.2l-0.6,1.1H7l-0.6-1.1
			l0.8-1.2c4.2-0.6,7.1-2.5,8.6-5.6c1.1-2.2,1.7-5.7,1.7-10.6v-68.5c0-3.2-0.3-5.5-0.8-6.8c-0.8-2.1-2.6-3.4-5.3-3.8l-2.7-0.5
			L8.1,600z"/>
		<path fill="#FFFFF9" d="M50.6,632.8c-3,0-5.4-1.3-7.1-3.8c-1.5-2.2-2.3-4.9-2.3-8c0.1-4.2,1.5-8.4,4.3-12.6c2.8-4.1,6.1-7,9.9-8.6
			c0.9,0.5,1.4,1,1.4,1.5l-0.2,0.6c-6,4.3-9.1,9.3-9.1,15c0.5,1.2,1.4,1.8,2.6,1.8c0.6,0,1.2,0,1.7,0l1.5,0.1
			c3.5,0.7,5.3,2.9,5.3,6.6c0,2.2-0.8,4-2.3,5.3C54.8,632.1,52.9,632.8,50.6,632.8z"/>
		<path fill="#FFFFF9" d="M257.8,681.1c-0.2,9.8,2.9,15.2,9.2,16.2l1.2,1.2l-0.6,1.1h-29.9l-0.6-1.1l0.6-1.2
			c3.9-0.6,6.6-2.5,7.9-5.7c0.8-2,1.3-5.5,1.4-10.4l0.3-25c0.1-6.3-1-11.3-3.3-15.1c-2.8-4.6-7.2-7-13.1-7c-5,0-9.6,2.2-13.9,6.5
			c-3.9,3.9-6.4,8.5-7.4,13.8v26.8c0,9.9,2.6,15.3,7.7,16.2l0.9,1.2l-0.5,1.1h-29l-0.6-1.1l0.8-1.2c4-0.6,6.8-2.5,8.2-5.6
			c0.9-2,1.4-5.5,1.4-10.6v-25c0-14.7-5.1-22.1-15.4-22.1c-4.9,0-9.6,2.2-14.1,6.6c-4.4,4.4-7.2,9.1-8.2,14.1v26.3
			c0,4.7,0.4,8.1,1.1,10.1c1.2,3.4,3.6,5.4,7.1,6.1l1.1,1.2l-0.6,1.1h-28.9l-0.6-1.1l0.6-1.2c4-0.6,6.7-2.6,8-5.9
			c0.9-2.1,1.4-5.5,1.4-10.3v-32.2c0-6.5-1.7-10-5.1-10.6l-2.6-0.5l-0.6-1.5l0.5-0.6l16.8-5.9h1.4v15.3c3.2-4.3,7.2-8,11.8-10.9
			c5.2-3.3,10.3-5,15.1-5c11.2,0,18.3,5.4,21.3,16.3c2.7-4.8,6.6-8.8,11.6-11.8c5-3,10.3-4.5,15.7-4.5c7.5,0,13.1,2.4,16.9,7.2
			c3.8,4.8,5.7,11,5.6,18.5L257.8,681.1z"/>
		<path fill="#FFFFF9" d="M286.6,692.3v21.4c0,4.9,0.6,8.4,1.7,10.6c1.5,3.1,4.4,5,8.7,5.6l1.2,1.2l-0.6,1.1h-31.4l-0.6-1.1l0.8-1.2
			c3.9-0.6,6.7-2.5,8.2-5.8c1-2.2,1.5-5.7,1.5-10.5v-64.8c0-6.5-1.8-10-5.3-10.6l-2.6-0.5l-0.6-1.5l0.5-0.6l16.8-5.9h1.4v15.9
			c7.4-11,16.6-16.5,27.8-16.5c9,0,16.4,3.4,22.4,10.2c5.9,6.8,8.9,14.7,8.9,23.8c0,10.3-3.6,19.1-10.7,26.5
			c-7.1,7.4-15.8,11.1-26.1,11.1C299.6,700.7,292.3,697.9,286.6,692.3z M286.6,675.1c0.9,6.2,3.5,11.4,7.7,15.4c4.2,4,9.5,6,15.6,6
			c7.7,0,13.6-3.2,17.7-9.5c3.5-5.3,5.3-12,5.3-20.1c0-8.7-1.9-15.9-5.6-21.7c-4.3-6.8-10.6-10.3-18.8-10.3c-6.1,0-11.1,2.2-15,6.5
			c-3.4,3.7-5.8,8.8-7,15.1V675.1z"/>
		<path fill="#FFFFF9" d="M418.7,678c-2.5,7.1-6.9,12.7-13.1,16.9c-6.2,4.2-13.1,6.4-20.6,6.4c-9.9,0-18-3.6-24.3-10.7
			c-6.1-6.9-9.2-15.3-9.2-25.4c0-10.4,3.4-19,10.1-25.8c6.8-6.8,15.3-10.2,25.6-10.2c7.1,0,13.8,2.4,20.3,7.1
			c6.4,4.7,10.1,10.5,11,17.4c0,1.4-2.5,2.1-7.6,2.1h-47.5c-0.2,1.6-0.3,3.8-0.3,6.5v1.2c0,9.2,2.3,16.6,6.8,22.4
			c4.9,6.3,11.9,9.4,20.9,9.4c5.5,0,10.7-1.7,15.6-5.1c4.8-3.4,8.2-7.6,10-12.8c0.5-0.2,1-0.3,1.4-0.2
			C418,677.4,418.4,677.6,418.7,678z M364.1,652h40.8c-0.5-6-2.5-10.7-5.9-14.3c-3.4-3.6-8.1-5.4-13.9-5.4
			C374.1,632.3,367.1,638.9,364.1,652z"/>
		<path fill="#FFFFF9" d="M442.1,681.1c0,5.1,0.7,8.8,2.1,11c1.7,2.9,5,4.6,9.8,5.1h0.6l0.9,1.2l-0.8,1.1H422l-0.6-1.1l0.6-1.2
			c4-0.6,6.8-2.5,8.2-5.7c0.9-2.1,1.4-5.6,1.4-10.4v-33c0-6.5-1.9-10-5.6-10.6l-2.7-0.5l-0.6-1.5l0.5-0.6l17.2-5.9h1.5v19.1
			c6.4-12.7,13.7-19.1,21.6-19.1l7.3,2.4l-4.2,11.8l-4-1.3c-1.2-1.2-2.4-1.7-3.7-1.7c-1.2-0.4-2.4-0.6-3.5-0.6
			c-3.5,0-6.2,1.9-8.1,5.6c-2.5,4.8-4.2,10.6-5,17.4V681.1z"/>
		<path fill="#FFFFF9" d="M516.1,688c-5.9,9.1-13.8,13.6-23.4,13.6c-6.3,0-11.4-1.3-15.4-3.9c-4.8-3.1-7.3-7.6-7.3-13.5
			c0-11.4,9.7-18.1,29.2-20c4.7-0.5,10.1-1.8,16.2-3.8V652c0-12.5-5.6-18.8-16.8-18.8c-4.5,0-8.6,1.2-12.1,3.5
			c-4.1,2.6-6.2,6.1-6.2,10.4c-1.5-0.7-3-1.4-4.4-2.1c-2-1-3.2-2-3.5-3c0.9-3,4.9-6,12.1-8.9c6.5-2.6,11.7-3.9,15.4-3.9
			c7.9,0,14.1,1.8,18.7,5.3c5.2,3.9,7.9,9.7,7.9,17.2V683c0,8.4,1.6,12.6,4.8,12.6c1.6,0,3-0.5,4.1-1.4l0.5,1.5
			c-6.9,3.1-11.4,4.7-13.8,4.7c-3.3,0-5.3-4-6-12V688z M515.3,676.8v-13c-0.6,0.3-4.7,1.4-12.2,3.3c-14.2,1.2-21.3,6.6-21.3,16.2
			c0,4.1,1.4,7.5,4.3,10c2.9,2.5,6.4,3.8,10.7,3.8c5.2,0,9.7-2,13.2-6.1C513.5,686.9,515.3,682.2,515.3,676.8z"/>
		<path fill="#FFFFF9" d="M556.4,672.2c0,15.7,3.6,23.5,10.7,23.5c1.9,0,3.7-1.3,5.3-3.9l1.1,1.5c-3,4.6-7.8,7-14.2,7
			c-9,0-13.5-5.4-13.5-16.2v-45.8h-8.5c-0.4-0.2-0.6-0.4-0.6-0.8c0-0.3,0.2-0.6,0.6-0.9l-0.2-0.6c8.1-4.2,13.7-11.1,16.8-20.7h0.8
			c0.3-0.5,0.6-0.8,0.9-0.8c0.4,0,0.6,0.2,0.7,0.6v18h18.9l-1.7,5.1h-17.2V672.2z"/>
		<path fill="#FFFFF9" d="M596.2,681.1c0,5.1,0.7,8.8,2.1,11c1.7,2.9,5,4.6,9.8,5.1h0.6l0.9,1.2l-0.8,1.1h-32.8l-0.6-1.1l0.6-1.2
			c4-0.6,6.8-2.5,8.2-5.7c0.9-2.1,1.4-5.6,1.4-10.4v-33c0-6.5-1.9-10-5.6-10.6l-2.7-0.5l-0.6-1.5l0.5-0.6l17.2-5.9h1.5v19.1
			c6.4-12.7,13.7-19.1,21.6-19.1l7.3,2.4l-4.2,11.8l-4-1.3c-1.2-1.2-2.4-1.7-3.7-1.7c-1.2-0.4-2.4-0.6-3.5-0.6
			c-3.5,0-6.2,1.9-8.1,5.6c-2.5,4.8-4.2,10.6-5,17.4V681.1z"/>
		<path fill="#FFFFF9" d="M643.9,681.1c0,4.5,0.5,8,1.4,10.3c1.3,3.3,3.9,5.3,7.7,5.9l0.9,1.2l-0.6,1.1h-29.9l-0.6-1.1l0.8-1.2
			c4.1-0.6,6.9-2.5,8.3-5.7c1-2.2,1.5-5.7,1.5-10.4v-32.2c0-3.2-0.3-5.5-0.8-6.8c-0.8-2.1-2.6-3.4-5.3-3.8l-2.7-0.5l-0.6-1.5
			l0.5-0.6l18.3-5.9h1.2V681.1z M631.2,606c0-1.8,0.7-3.4,2-4.6c1.4-1.3,2.9-1.9,4.8-1.9s3.4,0.6,4.8,1.8c1.4,1.2,2,2.7,2,4.5
			c0,1.8-0.7,3.4-2,4.6c-1.4,1.3-2.9,1.9-4.8,1.9s-3.4-0.6-4.8-1.8C631.9,609.4,631.2,607.8,631.2,606z"/>
		<path fill="#FFFFF9" d="M720.1,681.2l2,0.6l0.3,0.9c-7.1,12.4-17.5,18.6-31.3,18.6c-10.1,0-18.2-3.3-24.3-10
			c-6.1-6.7-9.1-15-9.1-25.1c0-10.9,3.7-19.8,11.2-26.7c7.5-6.9,16.7-10.4,27.7-10.4c12.5,0,20.8,2.9,24.9,8.6
			c-0.4,2.4-1.6,4.8-3.6,7.1c-0.9,1-1.8,1.5-2.6,1.5c-1.1,0-2.2-0.9-3.3-2.7c-2.8-7.2-8.9-10.7-18.1-10.7c-8.2,0-14.4,3.4-18.6,10.3
			c-3.6,5.7-5.4,12.9-5.4,21.6c0,8.6,2.1,15.7,6.3,21.6c4.7,6.5,11.2,9.8,19.5,9.8c4.8,0,9.5-1.4,14-4.3
			C714.1,689.1,717.6,685.5,720.1,681.2z"/>
		<path fill="#FFFFF9" d="M794.7,678c-2.5,7.1-6.9,12.7-13.1,16.9c-6.2,4.2-13.1,6.4-20.6,6.4c-9.9,0-18-3.6-24.3-10.7
			c-6.1-6.9-9.2-15.3-9.2-25.4c0-10.4,3.4-19,10.1-25.8c6.8-6.8,15.3-10.2,25.5-10.2c7.1,0,13.8,2.4,20.3,7.1
			c6.4,4.7,10.1,10.5,11,17.4c0,1.4-2.5,2.1-7.6,2.1h-47.5c-0.2,1.6-0.3,3.8-0.3,6.5v1.2c0,9.2,2.3,16.6,6.8,22.4
			c4.9,6.3,11.9,9.4,20.9,9.4c5.5,0,10.7-1.7,15.6-5.1c4.8-3.4,8.2-7.6,10-12.8c0.5-0.2,1-0.3,1.4-0.2
			C794,677.4,794.4,677.6,794.7,678z M740.1,652h40.8c-0.5-6-2.5-10.7-5.9-14.3c-3.4-3.6-8.1-5.4-13.9-5.4
			C750.1,632.3,743.1,638.9,740.1,652z"/>
	</g>
	<g>
		<path fill="#FFFFF9" d="M658.3,547h11.7v6.9h-12.2c-0.5,3.7-1.2,7.1-2.2,10.1c-1,3.1-2,5.2-2.9,6.4c-1,1.2-2.3,2.2-3.9,3
			c-1.6,0.9-3.2,1.4-4.8,1.7c-1.6,0.3-5,0.4-10.3,0.4c-3.2,0-6.7,0-10.5-0.1l-1.5-8.3h14.9c3,0,5.4-0.8,7.3-2.4
			c1.9-1.6,3.2-5.2,3.9-10.9h-69.6l-0.8,7.8h-9.1l4.5-44.3h-10.4v-7.1h11.1l3.6-35.6h82.5v35.6h13.7v7.1h-13.8
			C659.3,528.8,658.9,538.7,658.3,547z M578.9,547h69.6c0.8-8.2,1.3-18,1.5-29.6h-68L578.9,547z M650.1,510.2v-28.9h-64.5l-3,28.9
			H650.1z M618,543.1c-4-5.5-8.9-11.3-14.7-17.5l7.4-5c3.5,3.4,8.7,9.2,15.4,17.4L618,543.1z M618.1,506c-1.6-2.3-6.1-7.5-13.5-15.6
			l6.9-4.7c2.2,1.9,6.9,7.1,14.2,15.4L618.1,506z"/>
		<path fill="#FFFFF9" d="M699.9,523.8c0-4.6,0.1-8.6,0.4-14.8c-4,7.7-6.5,11.2-13.9,19.6c-1.8-3.5-2.5-4.4-4.9-6.8
			c10.2-9.6,18-21.6,23.9-36.7c2.5-6.5,4.1-12.1,4.9-17.2l8.3,2.6c-1.2,3-1.2,3-4,11.2c-1.7,4.6-3.5,9.1-7,16.9v65.6
			c0,5.5,0.1,9.7,0.6,14h-9c0.5-4.7,0.7-8.2,0.7-14.4V523.8z M785.8,480.5c-0.8,3-1.6,6.6-2.3,10.4c-1.9,10.9-6.8,26.3-11.9,37
			c-3.6,7.7-6.8,12.7-12.6,19.6c10.3,10.2,18.5,15.2,35,21.8c-2.4,2.6-4.1,5.3-5.2,7.9c-12.5-5.9-20.2-10.7-29.5-18.7
			c-2-1.8-3.4-3-5.6-5.3c-3.8,4-6.6,6.4-11,9.7c-8.5,6.4-14.2,9.7-24.1,14.2c-1.7-3.5-2.8-5-5-7.3c10.7-4.2,16.8-7.4,25.1-13.6
			c4.1-2.9,7.1-5.4,10.2-8.5c-11.2-14-18-30.6-23.4-56.4c-0.5-2.4-0.6-2.9-1.2-4.7l8.6-1.8c0.1,3.5,2.4,14.5,4.6,22.6
			c3.8,14.5,9,25.2,16.7,34.6c9.5-12.8,14.3-23,18.5-39.8c1.9-8.2,3.2-16.7,3.2-22.8c0-0.2,0-0.7,0-1.3L785.8,480.5z M755.4,495.4
			c-4.6-9.1-8-14.3-15.2-22.7l6.2-3.8c6.7,7.4,8.9,10.4,15.7,22L755.4,495.4z"/>
	</g>
	<g>
		<path fill="#FFFFF9" d="M433.8,735.7l5.7,13l4.5-10.5c0.2-0.5,0.3-1,0.3-1.5c0-1.2-0.7-1.9-2.1-2.1l-0.3-0.4l0.2-0.4l3.2,0.1
			l3.2-0.1l0.2,0.4l-0.2,0.3c-1.3,0.5-2.3,1.7-3.2,3.6l-6.4,14.5c-0.2,0.2-0.4,0.3-0.5,0.3c-0.2,0-0.3-0.1-0.5-0.3l-5.8-13.7
			l-5.8,13.7c-0.2,0.2-0.4,0.3-0.5,0.3c-0.2,0-0.3-0.1-0.5-0.3l-7-15.4c-0.7-1.4-1.5-2.3-2.6-2.7l-0.3-0.4l0.2-0.4l3.6,0.1l3.6-0.1
			l0.2,0.4l-0.2,0.3c-0.9,0.2-1.4,0.6-1.6,1.2l0,0.2c0,0.8,0.3,1.8,1,3.2l4.6,9.7l5.2-12.5l-0.3-0.6c-0.3-0.9-0.8-1.4-1.7-1.5v-0.4
			h4.5l0.1,0.2v0.2c-0.4,0-0.7,0.1-0.9,0.3c-0.1,0.1-0.1,0.2-0.1,0.4C433.7,735.2,433.7,735.4,433.8,735.7z"/>
		<path fill="#FFFFF9" d="M467.9,735.7l5.7,13l4.5-10.5c0.2-0.5,0.3-1,0.3-1.5c0-1.2-0.7-1.9-2.1-2.1l-0.3-0.4l0.2-0.4l3.2,0.1
			l3.2-0.1l0.2,0.4l-0.2,0.3c-1.3,0.5-2.3,1.7-3.2,3.6l-6.4,14.5c-0.2,0.2-0.4,0.3-0.5,0.3c-0.2,0-0.3-0.1-0.5-0.3l-5.8-13.7
			l-5.8,13.7c-0.2,0.2-0.4,0.3-0.5,0.3c-0.2,0-0.3-0.1-0.5-0.3l-7-15.4c-0.7-1.4-1.5-2.3-2.6-2.7l-0.3-0.4l0.2-0.4l3.6,0.1l3.6-0.1
			l0.2,0.4l-0.2,0.3c-0.9,0.2-1.4,0.6-1.6,1.2l0,0.2c0,0.8,0.3,1.8,1,3.2l4.6,9.7l5.2-12.5l-0.3-0.6c-0.3-0.9-0.8-1.4-1.7-1.5v-0.4
			h4.5l0.1,0.2v0.2c-0.4,0-0.7,0.1-0.9,0.3c-0.1,0.1-0.1,0.2-0.1,0.4C467.7,735.2,467.8,735.4,467.9,735.7z"/>
		<path fill="#FFFFF9" d="M501.9,735.7l5.7,13l4.5-10.5c0.2-0.5,0.3-1,0.3-1.5c0-1.2-0.7-1.9-2.1-2.1l-0.3-0.4l0.2-0.4l3.2,0.1
			l3.2-0.1l0.2,0.4l-0.2,0.3c-1.3,0.5-2.3,1.7-3.2,3.6l-6.4,14.5c-0.2,0.2-0.4,0.3-0.5,0.3c-0.2,0-0.3-0.1-0.5-0.3l-5.8-13.7
			l-5.8,13.7c-0.2,0.2-0.4,0.3-0.5,0.3c-0.2,0-0.3-0.1-0.5-0.3l-7-15.4c-0.7-1.4-1.5-2.3-2.6-2.7l-0.3-0.4l0.2-0.4l3.6,0.1l3.6-0.1
			l0.2,0.4l-0.2,0.3c-0.9,0.2-1.4,0.6-1.6,1.2l0,0.2c0,0.8,0.3,1.8,1,3.2l4.6,9.7l5.2-12.5l-0.3-0.6c-0.3-0.9-0.8-1.4-1.7-1.5v-0.4
			h4.5l0.1,0.2v0.2c-0.4,0-0.7,0.1-0.9,0.3c-0.1,0.1-0.1,0.2-0.1,0.4C501.8,735.2,501.9,735.4,501.9,735.7z"/>
		<path fill="#FFFFF9" d="M523.1,749.1c0.5,0,1,0.2,1.4,0.6c0.4,0.4,0.6,0.8,0.6,1.4c0,0.5-0.2,1-0.6,1.4c-0.4,0.4-0.9,0.6-1.4,0.6
			c-0.5,0-1-0.2-1.4-0.6c-0.4-0.4-0.6-0.8-0.6-1.4c0-0.5,0.2-1,0.6-1.4C522.1,749.2,522.6,749.1,523.1,749.1z"/>
		<path fill="#FFFFF9" d="M536.3,747.5c0,1.2,0.1,2.2,0.4,2.8c0.4,0.9,1.1,1.4,2.1,1.6l0.2,0.3l-0.2,0.3h-8.1l-0.2-0.3l0.2-0.3
			c1.1-0.2,1.9-0.7,2.3-1.6c0.3-0.6,0.4-1.5,0.4-2.8v-8.7c0-0.9-0.1-1.5-0.2-1.8c-0.2-0.6-0.7-0.9-1.4-1l-0.7-0.1l-0.2-0.4l0.1-0.2
			l5-1.6h0.3V747.5z M532.9,727.2c0-0.5,0.2-0.9,0.6-1.3c0.4-0.3,0.8-0.5,1.3-0.5c0.5,0,0.9,0.2,1.3,0.5c0.4,0.3,0.6,0.7,0.6,1.2
			c0,0.5-0.2,0.9-0.6,1.3c-0.4,0.3-0.8,0.5-1.3,0.5c-0.5,0-0.9-0.2-1.3-0.5C533.1,728.1,532.9,727.7,532.9,727.2z"/>
		<path fill="#FFFFF9" d="M573.2,747.5c-0.1,2.7,0.8,4.1,2.5,4.4l0.3,0.3l-0.2,0.3h-8.1l-0.2-0.3l0.2-0.3c1.1-0.2,1.8-0.7,2.1-1.6
			c0.2-0.5,0.3-1.5,0.4-2.8l0.1-6.8c0-1.7-0.3-3.1-0.9-4.1c-0.8-1.3-1.9-1.9-3.5-1.9c-1.4,0-2.6,0.6-3.8,1.8c-1.1,1.1-1.7,2.3-2,3.7
			v7.3c0,2.7,0.7,4.1,2.1,4.4l0.2,0.3l-0.1,0.3h-7.9l-0.2-0.3l0.2-0.3c1.1-0.2,1.8-0.7,2.2-1.5c0.2-0.5,0.4-1.5,0.4-2.9v-6.8
			c0-4-1.4-6-4.2-6c-1.3,0-2.6,0.6-3.8,1.8c-1.2,1.2-1.9,2.5-2.2,3.8v7.1c0,1.3,0.1,2.2,0.3,2.7c0.3,0.9,1,1.5,1.9,1.6l0.3,0.3
			l-0.2,0.3h-7.8l-0.2-0.3l0.2-0.3c1.1-0.2,1.8-0.7,2.2-1.6c0.2-0.6,0.4-1.5,0.4-2.8v-8.7c0-1.7-0.5-2.7-1.4-2.9l-0.7-0.1l-0.2-0.4
			l0.1-0.2l4.5-1.6h0.4v4.1c0.9-1.2,1.9-2.2,3.2-3c1.4-0.9,2.8-1.4,4.1-1.4c3,0,5,1.5,5.8,4.4c0.7-1.3,1.8-2.4,3.2-3.2
			c1.4-0.8,2.8-1.2,4.3-1.2c2,0,3.5,0.7,4.6,1.9c1,1.3,1.5,3,1.5,5L573.2,747.5z"/>
		<path fill="#FFFFF9" d="M583,750.5v5.8c0,1.3,0.2,2.3,0.5,2.9c0.4,0.9,1.2,1.4,2.4,1.5l0.3,0.3l-0.2,0.3h-8.5l-0.2-0.3l0.2-0.3
			c1.1-0.2,1.8-0.7,2.2-1.6c0.3-0.6,0.4-1.5,0.4-2.8v-17.6c0-1.8-0.5-2.7-1.4-2.9l-0.7-0.1l-0.2-0.4l0.1-0.2l4.5-1.6h0.4v4.3
			c2-3,4.5-4.5,7.5-4.5c2.4,0,4.5,0.9,6.1,2.8c1.6,1.8,2.4,4,2.4,6.4c0,2.8-1,5.2-2.9,7.2c-1.9,2-4.3,3-7.1,3
			C586.6,752.8,584.6,752.1,583,750.5z M583,745.9c0.2,1.7,0.9,3.1,2.1,4.2c1.2,1.1,2.6,1.6,4.2,1.6c2.1,0,3.7-0.9,4.8-2.6
			c1-1.4,1.4-3.3,1.4-5.4c0-2.3-0.5-4.3-1.5-5.9c-1.2-1.9-2.9-2.8-5.1-2.8c-1.6,0-3,0.6-4.1,1.8c-0.9,1-1.6,2.4-1.9,4.1V745.9z"/>
		<path fill="#FFFFF9" d="M620.9,746.7c-0.7,1.9-1.9,3.4-3.5,4.6c-1.7,1.1-3.5,1.7-5.6,1.7c-2.7,0-4.9-1-6.6-2.9
			c-1.7-1.9-2.5-4.2-2.5-6.9c0-2.8,0.9-5.1,2.7-7c1.8-1.8,4.1-2.8,6.9-2.8c1.9,0,3.7,0.6,5.5,1.9c1.7,1.3,2.7,2.9,3,4.7
			c0,0.4-0.7,0.6-2,0.6h-12.9c-0.1,0.4-0.1,1-0.1,1.8v0.3c0,2.5,0.6,4.5,1.8,6.1c1.3,1.7,3.2,2.5,5.7,2.5c1.5,0,2.9-0.5,4.2-1.4
			c1.3-0.9,2.2-2.1,2.7-3.5c0.1-0.1,0.3-0.1,0.4,0C620.7,746.5,620.8,746.6,620.9,746.7z M606.1,739.6h11.1
			c-0.1-1.6-0.7-2.9-1.6-3.9c-0.9-1-2.2-1.5-3.8-1.5C608.8,734.3,606.9,736.1,606.1,739.6z"/>
		<path fill="#FFFFF9" d="M629.3,747.5c0,1.4,0.2,2.4,0.6,3c0.5,0.8,1.4,1.3,2.7,1.4h0.2l0.2,0.3l-0.2,0.3h-8.9l-0.2-0.3l0.2-0.3
			c1.1-0.2,1.8-0.7,2.2-1.6c0.2-0.6,0.4-1.5,0.4-2.8v-8.9c0-1.7-0.5-2.7-1.5-2.9l-0.7-0.1l-0.2-0.4l0.1-0.2l4.7-1.6h0.4v5.2
			c1.7-3.4,3.7-5.2,5.9-5.2l2,0.7l-1.1,3.2l-1.1-0.4c-0.3-0.3-0.7-0.5-1-0.5c-0.3-0.1-0.6-0.2-1-0.2c-0.9,0-1.7,0.5-2.2,1.5
			c-0.7,1.3-1.1,2.9-1.4,4.7V747.5z"/>
		<path fill="#FFFFF9" d="M651.3,749.4c-1.6,2.5-3.7,3.7-6.3,3.7c-1.7,0-3.1-0.4-4.2-1.1c-1.3-0.8-2-2.1-2-3.6
			c0-3.1,2.6-4.9,7.9-5.4c1.3-0.1,2.7-0.5,4.4-1v-2.3c0-3.4-1.5-5.1-4.5-5.1c-1.2,0-2.3,0.3-3.3,0.9c-1.1,0.7-1.7,1.7-1.7,2.8
			c-0.4-0.2-0.8-0.4-1.2-0.6c-0.5-0.3-0.9-0.5-0.9-0.8c0.2-0.8,1.3-1.6,3.3-2.4c1.8-0.7,3.2-1.1,4.2-1.1c2.1,0,3.8,0.5,5.1,1.4
			c1.4,1.1,2.1,2.6,2.1,4.7v8.5c0,2.3,0.4,3.4,1.3,3.4c0.4,0,0.8-0.1,1.1-0.4l0.1,0.4c-1.9,0.8-3.1,1.3-3.7,1.3
			c-0.9,0-1.4-1.1-1.6-3.2V749.4z M651.1,746.3v-3.5c-0.2,0.1-1.3,0.4-3.3,0.9c-3.9,0.3-5.8,1.8-5.8,4.4c0,1.1,0.4,2,1.2,2.7
			c0.8,0.7,1.7,1,2.9,1c1.4,0,2.6-0.6,3.6-1.7C650.6,749.1,651.1,747.8,651.1,746.3z"/>
		<path fill="#FFFFF9" d="M664.3,745.1c0,4.2,1,6.4,2.9,6.4c0.5,0,1-0.4,1.4-1.1l0.3,0.4c-0.8,1.3-2.1,1.9-3.8,1.9
			c-2.4,0-3.6-1.5-3.6-4.4v-12.4h-2.3c-0.1-0.1-0.2-0.1-0.2-0.2c0-0.1,0.1-0.2,0.2-0.2l0-0.2c2.2-1.1,3.7-3,4.6-5.6h0.2
			c0.1-0.1,0.2-0.2,0.2-0.2c0.1,0,0.2,0.1,0.2,0.2v4.9h5.1l-0.5,1.4h-4.7V745.1z"/>
		<path fill="#FFFFF9" d="M677.1,747.5c0,1.4,0.2,2.4,0.6,3c0.5,0.8,1.4,1.3,2.7,1.4h0.2l0.2,0.3l-0.2,0.3h-8.9l-0.2-0.3l0.2-0.3
			c1.1-0.2,1.8-0.7,2.2-1.6c0.2-0.6,0.4-1.5,0.4-2.8v-8.9c0-1.7-0.5-2.7-1.5-2.9l-0.7-0.1l-0.2-0.4l0.1-0.2l4.7-1.6h0.4v5.2
			c1.7-3.4,3.7-5.2,5.9-5.2l2,0.7l-1.1,3.2l-1.1-0.4c-0.3-0.3-0.7-0.5-1-0.5c-0.3-0.1-0.6-0.2-1-0.2c-0.9,0-1.7,0.5-2.2,1.5
			c-0.7,1.3-1.1,2.9-1.4,4.7V747.5z"/>
		<path fill="#FFFFF9" d="M692.1,747.5c0,1.2,0.1,2.2,0.4,2.8c0.4,0.9,1.1,1.4,2.1,1.6l0.2,0.3l-0.2,0.3h-8.1l-0.2-0.3l0.2-0.3
			c1.1-0.2,1.9-0.7,2.3-1.6c0.3-0.6,0.4-1.5,0.4-2.8v-8.7c0-0.9-0.1-1.5-0.2-1.8c-0.2-0.6-0.7-0.9-1.4-1l-0.7-0.1l-0.2-0.4l0.1-0.2
			l5-1.6h0.3V747.5z M688.7,727.2c0-0.5,0.2-0.9,0.6-1.3c0.4-0.3,0.8-0.5,1.3-0.5c0.5,0,0.9,0.2,1.3,0.5c0.4,0.3,0.6,0.7,0.6,1.2
			c0,0.5-0.2,0.9-0.6,1.3c-0.4,0.3-0.8,0.5-1.3,0.5c-0.5,0-0.9-0.2-1.3-0.5C688.9,728.1,688.7,727.7,688.7,727.2z"/>
		<path fill="#FFFFF9" d="M714.8,747.5l0.5,0.2l0.1,0.2c-1.9,3.4-4.7,5-8.5,5c-2.7,0-4.9-0.9-6.6-2.7c-1.7-1.8-2.5-4.1-2.5-6.8
			c0-3,1-5.4,3-7.2c2-1.9,4.5-2.8,7.5-2.8c3.4,0,5.6,0.8,6.8,2.3c-0.1,0.7-0.4,1.3-1,1.9c-0.2,0.3-0.5,0.4-0.7,0.4
			c-0.3,0-0.6-0.2-0.9-0.7c-0.8-1.9-2.4-2.9-4.9-2.9c-2.2,0-3.9,0.9-5,2.8c-1,1.6-1.5,3.5-1.5,5.8c0,2.3,0.6,4.3,1.7,5.8
			c1.3,1.8,3,2.7,5.3,2.7c1.3,0,2.6-0.4,3.8-1.2C713.2,749.7,714.1,748.7,714.8,747.5z"/>
		<path fill="#FFFFF9" d="M737,746.7c-0.7,1.9-1.9,3.4-3.5,4.6c-1.7,1.1-3.5,1.7-5.6,1.7c-2.7,0-4.9-1-6.6-2.9
			c-1.7-1.9-2.5-4.2-2.5-6.9c0-2.8,0.9-5.1,2.7-7c1.8-1.8,4.1-2.8,6.9-2.8c1.9,0,3.7,0.6,5.5,1.9c1.7,1.3,2.7,2.9,3,4.7
			c0,0.4-0.7,0.6-2,0.6h-12.9c-0.1,0.4-0.1,1-0.1,1.8v0.3c0,2.5,0.6,4.5,1.8,6.1c1.3,1.7,3.2,2.5,5.7,2.5c1.5,0,2.9-0.5,4.2-1.4
			c1.3-0.9,2.2-2.1,2.7-3.5c0.1-0.1,0.3-0.1,0.4,0C736.9,746.5,737,746.6,737,746.7z M722.3,739.6h11.1c-0.1-1.6-0.7-2.9-1.6-3.9
			c-0.9-1-2.2-1.5-3.8-1.5C725,734.3,723.1,736.1,722.3,739.6z"/>
		<path fill="#FFFFF9" d="M744.7,749.1c0.5,0,1,0.2,1.4,0.6c0.4,0.4,0.6,0.8,0.6,1.4c0,0.5-0.2,1-0.6,1.4c-0.4,0.4-0.9,0.6-1.4,0.6
			c-0.5,0-1-0.2-1.4-0.6c-0.4-0.4-0.6-0.8-0.6-1.4c0-0.5,0.2-1,0.6-1.4C743.7,749.2,744.2,749.1,744.7,749.1z"/>
		<path fill="#FFFFF9" d="M769.6,747.5l0.5,0.2l0.1,0.2c-1.9,3.4-4.7,5-8.5,5c-2.7,0-4.9-0.9-6.6-2.7c-1.7-1.8-2.5-4.1-2.5-6.8
			c0-3,1-5.4,3-7.2c2-1.9,4.5-2.8,7.5-2.8c3.4,0,5.6,0.8,6.8,2.3c-0.1,0.7-0.4,1.3-1,1.9c-0.2,0.3-0.5,0.4-0.7,0.4
			c-0.3,0-0.6-0.2-0.9-0.7c-0.8-1.9-2.4-2.9-4.9-2.9c-2.2,0-3.9,0.9-5,2.8c-1,1.6-1.5,3.5-1.5,5.8c0,2.3,0.6,4.3,1.7,5.8
			c1.3,1.8,3,2.7,5.3,2.7c1.3,0,2.6-0.4,3.8-1.2C768,749.7,769,748.7,769.6,747.5z"/>
		<path fill="#FFFFF9" d="M792.2,747.5c-0.1,2.7,0.7,4.1,2.3,4.4l0.3,0.3l-0.2,0.3h-8l-0.2-0.3l0.2-0.3c1.1-0.2,1.8-0.7,2.2-1.6
			c0.2-0.5,0.3-1.5,0.4-2.8l0.2-6.6c0-1.7-0.3-3.1-0.9-4.2c-0.8-1.3-2-2-3.5-2c-1.5,0-2.9,0.5-4.2,1.6c-1.3,1.1-2.1,2.4-2.4,3.8v7.3
			c0,2.7,0.7,4.1,2.2,4.4l0.3,0.3l-0.2,0.3H773l-0.2-0.3l0.2-0.3c1-0.2,1.7-0.7,2.1-1.6c0.2-0.6,0.4-1.5,0.4-2.8v-8.7
			c0-1.7-0.5-2.7-1.4-2.9l-0.7-0.1l-0.2-0.4l0.1-0.2l4.5-1.6h0.4v4.1c0.9-1.2,2-2.2,3.4-3.1c1.4-0.8,2.8-1.2,4.3-1.2
			c2.1,0,3.7,0.6,4.9,1.9c1.1,1.2,1.6,2.9,1.6,5L792.2,747.5z"/>
	</g>
</g>
</svg>
