<?xml version="1.0" encoding="utf-8"?>
<!-- Generator: Adobe Illustrator 18.1.1, SVG Export Plug-In . SVG Version: 6.00 Build 0)  -->
<svg version="1.1" xmlns="http://www.w3.org/2000/svg" xmlns:xlink="http://www.w3.org/1999/xlink" x="0px" y="0px"
	 viewBox="0 0 522.5 215.8" enable-background="new 0 0 522.5 215.8" xml:space="preserve">
<g id="_x3C_Layer_x3E_">
	<g>
		<path fill-rule="evenodd" clip-rule="evenodd" fill="#004A93" d="M188,187.6c-0.6-5.8-1.5-9.1-2.6-9.9c-1.2-0.7-2.2-1.1-3.1-1.1
			c-0.3-0.3-0.7-0.9-1.1-1.8c-0.4-0.9-1.4-1.2-2.8-0.9c1.5,1.8,0.9,3.4-1.8,4.8c-2.5,1.5-3.9,2-4.4,1.8c-0.9-2.5,0-4.9,2.6-7.2
			c2.8-2.5,5.8-4,9.2-4.6c0.6-0.1,1-0.6,1.3-1.3c0.4-0.7-0.4-1.3-2.6-1.8c-1.8,0-4.2,0.9-7.2,2.6c-3.1,1.8-6.8,3.1-11.2,3.9
			c1.8,1.2,3.6,1.5,5.5,0.9c1.9-0.6,3.1-0.7,3.7-0.4c-1.9,2.5-4.5,6.9-7.7,13.1c-3.1,6.3-3.4,11-1.1,14c0,0.1,0.4,0.4,1.3,0.7
			c0.9,0.4,1.3-0.2,1.3-2c-0.1-0.4-0.2-2.3-0.2-5.5c0.1-3.1,1.2-5.3,3.3-6.8c0.7,0.6,1.5,1.3,2.2,2.2c0.9,0.7,1.2-1.2,0.9-5.7
			c0-0.4,0.6-1.1,1.8-2c1.2-0.9,2-1.1,2.6-0.7c0.1,0.1-0.2,1.6-1.1,4.4c-0.9,2.6-3.3,5-7.2,7c0.4,0.1,1,0.1,1.8-0.2
			c0.7-0.3,1.2,0.1,1.3,1.1c3.9-1.5,6.4-2.8,7.5-4.2c1-1.5,0-2-3.1-1.5c1.9-2.8,3.1-4.9,3.7-6.4c0.4-1.5,1.2-2,2.4-1.5
			c1.2,1.8,1.5,7,1.1,15.8c-0.4,8.6-2.8,11-7.2,7c3.7-0.7,5-1.6,4.2-2.6c-1-0.9-4-0.4-9,1.3c0.3-1.5,1.7-2.9,4.2-4.4
			c2.5-1.5,3.4-2.5,2.8-3.1c-1.3-1-2.6-1.1-3.9-0.2c-1.3,0.9-3.1,1.8-5.3,2.8c0.4,0.3,1,0.4,1.8,0.4c0.6-0.1,1.2,0,1.8,0.4
			c-3.8,3.9-4.7,5.8-2.8,5.7c1.9-0.1,3.6-0.1,5,0c4.4,5.3,7.7,6.6,10.1,3.9C188,203.4,188.7,197.3,188,187.6z M156.4,175.4
			c3.8,0.1,5.3-0.7,4.6-2.6c-0.7-1.8-2.8-3.1-6.4-3.9c-0.4,0.4-0.1,1.2,0.9,2.2C156.7,172.1,157,173.6,156.4,175.4z M159,193.3
			c-0.3,0.4-1.5,2-3.5,4.6c-2,2.8-3.4,3.9-3.9,3.3c-0.6-2.2-0.2-4.7,1.1-7.5c1.3-2.8,2.4-4.7,3.3-5.7c0.1-0.1,0.1-0.8,0-2
			c-0.3-1-2.3-1.7-6.1-2c0.1,0.3,0.8,1.6,2,3.9c1.2,2.2,0.4,6.7-2.4,13.6c-0.3,1-0.2,1.9,0.2,2.6c0.3,0.9,0.8,1.8,1.5,2.6
			c1.8,1,3.3-0.2,4.6-3.7C157.1,199.5,158.2,196.2,159,193.3z M170.9,181.9c0.3,0.6,0,0.9-0.9,0.9
			C170,181.9,170.3,181.6,170.9,181.9z"/>
		<path fill-rule="evenodd" clip-rule="evenodd" fill="#004A93" d="M236.6,162.6c2.2,1,2.4,2.7,0.7,5c-1.8,2.3-3,4-3.7,5
			c4.8-1.6,8-3.9,9.6-7C244.8,162.5,242.6,161.5,236.6,162.6z M227.4,169.2c-1,0.4-1.5,0.2-1.5-0.7c0-1-0.5-1.7-1.5-2
			c-0.3,1-0.7,2.1-1.3,3.3c-0.7,1.2-0.7,2.4,0,3.7c1.2,1.9,2.1,2,2.8,0.2C226.5,171.9,227,170.4,227.4,169.2z M251.1,199
			c-0.6,2.5-2.2,4.1-4.8,4.8c-2.6,0.7-4.5,1-5.7,0.9c-6.7-1.5-9.3-3.9-7.7-7.2c1.6-3.4,1.2-5.6-1.1-6.8c0.6-1.8,1.5-2.9,2.8-3.5
			c1.3-0.7,1.4-1.5,0.2-2.2c1.5-0.7,2.9-2,4.4-3.9c1.5-2,1.8-3.7,0.9-4.8c-1.8-1.8-3.6-1.9-5.5-0.4c-2,1.6-4.6,3.2-7.7,4.8
			c0.6,0.4,1.8,0.3,3.5-0.4c1.8-0.9,3.2-1,4.4-0.4c-0.9,2.2-1.9,4.2-3.1,5.9c-1.3,1.6-3.2,2.4-5.7,2.4c0-0.4-0.1-1.9-0.2-4.4
			c-0.1-2.5-1.2-3.9-3.3-4.4c0.4,3.2,0.4,6.1,0,8.5c-0.4,2.5,0.7,3.1,3.5,2c0.6,0.6,1.5,0.7,2.6,0.4c-2.9,6.1-6.7,11-11.4,14.5
			c3.2,0.3,7.6-3.6,13.1-11.8c-0.6,3.4-0.3,6.6,0.9,9.6c1,3.1,4.4,4.8,10.1,5.3c5,0.1,8.1-0.7,9.4-2.4
			C252.3,203.8,252.4,201.6,251.1,199z M220.4,174c-1.9-1-3.1-1.2-3.7-0.4c-0.6,0.7-1.1,1-1.5,0.9c0-2.2,0.3-3.9,0.9-5
			c0.4-1.2,0.4-2.4,0-3.7c-1.5-1.9-2.8-2.5-3.9-1.8c-1.3,0.9-1.8,2.5-1.3,4.8c0-0.1,0.3-0.4,0.9-0.9c0.6-0.3,0.9,0.1,0.9,1.3
			c-0.4,18.1-1.1,28.9-2,32.2c-0.9,3.4-0.7,5.6,0.7,6.8c1.8,1.8,3,0.7,3.7-3.3c0.7-3.9,1.4-7.4,2-10.3c-0.9,1.5-1.7,2.8-2.4,4.2
			c-0.9,1.2-0.8-5.8,0.2-20.8c0.3-0.1,1.6-0.7,3.9-1.5C220.8,175.6,221.4,174.8,220.4,174z M207.7,182.4c-1.3,0.4-1.9-0.1-1.8-1.5
			c0.1-1.5-0.3-2.7-1.3-3.7c-0.7,2.3-1.5,4.7-2.4,7c-0.9,2.2-0.2,4.2,2,6.1c1.5,0.7,2.3,0.1,2.4-2
			C206.6,186.1,207,184.1,207.7,182.4z"/>
	</g>
</g>
<g id="_x3C_Layer_x3E__1_">
	<g id="_x3C_Layer_x3E__2_">
		<g>
			<path fill="#910B26" d="M137.7,96.9c-0.1,1.3,0.2,4.1,1.1,4.8c0.8,0.6,2.9,2.4,4.9,2.7c2,0.3,4.2,0.1,4.8-0.4
				c0.6-0.5,1.4-1.6,1.4-1.6s-1.3-0.4-1.3-0.9c0-0.5,0.2-1,0.8-1c0.4,0,1,0.2,1,0.2s0.5-1.5,1.1-2c0.6-0.5,1.9-2.4,2.1-3.3
				c0.2-0.9,0-4.1-2.4-5.7c-2.5-1.6-4.2-1.3-7-0.7c-3.1,0.6-4.5,1.6-5.4,3.1C137.8,93.7,137.8,95.7,137.7,96.9z"/>
			<path fill="#910B26" d="M159.9,88.9c-0.8,0.7-1.1,2.6,0.7,3.5c1.8,0.9,2,0.2,2.8-1.3c0.9-1.5-0.9-2-0.9-2S160.7,88.2,159.9,88.9z
				"/>
			<path fill="#910B26" d="M234.6,120.6c0,0,4.4,1.1,11.4-7.8c10.1-12.9,18.8-31.1,22.1-39.4c3.3-8.3,7-15.1,7.9-17.5
				c0.9-2.4,3-2.7,5.3-2c3.3,1.1,3.9,5.9-0.2,15.3c3.2,0.4,4.2,0,5.7,1.5c1.5,1.5,2.4,5,1.3,8.8c-1.1,3.7-2.8,9.9-2.8,9.9
				s4.3,0.2,4.8,3.1c0.7,3.5-0.9,11.6-0.9,11.6s3.7-9.6,4.8-14c1.1-4.4,2.6-9.4,4.6-9.4c2,0,5.5-0.7,5.7,5.9
				c0.2,6.6-2.8,14.6-4.1,18.8c-1.3,4.2-2.5,16-2.5,16s3.5-7.7,4.4-11.5c1-3.8,2.3-11.6,4.5-12.6c2.2-1,4.1-1.5,5.8,0.8
				c1.7,2.3,1.2,4.9,0,7.9c-1.2,3-7.9,22.8-7.9,22.8s4.3-3.3,7.1-2.8c2,0.3,2.7,4,2.6,7.8c-0.2,6.4-5.3,24.8-5.3,24.8
				s3.4,4.1,3.2,8.9c-0.1,3-1.6,5.1-1.6,5.6c-0.2,2.7-0.7,6.8-3.7,7.5c-3,0.8-5.4-3.4-4.6-8.2c-1.5-1.7-4.1-3.2-4-5.4
				c0.1-2.4,0.6-4,1.7-5.5c0-1.1,0.5-3.5,0.9-5.8c-1.4,0.5-4.6,5.6-6.4,5.3c-1.8-0.3-4.6-2.4-4.8-4.6c-0.2-2.3,0.8-7.1,0.8-7.1
				s-2.1,0.2-3.1,0.1c-1.1-0.1-2.1-1.3-2.1-1.3s-6.6,14.4-11.8,14.3c-2.6-0.1-4-4.9-3.3-10.6c0.7-5.8,2.7-19.2,2.7-19.2
				s-8,10.1-10.2,10.9c-2.2,0.8-6.6,2.1-6.3-2.8c0.3-4.9,2-11.2,2-11.2s-3-0.2-4.3-1.8c-1.2-1.6-1.2-5.9-1.2-5.9l-12.1,8.4
				L234.6,120.6z"/>
			<path fill="#910B26" d="M170.6,74.9c-0.4,0.4-0.5,1.3,0.3,1.8c0.9,0.4,1,0.1,1.4-0.7c0.4-0.8-0.5-1-0.5-1S171,74.5,170.6,74.9z"
				/>
		</g>
	</g>
</g>
<g id="_x3C_Layer_x3E__3_">
	<g id="_x3C_Layer_x3E__4_">
		<g>
			<path fill="#004A93" d="M10.1,178.9c0,0,4.7-18.9,11.3-25.1c1.9-1.8,6.6-5.3,12.1-1.1c13.6,10.2,23.7,38.8,25.9,48.7
				c2.2,9.9,4.2,9.7,5.2,9.4c0.9-0.3,4.1-4.6,4.4-11c0.5-10.5,1.5-38.7,4.5-48.6c2.3-7.4,7.5-16.6,16.5-2.9
				c9.1,13.8,10.1,23.6,11.1,24.8c1.4,1.7,2.9,2,2.9,2l3-3.2c0,0-1.6-33.4,2.8-48.8c4.4-15.3,15.9-52.3,36.6-66.6
				c10-6.9,18.1-13.2,28.9-15.2c11.8-2.2,24.6-0.4,39.7,8.6c-5.9-7-15.7-11.7-24.5-13c-9.7-1.5-24.6,2.1-30.4,4.4
				c-13.4,5.2-27.4,17.2-34.2,28.2c-16.6,27-18.5,38.4-20.1,44c-1.6,5.6-7.7,33.1-7.7,33.1s-8.7-12.9-18.3-11.9
				c-15.2,1.5-16.5,43.3-17.1,50.5c-5.5-8.6-15.4-28.7-21.2-34c-4.7-4.3-9.7-8.3-19.8-3.8c-6.8,3.1-13.7,15.8-15.1,24.7
				c-0.8,5.6-0.1,6.2-0.1,6.2L10.1,178.9z"/>
			<path fill="#004A93" d="M131.2,163.1c-4.1,1.7-6.4-0.5-4.1-2.7c2.7-2.5,6.1-5.4,7.9-7.5c1.8-2.1,5.4-8,6.7-12
				c1.2-3.7,2.7-13.5,3.3-17.5c0.4-2.8,0.9-6.2,1.9-8.8c1-2.6,5.6-4.8,6.2,1.2c0.6,6.9-0.2,15.4-0.1,16c0.1,0.5,3.7,7.1,7,6.8
				c3.3-0.2,6.4-8.8,8-14c1.5-5,5.1-18.4,5.7-21c0.6-2.6,1.5-10.6,1.8-12.4c0.3-1.8,5.1-4.8,5.4-0.8c0.2,4-0.2,6.4-0.2,6.4
				s5.1-8.1,8.4-9c3.3-0.9,8.7-1.8,10.8,1.7c2.2,3.5-0.8,21.5,0,23.8c0.8,2.3,4,8.9,12.9,1.3c8.3-7.2,10.3-9.7,10.3-9.7
				s0.1-10.5,3.4-18.6c4.5-11,11.9-19.9,16.4-24.6c4.7-4.9,8.8-7.4,10.6-8.2c1.7-0.8,10.9-3.8,9.4,4.8
				c-2.4,14.3-25.4,39.9-33.7,47.5c0.8,5.2,5.6,17.5,11.6,24.1c5.7,6.2,19.1,15,28.8,18.9c13.1,5.3,29.2,6.9,29.2,6.9
				s-25.2-0.4-40.8-7.2c-29.4-12.8-34.2-37.3-34.2-37.3s-4.4,4.7-9.3,8.4c-4.8,3.7-11.3,6.3-16,4c-8.4-3.9-3.2-19.7-2.7-22.5
				c1-5.7-0.3-14.4-10.1-4.6c-10.1,10.1-13.2,36.2-15.6,40.3c-2.4,4.1-5.1,9.1-11.6,8.3c-6.1-0.7-7.5-4-10.4-5.6
				C144.8,151.6,135.4,161.4,131.2,163.1z M245.8,80.9c4.9-6.1,11-15.6,13-21.1c2-5.5-4.1-4.5-6.4-2.7c-2.3,1.8-8.8,8-14.4,17
				c-6.6,10.7-8.5,18-9.2,25C233.8,94.8,241,87,245.8,80.9z"/>
			<path fill="#004A93" d="M274.8,46.7c4.3,0.1,22.5,13,31.2,23.6c9.5,11.6,15,30.2,18.1,49.2c3.4,20.3,7.2,48.2,11.6,56
				c4.4,7.8,13.1,27.8,34.2,16.7c12.8-6.7,13.2-15.9,12.4-25.3c-0.9-9.7-5.2-15-10.7-18c-2.1,3.9-10.4,14.4-17.9,11.9
				c-5-1.7-6.3-5.6-3.3-9.8c2.6-3.6,6.8-6.7,11.6-7.4c5.2-0.7,8.5,0.6,9.6,1.3c3.4-4.2,12.9-16.7,15.9-27.3c1.4-5.1,0.2-13.7,0.5-15
				c0.3-1.4,5.6-3.7,6.4,2.9c0.8,6.3,0.8,27.7,1.4,31.2c0,0,0.4,7.2,4.9,7.5c4.4,0.3,7.6-13.9,7.8-23.5c0.2-9.6,0.3-21.4,0.6-23.7
				c0.3-2.3,1.7-5.9,3.1-6c1.4-0.1,3.3,1.3,3.4,3.7c0.1,2.4,1,22.5,1.5,27.9c0.8,8,7.5,9.4,10.6,6.5c2.7-2.5,10.9-14.1,12.7-17.2
				c-1.7-3-12.2-23.8-15.7-32.7c-3.3-8.4-8.8-25.4-7.9-39.7c0.6-9.5,4.1-16.3,7.3-18.9c3.2-2.6,6.2-1.9,8.4-0.8
				c3.7,2,3.2,7.3-0.4,5.1c-3.2-1.9-5.3-2.9-7.7-0.1s-3.9,17.3-2.7,24.4c1.6,9.7,7.6,26.5,11.1,33.9c3.7,7.9,11.4,23,11.4,23
				s9.3-19.3,12.8-25.1c-5-8.5-10.2-31-9.9-41.4c0.3-10.4,3.2-24.6,5.5-28.6c2.2-3.8,8.1-9.9,13.1-9.3c4.9,0.6,5.6,4.5,5.5,5.5
				c-0.2,1.5-2.2,3.5-3.2,1.2c-1.1-2.4-3.4-4.3-7.5-1.4c-2.9,2.1-8.7,8.7-7.8,33c0.7,17.8,8.8,35.1,8.8,35.1s15.8-24.8,36.7-30.6
				C508.3,42,516,48.6,516.7,57c0.8,10.8-11.7,15.1-15.1,11.6c-3.5-3.6-1.7-9.7,0.5-10.2c1.6-0.4-2.3,4.6,1.7,7.5
				c1.6,1.1,5.7-0.2,8.3-3.6c2.8-3.9-0.4-20.7-17.2-13.6c-9.7,4.1-14,9-18,12.6c-3.4,3.1-13.3,16-14.3,17.5
				c7.2,10.5,17.9,32,22.3,47c2.8,9.7,5.8,23.1,6.1,34.4c0.3,11.7-3.5,28.4-6.1,34.1c-4.5,9.8-13.5,21.5-13.5,21.5
				s8.1-13.5,10.8-23.5c2-7.5,4.9-24.6,2-40.7c-2.4-13.3-7.2-28.4-11.1-39.2c-4-10.8-14.4-27.6-14.4-27.6s-10.2,20.5-12.6,25
				c1.5,2,8.8,21,10.5,29.3c1.7,8.4,1.5,18.8,1.2,25.8c-0.4,8.7-4.9,26.4-6.4,26.4c-0.9,0,2-11,1.8-17.3c-0.2-6.4,0.5-26.5-4-39.3
				c-2.4-6.8-5.1-14-7.2-18.9c0,0-8.7,13.3-12.1,16.8c-5.3,5.4-13.3,6-17.2-4.3c-0.2,4.3-0.8,13.3-5.1,19.4
				c-3.2,4.6-10.3,6.1-13.3,2.6c-3.2-3.7-4-7.4-4.1-11c-0.2-3.7-0.5-12.5-0.2-17.2c-2.4,4.7-11.7,18.1-16.2,24
				c9.5,5.2,13.1,16,13,24.2c-0.1,9.4-2.3,27.4-27.8,30.3c-18.2,2.1-28.8-18.6-32.9-30c-4.1-11.4-8.7-52.3-10.4-63.5
				c-2.2-14-9.1-31.9-23.3-45.4C284.3,53.8,279.2,50.1,274.8,46.7z M359.6,147.1c-2.4,0.9-5.4,3.9-6.2,6.3c-0.8,2.4,2,4.4,7.4,2.5
				c3.4-1.2,6.7-5.5,8.3-8.1C365,145.5,362.2,146.2,359.6,147.1z"/>
		</g>
	</g>
</g>
</svg>
