<?xml version="1.0" encoding="UTF-8"?>
<svg xmlns="http://www.w3.org/2000/svg" xmlns:xlink="http://www.w3.org/1999/xlink" version="1.2" >
<font id="Arca Majora Heavy">
<font-face  font-family="Arca Majora" units-per-em="1000" ascent="770" descent="-230" font-style="normal" font-weight="900" font-stretch="normal" cap-height="770" x-height="500" underline-position="-75" underline-thickness="50" />
<missing-glyph  horiz-adv-x="70" d="" />
<glyph glyph-name="NULL" d="" />
<glyph glyph-name="&amp;#x0;" horiz-adv-x="70" d="" />
<glyph glyph-name="&amp;#xd;" unicode="&#xd;" horiz-adv-x="70" d="" />
<glyph glyph-name="space" unicode="&#x20;" horiz-adv-x="320" d="" />
<glyph glyph-name="exclam" unicode="&#x21;" horiz-adv-x="333" d="M96 247 L236 247 L236 770 L96 770 L96 247 Z M166 -10 C222 -10 263 31 263 86 C263 136 223 183 166 183 C111 183 70 137 70 86 C70 31 113 -10 166 -10 L166 -10 Z " />
<glyph glyph-name="quotedbl" unicode="&#x22;" horiz-adv-x="483" d="M60 423 L193 423 L193 770 L60 770 L60 423 Z M290 423 L423 423 L423 770 L290 770 L290 423 Z " />
<glyph glyph-name="numbersign" unicode="&#x23;" horiz-adv-x="736" d="M153 0 L260 0 L281 155 L402 155 L381 0 L488 0 L509 155 L611 155 L623 253 L523 253 L548 433 L649 433 L662 531 L561 531 L583 686 L476 686 L454 531 L333 531 L355 686 L248 686 L226 531 L126 531 L112 433 L213 433 L188 253 L87 253 L73 155 L174 155 L153 0 Z M295 253 L320 433 L441 433 L416 253 L295 253 Z " />
<glyph glyph-name="dollar" unicode="&#x24;" horiz-adv-x="554" d="M514 208 C514 344 403 395 322 436 L322 649 C350 641 372 621 383 590 L496 642 C465 714 403 767 322 778 L322 830 L254 830 L254 778 C147 762 71 676 71 563 C71 433 171 375 252 333 C253 333 253 332 254 332 L254 117 C198 124 158 160 140 211 L30 162 C61 65 144 -2 254 -9 L254 -68 L322 -68 L322 -6 C429 12 514 89 514 208 L514 208 Z M191 570 C191 608 216 638 254 649 L254 476 C217 501 191 531 191 570 L191 570 Z M322 124 L322 294 C356 270 384 241 384 201 C384 162 358 136 322 124 L322 124 Z " />
<glyph glyph-name="percent" unicode="&#x25;" horiz-adv-x="839" d="M225 460 C246 460 266 464 284 472 C304 481 320 492 334 506 C348 521 359 538 368 558 C376 577 380 598 380 620 C380 642 376 663 368 682 C359 702 348 719 334 734 C320 748 304 759 284 768 C266 776 246 780 225 780 C204 780 184 776 165 768 C146 759 130 748 116 734 C102 719 91 702 82 682 C74 663 70 642 70 620 C70 598 74 577 82 558 C91 538 102 521 116 506 C130 492 146 481 165 472 C184 464 204 460 225 460 L225 460 Z M105 -1 L249 -1 L732 770 L588 770 L105 -1 Z M225 561 C208 561 194 567 183 578 C172 590 166 604 166 620 C166 636 172 650 183 662 C194 673 208 679 225 679 C242 679 256 673 268 662 C278 650 284 636 284 620 C284 604 278 590 268 578 C256 567 242 561 225 561 L225 561 Z M614 -10 C635 -10 654 -6 674 2 C692 11 709 22 723 36 C737 51 748 68 756 88 C765 107 769 128 769 150 C769 172 765 193 756 212 C748 232 737 249 723 264 C709 278 692 289 674 298 C654 306 635 310 614 310 C593 310 572 306 554 298 C534 289 518 278 504 264 C490 249 479 232 470 212 C462 193 458 172 458 150 C458 128 462 107 470 88 C479 68 490 51 504 36 C518 22 534 11 554 2 C572 -6 593 -10 614 -10 L614 -10 Z M614 91 C597 91 582 97 571 108 C560 120 554 134 554 150 C554 166 560 180 571 192 C582 203 597 209 614 209 C630 209 644 203 656 192 C667 180 673 166 673 150 C673 134 667 120 656 108 C644 97 630 91 614 91 L614 91 Z " />
<glyph glyph-name="ampersand" unicode="&#x26;" horiz-adv-x="756" d="M628 -3 L710 80 L605 187 L712 295 L630 378 L523 270 L270 527 C257 540 250 557 250 576 C250 595 257 612 270 625 C283 638 299 645 317 645 C335 645 351 639 364 628 C377 617 384 603 384 586 C384 569 378 550 367 531 L450 448 C482 499 498 546 498 589 C498 637 480 678 444 712 C409 746 368 763 319 763 C268 763 225 745 189 709 C154 674 136 630 136 578 C136 536 148 498 172 463 L143 433 C94 383 70 323 70 253 C70 183 94 123 142 74 C191 25 250 0 319 0 C388 0 447 25 495 74 L523 103 L628 -3 Z M319 118 C282 118 250 132 224 158 C212 171 202 185 196 202 C188 218 185 237 185 260 C185 282 192 304 205 324 C212 335 228 353 253 378 L441 187 C432 177 423 168 414 160 C387 132 355 118 319 118 L319 118 Z " />
<glyph glyph-name="quotesingle" unicode="&#x27;" horiz-adv-x="253" d="M60 423 L193 423 L193 770 L60 770 L60 423 Z " />
<glyph glyph-name="parenleft" unicode="&#x28;" horiz-adv-x="444" d="M374 -9 L374 93 C240 113 195 253 195 400 C195 553 243 690 374 708 L374 810 C182 810 71 606 71 400 C71 198 174 -9 374 -9 L374 -9 Z " />
<glyph glyph-name="parenright" unicode="&#x29;" horiz-adv-x="444" d="M71 -25 C271 -25 374 182 374 384 C374 590 263 794 71 794 L71 692 C202 674 250 537 250 384 C250 237 205 97 71 77 L71 -25 Z " />
<glyph glyph-name="asterisk" unicode="&#x2a;" horiz-adv-x="442" d="M200 482 L257 609 L313 482 L378 519 L294 632 L434 617 L434 690 L294 675 L378 788 L313 825 L257 698 L200 825 L136 788 L219 675 L80 690 L80 617 L219 632 L136 519 L200 482 Z " />
<glyph glyph-name="plus" unicode="&#x2b;" horiz-adv-x="698" d="M291 129 L407 129 L407 328 L621 328 L621 442 L407 442 L407 642 L291 642 L291 442 L78 442 L78 328 L291 328 L291 129 Z " />
<glyph glyph-name="comma" unicode="&#x2c;" horiz-adv-x="353" d="M100 -196 L203 -196 L253 101 L100 101 L100 -196 Z " />
<glyph glyph-name="hyphen" unicode="&#x2d;" horiz-adv-x="548" d="M70 328 L478 328 L478 442 L70 442 L70 328 Z " />
<glyph glyph-name="period" unicode="&#x2e;" horiz-adv-x="333" d="M166 -10 C222 -10 263 31 263 86 C263 136 223 183 166 183 C111 183 70 137 70 86 C70 31 113 -10 166 -10 L166 -10 Z " />
<glyph glyph-name="slash" unicode="&#x2f;" horiz-adv-x="639" d="M40 -200 L184 -200 L599 800 L455 800 L40 -200 Z " />
<glyph glyph-name="zero" unicode="0" horiz-adv-x="672" d="M336 -12 C512 -12 602 205 602 390 C602 580 511 780 336 780 C161 780 70 580 70 390 C70 205 160 -12 336 -12 L336 -12 Z M336 126 C237 126 205 259 205 390 C205 519 238 642 336 642 C434 642 467 519 467 390 C467 259 435 126 336 126 L336 126 Z " />
<glyph glyph-name="one" unicode="1" horiz-adv-x="409" d="M158 0 L289 0 L289 770 L75 770 L75 641 L158 641 L158 0 Z " />
<glyph glyph-name="two" unicode="2" horiz-adv-x="639" d="M40 0 L594 0 L594 130 L305 130 L407 257 C513 392 548 449 548 537 C548 670 446 780 305 780 C162 780 76 669 62 523 L187 523 C193 592 231 650 304 650 C372 650 425 602 425 540 C425 485 386 433 335 368 L40 0 Z " />
<glyph glyph-name="three" unicode="3" horiz-adv-x="594" d="M456 435 C488 472 507 520 507 573 C507 687 413 780 297 780 C181 780 87 687 87 573 L217 571 C217 615 253 650 297 650 C342 650 377 615 377 571 C377 526 341 491 297 490 L217 490 L217 362 L297 362 C364 362 419 308 419 242 C419 174 364 120 297 120 C230 120 175 174 175 242 L45 242 C45 102 158 -10 297 -10 C436 -10 549 102 549 242 C549 320 513 389 456 435 L456 435 Z " />
<glyph glyph-name="four" unicode="4" horiz-adv-x="618" d="M349 0 L479 0 L479 135 L578 135 L578 264 L479 264 L479 770 L357 770 L5 135 L349 135 L349 0 Z M222 264 L349 500 L349 264 L222 264 Z " />
<glyph glyph-name="five" unicode="5" horiz-adv-x="599" d="M291 -12 C431 -12 544 101 544 242 C544 382 431 495 291 495 C275 495 259 494 244 491 L267 640 L504 640 L504 770 L160 770 L99 408 L199 329 C221 353 254 369 291 369 C359 369 414 314 414 246 C414 177 359 122 291 122 C237 122 192 155 175 202 L53 153 C89 56 182 -12 291 -12 L291 -12 Z " />
<glyph glyph-name="six" unicode="6" horiz-adv-x="620" d="M309 -12 C450 -12 560 105 560 244 C560 380 465 496 323 504 L489 770 L340 770 L121 421 C80 357 60 299 60 246 C60 108 164 -12 309 -12 L309 -12 Z M310 118 C240 118 186 176 186 246 C186 316 240 374 310 374 C380 374 434 316 434 246 C434 176 380 118 310 118 L310 118 Z " />
<glyph glyph-name="seven" unicode="7" horiz-adv-x="536" d="M32 0 L185 0 L566 770 L20 770 L20 641 L356 641 L32 0 Z " />
<glyph glyph-name="eight" unicode="8" horiz-adv-x="604" d="M460 435 C493 472 512 520 512 573 C512 687 418 780 302 780 C186 780 92 687 92 573 C92 520 111 472 144 435 C86 389 50 320 50 242 C50 102 163 -10 302 -10 C441 -10 554 102 554 242 C554 320 518 389 460 435 L460 435 Z M302 650 C347 650 382 615 382 571 C382 526 346 491 302 491 C258 491 222 526 222 571 C222 615 258 650 302 650 L302 650 Z M302 120 C235 120 180 174 180 242 C180 308 235 362 302 362 C369 362 424 308 424 242 C424 174 369 120 302 120 L302 120 Z " />
<glyph glyph-name="nine" unicode="9" horiz-adv-x="620" d="M131 0 L280 0 L499 349 C540 413 560 476 560 537 C560 666 449 782 311 782 C169 782 60 666 60 527 C60 391 155 274 297 266 L131 0 Z M310 396 C240 396 186 454 186 524 C186 594 240 652 310 652 C380 652 434 594 434 524 C434 454 380 396 310 396 L310 396 Z " />
<glyph glyph-name="colon" unicode="&#x3a;" horiz-adv-x="334" d="M166 413 C222 413 263 454 263 509 C263 559 223 606 166 606 C111 606 70 560 70 509 C70 454 113 413 166 413 L166 413 Z M166 -10 C222 -10 263 31 263 86 C263 136 223 183 166 183 C111 183 70 137 70 86 C70 31 113 -10 166 -10 L166 -10 Z " />
<glyph glyph-name="semicolon" unicode="&#x3b;" horiz-adv-x="354" d="M176 413 C232 413 273 454 273 509 C273 559 233 606 176 606 C121 606 80 560 80 509 C80 454 123 413 176 413 L176 413 Z M100 -196 L204 -196 L254 101 L100 101 L100 -196 Z " />
<glyph glyph-name="less" unicode="&#x3c;" horiz-adv-x="536" d="M461 136 L461 269 L245 383 L461 489 L461 618 L75 430 L75 341 L461 136 Z " />
<glyph glyph-name="equal" unicode="&#x3d;" horiz-adv-x="558" d="M75 452 L483 452 L483 589 L75 589 L75 452 Z M75 182 L483 182 L483 319 L75 319 L75 182 Z " />
<glyph glyph-name="greater" unicode="&#x3e;" horiz-adv-x="536" d="M75 136 L461 341 L461 430 L75 618 L75 489 L291 383 L75 269 L75 136 Z " />
<glyph glyph-name="question" unicode="&#x3f;" horiz-adv-x="555" d="M212 246 L342 246 L342 334 C342 449 480 473 480 622 C480 716 396 800 277 800 C151 800 75 703 75 573 L204 573 C204 621 226 670 280 670 C321 670 350 642 350 602 C350 503 212 486 212 335 L212 246 Z M277 -10 C333 -10 374 31 374 86 C374 136 334 183 277 183 C222 183 181 137 181 86 C181 31 224 -10 277 -10 L277 -10 Z " />
<glyph glyph-name="at" unicode="&#x40;" horiz-adv-x="978" d="M479 -170 C522 -170 588 -163 637 -145 L610 -75 C570 -88 531 -94 493 -94 C292 -94 132 67 132 267 C132 468 294 628 492 628 C686 628 854 475 854 272 C854 168 810 50 707 50 C658 50 651 76 651 112 C651 216 709 408 723 484 L647 484 L634 419 C624 464 581 504 512 504 C381 504 276 357 276 213 C276 107 332 31 438 31 C497 31 544 55 584 104 C582 96 582 88 582 81 C582 19 631 -27 709 -27 C841 -27 927 103 927 264 C927 507 733 699 493 699 C251 699 59 503 59 268 C59 37 243 -170 479 -170 L479 -170 Z M438 106 C377 106 346 143 346 217 C346 329 417 433 514 433 C582 433 610 383 610 322 C610 260 581 187 532 142 C504 118 473 106 438 106 L438 106 Z " />
<glyph glyph-name="A" unicode="A" horiz-adv-x="720" d="M563 0 L710 0 L360 800 L10 0 L157 0 L209 130 L511 130 L563 0 Z M253 240 L360 506 L467 240 L253 240 Z " />
<glyph glyph-name="B" unicode="B" horiz-adv-x="673" d="M100 0 L418 0 C541 0 643 100 643 225 C643 301 605 369 544 411 C573 452 588 496 588 545 C588 670 487 770 363 770 L100 770 L100 0 Z M230 450 L230 640 L363 640 C416 640 458 597 458 545 C458 492 415 450 363 450 L230 450 Z M230 130 L230 320 L418 320 C471 320 513 277 513 225 C513 172 470 130 418 130 L230 130 Z " />
<glyph glyph-name="C" unicode="C" horiz-adv-x="669" d="M450 -10 C515 -10 572 5 629 35 L629 195 C578 146 515 122 447 122 C297 122 182 239 182 385 C182 533 300 648 448 648 C515 648 578 624 629 575 L629 735 C572 765 515 780 450 780 C229 780 50 607 50 386 C50 166 227 -10 450 -10 L450 -10 Z " />
<glyph glyph-name="D" unicode="D" horiz-adv-x="759" d="M100 0 L324 0 C537 0 709 172 709 385 C709 598 537 770 324 770 L100 770 L100 0 Z M230 130 L230 640 L324 640 C467 640 579 526 579 385 C579 243 467 130 324 130 L230 130 Z " />
<glyph glyph-name="E" unicode="E" horiz-adv-x="630" d="M100 0 L580 0 L580 130 L230 130 L230 320 L540 320 L540 450 L230 450 L230 640 L580 640 L580 770 L100 770 L100 0 Z " />
<glyph glyph-name="F" unicode="F" horiz-adv-x="590" d="M100 0 L230 0 L230 320 L540 320 L540 450 L230 450 L230 640 L580 640 L580 770 L100 770 L100 0 Z " />
<glyph glyph-name="G" unicode="G" horiz-adv-x="794" d="M449 -10 C550 -10 643 27 722 102 L724 108 L724 450 L447 450 L447 320 L603 320 L603 173 C557 139 504 122 447 122 C298 122 182 239 182 385 C182 533 300 648 448 648 C515 648 578 624 629 575 L722 668 C643 743 549 780 448 780 C228 780 50 605 50 385 C50 165 228 -10 449 -10 L449 -10 Z " />
<glyph glyph-name="H" unicode="H" horiz-adv-x="741" d="M100 0 L230 0 L230 320 L511 320 L511 0 L641 0 L641 770 L511 770 L511 450 L230 450 L230 770 L100 770 L100 0 Z " />
<glyph glyph-name="I" unicode="I" horiz-adv-x="330" d="M100 0 L230 0 L230 770 L100 770 L100 0 Z " />
<glyph glyph-name="J" unicode="J" horiz-adv-x="578" d="M279 -10 C406 -10 498 74 498 189 L498 770 L368 770 L368 189 C368 147 331 117 279 117 C227 117 190 147 190 189 L190 294 L60 294 L60 189 C60 74 152 -10 279 -10 L279 -10 Z " />
<glyph glyph-name="K" unicode="K" horiz-adv-x="637" d="M100 0 L230 0 L230 332 L477 0 L637 0 L339 385 L637 770 L477 770 L230 438 L230 770 L100 770 L100 0 Z " />
<glyph glyph-name="L" unicode="L" horiz-adv-x="590" d="M100 0 L580 0 L580 130 L230 130 L230 770 L100 770 L100 0 Z " />
<glyph glyph-name="M" unicode="M" horiz-adv-x="932" d="M100 0 L230 0 L230 415 L466 88 L703 415 L703 0 L832 0 L832 800 L466 294 L100 800 L100 0 Z " />
<glyph glyph-name="N" unicode="N" horiz-adv-x="793" d="M693 -32 L693 770 L563 770 L563 295 L100 800 L100 0 L230 0 L230 473 L693 -32 Z " />
<glyph glyph-name="O" unicode="O" horiz-adv-x="890" d="M445 -10 C660 -10 840 163 840 385 C840 600 667 780 445 780 C230 780 50 607 50 385 C50 170 223 -10 445 -10 L445 -10 Z M445 122 C298 122 182 241 182 385 C182 532 301 648 445 648 C592 648 708 529 708 385 C708 238 589 122 445 122 L445 122 Z " />
<glyph glyph-name="P" unicode="P" horiz-adv-x="668" d="M100 0 L230 0 L230 320 L403 320 C528 320 628 421 628 545 C628 670 527 770 403 770 L100 770 L100 0 Z M230 450 L230 640 L403 640 C456 640 498 597 498 545 C498 492 455 450 403 450 L230 450 Z " />
<glyph glyph-name="Q" unicode="Q" horiz-adv-x="890" d="M840 385 C840 600 667 780 445 780 C230 780 50 607 50 385 C50 190 192 24 384 -5 L384 -125 L506 -125 L506 -5 C693 24 840 184 840 385 L840 385 Z M506 129 L506 254 L384 254 L384 129 C267 157 182 262 182 385 C182 532 301 648 445 648 C592 648 708 529 708 385 C708 259 621 156 506 129 L506 129 Z " />
<glyph glyph-name="R" unicode="R" horiz-adv-x="663" d="M100 0 L230 0 L230 320 L326 320 L503 0 L653 0 L462 328 C560 354 628 440 628 549 C628 665 529 770 403 770 L100 770 L100 0 Z M230 445 L230 642 L383 642 C460 642 498 609 498 544 C498 478 460 445 383 445 L230 445 Z " />
<glyph glyph-name="S" unicode="S" horiz-adv-x="554" d="M273 -10 C402 -10 514 71 514 208 C514 345 402 395 321 437 C251 473 191 510 191 570 C191 619 232 654 288 654 C331 654 368 633 383 590 L496 642 C461 724 386 780 289 780 C164 780 71 688 71 563 C71 433 171 375 252 333 C307 305 384 267 384 201 C384 146 332 116 274 116 C208 116 160 154 140 211 L30 162 C63 59 154 -10 273 -10 L273 -10 Z " />
<glyph glyph-name="T" unicode="T" horiz-adv-x="555" d="M213 0 L343 0 L343 640 L540 640 L540 770 L15 770 L15 640 L213 640 L213 0 Z " />
<glyph glyph-name="U" unicode="U" horiz-adv-x="758" d="M370 -10 C547 -10 683 122 683 294 L683 770 L553 770 L553 294 C553 197 476 120 379 120 C282 120 205 197 205 294 L205 770 L75 770 L75 294 C75 130 212 -10 370 -10 L370 -10 Z " />
<glyph glyph-name="V" unicode="V" horiz-adv-x="700" d="M350 -30 L700 770 L548 770 L350 274 L152 770 L0 770 L350 -30 Z " />
<glyph glyph-name="W" unicode="W" horiz-adv-x="993" d="M350 -30 L497 315 L643 -30 L993 770 L851 770 L633 274 L563 457 L700 770 L568 770 L497 579 L425 770 L293 770 L431 457 L360 274 L142 770 L0 770 L350 -30 Z " />
<glyph glyph-name="X" unicode="X" horiz-adv-x="604" d="M0 0 L151 0 L302 257 L454 0 L604 0 L378 385 L604 770 L454 770 L302 513 L151 770 L0 770 L227 385 L0 0 Z " />
<glyph glyph-name="Y" unicode="Y" horiz-adv-x="604" d="M237 0 L367 0 L367 367 L604 770 L454 770 L302 493 L151 770 L0 770 L237 367 L237 0 Z " />
<glyph glyph-name="Z" unicode="Z" horiz-adv-x="624" d="M10 0 L614 0 L614 130 L237 130 L614 770 L28 770 L28 640 L387 640 L10 0 Z " />
<glyph glyph-name="bracketleft" unicode="&#x5b;" horiz-adv-x="440" d="M73 0 L340 0 L340 109 L202 109 L199 693 L337 693 L337 802 L70 802 L73 0 Z " />
<glyph glyph-name="backslash" unicode="&#x5c;" horiz-adv-x="639" d="M455 -200 L599 -200 L184 800 L40 800 L455 -200 Z " />
<glyph glyph-name="bracketright" unicode="&#x5d;" horiz-adv-x="440" d="M70 0 L337 0 L340 802 L73 802 L73 693 L211 693 L208 109 L70 109 L70 0 Z " />
<glyph glyph-name="asciicircum" unicode="&#x5e;" horiz-adv-x="536" d="M27 274 L156 274 L262 600 L376 274 L509 274 L304 770 L215 770 L27 274 Z " />
<glyph glyph-name="underscore" unicode="&#x5f;" horiz-adv-x="758" d="M100 0 L658 0 L658 115 L100 115 L100 0 Z " />
<glyph glyph-name="a" unicode="a" horiz-adv-x="720" d="M563 0 L710 0 L360 800 L10 0 L157 0 L209 130 L511 130 L563 0 Z M253 240 L360 506 L467 240 L253 240 Z " />
<glyph glyph-name="b" unicode="b" horiz-adv-x="673" d="M100 0 L418 0 C541 0 643 100 643 225 C643 301 605 369 544 411 C573 452 588 496 588 545 C588 670 487 770 363 770 L100 770 L100 0 Z M230 450 L230 640 L363 640 C416 640 458 597 458 545 C458 492 415 450 363 450 L230 450 Z M230 130 L230 320 L418 320 C471 320 513 277 513 225 C513 172 470 130 418 130 L230 130 Z " />
<glyph glyph-name="c" unicode="c" horiz-adv-x="669" d="M450 -10 C515 -10 572 5 629 35 L629 195 C578 146 515 122 447 122 C297 122 182 239 182 385 C182 533 300 648 448 648 C515 648 578 624 629 575 L629 735 C572 765 515 780 450 780 C229 780 50 607 50 386 C50 166 227 -10 450 -10 L450 -10 Z " />
<glyph glyph-name="d" unicode="d" horiz-adv-x="759" d="M100 0 L324 0 C537 0 709 172 709 385 C709 598 537 770 324 770 L100 770 L100 0 Z M230 130 L230 640 L324 640 C467 640 579 526 579 385 C579 243 467 130 324 130 L230 130 Z " />
<glyph glyph-name="e" unicode="e" horiz-adv-x="630" d="M100 0 L580 0 L580 130 L230 130 L230 320 L540 320 L540 450 L230 450 L230 640 L580 640 L580 770 L100 770 L100 0 Z " />
<glyph glyph-name="f" unicode="f" horiz-adv-x="590" d="M100 0 L230 0 L230 320 L540 320 L540 450 L230 450 L230 640 L580 640 L580 770 L100 770 L100 0 Z " />
<glyph glyph-name="g" unicode="g" horiz-adv-x="794" d="M449 -10 C550 -10 643 27 722 102 L724 108 L724 450 L447 450 L447 320 L603 320 L603 173 C557 139 504 122 447 122 C298 122 182 239 182 385 C182 533 300 648 448 648 C515 648 578 624 629 575 L722 668 C643 743 549 780 448 780 C228 780 50 605 50 385 C50 165 228 -10 449 -10 L449 -10 Z " />
<glyph glyph-name="h" unicode="h" horiz-adv-x="741" d="M100 0 L230 0 L230 320 L511 320 L511 0 L641 0 L641 770 L511 770 L511 450 L230 450 L230 770 L100 770 L100 0 Z " />
<glyph glyph-name="i" unicode="i" horiz-adv-x="330" d="M100 0 L230 0 L230 770 L100 770 L100 0 Z " />
<glyph glyph-name="j" unicode="j" horiz-adv-x="578" d="M279 -10 C406 -10 498 74 498 189 L498 770 L368 770 L368 189 C368 147 331 117 279 117 C227 117 190 147 190 189 L190 294 L60 294 L60 189 C60 74 152 -10 279 -10 L279 -10 Z " />
<glyph glyph-name="k" unicode="k" horiz-adv-x="637" d="M100 0 L230 0 L230 332 L477 0 L637 0 L339 385 L637 770 L477 770 L230 438 L230 770 L100 770 L100 0 Z " />
<glyph glyph-name="l" unicode="l" horiz-adv-x="590" d="M100 0 L580 0 L580 130 L230 130 L230 770 L100 770 L100 0 Z " />
<glyph glyph-name="m" unicode="m" horiz-adv-x="932" d="M100 0 L230 0 L230 415 L466 88 L703 415 L703 0 L832 0 L832 800 L466 294 L100 800 L100 0 Z " />
<glyph glyph-name="n" unicode="n" horiz-adv-x="793" d="M693 -32 L693 770 L563 770 L563 295 L100 800 L100 0 L230 0 L230 473 L693 -32 Z " />
<glyph glyph-name="o" unicode="o" horiz-adv-x="890" d="M445 -10 C660 -10 840 163 840 385 C840 600 667 780 445 780 C230 780 50 607 50 385 C50 170 223 -10 445 -10 L445 -10 Z M445 122 C298 122 182 241 182 385 C182 532 301 648 445 648 C592 648 708 529 708 385 C708 238 589 122 445 122 L445 122 Z " />
<glyph glyph-name="p" unicode="p" horiz-adv-x="668" d="M100 0 L230 0 L230 320 L403 320 C528 320 628 421 628 545 C628 670 527 770 403 770 L100 770 L100 0 Z M230 450 L230 640 L403 640 C456 640 498 597 498 545 C498 492 455 450 403 450 L230 450 Z " />
<glyph glyph-name="q" unicode="q" horiz-adv-x="890" d="M840 385 C840 600 667 780 445 780 C230 780 50 607 50 385 C50 190 192 24 384 -5 L384 -125 L506 -125 L506 -5 C693 24 840 184 840 385 L840 385 Z M506 129 L506 254 L384 254 L384 129 C267 157 182 262 182 385 C182 532 301 648 445 648 C592 648 708 529 708 385 C708 259 621 156 506 129 L506 129 Z " />
<glyph glyph-name="r" unicode="r" horiz-adv-x="663" d="M100 0 L230 0 L230 320 L326 320 L503 0 L653 0 L462 328 C560 354 628 440 628 549 C628 665 529 770 403 770 L100 770 L100 0 Z M230 445 L230 642 L383 642 C460 642 498 609 498 544 C498 478 460 445 383 445 L230 445 Z " />
<glyph glyph-name="s" unicode="s" horiz-adv-x="554" d="M273 -10 C402 -10 514 71 514 208 C514 345 402 395 321 437 C251 473 191 510 191 570 C191 619 232 654 288 654 C331 654 368 633 383 590 L496 642 C461 724 386 780 289 780 C164 780 71 688 71 563 C71 433 171 375 252 333 C307 305 384 267 384 201 C384 146 332 116 274 116 C208 116 160 154 140 211 L30 162 C63 59 154 -10 273 -10 L273 -10 Z " />
<glyph glyph-name="t" unicode="t" horiz-adv-x="555" d="M213 0 L343 0 L343 640 L540 640 L540 770 L15 770 L15 640 L213 640 L213 0 Z " />
<glyph glyph-name="u" unicode="u" horiz-adv-x="758" d="M370 -10 C547 -10 683 122 683 294 L683 770 L553 770 L553 294 C553 197 476 120 379 120 C282 120 205 197 205 294 L205 770 L75 770 L75 294 C75 130 212 -10 370 -10 L370 -10 Z " />
<glyph glyph-name="v" unicode="v" horiz-adv-x="700" d="M350 -30 L700 770 L548 770 L350 274 L152 770 L0 770 L350 -30 Z " />
<glyph glyph-name="w" unicode="w" horiz-adv-x="993" d="M350 -30 L497 315 L643 -30 L993 770 L851 770 L633 274 L563 457 L700 770 L568 770 L497 579 L425 770 L293 770 L431 457 L360 274 L142 770 L0 770 L350 -30 Z " />
<glyph glyph-name="x" unicode="x" horiz-adv-x="604" d="M0 0 L151 0 L302 257 L454 0 L604 0 L378 385 L604 770 L454 770 L302 513 L151 770 L0 770 L227 385 L0 0 Z " />
<glyph glyph-name="y" unicode="y" horiz-adv-x="604" d="M237 0 L367 0 L367 367 L604 770 L454 770 L302 493 L151 770 L0 770 L237 367 L237 0 Z " />
<glyph glyph-name="z" unicode="z" horiz-adv-x="624" d="M10 0 L614 0 L614 130 L237 130 L614 770 L28 770 L28 640 L387 640 L10 0 Z " />
<glyph glyph-name="braceleft" unicode="&#x7b;" horiz-adv-x="358" d="M245 0 L328 0 L328 121 C268 121 246 122 246 165 L246 239 C246 306 225 360 184 402 C225 444 246 498 246 565 L246 638 C246 678 265 682 328 682 L328 803 L245 803 C159 803 105 733 105 648 L105 578 C105 502 95 478 30 448 L30 356 C104 322 105 306 105 226 L105 155 C105 73 157 0 245 0 L245 0 Z " />
<glyph glyph-name="bar" unicode="&#x7c;" horiz-adv-x="240" d="M60 -177 L180 -177 L180 800 L60 800 L60 -177 Z " />
<glyph glyph-name="braceright" unicode="&#x7d;" horiz-adv-x="358" d="M30 0 L113 0 C201 0 253 73 253 155 L253 226 C253 306 254 322 328 356 L328 448 C263 478 253 502 253 578 L253 648 C253 733 199 803 113 803 L30 803 L30 682 C93 682 112 678 112 638 L112 565 C112 498 133 444 174 402 C133 360 112 306 112 239 L112 165 C112 122 90 121 30 121 L30 0 Z " />
<glyph glyph-name="asciitilde" unicode="&#x7e;" horiz-adv-x="720" d="M190 279 C213 344 245 393 302 357 C398 297 424 286 465 286 C533 286 582 332 640 453 L533 498 C516 437 488 404 451 404 C393 404 323 491 257 491 C195 491 135 436 80 325 L190 279 Z " />
<glyph glyph-name="DEL" unicode="&#x7f;" horiz-adv-x="70" d="" />
<glyph glyph-name="uni00A0" unicode="&#xa0;" horiz-adv-x="70" d="" />
<glyph glyph-name="copyright" unicode="&#xa9;" horiz-adv-x="916" d="M458 0 C670 0 836 166 836 378 C836 590 670 756 458 756 C246 756 80 590 80 378 C80 166 246 0 458 0 L458 0 Z M458 67 C285 67 147 206 147 378 C147 551 286 689 458 689 C631 689 769 550 769 378 C769 205 630 67 458 67 L458 67 Z M479 142 C516 142 552 152 588 171 L588 266 C558 237 521 223 481 223 C392 223 324 293 324 378 C324 460 389 533 481 533 C521 533 558 519 588 490 L588 585 C552 604 500 611 469 611 C344 611 247 500 247 379 C247 250 356 142 479 142 L479 142 Z " />
<glyph glyph-name="registered" unicode="&#xae;" horiz-adv-x="916" d="M458 234 C496 234 532 241 564 256 C598 270 626 289 651 314 C676 339 695 368 710 400 C724 434 731 469 731 507 C731 545 724 580 710 614 C695 646 676 675 651 700 C626 725 598 744 564 758 C532 773 496 780 458 780 C420 780 384 773 352 758 C318 744 290 725 265 700 C240 675 221 646 206 614 C192 580 185 545 185 507 C185 469 192 434 206 400 C221 368 240 339 265 314 C290 289 318 270 352 256 C384 241 420 234 458 234 L458 234 Z M458 294 C428 294 401 299 374 310 C349 321 327 337 308 356 C288 376 272 397 262 424 C250 449 245 477 245 507 C245 537 250 564 262 590 C272 616 288 638 308 658 C327 677 349 693 374 704 C401 715 428 720 458 720 C488 720 515 715 541 704 C567 693 589 677 608 658 C628 638 644 616 654 590 C666 564 671 537 671 507 C671 477 666 449 654 424 C644 397 628 376 608 356 C589 337 567 321 541 310 C515 299 488 294 458 294 L458 294 Z M373 362 L421 362 L421 480 L455 480 L514 362 L570 362 L507 483 C525 488 540 498 551 513 C562 528 568 544 568 563 C568 586 560 606 544 622 C528 639 508 647 485 647 L373 647 L373 362 Z M421 528 L421 599 L485 599 C494 599 502 596 510 588 C516 582 520 573 520 563 C520 554 516 546 510 538 C502 532 494 528 485 528 L421 528 Z " />
<glyph glyph-name="ordmasculine" unicode="&#xba;" horiz-adv-x="511" d="M255 364 C284 364 312 370 338 380 C363 392 386 406 404 426 C424 444 438 467 450 492 C460 517 466 545 466 574 C466 603 460 631 450 656 C438 682 424 704 404 724 C386 742 363 758 338 768 C312 780 284 785 255 785 C226 785 198 780 173 768 C148 758 126 742 106 724 C88 704 72 682 62 656 C50 631 45 603 45 574 C45 545 50 517 62 492 C72 467 88 444 106 426 C126 406 148 392 173 380 C198 370 226 364 255 364 L255 364 Z M255 471 C241 471 228 474 216 479 C203 484 192 492 182 501 C173 510 165 521 160 534 C155 547 152 560 152 574 C152 588 155 601 160 614 C165 627 173 638 182 648 C192 657 203 665 216 670 C228 675 241 678 255 678 C269 678 282 675 295 670 C308 665 319 657 328 648 C338 638 346 627 351 614 C356 601 359 588 359 574 C359 560 356 547 351 534 C346 521 338 510 328 501 C319 492 308 484 295 479 C282 474 269 471 255 471 L255 471 Z " />
<glyph glyph-name="Agrave" unicode="&#xc0;" horiz-adv-x="720" d="M426 847 L296 1044 L163 964 L293 847 L426 847 Z M563 0 L710 0 L360 800 L10 0 L157 0 L209 130 L511 130 L563 0 Z M253 240 L360 506 L467 240 L253 240 Z " />
<glyph glyph-name="Aacute" unicode="&#xc1;" horiz-adv-x="720" d="M556 964 L423 1044 L293 847 L426 847 L556 964 Z M563 0 L710 0 L360 800 L10 0 L157 0 L209 130 L511 130 L563 0 Z M253 240 L360 506 L467 240 L253 240 Z " />
<glyph glyph-name="Acircumflex" unicode="&#xc2;" horiz-adv-x="720" d="M360 945 L428 843 L532 843 L422 1040 L298 1040 L188 843 L292 843 L360 945 Z M563 0 L710 0 L360 800 L10 0 L157 0 L209 130 L511 130 L563 0 Z M253 240 L360 506 L467 240 L253 240 Z " />
<glyph glyph-name="Atilde" unicode="&#xc3;" horiz-adv-x="720" d="M309 882 C375 841 401 827 438 827 C511 827 552 893 589 975 L479 1020 C470 978 453 945 428 945 C392 945 338 1010 283 1010 C218 1010 168 943 131 864 L242 817 C260 871 276 903 309 882 L309 882 Z M563 0 L710 0 L360 800 L10 0 L157 0 L209 130 L511 130 L563 0 Z M253 240 L360 506 L467 240 L253 240 Z " />
<glyph glyph-name="Adieresis" unicode="&#xc4;" horiz-adv-x="720" d="M259 843 C296 843 327 874 327 912 C327 949 296 980 259 980 C221 980 190 949 190 912 C190 874 221 843 259 843 L259 843 Z M461 843 C498 843 529 874 529 912 C529 949 498 980 461 980 C423 980 392 949 392 912 C392 874 423 843 461 843 L461 843 Z M563 0 L710 0 L360 800 L10 0 L157 0 L209 130 L511 130 L563 0 Z M253 240 L360 506 L467 240 L253 240 Z " />
<glyph glyph-name="Aring" unicode="&#xc5;" horiz-adv-x="700" d="M439 598 C481 626 508 674 508 729 C508 819 436 887 350 887 C260 887 192 815 192 729 C192 673 220 626 261 598 L0 0 L142 0 L199 130 L501 130 L558 0 L700 0 L439 598 Z M350 785 C382 785 406 760 406 729 C406 697 381 673 350 673 C318 673 294 698 294 729 C294 761 319 785 350 785 L350 785 Z M241 240 L350 506 L459 240 L241 240 Z " />
<glyph glyph-name="AE" unicode="&#xc6;" horiz-adv-x="1018" d="M0 0 L142 0 L198 130 L458 130 L458 0 L938 0 L938 130 L588 130 L588 320 L898 320 L898 450 L588 450 L588 640 L938 640 L938 770 L350 770 L0 0 Z M255 260 L419 640 L458 640 L458 260 L255 260 Z " />
<glyph glyph-name="Ccedilla" unicode="&#xc7;" horiz-adv-x="669" d="M448 648 C515 648 578 624 629 575 L629 735 C572 765 515 780 450 780 C229 780 50 607 50 386 C50 177 210 8 417 -9 L379 -86 L399 -114 C425 -95 448 -92 465 -92 C489 -92 515 -111 515 -141 C515 -174 486 -190 466 -190 C448 -190 431 -176 409 -155 L377 -199 C407 -227 436 -242 468 -242 C520 -242 567 -203 567 -141 C567 -79 521 -40 460 -40 L449 -40 L467 -10 C525 -7 577 8 629 35 L629 195 C578 146 515 122 447 122 C297 122 182 239 182 385 C182 533 300 648 448 648 L448 648 Z " />
<glyph glyph-name="Egrave" unicode="&#xc8;" horiz-adv-x="630" d="M273 847 L406 847 L276 1044 L143 964 L273 847 Z M100 0 L580 0 L580 130 L230 130 L230 320 L540 320 L540 450 L230 450 L230 640 L580 640 L580 770 L100 770 L100 0 Z " />
<glyph glyph-name="Eacute" unicode="&#xc9;" horiz-adv-x="630" d="M273 847 L406 847 L536 964 L403 1044 L273 847 Z M100 0 L580 0 L580 130 L230 130 L230 320 L540 320 L540 450 L230 450 L230 640 L580 640 L580 770 L100 770 L100 0 Z " />
<glyph glyph-name="Ecircumflex" unicode="&#xca;" horiz-adv-x="630" d="M168 843 L272 843 L340 945 L408 843 L512 843 L402 1040 L278 1040 L168 843 Z M100 0 L580 0 L580 130 L230 130 L230 320 L540 320 L540 450 L230 450 L230 640 L580 640 L580 770 L100 770 L100 0 Z " />
<glyph glyph-name="Edieresis" unicode="&#xcb;" horiz-adv-x="630" d="M239 843 C276 843 307 874 307 912 C307 949 276 980 239 980 C201 980 170 949 170 912 C170 874 201 843 239 843 L239 843 Z M441 843 C478 843 509 874 509 912 C509 949 478 980 441 980 C403 980 372 949 372 912 C372 874 403 843 441 843 L441 843 Z M100 0 L580 0 L580 130 L230 130 L230 320 L540 320 L540 450 L230 450 L230 640 L580 640 L580 770 L100 770 L100 0 Z " />
<glyph glyph-name="Igrave" unicode="&#xcc;" horiz-adv-x="330" d="M98 847 L231 847 L101 1044 L-32 964 L98 847 Z M100 0 L230 0 L230 770 L100 770 L100 0 Z " />
<glyph glyph-name="Iacute" unicode="&#xcd;" horiz-adv-x="330" d="M98 847 L231 847 L361 964 L228 1044 L98 847 Z M100 0 L230 0 L230 770 L100 770 L100 0 Z " />
<glyph glyph-name="Icircumflex" unicode="&#xce;" horiz-adv-x="330" d="M-7 843 L97 843 L165 945 L233 843 L337 843 L227 1040 L103 1040 L-7 843 Z M100 0 L230 0 L230 770 L100 770 L100 0 Z " />
<glyph glyph-name="Idieresis" unicode="&#xcf;" horiz-adv-x="330" d="M64 843 C101 843 132 874 132 912 C132 949 101 980 64 980 C26 980 -5 949 -5 912 C-5 874 26 843 64 843 L64 843 Z M266 843 C303 843 334 874 334 912 C334 949 303 980 266 980 C228 980 197 949 197 912 C197 874 228 843 266 843 L266 843 Z M100 0 L230 0 L230 770 L100 770 L100 0 Z " />
<glyph glyph-name="Eth" unicode="&#xd0;" horiz-adv-x="759" d="M324 770 L100 770 L100 442 L23 442 L23 328 L100 328 L100 0 L324 0 C537 0 709 172 709 385 C709 598 537 770 324 770 L324 770 Z M324 130 L230 130 L230 328 L431 328 L431 442 L230 442 L230 640 L324 640 C467 640 579 526 579 385 C579 243 467 130 324 130 L324 130 Z " />
<glyph glyph-name="Ntilde" unicode="&#xd1;" horiz-adv-x="793" d="M279 817 C297 871 313 903 346 882 C412 841 438 827 475 827 C548 827 589 893 626 975 L516 1020 C507 978 490 945 465 945 C429 945 375 1010 320 1010 C255 1010 205 943 168 864 L279 817 Z M693 -32 L693 770 L563 770 L563 295 L100 800 L100 0 L230 0 L230 473 L693 -32 Z " />
<glyph glyph-name="Ograve" unicode="&#xd2;" horiz-adv-x="890" d="M378 847 L511 847 L381 1044 L248 964 L378 847 Z M445 -10 C660 -10 840 163 840 385 C840 600 667 780 445 780 C230 780 50 607 50 385 C50 170 223 -10 445 -10 L445 -10 Z M445 122 C298 122 182 241 182 385 C182 532 301 648 445 648 C592 648 708 529 708 385 C708 238 589 122 445 122 L445 122 Z " />
<glyph glyph-name="Oacute" unicode="&#xd3;" horiz-adv-x="890" d="M378 847 L511 847 L641 964 L508 1044 L378 847 Z M445 -10 C660 -10 840 163 840 385 C840 600 667 780 445 780 C230 780 50 607 50 385 C50 170 223 -10 445 -10 L445 -10 Z M445 122 C298 122 182 241 182 385 C182 532 301 648 445 648 C592 648 708 529 708 385 C708 238 589 122 445 122 L445 122 Z " />
<glyph glyph-name="Ocircumflex" unicode="&#xd4;" horiz-adv-x="890" d="M273 843 L377 843 L445 945 L513 843 L617 843 L507 1040 L383 1040 L273 843 Z M445 -10 C660 -10 840 163 840 385 C840 600 667 780 445 780 C230 780 50 607 50 385 C50 170 223 -10 445 -10 L445 -10 Z M445 122 C298 122 182 241 182 385 C182 532 301 648 445 648 C592 648 708 529 708 385 C708 238 589 122 445 122 L445 122 Z " />
<glyph glyph-name="Otilde" unicode="&#xd5;" horiz-adv-x="890" d="M327 817 C345 871 361 903 394 882 C460 841 486 827 523 827 C596 827 637 893 674 975 L564 1020 C555 978 538 945 513 945 C477 945 423 1010 368 1010 C303 1010 253 943 216 864 L327 817 Z M445 -10 C660 -10 840 163 840 385 C840 600 667 780 445 780 C230 780 50 607 50 385 C50 170 223 -10 445 -10 L445 -10 Z M445 122 C298 122 182 241 182 385 C182 532 301 648 445 648 C592 648 708 529 708 385 C708 238 589 122 445 122 L445 122 Z " />
<glyph glyph-name="Odieresis" unicode="&#xd6;" horiz-adv-x="890" d="M344 843 C381 843 412 874 412 912 C412 949 381 980 344 980 C306 980 275 949 275 912 C275 874 306 843 344 843 L344 843 Z M546 843 C583 843 614 874 614 912 C614 949 583 980 546 980 C508 980 477 949 477 912 C477 874 508 843 546 843 L546 843 Z M445 -10 C660 -10 840 163 840 385 C840 600 667 780 445 780 C230 780 50 607 50 385 C50 170 223 -10 445 -10 L445 -10 Z M445 122 C298 122 182 241 182 385 C182 532 301 648 445 648 C592 648 708 529 708 385 C708 238 589 122 445 122 L445 122 Z " />
<glyph glyph-name="multiply" unicode="&#xd7;" horiz-adv-x="614" d="M156 154 L306 305 L447 164 L530 246 L389 387 L539 538 L459 619 L308 468 L167 609 L85 527 L226 385 L75 235 L156 154 Z " />
<glyph glyph-name="Oslash" unicode="&#xd8;" horiz-adv-x="890" d="M767 615 L820 668 L728 760 L675 707 C610 753 531 780 445 780 C230 780 50 607 50 385 C50 300 77 221 123 155 L70 102 L162 10 L215 63 C280 17 359 -10 445 -10 C660 -10 840 163 840 385 C840 470 813 549 767 615 L767 615 Z M182 385 C182 532 301 648 445 648 C494 648 540 635 579 611 L219 251 C195 290 182 336 182 385 L182 385 Z M445 122 C396 122 350 135 311 159 L671 519 C695 480 708 434 708 385 C708 238 589 122 445 122 L445 122 Z " />
<glyph glyph-name="Ugrave" unicode="&#xd9;" horiz-adv-x="758" d="M312 847 L445 847 L315 1044 L182 964 L312 847 Z M370 -10 C547 -10 683 122 683 294 L683 770 L553 770 L553 294 C553 197 476 120 379 120 C282 120 205 197 205 294 L205 770 L75 770 L75 294 C75 130 212 -10 370 -10 L370 -10 Z " />
<glyph glyph-name="Uacute" unicode="&#xda;" horiz-adv-x="758" d="M312 847 L445 847 L575 964 L442 1044 L312 847 Z M370 -10 C547 -10 683 122 683 294 L683 770 L553 770 L553 294 C553 197 476 120 379 120 C282 120 205 197 205 294 L205 770 L75 770 L75 294 C75 130 212 -10 370 -10 L370 -10 Z " />
<glyph glyph-name="Ucircumflex" unicode="&#xdb;" horiz-adv-x="758" d="M207 843 L311 843 L379 945 L447 843 L551 843 L441 1040 L317 1040 L207 843 Z M370 -10 C547 -10 683 122 683 294 L683 770 L553 770 L553 294 C553 197 476 120 379 120 C282 120 205 197 205 294 L205 770 L75 770 L75 294 C75 130 212 -10 370 -10 L370 -10 Z " />
<glyph glyph-name="Udieresis" unicode="&#xdc;" horiz-adv-x="758" d="M278 843 C315 843 346 874 346 912 C346 949 315 980 278 980 C240 980 209 949 209 912 C209 874 240 843 278 843 L278 843 Z M480 843 C517 843 548 874 548 912 C548 949 517 980 480 980 C442 980 411 949 411 912 C411 874 442 843 480 843 L480 843 Z M370 -10 C547 -10 683 122 683 294 L683 770 L553 770 L553 294 C553 197 476 120 379 120 C282 120 205 197 205 294 L205 770 L75 770 L75 294 C75 130 212 -10 370 -10 L370 -10 Z " />
<glyph glyph-name="Yacute" unicode="&#xdd;" horiz-adv-x="604" d="M235 847 L368 847 L498 964 L365 1044 L235 847 Z M237 0 L367 0 L367 367 L604 770 L454 770 L302 493 L151 770 L0 770 L237 367 L237 0 Z " />
<glyph glyph-name="Thorn" unicode="&#xde;" horiz-adv-x="638" d="M403 690 L230 690 L230 770 L100 770 L100 0 L230 0 L230 240 L403 240 C528 240 628 341 628 465 C628 590 527 690 403 690 L403 690 Z M403 370 L230 370 L230 560 L403 560 C456 560 498 517 498 465 C498 412 455 370 403 370 L403 370 Z " />
<glyph glyph-name="germandbls" unicode="&#xdf;" horiz-adv-x="595" d="M100 -1 L232 -1 L232 595 C232 632 261 668 304 668 C345 668 375 635 375 592 C375 557 356 530 322 523 L322 407 C392 393 433 342 433 252 C433 163 392 128 322 128 L322 0 C472 0 565 95 565 262 C565 357 535 429 440 477 C478 513 497 557 497 598 C497 668 442 780 298 780 C194 780 100 721 100 595 L100 -1 Z " />
<glyph glyph-name="agrave" unicode="&#xe0;" horiz-adv-x="720" d="M426 847 L296 1044 L163 964 L293 847 L426 847 Z M563 0 L710 0 L360 800 L10 0 L157 0 L209 130 L511 130 L563 0 Z M253 240 L360 506 L467 240 L253 240 Z " />
<glyph glyph-name="aacute" unicode="&#xe1;" horiz-adv-x="720" d="M556 964 L423 1044 L293 847 L426 847 L556 964 Z M563 0 L710 0 L360 800 L10 0 L157 0 L209 130 L511 130 L563 0 Z M253 240 L360 506 L467 240 L253 240 Z " />
<glyph glyph-name="acircumflex" unicode="&#xe2;" horiz-adv-x="720" d="M360 945 L428 843 L532 843 L422 1040 L298 1040 L188 843 L292 843 L360 945 Z M563 0 L710 0 L360 800 L10 0 L157 0 L209 130 L511 130 L563 0 Z M253 240 L360 506 L467 240 L253 240 Z " />
<glyph glyph-name="atilde" unicode="&#xe3;" horiz-adv-x="720" d="M309 882 C375 841 401 827 438 827 C511 827 552 893 589 975 L479 1020 C470 978 453 945 428 945 C392 945 338 1010 283 1010 C218 1010 168 943 131 864 L242 817 C260 871 276 903 309 882 L309 882 Z M563 0 L710 0 L360 800 L10 0 L157 0 L209 130 L511 130 L563 0 Z M253 240 L360 506 L467 240 L253 240 Z " />
<glyph glyph-name="adieresis" unicode="&#xe4;" horiz-adv-x="720" d="M259 843 C296 843 327 874 327 912 C327 949 296 980 259 980 C221 980 190 949 190 912 C190 874 221 843 259 843 L259 843 Z M461 843 C498 843 529 874 529 912 C529 949 498 980 461 980 C423 980 392 949 392 912 C392 874 423 843 461 843 L461 843 Z M563 0 L710 0 L360 800 L10 0 L157 0 L209 130 L511 130 L563 0 Z M253 240 L360 506 L467 240 L253 240 Z " />
<glyph glyph-name="aring" unicode="&#xe5;" horiz-adv-x="700" d="M439 598 C481 626 508 674 508 729 C508 819 436 887 350 887 C260 887 192 815 192 729 C192 673 220 626 261 598 L0 0 L142 0 L199 130 L501 130 L558 0 L700 0 L439 598 Z M350 785 C382 785 406 760 406 729 C406 697 381 673 350 673 C318 673 294 698 294 729 C294 761 319 785 350 785 L350 785 Z M241 240 L350 506 L459 240 L241 240 Z " />
<glyph glyph-name="ae" unicode="&#xe6;" horiz-adv-x="1018" d="M0 0 L142 0 L198 130 L458 130 L458 0 L938 0 L938 130 L588 130 L588 320 L898 320 L898 450 L588 450 L588 640 L938 640 L938 770 L350 770 L0 0 Z M255 260 L419 640 L458 640 L458 260 L255 260 Z " />
<glyph glyph-name="ccedilla" unicode="&#xe7;" horiz-adv-x="669" d="M448 648 C515 648 578 624 629 575 L629 735 C572 765 515 780 450 780 C229 780 50 607 50 386 C50 177 210 8 417 -9 L379 -86 L399 -114 C425 -95 448 -92 465 -92 C489 -92 515 -111 515 -141 C515 -174 486 -190 466 -190 C448 -190 431 -176 409 -155 L377 -199 C407 -227 436 -242 468 -242 C520 -242 567 -203 567 -141 C567 -79 521 -40 460 -40 L449 -40 L467 -10 C525 -7 577 8 629 35 L629 195 C578 146 515 122 447 122 C297 122 182 239 182 385 C182 533 300 648 448 648 L448 648 Z " />
<glyph glyph-name="egrave" unicode="&#xe8;" horiz-adv-x="630" d="M273 847 L406 847 L276 1044 L143 964 L273 847 Z M100 0 L580 0 L580 130 L230 130 L230 320 L540 320 L540 450 L230 450 L230 640 L580 640 L580 770 L100 770 L100 0 Z " />
<glyph glyph-name="eacute" unicode="&#xe9;" horiz-adv-x="630" d="M273 847 L406 847 L536 964 L403 1044 L273 847 Z M100 0 L580 0 L580 130 L230 130 L230 320 L540 320 L540 450 L230 450 L230 640 L580 640 L580 770 L100 770 L100 0 Z " />
<glyph glyph-name="ecircumflex" unicode="&#xea;" horiz-adv-x="630" d="M168 843 L272 843 L340 945 L408 843 L512 843 L402 1040 L278 1040 L168 843 Z M100 0 L580 0 L580 130 L230 130 L230 320 L540 320 L540 450 L230 450 L230 640 L580 640 L580 770 L100 770 L100 0 Z " />
<glyph glyph-name="edieresis" unicode="&#xeb;" horiz-adv-x="630" d="M239 843 C276 843 307 874 307 912 C307 949 276 980 239 980 C201 980 170 949 170 912 C170 874 201 843 239 843 L239 843 Z M441 843 C478 843 509 874 509 912 C509 949 478 980 441 980 C403 980 372 949 372 912 C372 874 403 843 441 843 L441 843 Z M100 0 L580 0 L580 130 L230 130 L230 320 L540 320 L540 450 L230 450 L230 640 L580 640 L580 770 L100 770 L100 0 Z " />
<glyph glyph-name="igrave" unicode="&#xec;" horiz-adv-x="330" d="M98 847 L231 847 L101 1044 L-32 964 L98 847 Z M100 0 L230 0 L230 770 L100 770 L100 0 Z " />
<glyph glyph-name="iacute" unicode="&#xed;" horiz-adv-x="330" d="M98 847 L231 847 L361 964 L228 1044 L98 847 Z M100 0 L230 0 L230 770 L100 770 L100 0 Z " />
<glyph glyph-name="icircumflex" unicode="&#xee;" horiz-adv-x="330" d="M-7 843 L97 843 L165 945 L233 843 L337 843 L227 1040 L103 1040 L-7 843 Z M100 0 L230 0 L230 770 L100 770 L100 0 Z " />
<glyph glyph-name="idieresis" unicode="&#xef;" horiz-adv-x="330" d="M64 843 C101 843 132 874 132 912 C132 949 101 980 64 980 C26 980 -5 949 -5 912 C-5 874 26 843 64 843 L64 843 Z M266 843 C303 843 334 874 334 912 C334 949 303 980 266 980 C228 980 197 949 197 912 C197 874 228 843 266 843 L266 843 Z M100 0 L230 0 L230 770 L100 770 L100 0 Z " />
<glyph glyph-name="eth" unicode="&#xf0;" horiz-adv-x="759" d="M324 770 L100 770 L100 442 L23 442 L23 328 L100 328 L100 0 L324 0 C537 0 709 172 709 385 C709 598 537 770 324 770 L324 770 Z M324 130 L230 130 L230 328 L431 328 L431 442 L230 442 L230 640 L324 640 C467 640 579 526 579 385 C579 243 467 130 324 130 L324 130 Z " />
<glyph glyph-name="ntilde" unicode="&#xf1;" horiz-adv-x="793" d="M279 817 C297 871 313 903 346 882 C412 841 438 827 475 827 C548 827 589 893 626 975 L516 1020 C507 978 490 945 465 945 C429 945 375 1010 320 1010 C255 1010 205 943 168 864 L279 817 Z M693 -32 L693 770 L563 770 L563 295 L100 800 L100 0 L230 0 L230 473 L693 -32 Z " />
<glyph glyph-name="ograve" unicode="&#xf2;" horiz-adv-x="890" d="M378 847 L511 847 L381 1044 L248 964 L378 847 Z M445 -10 C660 -10 840 163 840 385 C840 600 667 780 445 780 C230 780 50 607 50 385 C50 170 223 -10 445 -10 L445 -10 Z M445 122 C298 122 182 241 182 385 C182 532 301 648 445 648 C592 648 708 529 708 385 C708 238 589 122 445 122 L445 122 Z " />
<glyph glyph-name="oacute" unicode="&#xf3;" horiz-adv-x="890" d="M378 847 L511 847 L641 964 L508 1044 L378 847 Z M445 -10 C660 -10 840 163 840 385 C840 600 667 780 445 780 C230 780 50 607 50 385 C50 170 223 -10 445 -10 L445 -10 Z M445 122 C298 122 182 241 182 385 C182 532 301 648 445 648 C592 648 708 529 708 385 C708 238 589 122 445 122 L445 122 Z " />
<glyph glyph-name="ocircumflex" unicode="&#xf4;" horiz-adv-x="890" d="M273 843 L377 843 L445 945 L513 843 L617 843 L507 1040 L383 1040 L273 843 Z M445 -10 C660 -10 840 163 840 385 C840 600 667 780 445 780 C230 780 50 607 50 385 C50 170 223 -10 445 -10 L445 -10 Z M445 122 C298 122 182 241 182 385 C182 532 301 648 445 648 C592 648 708 529 708 385 C708 238 589 122 445 122 L445 122 Z " />
<glyph glyph-name="otilde" unicode="&#xf5;" horiz-adv-x="890" d="M327 817 C345 871 361 903 394 882 C460 841 486 827 523 827 C596 827 637 893 674 975 L564 1020 C555 978 538 945 513 945 C477 945 423 1010 368 1010 C303 1010 253 943 216 864 L327 817 Z M445 -10 C660 -10 840 163 840 385 C840 600 667 780 445 780 C230 780 50 607 50 385 C50 170 223 -10 445 -10 L445 -10 Z M445 122 C298 122 182 241 182 385 C182 532 301 648 445 648 C592 648 708 529 708 385 C708 238 589 122 445 122 L445 122 Z " />
<glyph glyph-name="odieresis" unicode="&#xf6;" horiz-adv-x="890" d="M344 843 C381 843 412 874 412 912 C412 949 381 980 344 980 C306 980 275 949 275 912 C275 874 306 843 344 843 L344 843 Z M546 843 C583 843 614 874 614 912 C614 949 583 980 546 980 C508 980 477 949 477 912 C477 874 508 843 546 843 L546 843 Z M445 -10 C660 -10 840 163 840 385 C840 600 667 780 445 780 C230 780 50 607 50 385 C50 170 223 -10 445 -10 L445 -10 Z M445 122 C298 122 182 241 182 385 C182 532 301 648 445 648 C592 648 708 529 708 385 C708 238 589 122 445 122 L445 122 Z " />
<glyph glyph-name="oslash" unicode="&#xf8;" horiz-adv-x="890" d="M767 615 L820 668 L728 760 L675 707 C610 753 531 780 445 780 C230 780 50 607 50 385 C50 300 77 221 123 155 L70 102 L162 10 L215 63 C280 17 359 -10 445 -10 C660 -10 840 163 840 385 C840 470 813 549 767 615 L767 615 Z M182 385 C182 532 301 648 445 648 C494 648 540 635 579 611 L219 251 C195 290 182 336 182 385 L182 385 Z M445 122 C396 122 350 135 311 159 L671 519 C695 480 708 434 708 385 C708 238 589 122 445 122 L445 122 Z " />
<glyph glyph-name="ugrave" unicode="&#xf9;" horiz-adv-x="758" d="M312 847 L445 847 L315 1044 L182 964 L312 847 Z M370 -10 C547 -10 683 122 683 294 L683 770 L553 770 L553 294 C553 197 476 120 379 120 C282 120 205 197 205 294 L205 770 L75 770 L75 294 C75 130 212 -10 370 -10 L370 -10 Z " />
<glyph glyph-name="uacute" unicode="&#xfa;" horiz-adv-x="758" d="M312 847 L445 847 L575 964 L442 1044 L312 847 Z M370 -10 C547 -10 683 122 683 294 L683 770 L553 770 L553 294 C553 197 476 120 379 120 C282 120 205 197 205 294 L205 770 L75 770 L75 294 C75 130 212 -10 370 -10 L370 -10 Z " />
<glyph glyph-name="ucircumflex" unicode="&#xfb;" horiz-adv-x="758" d="M207 843 L311 843 L379 945 L447 843 L551 843 L441 1040 L317 1040 L207 843 Z M370 -10 C547 -10 683 122 683 294 L683 770 L553 770 L553 294 C553 197 476 120 379 120 C282 120 205 197 205 294 L205 770 L75 770 L75 294 C75 130 212 -10 370 -10 L370 -10 Z " />
<glyph glyph-name="udieresis" unicode="&#xfc;" horiz-adv-x="758" d="M278 843 C315 843 346 874 346 912 C346 949 315 980 278 980 C240 980 209 949 209 912 C209 874 240 843 278 843 L278 843 Z M480 843 C517 843 548 874 548 912 C548 949 517 980 480 980 C442 980 411 949 411 912 C411 874 442 843 480 843 L480 843 Z M370 -10 C547 -10 683 122 683 294 L683 770 L553 770 L553 294 C553 197 476 120 379 120 C282 120 205 197 205 294 L205 770 L75 770 L75 294 C75 130 212 -10 370 -10 L370 -10 Z " />
<glyph glyph-name="yacute" unicode="&#xfd;" horiz-adv-x="604" d="M235 847 L368 847 L498 964 L365 1044 L235 847 Z M237 0 L367 0 L367 367 L604 770 L454 770 L302 493 L151 770 L0 770 L237 367 L237 0 Z " />
<glyph glyph-name="thorn" unicode="&#xfe;" horiz-adv-x="638" d="M403 690 L230 690 L230 770 L100 770 L100 0 L230 0 L230 240 L403 240 C528 240 628 341 628 465 C628 590 527 690 403 690 L403 690 Z M403 370 L230 370 L230 560 L403 560 C456 560 498 517 498 465 C498 412 455 370 403 370 L403 370 Z " />
<glyph glyph-name="ydieresis" unicode="&#xff;" horiz-adv-x="604" d="M201 843 C238 843 269 874 269 912 C269 949 238 980 201 980 C163 980 132 949 132 912 C132 874 163 843 201 843 L201 843 Z M403 843 C440 843 471 874 471 912 C471 949 440 980 403 980 C365 980 334 949 334 912 C334 874 365 843 403 843 L403 843 Z M237 0 L367 0 L367 367 L604 770 L454 770 L302 493 L151 770 L0 770 L237 367 L237 0 Z " />
<glyph glyph-name="Amacron" unicode="&#x100;" horiz-adv-x="720" d="M519 969 L201 969 L201 855 L519 855 L519 969 Z M563 0 L710 0 L360 800 L10 0 L157 0 L209 130 L511 130 L563 0 Z M253 240 L360 506 L467 240 L253 240 Z " />
<glyph glyph-name="amacron" unicode="&#x101;" horiz-adv-x="720" d="M519 969 L201 969 L201 855 L519 855 L519 969 Z M563 0 L710 0 L360 800 L10 0 L157 0 L209 130 L511 130 L563 0 Z M253 240 L360 506 L467 240 L253 240 Z " />
<glyph glyph-name="Abreve" unicode="&#x102;" horiz-adv-x="720" d="M367 838 C459 838 536 918 536 1015 L536 1040 L437 1040 L437 1015 C437 972 402 937 359 937 C317 937 282 972 282 1015 L282 1040 L183 1040 L183 1015 C183 914 261 838 367 838 L367 838 Z M563 0 L710 0 L360 800 L10 0 L157 0 L209 130 L511 130 L563 0 Z M253 240 L360 506 L467 240 L253 240 Z " />
<glyph glyph-name="abreve" unicode="&#x103;" horiz-adv-x="720" d="M367 838 C459 838 536 918 536 1015 L536 1040 L437 1040 L437 1015 C437 972 402 937 359 937 C317 937 282 972 282 1015 L282 1040 L183 1040 L183 1015 C183 914 261 838 367 838 L367 838 Z M563 0 L710 0 L360 800 L10 0 L157 0 L209 130 L511 130 L563 0 Z M253 240 L360 506 L467 240 L253 240 Z " />
<glyph glyph-name="Aogonek" unicode="&#x104;" horiz-adv-x="720" d="M693 -106 C677 -130 654 -141 634 -141 C611 -141 600 -127 600 -107 C600 -73 634 -22 710 0 L360 800 L10 0 L157 0 L209 130 L511 130 L562 2 C522 -33 504 -72 504 -120 C504 -201 557 -230 623 -230 C677 -230 717 -211 756 -177 L693 -106 Z M253 240 L360 506 L467 240 L253 240 Z " />
<glyph glyph-name="aogonek" unicode="&#x105;" horiz-adv-x="720" d="M693 -106 C677 -130 654 -141 634 -141 C611 -141 600 -127 600 -107 C600 -73 634 -22 710 0 L360 800 L10 0 L157 0 L209 130 L511 130 L562 2 C522 -33 504 -72 504 -120 C504 -201 557 -230 623 -230 C677 -230 717 -211 756 -177 L693 -106 Z M253 240 L360 506 L467 240 L253 240 Z " />
<glyph glyph-name="Cacute" unicode="&#x106;" horiz-adv-x="669" d="M361 847 L494 847 L624 964 L491 1044 L361 847 Z M450 -10 C515 -10 572 5 629 35 L629 195 C578 146 515 122 447 122 C297 122 182 239 182 385 C182 533 300 648 448 648 C515 648 578 624 629 575 L629 735 C572 765 515 780 450 780 C229 780 50 607 50 386 C50 166 227 -10 450 -10 L450 -10 Z " />
<glyph glyph-name="cacute" unicode="&#x107;" horiz-adv-x="669" d="M361 847 L494 847 L624 964 L491 1044 L361 847 Z M450 -10 C515 -10 572 5 629 35 L629 195 C578 146 515 122 447 122 C297 122 182 239 182 385 C182 533 300 648 448 648 C515 648 578 624 629 575 L629 735 C572 765 515 780 450 780 C229 780 50 607 50 386 C50 166 227 -10 450 -10 L450 -10 Z " />
<glyph glyph-name="Cdotaccent" unicode="&#x10a;" horiz-adv-x="669" d="M428 843 C465 843 496 874 496 912 C496 949 465 980 428 980 C390 980 359 949 359 912 C359 874 390 843 428 843 L428 843 Z M450 -10 C515 -10 572 5 629 35 L629 195 C578 146 515 122 447 122 C297 122 182 239 182 385 C182 533 300 648 448 648 C515 648 578 624 629 575 L629 735 C572 765 515 780 450 780 C229 780 50 607 50 386 C50 166 227 -10 450 -10 L450 -10 Z " />
<glyph glyph-name="cdotaccent" unicode="&#x10b;" horiz-adv-x="669" d="M428 843 C465 843 496 874 496 912 C496 949 465 980 428 980 C390 980 359 949 359 912 C359 874 390 843 428 843 L428 843 Z M450 -10 C515 -10 572 5 629 35 L629 195 C578 146 515 122 447 122 C297 122 182 239 182 385 C182 533 300 648 448 648 C515 648 578 624 629 575 L629 735 C572 765 515 780 450 780 C229 780 50 607 50 386 C50 166 227 -10 450 -10 L450 -10 Z " />
<glyph glyph-name="Ccaron" unicode="&#x10c;" horiz-adv-x="669" d="M366 843 L490 843 L600 1040 L496 1040 L428 938 L360 1040 L256 1040 L366 843 Z M450 -10 C515 -10 572 5 629 35 L629 195 C578 146 515 122 447 122 C297 122 182 239 182 385 C182 533 300 648 448 648 C515 648 578 624 629 575 L629 735 C572 765 515 780 450 780 C229 780 50 607 50 386 C50 166 227 -10 450 -10 L450 -10 Z " />
<glyph glyph-name="ccaron" unicode="&#x10d;" horiz-adv-x="669" d="M366 843 L490 843 L600 1040 L496 1040 L428 938 L360 1040 L256 1040 L366 843 Z M450 -10 C515 -10 572 5 629 35 L629 195 C578 146 515 122 447 122 C297 122 182 239 182 385 C182 533 300 648 448 648 C515 648 578 624 629 575 L629 735 C572 765 515 780 450 780 C229 780 50 607 50 386 C50 166 227 -10 450 -10 L450 -10 Z " />
<glyph glyph-name="Dcaron" unicode="&#x10e;" horiz-adv-x="759" d="M308 843 L432 843 L542 1040 L438 1040 L370 938 L302 1040 L198 1040 L308 843 Z M100 0 L324 0 C537 0 709 172 709 385 C709 598 537 770 324 770 L100 770 L100 0 Z M230 130 L230 640 L324 640 C467 640 579 526 579 385 C579 243 467 130 324 130 L230 130 Z " />
<glyph glyph-name="dcaron" unicode="&#x10f;" horiz-adv-x="759" d="M308 843 L432 843 L542 1040 L438 1040 L370 938 L302 1040 L198 1040 L308 843 Z M100 0 L324 0 C537 0 709 172 709 385 C709 598 537 770 324 770 L100 770 L100 0 Z M230 130 L230 640 L324 640 C467 640 579 526 579 385 C579 243 467 130 324 130 L230 130 Z " />
<glyph glyph-name="Dcroat" unicode="&#x110;" horiz-adv-x="759" d="M324 770 L100 770 L100 442 L23 442 L23 328 L100 328 L100 0 L324 0 C537 0 709 172 709 385 C709 598 537 770 324 770 L324 770 Z M324 130 L230 130 L230 328 L431 328 L431 442 L230 442 L230 640 L324 640 C467 640 579 526 579 385 C579 243 467 130 324 130 L324 130 Z " />
<glyph glyph-name="dcroat" unicode="&#x111;" horiz-adv-x="759" d="M324 770 L100 770 L100 442 L23 442 L23 328 L100 328 L100 0 L324 0 C537 0 709 172 709 385 C709 598 537 770 324 770 L324 770 Z M324 130 L230 130 L230 328 L431 328 L431 442 L230 442 L230 640 L324 640 C467 640 579 526 579 385 C579 243 467 130 324 130 L324 130 Z " />
<glyph glyph-name="Emacron" unicode="&#x112;" horiz-adv-x="630" d="M181 855 L499 855 L499 969 L181 969 L181 855 Z M100 0 L580 0 L580 130 L230 130 L230 320 L540 320 L540 450 L230 450 L230 640 L580 640 L580 770 L100 770 L100 0 Z " />
<glyph glyph-name="emacron" unicode="&#x113;" horiz-adv-x="630" d="M181 855 L499 855 L499 969 L181 969 L181 855 Z M100 0 L580 0 L580 130 L230 130 L230 320 L540 320 L540 450 L230 450 L230 640 L580 640 L580 770 L100 770 L100 0 Z " />
<glyph glyph-name="Edotaccent" unicode="&#x116;" horiz-adv-x="630" d="M340 843 C377 843 408 874 408 912 C408 949 377 980 340 980 C302 980 271 949 271 912 C271 874 302 843 340 843 L340 843 Z M100 0 L580 0 L580 130 L230 130 L230 320 L540 320 L540 450 L230 450 L230 640 L580 640 L580 770 L100 770 L100 0 Z " />
<glyph glyph-name="edotaccent" unicode="&#x117;" horiz-adv-x="630" d="M340 843 C377 843 408 874 408 912 C408 949 377 980 340 980 C302 980 271 949 271 912 C271 874 302 843 340 843 L340 843 Z M100 0 L580 0 L580 130 L230 130 L230 320 L540 320 L540 450 L230 450 L230 640 L580 640 L580 770 L100 770 L100 0 Z " />
<glyph glyph-name="Eogonek" unicode="&#x118;" horiz-adv-x="630" d="M563 -106 C547 -130 524 -141 504 -141 C481 -141 470 -127 470 -107 C470 -73 504 -22 580 0 L580 130 L230 130 L230 320 L540 320 L540 450 L230 450 L230 640 L580 640 L580 770 L100 770 L100 0 L431 0 C392 -35 374 -73 374 -120 C374 -201 427 -230 493 -230 C547 -230 587 -211 626 -177 L563 -106 Z " />
<glyph glyph-name="eogonek" unicode="&#x119;" horiz-adv-x="630" d="M563 -106 C547 -130 524 -141 504 -141 C481 -141 470 -127 470 -107 C470 -73 504 -22 580 0 L580 130 L230 130 L230 320 L540 320 L540 450 L230 450 L230 640 L580 640 L580 770 L100 770 L100 0 L431 0 C392 -35 374 -73 374 -120 C374 -201 427 -230 493 -230 C547 -230 587 -211 626 -177 L563 -106 Z " />
<glyph glyph-name="Ecaron" unicode="&#x11a;" horiz-adv-x="630" d="M278 843 L402 843 L512 1040 L408 1040 L340 938 L272 1040 L168 1040 L278 843 Z M100 0 L580 0 L580 130 L230 130 L230 320 L540 320 L540 450 L230 450 L230 640 L580 640 L580 770 L100 770 L100 0 Z " />
<glyph glyph-name="ecaron" unicode="&#x11b;" horiz-adv-x="630" d="M278 843 L402 843 L512 1040 L408 1040 L340 938 L272 1040 L168 1040 L278 843 Z M100 0 L580 0 L580 130 L230 130 L230 320 L540 320 L540 450 L230 450 L230 640 L580 640 L580 770 L100 770 L100 0 Z " />
<glyph glyph-name="Gbreve" unicode="&#x11e;" horiz-adv-x="794" d="M422 838 C514 838 591 918 591 1015 L591 1040 L492 1040 L492 1015 C492 972 457 937 414 937 C372 937 337 972 337 1015 L337 1040 L238 1040 L238 1015 C238 914 316 838 422 838 L422 838 Z M449 -10 C550 -10 643 27 722 102 L724 108 L724 450 L447 450 L447 320 L603 320 L603 173 C557 139 504 122 447 122 C298 122 182 239 182 385 C182 533 300 648 448 648 C515 648 578 624 629 575 L722 668 C643 743 549 780 448 780 C228 780 50 605 50 385 C50 165 228 -10 449 -10 L449 -10 Z " />
<glyph glyph-name="gbreve" unicode="&#x11f;" horiz-adv-x="794" d="M422 838 C514 838 591 918 591 1015 L591 1040 L492 1040 L492 1015 C492 972 457 937 414 937 C372 937 337 972 337 1015 L337 1040 L238 1040 L238 1015 C238 914 316 838 422 838 L422 838 Z M449 -10 C550 -10 643 27 722 102 L724 108 L724 450 L447 450 L447 320 L603 320 L603 173 C557 139 504 122 447 122 C298 122 182 239 182 385 C182 533 300 648 448 648 C515 648 578 624 629 575 L722 668 C643 743 549 780 448 780 C228 780 50 605 50 385 C50 165 228 -10 449 -10 L449 -10 Z " />
<glyph glyph-name="Gdotaccent" unicode="&#x120;" horiz-adv-x="794" d="M415 843 C452 843 483 874 483 912 C483 949 452 980 415 980 C377 980 346 949 346 912 C346 874 377 843 415 843 L415 843 Z M449 -10 C550 -10 643 27 722 102 L724 108 L724 450 L447 450 L447 320 L603 320 L603 173 C557 139 504 122 447 122 C298 122 182 239 182 385 C182 533 300 648 448 648 C515 648 578 624 629 575 L722 668 C643 743 549 780 448 780 C228 780 50 605 50 385 C50 165 228 -10 449 -10 L449 -10 Z " />
<glyph glyph-name="gdotaccent" unicode="&#x121;" horiz-adv-x="794" d="M415 843 C452 843 483 874 483 912 C483 949 452 980 415 980 C377 980 346 949 346 912 C346 874 377 843 415 843 L415 843 Z M449 -10 C550 -10 643 27 722 102 L724 108 L724 450 L447 450 L447 320 L603 320 L603 173 C557 139 504 122 447 122 C298 122 182 239 182 385 C182 533 300 648 448 648 C515 648 578 624 629 575 L722 668 C643 743 549 780 448 780 C228 780 50 605 50 385 C50 165 228 -10 449 -10 L449 -10 Z " />
<glyph glyph-name="Gcommaaccent" unicode="&#x122;" horiz-adv-x="794" d="M449 -10 C550 -10 643 27 722 102 L724 108 L724 450 L447 450 L447 320 L603 320 L603 173 C557 139 504 122 447 122 C298 122 182 239 182 385 C182 533 300 648 448 648 C515 648 578 624 629 575 L722 668 C643 743 549 780 448 780 C228 780 50 605 50 385 C50 165 228 -10 449 -10 L449 -10 Z M383 -297 L466 -297 L546 -70 L413 -70 L383 -297 Z " />
<glyph glyph-name="gcommaaccent" unicode="&#x123;" horiz-adv-x="794" d="M338 855 L491 855 L491 1152 L388 1152 L338 855 Z M449 -10 C550 -10 643 27 722 102 L724 108 L724 450 L447 450 L447 320 L603 320 L603 173 C557 139 504 122 447 122 C298 122 182 239 182 385 C182 533 300 648 448 648 C515 648 578 624 629 575 L722 668 C643 743 549 780 448 780 C228 780 50 605 50 385 C50 165 228 -10 449 -10 L449 -10 Z " />
<glyph glyph-name="Hbar" unicode="&#x126;" horiz-adv-x="741" d="M690 660 L641 660 L641 770 L511 770 L511 660 L230 660 L230 770 L100 770 L100 660 L52 660 L52 546 L100 546 L100 0 L230 0 L230 320 L511 320 L511 0 L641 0 L641 546 L690 546 L690 660 Z M511 450 L230 450 L230 546 L511 546 L511 450 Z " />
<glyph glyph-name="hbar" unicode="&#x127;" horiz-adv-x="741" d="M690 660 L641 660 L641 770 L511 770 L511 660 L230 660 L230 770 L100 770 L100 660 L52 660 L52 546 L100 546 L100 0 L230 0 L230 320 L511 320 L511 0 L641 0 L641 546 L690 546 L690 660 Z M511 450 L230 450 L230 546 L511 546 L511 450 Z " />
<glyph glyph-name="Imacron" unicode="&#x12a;" horiz-adv-x="330" d="M6 855 L324 855 L324 969 L6 969 L6 855 Z M100 0 L230 0 L230 770 L100 770 L100 0 Z " />
<glyph glyph-name="imacron" unicode="&#x12b;" horiz-adv-x="330" d="M6 855 L324 855 L324 969 L6 969 L6 855 Z M100 0 L230 0 L230 770 L100 770 L100 0 Z " />
<glyph glyph-name="Iogonek" unicode="&#x12e;" horiz-adv-x="330" d="M213 -106 C197 -130 174 -141 154 -141 C131 -141 120 -127 120 -107 C120 -73 154 -22 230 0 L230 770 L100 770 L100 16 C47 -23 24 -66 24 -120 C24 -201 77 -230 143 -230 C197 -230 237 -211 276 -177 L213 -106 Z " />
<glyph glyph-name="iogonek" unicode="&#x12f;" horiz-adv-x="330" d="M213 -106 C197 -130 174 -141 154 -141 C131 -141 120 -127 120 -107 C120 -73 154 -22 230 0 L230 770 L100 770 L100 16 C47 -23 24 -66 24 -120 C24 -201 77 -230 143 -230 C197 -230 237 -211 276 -177 L213 -106 Z " />
<glyph glyph-name="Idotaccent" unicode="&#x130;" horiz-adv-x="330" d="M165 843 C202 843 233 874 233 912 C233 949 202 980 165 980 C127 980 96 949 96 912 C96 874 127 843 165 843 L165 843 Z M100 0 L230 0 L230 770 L100 770 L100 0 Z " />
<glyph glyph-name="dotlessi" unicode="&#x131;" horiz-adv-x="330" d="M100 0 L230 0 L230 770 L100 770 L100 0 Z " />
<glyph glyph-name="Kcommaaccent" unicode="&#x136;" horiz-adv-x="637" d="M100 0 L230 0 L230 332 L477 0 L637 0 L339 385 L637 770 L477 770 L230 438 L230 770 L100 770 L100 0 Z M222 -297 L305 -297 L385 -70 L252 -70 L222 -297 Z " />
<glyph glyph-name="kcommaaccent" unicode="&#x137;" horiz-adv-x="637" d="M100 0 L230 0 L230 332 L477 0 L637 0 L339 385 L637 770 L477 770 L230 438 L230 770 L100 770 L100 0 Z M222 -297 L305 -297 L385 -70 L252 -70 L222 -297 Z " />
<glyph glyph-name="Lacute" unicode="&#x139;" horiz-adv-x="590" d="M98 847 L231 847 L361 964 L228 1044 L98 847 Z M100 0 L580 0 L580 130 L230 130 L230 770 L100 770 L100 0 Z " />
<glyph glyph-name="lacute" unicode="&#x13a;" horiz-adv-x="330" d="M98 847 L231 847 L361 964 L228 1044 L98 847 Z M100 0 L230 0 L230 770 L100 770 L100 0 Z " />
<glyph glyph-name="Lcommaaccent" unicode="&#x13b;" horiz-adv-x="590" d="M100 0 L580 0 L580 130 L230 130 L230 770 L100 770 L100 0 Z M196 -297 L279 -297 L359 -70 L226 -70 L196 -297 Z " />
<glyph glyph-name="lcommaaccent" unicode="&#x13c;" horiz-adv-x="590" d="M100 0 L580 0 L580 130 L230 130 L230 770 L100 770 L100 0 Z M196 -297 L279 -297 L359 -70 L226 -70 L196 -297 Z " />
<glyph glyph-name="Lcaron" unicode="&#x13d;" horiz-adv-x="585" d="M100 0 L580 0 L580 130 L230 130 L230 770 L100 770 L100 0 Z M409 473 L492 473 L542 770 L409 770 L409 473 Z " />
<glyph glyph-name="lcaron" unicode="&#x13e;" horiz-adv-x="585" d="M100 0 L580 0 L580 130 L230 130 L230 770 L100 770 L100 0 Z M409 473 L492 473 L542 770 L409 770 L409 473 Z " />
<glyph glyph-name="Lslash" unicode="&#x141;" horiz-adv-x="590" d="M230 130 L230 334 L412 401 L373 508 L230 456 L230 770 L100 770 L100 408 L-10 368 L29 261 L100 287 L100 0 L580 0 L580 130 L230 130 Z " />
<glyph glyph-name="lslash" unicode="&#x142;" horiz-adv-x="590" d="M230 130 L230 334 L412 401 L373 508 L230 456 L230 770 L100 770 L100 408 L-10 368 L29 261 L100 287 L100 0 L580 0 L580 130 L230 130 Z " />
<glyph glyph-name="Nacute" unicode="&#x143;" horiz-adv-x="793" d="M330 847 L463 847 L593 964 L460 1044 L330 847 Z M693 -32 L693 770 L563 770 L563 295 L100 800 L100 0 L230 0 L230 473 L693 -32 Z " />
<glyph glyph-name="nacute" unicode="&#x144;" horiz-adv-x="793" d="M330 847 L463 847 L593 964 L460 1044 L330 847 Z M693 -32 L693 770 L563 770 L563 295 L100 800 L100 0 L230 0 L230 473 L693 -32 Z " />
<glyph glyph-name="Ncommaaccent" unicode="&#x145;" horiz-adv-x="793" d="M693 -32 L693 770 L563 770 L563 295 L100 800 L100 0 L230 0 L230 473 L693 -32 Z M300 -297 L383 -297 L463 -70 L330 -70 L300 -297 Z " />
<glyph glyph-name="ncommaaccent" unicode="&#x146;" horiz-adv-x="793" d="M693 -32 L693 770 L563 770 L563 295 L100 800 L100 0 L230 0 L230 473 L693 -32 Z M300 -297 L383 -297 L463 -70 L330 -70 L300 -297 Z " />
<glyph glyph-name="Ncaron" unicode="&#x147;" horiz-adv-x="793" d="M335 843 L459 843 L569 1040 L465 1040 L397 938 L329 1040 L225 1040 L335 843 Z M693 -32 L693 770 L563 770 L563 295 L100 800 L100 0 L230 0 L230 473 L693 -32 Z " />
<glyph glyph-name="ncaron" unicode="&#x148;" horiz-adv-x="793" d="M335 843 L459 843 L569 1040 L465 1040 L397 938 L329 1040 L225 1040 L335 843 Z M693 -32 L693 770 L563 770 L563 295 L100 800 L100 0 L230 0 L230 473 L693 -32 Z " />
<glyph glyph-name="Eng" unicode="&#x14a;" horiz-adv-x="793" d="M563 770 L563 295 L100 800 L100 0 L230 0 L230 473 L563 110 L563 -33 C563 -50 553 -60 536 -60 L486 -60 L486 -190 L536 -190 C625 -190 693 -122 693 -33 L693 -32 L693 770 L563 770 Z " />
<glyph glyph-name="eng" unicode="&#x14b;" horiz-adv-x="793" d="M563 770 L563 295 L100 800 L100 0 L230 0 L230 473 L563 110 L563 -33 C563 -50 553 -60 536 -60 L486 -60 L486 -190 L536 -190 C625 -190 693 -122 693 -33 L693 -32 L693 770 L563 770 Z " />
<glyph glyph-name="Omacron" unicode="&#x14c;" horiz-adv-x="890" d="M286 855 L604 855 L604 969 L286 969 L286 855 Z M445 -10 C660 -10 840 163 840 385 C840 600 667 780 445 780 C230 780 50 607 50 385 C50 170 223 -10 445 -10 L445 -10 Z M445 122 C298 122 182 241 182 385 C182 532 301 648 445 648 C592 648 708 529 708 385 C708 238 589 122 445 122 L445 122 Z " />
<glyph glyph-name="omacron" unicode="&#x14d;" horiz-adv-x="890" d="M286 855 L604 855 L604 969 L286 969 L286 855 Z M445 -10 C660 -10 840 163 840 385 C840 600 667 780 445 780 C230 780 50 607 50 385 C50 170 223 -10 445 -10 L445 -10 Z M445 122 C298 122 182 241 182 385 C182 532 301 648 445 648 C592 648 708 529 708 385 C708 238 589 122 445 122 L445 122 Z " />
<glyph glyph-name="Ohungarumlaut" unicode="&#x150;" horiz-adv-x="890" d="M253 867 L386 867 L516 984 L383 1064 L253 867 Z M503 867 L636 867 L766 984 L633 1064 L503 867 Z M445 -10 C660 -10 840 163 840 385 C840 600 667 780 445 780 C230 780 50 607 50 385 C50 170 223 -10 445 -10 L445 -10 Z M445 122 C298 122 182 241 182 385 C182 532 301 648 445 648 C592 648 708 529 708 385 C708 238 589 122 445 122 L445 122 Z " />
<glyph glyph-name="ohungarumlaut" unicode="&#x151;" horiz-adv-x="890" d="M253 867 L386 867 L516 984 L383 1064 L253 867 Z M503 867 L636 867 L766 984 L633 1064 L503 867 Z M445 -10 C660 -10 840 163 840 385 C840 600 667 780 445 780 C230 780 50 607 50 385 C50 170 223 -10 445 -10 L445 -10 Z M445 122 C298 122 182 241 182 385 C182 532 301 648 445 648 C592 648 708 529 708 385 C708 238 589 122 445 122 L445 122 Z " />
<glyph glyph-name="OE" unicode="&#x152;" horiz-adv-x="1271" d="M445 -10 C497 -10 545 -1 590 18 C635 36 675 61 711 93 L711 0 L1191 0 L1191 130 L841 130 L841 320 L1151 320 L1151 450 L841 450 L841 640 L1191 640 L1191 770 L711 770 L711 677 C675 709 635 734 590 752 C545 771 497 780 445 780 C390 780 339 770 291 749 C243 728 201 700 166 664 C130 629 102 587 81 539 C60 491 50 440 50 385 C50 330 60 279 81 231 C102 183 130 141 166 106 C201 70 243 42 291 21 C339 0 390 -10 445 -10 L445 -10 Z M445 122 C409 122 375 129 343 142 C311 156 283 175 259 199 C235 223 216 251 202 283 C189 315 182 349 182 385 C182 421 189 455 202 487 C216 519 235 547 259 571 C283 595 311 614 343 628 C375 641 409 648 445 648 C481 648 515 641 547 628 C579 614 607 595 631 571 C655 547 674 519 688 487 C701 455 708 421 708 385 C708 349 701 315 688 283 C674 251 655 223 631 199 C607 175 579 156 547 142 C515 129 481 122 445 122 L445 122 Z " />
<glyph glyph-name="oe" unicode="&#x153;" horiz-adv-x="1271" d="M445 -10 C497 -10 545 -1 590 18 C635 36 675 61 711 93 L711 0 L1191 0 L1191 130 L841 130 L841 320 L1151 320 L1151 450 L841 450 L841 640 L1191 640 L1191 770 L711 770 L711 677 C675 709 635 734 590 752 C545 771 497 780 445 780 C390 780 339 770 291 749 C243 728 201 700 166 664 C130 629 102 587 81 539 C60 491 50 440 50 385 C50 330 60 279 81 231 C102 183 130 141 166 106 C201 70 243 42 291 21 C339 0 390 -10 445 -10 L445 -10 Z M445 122 C409 122 375 129 343 142 C311 156 283 175 259 199 C235 223 216 251 202 283 C189 315 182 349 182 385 C182 421 189 455 202 487 C216 519 235 547 259 571 C283 595 311 614 343 628 C375 641 409 648 445 648 C481 648 515 641 547 628 C579 614 607 595 631 571 C655 547 674 519 688 487 C701 455 708 421 708 385 C708 349 701 315 688 283 C674 251 655 223 631 199 C607 175 579 156 547 142 C515 129 481 122 445 122 L445 122 Z " />
<glyph glyph-name="Racute" unicode="&#x154;" horiz-adv-x="663" d="M265 847 L398 847 L528 964 L395 1044 L265 847 Z M100 0 L230 0 L230 320 L326 320 L503 0 L653 0 L462 328 C560 354 628 440 628 549 C628 665 529 770 403 770 L100 770 L100 0 Z M230 445 L230 642 L383 642 C460 642 498 609 498 544 C498 478 460 445 383 445 L230 445 Z " />
<glyph glyph-name="racute" unicode="&#x155;" horiz-adv-x="663" d="M265 847 L398 847 L528 964 L395 1044 L265 847 Z M100 0 L230 0 L230 320 L326 320 L503 0 L653 0 L462 328 C560 354 628 440 628 549 C628 665 529 770 403 770 L100 770 L100 0 Z M230 445 L230 642 L383 642 C460 642 498 609 498 544 C498 478 460 445 383 445 L230 445 Z " />
<glyph glyph-name="Rcommaaccent" unicode="&#x156;" horiz-adv-x="663" d="M100 0 L230 0 L230 320 L326 320 L503 0 L653 0 L462 328 C560 354 628 440 628 549 C628 665 529 770 403 770 L100 770 L100 0 Z M230 445 L230 642 L383 642 C460 642 498 609 498 544 C498 478 460 445 383 445 L230 445 Z M235 -297 L318 -297 L398 -70 L265 -70 L235 -297 Z " />
<glyph glyph-name="rcommaaccent" unicode="&#x157;" horiz-adv-x="663" d="M100 0 L230 0 L230 320 L326 320 L503 0 L653 0 L462 328 C560 354 628 440 628 549 C628 665 529 770 403 770 L100 770 L100 0 Z M230 445 L230 642 L383 642 C460 642 498 609 498 544 C498 478 460 445 383 445 L230 445 Z M235 -297 L318 -297 L398 -70 L265 -70 L235 -297 Z " />
<glyph glyph-name="Rcaron" unicode="&#x158;" horiz-adv-x="663" d="M270 843 L394 843 L504 1040 L400 1040 L332 938 L264 1040 L160 1040 L270 843 Z M100 0 L230 0 L230 320 L326 320 L503 0 L653 0 L462 328 C560 354 628 440 628 549 C628 665 529 770 403 770 L100 770 L100 0 Z M230 445 L230 642 L383 642 C460 642 498 609 498 544 C498 478 460 445 383 445 L230 445 Z " />
<glyph glyph-name="rcaron" unicode="&#x159;" horiz-adv-x="663" d="M270 843 L394 843 L504 1040 L400 1040 L332 938 L264 1040 L160 1040 L270 843 Z M100 0 L230 0 L230 320 L326 320 L503 0 L653 0 L462 328 C560 354 628 440 628 549 C628 665 529 770 403 770 L100 770 L100 0 Z M230 445 L230 642 L383 642 C460 642 498 609 498 544 C498 478 460 445 383 445 L230 445 Z " />
<glyph glyph-name="Sacute" unicode="&#x15a;" horiz-adv-x="554" d="M222 846 L355 846 L485 963 L352 1043 L222 846 Z M273 -10 C402 -10 514 71 514 208 C514 345 402 395 321 437 C251 473 191 510 191 570 C191 619 232 654 288 654 C331 654 368 633 383 590 L496 642 C461 724 386 780 289 780 C164 780 71 688 71 563 C71 433 171 375 252 333 C307 305 384 267 384 201 C384 146 332 116 274 116 C208 116 160 154 140 211 L30 162 C63 59 154 -10 273 -10 L273 -10 Z " />
<glyph glyph-name="sacute" unicode="&#x15b;" horiz-adv-x="554" d="M222 846 L355 846 L485 963 L352 1043 L222 846 Z M273 -10 C402 -10 514 71 514 208 C514 345 402 395 321 437 C251 473 191 510 191 570 C191 619 232 654 288 654 C331 654 368 633 383 590 L496 642 C461 724 386 780 289 780 C164 780 71 688 71 563 C71 433 171 375 252 333 C307 305 384 267 384 201 C384 146 332 116 274 116 C208 116 160 154 140 211 L30 162 C63 59 154 -10 273 -10 L273 -10 Z " />
<glyph glyph-name="Scedilla" unicode="&#x15e;" horiz-adv-x="554" d="M514 208 C514 345 402 395 321 437 C251 473 191 510 191 570 C191 619 232 654 288 654 C331 654 368 633 383 590 L496 642 C461 724 386 780 289 780 C164 780 71 688 71 563 C71 433 171 375 252 333 C307 305 384 267 384 201 C384 146 332 116 274 116 C208 116 160 154 140 211 L30 162 C61 66 142 -1 250 -9 L212 -86 L232 -114 C258 -95 281 -92 298 -92 C322 -92 348 -111 348 -141 C348 -174 319 -190 299 -190 C281 -190 264 -176 242 -155 L210 -199 C240 -227 269 -242 301 -242 C353 -242 400 -203 400 -141 C400 -79 354 -40 293 -40 L282 -40 L301 -9 C418 2 514 81 514 208 L514 208 Z " />
<glyph glyph-name="scedilla" unicode="&#x15f;" horiz-adv-x="554" d="M514 208 C514 345 402 395 321 437 C251 473 191 510 191 570 C191 619 232 654 288 654 C331 654 368 633 383 590 L496 642 C461 724 386 780 289 780 C164 780 71 688 71 563 C71 433 171 375 252 333 C307 305 384 267 384 201 C384 146 332 116 274 116 C208 116 160 154 140 211 L30 162 C61 66 142 -1 250 -9 L212 -86 L232 -114 C258 -95 281 -92 298 -92 C322 -92 348 -111 348 -141 C348 -174 319 -190 299 -190 C281 -190 264 -176 242 -155 L210 -199 C240 -227 269 -242 301 -242 C353 -242 400 -203 400 -141 C400 -79 354 -40 293 -40 L282 -40 L301 -9 C418 2 514 81 514 208 L514 208 Z " />
<glyph glyph-name="Scaron" unicode="&#x160;" horiz-adv-x="554" d="M227 842 L351 842 L461 1039 L357 1039 L289 937 L221 1039 L117 1039 L227 842 Z M273 -10 C402 -10 514 71 514 208 C514 345 402 395 321 437 C251 473 191 510 191 570 C191 619 232 654 288 654 C331 654 368 633 383 590 L496 642 C461 724 386 780 289 780 C164 780 71 688 71 563 C71 433 171 375 252 333 C307 305 384 267 384 201 C384 146 332 116 274 116 C208 116 160 154 140 211 L30 162 C63 59 154 -10 273 -10 L273 -10 Z " />
<glyph glyph-name="scaron" unicode="&#x161;" horiz-adv-x="554" d="M227 842 L351 842 L461 1039 L357 1039 L289 937 L221 1039 L117 1039 L227 842 Z M273 -10 C402 -10 514 71 514 208 C514 345 402 395 321 437 C251 473 191 510 191 570 C191 619 232 654 288 654 C331 654 368 633 383 590 L496 642 C461 724 386 780 289 780 C164 780 71 688 71 563 C71 433 171 375 252 333 C307 305 384 267 384 201 C384 146 332 116 274 116 C208 116 160 154 140 211 L30 162 C63 59 154 -10 273 -10 L273 -10 Z " />
<glyph glyph-name="uni0162" unicode="&#x162;" horiz-adv-x="555" d="M343 0 L343 640 L540 640 L540 770 L15 770 L15 640 L213 640 L213 0 L252 0 L210 -86 L230 -114 C256 -95 279 -92 296 -92 C320 -92 346 -111 346 -141 C346 -174 317 -190 297 -190 C279 -190 262 -176 240 -155 L208 -199 C238 -227 267 -242 299 -242 C351 -242 398 -203 398 -141 C398 -79 352 -40 291 -40 L280 -40 L304 0 L343 0 Z " />
<glyph glyph-name="uni0163" unicode="&#x163;" horiz-adv-x="555" d="M343 0 L343 640 L540 640 L540 770 L15 770 L15 640 L213 640 L213 0 L252 0 L210 -86 L230 -114 C256 -95 279 -92 296 -92 C320 -92 346 -111 346 -141 C346 -174 317 -190 297 -190 C279 -190 262 -176 240 -155 L208 -199 C238 -227 267 -242 299 -242 C351 -242 398 -203 398 -141 C398 -79 352 -40 291 -40 L280 -40 L304 0 L343 0 Z " />
<glyph glyph-name="Tcaron" unicode="&#x164;" horiz-adv-x="555" d="M216 843 L340 843 L450 1040 L346 1040 L278 938 L210 1040 L106 1040 L216 843 Z M213 0 L343 0 L343 640 L540 640 L540 770 L15 770 L15 640 L213 640 L213 0 Z " />
<glyph glyph-name="tcaron" unicode="&#x165;" horiz-adv-x="555" d="M216 843 L340 843 L450 1040 L346 1040 L278 938 L210 1040 L106 1040 L216 843 Z M213 0 L343 0 L343 640 L540 640 L540 770 L15 770 L15 640 L213 640 L213 0 Z " />
<glyph glyph-name="Tbar" unicode="&#x166;" horiz-adv-x="555" d="M540 640 L540 770 L15 770 L15 640 L213 640 L213 442 L74 442 L74 328 L213 328 L213 0 L343 0 L343 328 L482 328 L482 442 L343 442 L343 640 L540 640 Z " />
<glyph glyph-name="tbar" unicode="&#x167;" horiz-adv-x="555" d="M540 640 L540 770 L15 770 L15 640 L213 640 L213 442 L74 442 L74 328 L213 328 L213 0 L343 0 L343 328 L482 328 L482 442 L343 442 L343 640 L540 640 Z " />
<glyph glyph-name="Umacron" unicode="&#x16a;" horiz-adv-x="758" d="M220 855 L538 855 L538 969 L220 969 L220 855 Z M370 -10 C547 -10 683 122 683 294 L683 770 L553 770 L553 294 C553 197 476 120 379 120 C282 120 205 197 205 294 L205 770 L75 770 L75 294 C75 130 212 -10 370 -10 L370 -10 Z " />
<glyph glyph-name="umacron" unicode="&#x16b;" horiz-adv-x="758" d="M220 855 L538 855 L538 969 L220 969 L220 855 Z M370 -10 C547 -10 683 122 683 294 L683 770 L553 770 L553 294 C553 197 476 120 379 120 C282 120 205 197 205 294 L205 770 L75 770 L75 294 C75 130 212 -10 370 -10 L370 -10 Z " />
<glyph glyph-name="Uring" unicode="&#x16e;" horiz-adv-x="758" d="M379 820 C467 820 537 890 537 978 C537 1068 465 1136 379 1136 C289 1136 221 1064 221 978 C221 888 293 820 379 820 L379 820 Z M379 922 C347 922 323 947 323 978 C323 1010 348 1034 379 1034 C411 1034 435 1009 435 978 C435 946 410 922 379 922 L379 922 Z M370 -10 C547 -10 683 122 683 294 L683 770 L553 770 L553 294 C553 197 476 120 379 120 C282 120 205 197 205 294 L205 770 L75 770 L75 294 C75 130 212 -10 370 -10 L370 -10 Z " />
<glyph glyph-name="uring" unicode="&#x16f;" horiz-adv-x="758" d="M379 820 C467 820 537 890 537 978 C537 1068 465 1136 379 1136 C289 1136 221 1064 221 978 C221 888 293 820 379 820 L379 820 Z M379 922 C347 922 323 947 323 978 C323 1010 348 1034 379 1034 C411 1034 435 1009 435 978 C435 946 410 922 379 922 L379 922 Z M370 -10 C547 -10 683 122 683 294 L683 770 L553 770 L553 294 C553 197 476 120 379 120 C282 120 205 197 205 294 L205 770 L75 770 L75 294 C75 130 212 -10 370 -10 L370 -10 Z " />
<glyph glyph-name="Uhungarumlaut" unicode="&#x170;" horiz-adv-x="758" d="M187 867 L320 867 L450 984 L317 1064 L187 867 Z M437 867 L570 867 L700 984 L567 1064 L437 867 Z M370 -10 C547 -10 683 122 683 294 L683 770 L553 770 L553 294 C553 197 476 120 379 120 C282 120 205 197 205 294 L205 770 L75 770 L75 294 C75 130 212 -10 370 -10 L370 -10 Z " />
<glyph glyph-name="uhungarumlaut" unicode="&#x171;" horiz-adv-x="758" d="M187 867 L320 867 L450 984 L317 1064 L187 867 Z M437 867 L570 867 L700 984 L567 1064 L437 867 Z M370 -10 C547 -10 683 122 683 294 L683 770 L553 770 L553 294 C553 197 476 120 379 120 C282 120 205 197 205 294 L205 770 L75 770 L75 294 C75 130 212 -10 370 -10 L370 -10 Z " />
<glyph glyph-name="Uogonek" unicode="&#x172;" horiz-adv-x="758" d="M553 770 L553 294 C553 197 476 120 379 120 C282 120 205 197 205 294 L205 770 L75 770 L75 294 C75 138 198 4 346 -9 C332 -32 325 -58 325 -87 C325 -168 378 -197 444 -197 C498 -197 538 -178 577 -144 L514 -73 C498 -97 475 -108 455 -108 C432 -108 421 -94 421 -74 C421 -50 437 -19 472 6 C597 46 683 157 683 294 L683 770 L553 770 Z " />
<glyph glyph-name="uogonek" unicode="&#x173;" horiz-adv-x="758" d="M553 770 L553 294 C553 197 476 120 379 120 C282 120 205 197 205 294 L205 770 L75 770 L75 294 C75 138 198 4 346 -9 C332 -32 325 -58 325 -87 C325 -168 378 -197 444 -197 C498 -197 538 -178 577 -144 L514 -73 C498 -97 475 -108 455 -108 C432 -108 421 -94 421 -74 C421 -50 437 -19 472 6 C597 46 683 157 683 294 L683 770 L553 770 Z " />
<glyph glyph-name="Wcircumflex" unicode="&#x174;" horiz-adv-x="993" d="M325 843 L429 843 L497 945 L565 843 L669 843 L559 1040 L435 1040 L325 843 Z M350 -30 L497 315 L643 -30 L993 770 L851 770 L633 274 L563 457 L700 770 L568 770 L497 579 L425 770 L293 770 L431 457 L360 274 L142 770 L0 770 L350 -30 Z " />
<glyph glyph-name="wcircumflex" unicode="&#x175;" horiz-adv-x="993" d="M325 843 L429 843 L497 945 L565 843 L669 843 L559 1040 L435 1040 L325 843 Z M350 -30 L497 315 L643 -30 L993 770 L851 770 L633 274 L563 457 L700 770 L568 770 L497 579 L425 770 L293 770 L431 457 L360 274 L142 770 L0 770 L350 -30 Z " />
<glyph glyph-name="Ycircumflex" unicode="&#x176;" horiz-adv-x="604" d="M130 843 L234 843 L302 945 L370 843 L474 843 L364 1040 L240 1040 L130 843 Z M237 0 L367 0 L367 367 L604 770 L454 770 L302 493 L151 770 L0 770 L237 367 L237 0 Z " />
<glyph glyph-name="ycircumflex" unicode="&#x177;" horiz-adv-x="604" d="M130 843 L234 843 L302 945 L370 843 L474 843 L364 1040 L240 1040 L130 843 Z M237 0 L367 0 L367 367 L604 770 L454 770 L302 493 L151 770 L0 770 L237 367 L237 0 Z " />
<glyph glyph-name="Ydieresis" unicode="&#x178;" horiz-adv-x="604" d="M201 843 C238 843 269 874 269 912 C269 949 238 980 201 980 C163 980 132 949 132 912 C132 874 163 843 201 843 L201 843 Z M403 843 C440 843 471 874 471 912 C471 949 440 980 403 980 C365 980 334 949 334 912 C334 874 365 843 403 843 L403 843 Z M237 0 L367 0 L367 367 L604 770 L454 770 L302 493 L151 770 L0 770 L237 367 L237 0 Z " />
<glyph glyph-name="Zacute" unicode="&#x179;" horiz-adv-x="624" d="M245 847 L378 847 L508 964 L375 1044 L245 847 Z M10 0 L614 0 L614 130 L237 130 L614 770 L28 770 L28 640 L387 640 L10 0 Z " />
<glyph glyph-name="zacute" unicode="&#x17a;" horiz-adv-x="624" d="M245 847 L378 847 L508 964 L375 1044 L245 847 Z M10 0 L614 0 L614 130 L237 130 L614 770 L28 770 L28 640 L387 640 L10 0 Z " />
<glyph glyph-name="Zdotaccent" unicode="&#x17b;" horiz-adv-x="624" d="M312 843 C349 843 380 874 380 912 C380 949 349 980 312 980 C274 980 243 949 243 912 C243 874 274 843 312 843 L312 843 Z M10 0 L614 0 L614 130 L237 130 L614 770 L28 770 L28 640 L387 640 L10 0 Z " />
<glyph glyph-name="zdotaccent" unicode="&#x17c;" horiz-adv-x="624" d="M312 843 C349 843 380 874 380 912 C380 949 349 980 312 980 C274 980 243 949 243 912 C243 874 274 843 312 843 L312 843 Z M10 0 L614 0 L614 130 L237 130 L614 770 L28 770 L28 640 L387 640 L10 0 Z " />
<glyph glyph-name="Zcaron" unicode="&#x17d;" horiz-adv-x="624" d="M250 843 L374 843 L484 1040 L380 1040 L312 938 L244 1040 L140 1040 L250 843 Z M10 0 L614 0 L614 130 L237 130 L614 770 L28 770 L28 640 L387 640 L10 0 Z " />
<glyph glyph-name="zcaron" unicode="&#x17e;" horiz-adv-x="624" d="M250 843 L374 843 L484 1040 L380 1040 L312 938 L244 1040 L140 1040 L250 843 Z M10 0 L614 0 L614 130 L237 130 L614 770 L28 770 L28 640 L387 640 L10 0 Z " />
<glyph glyph-name="uni01CD" unicode="&#x1cd;" horiz-adv-x="720" d="M422 843 L532 1040 L428 1040 L360 938 L292 1040 L188 1040 L298 843 L422 843 Z M563 0 L710 0 L360 800 L10 0 L157 0 L209 130 L511 130 L563 0 Z M253 240 L360 506 L467 240 L253 240 Z " />
<glyph glyph-name="uni01CE" unicode="&#x1ce;" horiz-adv-x="720" d="M422 843 L532 1040 L428 1040 L360 938 L292 1040 L188 1040 L298 843 L422 843 Z M563 0 L710 0 L360 800 L10 0 L157 0 L209 130 L511 130 L563 0 Z M253 240 L360 506 L467 240 L253 240 Z " />
<glyph glyph-name="uni01CF" unicode="&#x1cf;" horiz-adv-x="330" d="M103 843 L227 843 L337 1040 L233 1040 L165 938 L97 1040 L-7 1040 L103 843 Z M100 0 L230 0 L230 770 L100 770 L100 0 Z " />
<glyph glyph-name="uni01D0" unicode="&#x1d0;" horiz-adv-x="330" d="M103 843 L227 843 L337 1040 L233 1040 L165 938 L97 1040 L-7 1040 L103 843 Z M100 0 L230 0 L230 770 L100 770 L100 0 Z " />
<glyph glyph-name="uni01D1" unicode="&#x1d1;" horiz-adv-x="890" d="M383 843 L507 843 L617 1040 L513 1040 L445 938 L377 1040 L273 1040 L383 843 Z M445 -10 C660 -10 840 163 840 385 C840 600 667 780 445 780 C230 780 50 607 50 385 C50 170 223 -10 445 -10 L445 -10 Z M445 122 C298 122 182 241 182 385 C182 532 301 648 445 648 C592 648 708 529 708 385 C708 238 589 122 445 122 L445 122 Z " />
<glyph glyph-name="uni01D2" unicode="&#x1d2;" horiz-adv-x="890" d="M383 843 L507 843 L617 1040 L513 1040 L445 938 L377 1040 L273 1040 L383 843 Z M445 -10 C660 -10 840 163 840 385 C840 600 667 780 445 780 C230 780 50 607 50 385 C50 170 223 -10 445 -10 L445 -10 Z M445 122 C298 122 182 241 182 385 C182 532 301 648 445 648 C592 648 708 529 708 385 C708 238 589 122 445 122 L445 122 Z " />
<glyph glyph-name="uni01D3" unicode="&#x1d3;" horiz-adv-x="758" d="M317 843 L441 843 L551 1040 L447 1040 L379 938 L311 1040 L207 1040 L317 843 Z M370 -10 C547 -10 683 122 683 294 L683 770 L553 770 L553 294 C553 197 476 120 379 120 C282 120 205 197 205 294 L205 770 L75 770 L75 294 C75 130 212 -10 370 -10 L370 -10 Z " />
<glyph glyph-name="uni01D4" unicode="&#x1d4;" horiz-adv-x="758" d="M317 843 L441 843 L551 1040 L447 1040 L379 938 L311 1040 L207 1040 L317 843 Z M370 -10 C547 -10 683 122 683 294 L683 770 L553 770 L553 294 C553 197 476 120 379 120 C282 120 205 197 205 294 L205 770 L75 770 L75 294 C75 130 212 -10 370 -10 L370 -10 Z " />
<glyph glyph-name="uni01D5" unicode="&#x1d5;" horiz-adv-x="758" d="M220 1065 L538 1065 L538 1179 L220 1179 L220 1065 Z M278 843 C315 843 346 874 346 912 C346 949 315 980 278 980 C240 980 209 949 209 912 C209 874 240 843 278 843 L278 843 Z M480 843 C517 843 548 874 548 912 C548 949 517 980 480 980 C442 980 411 949 411 912 C411 874 442 843 480 843 L480 843 Z M370 -10 C547 -10 683 122 683 294 L683 770 L553 770 L553 294 C553 197 476 120 379 120 C282 120 205 197 205 294 L205 770 L75 770 L75 294 C75 130 212 -10 370 -10 L370 -10 Z " />
<glyph glyph-name="uni01D6" unicode="&#x1d6;" horiz-adv-x="758" d="M220 1065 L538 1065 L538 1179 L220 1179 L220 1065 Z M278 843 C315 843 346 874 346 912 C346 949 315 980 278 980 C240 980 209 949 209 912 C209 874 240 843 278 843 L278 843 Z M480 843 C517 843 548 874 548 912 C548 949 517 980 480 980 C442 980 411 949 411 912 C411 874 442 843 480 843 L480 843 Z M370 -10 C547 -10 683 122 683 294 L683 770 L553 770 L553 294 C553 197 476 120 379 120 C282 120 205 197 205 294 L205 770 L75 770 L75 294 C75 130 212 -10 370 -10 L370 -10 Z " />
<glyph glyph-name="uni01D7" unicode="&#x1d7;" horiz-adv-x="758" d="M312 1057 L445 1057 L575 1174 L442 1254 L312 1057 Z M278 843 C315 843 346 874 346 912 C346 949 315 980 278 980 C240 980 209 949 209 912 C209 874 240 843 278 843 L278 843 Z M480 843 C517 843 548 874 548 912 C548 949 517 980 480 980 C442 980 411 949 411 912 C411 874 442 843 480 843 L480 843 Z M370 -10 C547 -10 683 122 683 294 L683 770 L553 770 L553 294 C553 197 476 120 379 120 C282 120 205 197 205 294 L205 770 L75 770 L75 294 C75 130 212 -10 370 -10 L370 -10 Z " />
<glyph glyph-name="uni01D8" unicode="&#x1d8;" horiz-adv-x="758" d="M312 1057 L445 1057 L575 1174 L442 1254 L312 1057 Z M278 843 C315 843 346 874 346 912 C346 949 315 980 278 980 C240 980 209 949 209 912 C209 874 240 843 278 843 L278 843 Z M480 843 C517 843 548 874 548 912 C548 949 517 980 480 980 C442 980 411 949 411 912 C411 874 442 843 480 843 L480 843 Z M370 -10 C547 -10 683 122 683 294 L683 770 L553 770 L553 294 C553 197 476 120 379 120 C282 120 205 197 205 294 L205 770 L75 770 L75 294 C75 130 212 -10 370 -10 L370 -10 Z " />
<glyph glyph-name="uni01D9" unicode="&#x1d9;" horiz-adv-x="758" d="M317 1053 L441 1053 L551 1250 L447 1250 L379 1148 L311 1250 L207 1250 L317 1053 Z M278 843 C315 843 346 874 346 912 C346 949 315 980 278 980 C240 980 209 949 209 912 C209 874 240 843 278 843 L278 843 Z M480 843 C517 843 548 874 548 912 C548 949 517 980 480 980 C442 980 411 949 411 912 C411 874 442 843 480 843 L480 843 Z M370 -10 C547 -10 683 122 683 294 L683 770 L553 770 L553 294 C553 197 476 120 379 120 C282 120 205 197 205 294 L205 770 L75 770 L75 294 C75 130 212 -10 370 -10 L370 -10 Z " />
<glyph glyph-name="uni01DA" unicode="&#x1da;" horiz-adv-x="758" d="M317 1053 L441 1053 L551 1250 L447 1250 L379 1148 L311 1250 L207 1250 L317 1053 Z M278 843 C315 843 346 874 346 912 C346 949 315 980 278 980 C240 980 209 949 209 912 C209 874 240 843 278 843 L278 843 Z M480 843 C517 843 548 874 548 912 C548 949 517 980 480 980 C442 980 411 949 411 912 C411 874 442 843 480 843 L480 843 Z M370 -10 C547 -10 683 122 683 294 L683 770 L553 770 L553 294 C553 197 476 120 379 120 C282 120 205 197 205 294 L205 770 L75 770 L75 294 C75 130 212 -10 370 -10 L370 -10 Z " />
<glyph glyph-name="uni01DB" unicode="&#x1db;" horiz-adv-x="758" d="M312 1057 L445 1057 L315 1254 L182 1174 L312 1057 Z M278 843 C315 843 346 874 346 912 C346 949 315 980 278 980 C240 980 209 949 209 912 C209 874 240 843 278 843 L278 843 Z M480 843 C517 843 548 874 548 912 C548 949 517 980 480 980 C442 980 411 949 411 912 C411 874 442 843 480 843 L480 843 Z M370 -10 C547 -10 683 122 683 294 L683 770 L553 770 L553 294 C553 197 476 120 379 120 C282 120 205 197 205 294 L205 770 L75 770 L75 294 C75 130 212 -10 370 -10 L370 -10 Z " />
<glyph glyph-name="uni01DC" unicode="&#x1dc;" horiz-adv-x="758" d="M312 1057 L445 1057 L315 1254 L182 1174 L312 1057 Z M278 843 C315 843 346 874 346 912 C346 949 315 980 278 980 C240 980 209 949 209 912 C209 874 240 843 278 843 L278 843 Z M480 843 C517 843 548 874 548 912 C548 949 517 980 480 980 C442 980 411 949 411 912 C411 874 442 843 480 843 L480 843 Z M370 -10 C547 -10 683 122 683 294 L683 770 L553 770 L553 294 C553 197 476 120 379 120 C282 120 205 197 205 294 L205 770 L75 770 L75 294 C75 130 212 -10 370 -10 L370 -10 Z " />
<glyph glyph-name="Scommaaccent" unicode="&#x218;" horiz-adv-x="554" d="M273 -10 C402 -10 514 71 514 208 C514 345 402 395 321 437 C251 473 191 510 191 570 C191 619 232 654 288 654 C331 654 368 633 383 590 L496 642 C461 724 386 780 289 780 C164 780 71 688 71 563 C71 433 171 375 252 333 C307 305 384 267 384 201 C384 146 332 116 274 116 C208 116 160 154 140 211 L30 162 C63 59 154 -10 273 -10 L273 -10 Z M183 -297 L266 -297 L346 -70 L213 -70 L183 -297 Z " />
<glyph glyph-name="scommaaccent" unicode="&#x219;" horiz-adv-x="554" d="M273 -10 C402 -10 514 71 514 208 C514 345 402 395 321 437 C251 473 191 510 191 570 C191 619 232 654 288 654 C331 654 368 633 383 590 L496 642 C461 724 386 780 289 780 C164 780 71 688 71 563 C71 433 171 375 252 333 C307 305 384 267 384 201 C384 146 332 116 274 116 C208 116 160 154 140 211 L30 162 C63 59 154 -10 273 -10 L273 -10 Z M183 -297 L266 -297 L346 -70 L213 -70 L183 -297 Z " />
<glyph glyph-name="uni021A" unicode="&#x21a;" horiz-adv-x="555" d="M213 0 L343 0 L343 640 L540 640 L540 770 L15 770 L15 640 L213 640 L213 0 Z M181 -297 L264 -297 L344 -70 L211 -70 L181 -297 Z " />
<glyph glyph-name="uni021B" unicode="&#x21b;" horiz-adv-x="555" d="M213 0 L343 0 L343 640 L540 640 L540 770 L15 770 L15 640 L213 640 L213 0 Z M181 -297 L264 -297 L344 -70 L211 -70 L181 -297 Z " />
<glyph glyph-name="gravecomb" unicode="&#x300;" d="M-143 577 L-10 577 L-140 774 L-273 694 L-143 577 Z " />
<glyph glyph-name="acutecomb" unicode="&#x301;" d="M-273 577 L-140 577 L-10 694 L-143 774 L-273 577 Z " />
<glyph glyph-name="uni0302" unicode="&#x302;" d="M-354 573 L-250 573 L-182 675 L-114 573 L-10 573 L-120 770 L-244 770 L-354 573 Z " />
<glyph glyph-name="tildecomb" unicode="&#x303;" d="M-410 547 C-392 601 -376 633 -343 612 C-277 571 -251 557 -214 557 C-141 557 -100 623 -63 705 L-173 750 C-182 708 -199 675 -224 675 C-260 675 -314 740 -369 740 C-434 740 -484 673 -521 594 L-410 547 Z " />
<glyph glyph-name="uni0304" unicode="&#x304;" d="M-368 585 L-50 585 L-50 699 L-368 699 L-368 585 Z " />
<glyph glyph-name="uni0306" unicode="&#x306;" d="M-283 568 C-191 568 -114 648 -114 745 L-114 770 L-213 770 L-213 745 C-213 702 -248 667 -291 667 C-333 667 -368 702 -368 745 L-368 770 L-467 770 L-467 745 C-467 644 -389 568 -283 568 L-283 568 Z " />
<glyph glyph-name="uni0307" unicode="&#x307;" d="M-78 573 C-41 573 -10 604 -10 642 C-10 679 -41 710 -78 710 C-116 710 -147 679 -147 642 C-147 604 -116 573 -78 573 L-78 573 Z " />
<glyph glyph-name="uni0308" unicode="&#x308;" d="M-280 573 C-243 573 -212 604 -212 642 C-212 679 -243 710 -280 710 C-318 710 -349 679 -349 642 C-349 604 -318 573 -280 573 L-280 573 Z M-78 573 C-41 573 -10 604 -10 642 C-10 679 -41 710 -78 710 C-116 710 -147 679 -147 642 C-147 604 -116 573 -78 573 L-78 573 Z " />
<glyph glyph-name="uni030A" unicode="&#x30a;" d="M-168 550 C-80 550 -10 620 -10 708 C-10 798 -82 866 -168 866 C-258 866 -326 794 -326 708 C-326 618 -254 550 -168 550 L-168 550 Z M-168 652 C-200 652 -224 677 -224 708 C-224 740 -199 764 -168 764 C-136 764 -112 739 -112 708 C-112 676 -137 652 -168 652 L-168 652 Z " />
<glyph glyph-name="uni030B" unicode="&#x30b;" d="M-523 597 L-390 597 L-260 714 L-393 794 L-523 597 Z M-273 597 L-140 597 L-10 714 L-143 794 L-273 597 Z " />
<glyph glyph-name="uni030C" unicode="&#x30c;" d="M-244 573 L-120 573 L-10 770 L-114 770 L-182 668 L-250 770 L-354 770 L-244 573 Z " />
<glyph glyph-name="uni0312" unicode="&#x312;" d="M-163 585 L-10 585 L-10 882 L-113 882 L-163 585 Z " />
<glyph glyph-name="uni0326" unicode="&#x326;" d="M-173 -297 L-90 -297 L-10 -70 L-143 -70 L-173 -297 Z " />
<glyph glyph-name="uni0327" unicode="&#x327;" d="M-101 -242 C-49 -242 -2 -203 -2 -141 C-2 -79 -48 -40 -109 -40 L-120 -40 L-96 0 L-148 0 L-190 -86 L-170 -114 C-144 -95 -121 -92 -104 -92 C-80 -92 -54 -111 -54 -141 C-54 -174 -83 -190 -103 -190 C-121 -190 -138 -176 -160 -155 L-192 -199 C-162 -227 -133 -242 -101 -242 L-101 -242 Z " />
<glyph glyph-name="uni0328" unicode="&#x328;" d="M-130 -230 C-76 -230 -36 -211 3 -177 L-60 -106 C-76 -130 -99 -141 -119 -141 C-142 -141 -153 -127 -153 -107 C-153 -73 -119 -22 -43 0 L-130 43 C-213 -3 -249 -53 -249 -120 C-249 -201 -196 -230 -130 -230 L-130 -230 Z " />
<glyph glyph-name="uni0335" unicode="&#x335;" d="M-418 328 L-10 328 L-10 442 L-418 442 L-418 328 Z " />
<glyph glyph-name="uni0336" unicode="&#x336;" d="M-648 328 L-10 328 L-10 442 L-648 442 L-648 328 Z " />
<glyph glyph-name="uni0337" unicode="&#x337;" d="M-558 262 L-175 402 L-214 509 L-597 369 L-558 262 Z " />
<glyph glyph-name="uni0338" unicode="&#x338;" d="M-668 10 L-10 668 L-102 760 L-760 102 L-668 10 Z " />
<glyph glyph-name="Wgrave" unicode="&#x1e80;" horiz-adv-x="993" d="M430 847 L563 847 L433 1044 L300 964 L430 847 Z M350 -30 L497 315 L643 -30 L993 770 L851 770 L633 274 L563 457 L700 770 L568 770 L497 579 L425 770 L293 770 L431 457 L360 274 L142 770 L0 770 L350 -30 Z " />
<glyph glyph-name="wgrave" unicode="&#x1e81;" horiz-adv-x="993" d="M430 847 L563 847 L433 1044 L300 964 L430 847 Z M350 -30 L497 315 L643 -30 L993 770 L851 770 L633 274 L563 457 L700 770 L568 770 L497 579 L425 770 L293 770 L431 457 L360 274 L142 770 L0 770 L350 -30 Z " />
<glyph glyph-name="Wacute" unicode="&#x1e82;" horiz-adv-x="993" d="M430 847 L563 847 L693 964 L560 1044 L430 847 Z M350 -30 L497 315 L643 -30 L993 770 L851 770 L633 274 L563 457 L700 770 L568 770 L497 579 L425 770 L293 770 L431 457 L360 274 L142 770 L0 770 L350 -30 Z " />
<glyph glyph-name="wacute" unicode="&#x1e83;" horiz-adv-x="993" d="M430 847 L563 847 L693 964 L560 1044 L430 847 Z M350 -30 L497 315 L643 -30 L993 770 L851 770 L633 274 L563 457 L700 770 L568 770 L497 579 L425 770 L293 770 L431 457 L360 274 L142 770 L0 770 L350 -30 Z " />
<glyph glyph-name="Wdieresis" unicode="&#x1e84;" horiz-adv-x="993" d="M396 843 C433 843 464 874 464 912 C464 949 433 980 396 980 C358 980 327 949 327 912 C327 874 358 843 396 843 L396 843 Z M598 843 C635 843 666 874 666 912 C666 949 635 980 598 980 C560 980 529 949 529 912 C529 874 560 843 598 843 L598 843 Z M350 -30 L497 315 L643 -30 L993 770 L851 770 L633 274 L563 457 L700 770 L568 770 L497 579 L425 770 L293 770 L431 457 L360 274 L142 770 L0 770 L350 -30 Z " />
<glyph glyph-name="wdieresis" unicode="&#x1e85;" horiz-adv-x="993" d="M396 843 C433 843 464 874 464 912 C464 949 433 980 396 980 C358 980 327 949 327 912 C327 874 358 843 396 843 L396 843 Z M598 843 C635 843 666 874 666 912 C666 949 635 980 598 980 C560 980 529 949 529 912 C529 874 560 843 598 843 L598 843 Z M350 -30 L497 315 L643 -30 L993 770 L851 770 L633 274 L563 457 L700 770 L568 770 L497 579 L425 770 L293 770 L431 457 L360 274 L142 770 L0 770 L350 -30 Z " />
<glyph glyph-name="Ygrave" unicode="&#x1ef2;" horiz-adv-x="604" d="M235 847 L368 847 L238 1044 L105 964 L235 847 Z M237 0 L367 0 L367 367 L604 770 L454 770 L302 493 L151 770 L0 770 L237 367 L237 0 Z " />
<glyph glyph-name="ygrave" unicode="&#x1ef3;" horiz-adv-x="604" d="M235 847 L368 847 L238 1044 L105 964 L235 847 Z M237 0 L367 0 L367 367 L604 770 L454 770 L302 493 L151 770 L0 770 L237 367 L237 0 Z " />
<glyph glyph-name="endash" unicode="&#x2013;" horiz-adv-x="688" d="M70 320 L608 320 L608 450 L70 450 L70 320 Z " />
<glyph glyph-name="emdash" unicode="&#x2014;" horiz-adv-x="1000" d="M0 320 L1000 320 L1000 450 L0 450 L0 320 Z " />
<glyph glyph-name="quoteleft" unicode="&#x2018;" horiz-adv-x="253" d="M120 473 L233 473 L203 770 L50 770 L120 473 Z " />
<glyph glyph-name="quoteright" unicode="&#x2019;" horiz-adv-x="253" d="M20 473 L133 473 L203 770 L50 770 L20 473 Z " />
<glyph glyph-name="quotesinglbase" unicode="&#x201a;" horiz-adv-x="353" d="M70 -196 L173 -196 L253 101 L100 101 L70 -196 Z " />
<glyph glyph-name="quotedblleft" unicode="&#x201c;" horiz-adv-x="473" d="M120 473 L233 473 L203 770 L50 770 L120 473 Z M340 473 L453 473 L423 770 L270 770 L340 473 Z " />
<glyph glyph-name="quotedblright" unicode="&#x201d;" horiz-adv-x="473" d="M20 473 L133 473 L203 770 L50 770 L20 473 Z M240 473 L353 473 L423 770 L270 770 L240 473 Z " />
<glyph glyph-name="quotedblbase" unicode="&#x201e;" horiz-adv-x="548" d="M70 -196 L173 -196 L253 101 L100 101 L70 -196 Z M290 -196 L393 -196 L473 101 L320 101 L290 -196 Z " />
<glyph glyph-name="bullet" unicode="&#x2022;" horiz-adv-x="418" d="M207 255 C281 255 338 311 338 383 C338 456 280 513 209 513 C141 513 80 459 80 383 C80 309 133 255 207 255 L207 255 Z " />
<glyph glyph-name="ellipsis" unicode="&#x2026;" horiz-adv-x="999" d="M166 -10 C222 -10 263 31 263 86 C263 136 223 183 166 183 C111 183 70 137 70 86 C70 31 113 -10 166 -10 L166 -10 Z M499 -10 C555 -10 596 31 596 86 C596 136 556 183 499 183 C444 183 403 137 403 86 C403 31 446 -10 499 -10 L499 -10 Z M832 -10 C888 -10 929 31 929 86 C929 136 889 183 832 183 C777 183 736 137 736 86 C736 31 779 -10 832 -10 L832 -10 Z " />
<glyph glyph-name="fraction" unicode="&#x2044;" horiz-adv-x="639" d="M40 -200 L184 -200 L599 800 L455 800 L40 -200 Z " />
<glyph glyph-name="trademark" unicode="&#x2122;" horiz-adv-x="622" d="M287 513 L332 513 L332 654 L414 546 L497 654 L497 513 L542 513 L542 792 L414 617 L287 792 L287 513 Z M149 513 L194 513 L194 736 L263 736 L263 781 L80 781 L80 736 L149 736 L149 513 Z " />
<glyph glyph-name="minus" unicode="&#x2212;" horiz-adv-x="548" d="M70 328 L478 328 L478 442 L70 442 L70 328 Z " />
<glyph glyph-name="uniF8FF" unicode="&#xf8ff;" horiz-adv-x="916" d="M458 0 C668 0 838 171 838 380 C838 590 668 760 458 760 C249 760 78 590 78 380 C78 171 249 0 458 0 L458 0 Z M458 36 C269 36 114 191 114 380 C114 570 269 724 458 724 C648 724 802 570 802 380 C802 191 648 36 458 36 L458 36 Z M657 217 C662 217 667 219 670 223 C677 230 677 241 670 248 L538 380 L670 512 C677 519 677 531 670 538 C663 545 652 545 645 538 L500 393 C493 386 493 375 500 367 L645 223 C648 219 653 217 657 217 L657 217 Z M259 217 C269 217 277 225 277 235 L277 525 C277 535 269 543 259 543 C249 543 241 535 241 525 L241 235 C241 225 249 217 259 217 L259 217 Z M458 217 C468 217 476 225 476 235 L476 525 C476 535 468 543 458 543 C448 543 440 535 440 525 L440 235 C440 225 448 217 458 217 L458 217 Z M313 362 L404 362 C414 362 422 370 422 380 C422 390 414 398 404 398 L313 398 C303 398 295 390 295 380 C295 370 303 362 313 362 L313 362 Z " />
</font>
</svg>
