<?xml version="1.0" encoding="UTF-8"?>
<svg xmlns="http://www.w3.org/2000/svg" xmlns:xlink="http://www.w3.org/1999/xlink" version="1.2" >
<font id="Modern Grotesk">
<font-face  font-family="Modern Grotesk" units-per-em="1000" ascent="750" descent="-250" font-style="normal" font-weight="400" font-stretch="normal" cap-height="742" x-height="533" underline-position="-75" underline-thickness="50" />
<missing-glyph  horiz-adv-x="500" d="" />
<glyph glyph-name="NULL" d="" />
<glyph glyph-name="nonmarkingreturn" unicode="&#xd;" horiz-adv-x="500" d="" />
<glyph glyph-name="space" unicode="&#x20;" horiz-adv-x="600" d="" />
<glyph glyph-name="B" unicode="B" horiz-adv-x="596" d="M444 406 Q472 399 495 376 Q514 356 530 317.5 Q546 279 546 212 Q546 137 529 94.5 Q512 52 484.5 31 Q457 10 421.5 5 Q386 0 349 0 L60 0 L60 742 L316 742 Q374 742 407.5 719.5 Q441 697 458.5 666.5 Q476 636 481 603.5 Q486 571 486 550 Q486 508 479.5 480.5 Q473 453 465 436 Q455 417 444 406 Z M177 439 L285 439 Q323 439 348.5 463.5 Q374 488 374 539 Q374 551 370.5 568 Q367 585 357 600.5 Q347 616 329.5 627.5 Q312 639 285 639 L177 639 L177 439 Z M334 101 Q352 101 369.5 103 Q387 105 400.5 115.5 Q414 126 422.5 149.5 Q431 173 431 217 Q431 252 423 274.5 Q415 297 401.5 309.5 Q388 322 370.5 326.5 Q353 331 334 331 L177 331 L177 101 L334 101 Z " />
<glyph glyph-name="C" unicode="C" horiz-adv-x="674" d="M624 63 Q575 34 537.5 20 Q500 6 458 2 Q375 -7 301 19.5 Q227 46 171 97 Q115 148 82.5 218.5 Q50 289 50 369 Q50 447 79.5 517 Q109 587 162.5 639 Q216 691 289.5 718.5 Q363 746 452 740 Q487 738 518.5 728.5 Q550 719 576 706 L528 610 Q495 625 472 629 Q449 633 420 633 Q368 633 320.5 611.5 Q273 590 237 554 Q201 518 179.5 470.5 Q158 423 158 371 Q158 318 180 270.5 Q202 223 238.5 187 Q275 151 322 129.5 Q369 108 420 108 Q439 108 455.5 109.5 Q472 111 488.5 115.5 Q505 120 522.5 128 Q540 136 562 149 L624 63 Z " />
<glyph glyph-name="D" unicode="D" horiz-adv-x="658" d="M178 742 Q221 742 270 740.5 Q319 739 367 728.5 Q415 718 458.5 695.5 Q502 673 535 631.5 Q568 590 588 526 Q608 462 608 369 Q608 277 588 213.5 Q568 150 535 109 Q502 68 458.5 46 Q415 24 367 13.5 Q319 3 270 1.5 Q221 0 178 0 L60 0 L60 742 L178 742 Z M241 109 Q283 109 328.5 117 Q374 125 412 152.5 Q450 180 474.5 231.5 Q499 283 499 370 Q499 428 487.5 470.5 Q476 513 456.5 542 Q437 571 411.5 589 Q386 607 357.5 617 Q329 627 299 630 Q269 633 241 633 L169 633 L169 109 L241 109 Z " />
<glyph glyph-name="E" unicode="E" horiz-adv-x="566" d="M60 742 L516 742 L516 639 L169 639 L169 415 L449 415 L449 312 L169 312 L169 104 L516 104 L516 0 L60 0 L60 742 L60 742 Z " />
<glyph glyph-name="F" unicode="F" horiz-adv-x="566" d="M169 0 L60 0 L60 742 L516 742 L516 639 L169 639 L169 415 L449 415 L449 312 L169 312 L169 0 L169 0 Z " />
<glyph glyph-name="G" unicode="G" horiz-adv-x="706" d="M656 359 L656 77 Q608 37 548 18.5 Q488 0 421 0 Q344 0 276.5 29 Q209 58 158.5 108.5 Q108 159 79 226.5 Q50 294 50 371 Q50 448 79 515.5 Q108 583 158.5 633.5 Q209 684 276.5 713 Q344 742 421 742 Q464 742 499 734.5 Q534 727 563 715.5 Q592 704 615 689.5 Q638 675 656 662 L602 555 Q590 568 571.5 581 Q553 594 530 604 Q507 614 480 620.5 Q453 627 425 627 Q371 627 324 606.5 Q277 586 242 551 Q207 516 187 469 Q167 422 167 369 Q167 315 187 268 Q207 221 242 186 Q277 151 324 131 Q371 111 425 111 Q455 111 486 119.5 Q517 128 536 142 L536 256 L322 256 L383 359 L656 359 Z " />
<glyph glyph-name="H" unicode="H" horiz-adv-x="625" d="M50 742 L158 742 L158 415 L466 415 L466 742 L575 742 L575 0 L466 0 L466 312 L159 312 L159 0 L50 0 L50 742 L50 742 Z " />
<glyph glyph-name="I" unicode="I" horiz-adv-x="229" d="M169 742 L169 0 L60 0 L60 742 L169 742 L169 742 Z " />
<glyph glyph-name="J" unicode="J" horiz-adv-x="448" d="M388 230 Q388 173 371.5 133.5 Q355 94 327.5 68.5 Q300 43 265 29 Q230 15 192.5 8.5 Q155 2 118 1 Q81 0 50 0 L102 109 Q123 109 153.5 111 Q184 113 212 124 Q240 135 259.5 160 Q279 185 279 230 L279 742 L388 742 L388 230 Z " />
<glyph glyph-name="K" unicode="K" horiz-adv-x="617" d="M60 742 L169 742 L169 411 L413 742 L546 742 L329 443 L567 0 L444 0 L258 345 L169 224 L169 0 L60 0 L60 742 L60 742 Z " />
<glyph glyph-name="L" unicode="L" horiz-adv-x="538" d="M488 0 L60 0 L60 742 L169 742 L169 109 L488 109 L488 0 L488 0 Z " />
<glyph glyph-name="M" unicode="M" horiz-adv-x="694" d="M50 0 L50 742 L347 403 L644 742 L644 0 L534 0 L534 457 L347 250 L158 460 L158 0 L50 0 L50 0 Z " />
<glyph glyph-name="N" unicode="N" horiz-adv-x="650" d="M50 742 L491 273 L491 742 L600 742 L600 0 L158 451 L158 0 L50 0 L50 742 L50 742 Z " />
<glyph glyph-name="O" unicode="O" horiz-adv-x="843" d="M422 743 Q499 743 566.5 714 Q634 685 684.5 634.5 Q735 584 764 516.5 Q793 449 793 372 Q793 295 764 227.5 Q735 160 684.5 109.5 Q634 59 566.5 30 Q499 1 422 1 Q345 1 277.5 30 Q210 59 159.5 109.5 Q109 160 79.5 227.5 Q50 295 50 372 Q50 449 79.5 516.5 Q109 584 159.5 634.5 Q210 685 277.5 714 Q345 743 422 743 Z M422 123 Q473 123 518.5 142.5 Q564 162 598 195.5 Q632 229 651.5 274.5 Q671 320 671 372 Q671 424 651.5 469 Q632 514 598 548 Q564 582 518.5 601.5 Q473 621 422 621 Q370 621 324.5 601.5 Q279 582 245 548 Q211 514 191.5 469 Q172 424 172 372 Q172 320 191.5 274.5 Q211 229 245 195.5 Q279 162 324.5 142.5 Q370 123 422 123 Z " />
<glyph glyph-name="P" unicode="P" horiz-adv-x="581" d="M283 742 Q303 742 329.5 740.5 Q356 739 383.5 732.5 Q411 726 437.5 711 Q464 696 485 669 Q506 642 518.5 599.5 Q531 557 531 496 Q531 435 518.5 393 Q506 351 485.5 324 Q465 297 438.5 282 Q412 267 384.5 260.5 Q357 254 331 252.5 Q305 251 284 251 L169 251 L169 0 L60 0 L60 742 L168 742 L283 742 Z M241 360 Q271 360 303.5 361 Q336 362 362 374 Q388 386 405 414 Q422 442 422 496 Q422 550 405 578 Q388 606 362 618 Q336 630 304 631.5 Q272 633 242 633 L169 633 L169 360 L241 360 Z " />
<glyph glyph-name="Q" unicode="Q" horiz-adv-x="865" d="M640 0 L595 43 Q515 0 422 0 Q345 0 277.5 29 Q210 58 159.5 108.5 Q109 159 79.5 226.5 Q50 294 50 371 Q50 448 79.5 515.5 Q109 583 159.5 633.5 Q210 684 277.5 713 Q345 742 422 742 Q499 742 566.5 713 Q634 684 684.5 633.5 Q735 583 764 515.5 Q793 448 793 371 Q793 297 766 232 Q739 167 692 117 L815 0 L640 0 Z M172 371 Q172 319 191.5 273.5 Q211 228 245 194.5 Q279 161 324.5 141.5 Q370 122 422 122 Q473 122 518.5 141.5 Q564 161 598 194.5 Q632 228 651.5 273.5 Q671 319 671 371 Q671 423 651.5 468 Q632 513 598 547 Q564 581 518.5 600.5 Q473 620 422 620 Q370 620 324.5 600.5 Q279 581 245 547 Q211 513 191.5 468 Q172 423 172 371 Z " />
<glyph glyph-name="R" unicode="R" horiz-adv-x="606" d="M436 0 L321 252 Q311 251 301.5 251 Q292 251 284 251 L169 251 L169 0 L60 0 L60 742 L168 742 L283 742 Q303 742 329.5 740.5 Q356 739 383.5 732.5 Q411 726 437.5 711 Q464 696 485 669 Q506 642 518.5 599.5 Q531 557 531 496 Q531 447 523 410.5 Q515 374 500.5 348 Q486 322 467.5 304.5 Q449 287 428 276 L556 0 L436 0 Z M241 360 Q271 360 303.5 361 Q336 362 362 374 Q388 386 405 414 Q422 442 422 496 Q422 550 405 578 Q388 606 362 618 Q336 630 304 631.5 Q272 633 242 633 L169 633 L169 360 L241 360 Z " />
<glyph glyph-name="S" unicode="S" horiz-adv-x="627" d="M301 742 Q341 742 372 734.5 Q403 727 425 718 Q451 707 470 695 L414 599 Q399 608 381 615 Q366 621 345.5 626.5 Q325 632 301 632 Q275 632 257 623 Q239 614 227.5 601 Q216 588 210.5 572.5 Q205 557 205 544 Q205 506 232.5 487.5 Q260 469 301.5 457.5 Q343 446 391 435 Q439 424 480.5 401.5 Q522 379 549.5 338.5 Q577 298 577 227 Q577 181 558 139.5 Q539 98 503.5 67 Q468 36 417 18 Q366 0 301 0 Q249 0 210 10.5 Q171 21 141 36 Q111 51 89 67.5 Q67 84 50 95 L107 191 Q166 144 217 127 Q268 110 301 110 Q331 110 360.5 117.5 Q390 125 414 139.5 Q438 154 452.5 176 Q467 198 467 227 Q467 259 451 279 Q435 299 409 312.5 Q383 326 349.5 334.5 Q316 343 281.5 352.5 Q247 362 213.5 375 Q180 388 154 409.5 Q128 431 112 463.5 Q96 496 96 544 Q96 601 120 639.5 Q144 678 177 700.5 Q210 723 244.5 732.5 Q279 742 301 742 Z " />
<glyph glyph-name="T" unicode="T" horiz-adv-x="625" d="M259 0 L259 633 L50 633 L50 742 L575 742 L575 633 L368 633 L368 0 L259 0 L259 0 Z " />
<glyph glyph-name="U" unicode="U" horiz-adv-x="652" d="M50 742 L158 742 L158 258 Q158 250 164 225.5 Q170 201 188 175 Q206 149 239 129 Q272 109 326 109 Q379 109 411.5 129 Q444 149 462 175 Q480 201 486 225 Q492 249 492 257 L492 742 L602 742 L602 258 Q602 252 599 231 Q596 210 586 181.5 Q576 153 558 121 Q540 89 509 62 Q478 35 433.5 17.5 Q389 0 326 0 Q263 0 218 16.5 Q173 33 142.5 58.5 Q112 84 93.5 115 Q75 146 65.5 174.5 Q56 203 53 225.5 Q50 248 50 258 L50 742 Z " />
<glyph glyph-name="V" unicode="V" horiz-adv-x="752" d="M702 742 L376 0 L50 742 L184 742 L376 304 L568 742 L702 742 L702 742 Z " />
<glyph glyph-name="W" unicode="W" horiz-adv-x="970" d="M604 294 L796 742 L920 742 L604 0 L488 265 L376 0 L50 742 L173 742 L376 294 L425 410 L293 713 L416 713 L604 294 L604 294 Z " />
<glyph glyph-name="X" unicode="X" horiz-adv-x="790" d="M84 742 L217 742 L394 484 L572 742 L705 742 L469 395 L740 0 L608 0 L394 310 L182 0 L50 0 L320 395 L84 742 L84 742 Z " />
<glyph glyph-name="Y" unicode="Y" horiz-adv-x="683" d="M178 742 L342 381 L506 742 L633 742 L400 231 L400 0 L284 0 L284 231 L50 742 L178 742 L178 742 Z " />
<glyph glyph-name="Z" unicode="Z" horiz-adv-x="574" d="M89 742 L524 742 L222 105 L524 105 L524 0 L50 0 L351 634 L89 634 L89 742 L89 742 Z " />
<glyph glyph-name="a" unicode="a" horiz-adv-x="675" d="M605 503 L605 0 L496 0 L496 72 Q461 27 411 0 Q361 -27 303 -27 Q251 -27 205 -5 Q159 17 124.5 55 Q90 93 70 143.5 Q50 194 50 252 Q50 310 70 360.5 Q90 411 124.5 449 Q159 487 205 509 Q251 531 303 531 Q361 531 411 504.5 Q461 478 496 432 L496 503 L605 503 Z M332 85 Q366 85 396 98 Q426 111 448 133.5 Q470 156 483 186 Q496 216 496 251 Q496 285 483 315.5 Q470 346 448 368.5 Q426 391 396 404 Q366 417 332 417 Q298 417 268 404 Q238 391 215.5 368.5 Q193 346 180 315.5 Q167 285 167 251 Q167 216 180 186 Q193 156 215.5 133.5 Q238 111 268 98 Q298 85 332 85 Z " />
<glyph glyph-name="b" unicode="b" horiz-adv-x="658" d="M365 531 Q415 531 459.5 509.5 Q504 488 537 450.5 Q570 413 589 363 Q608 313 608 256 Q608 199 589 149 Q570 99 537 61.5 Q504 24 459.5 2.5 Q415 -19 365 -19 Q308 -19 260.5 7.5 Q213 34 179 79 L179 0 L70 0 L70 742 L179 742 L179 433 Q213 478 260.5 504.5 Q308 531 365 531 Z M337 91 Q370 91 399 104 Q428 117 449 139.5 Q470 162 482.5 191.5 Q495 221 495 255 Q495 289 482.5 318.5 Q470 348 449 370 Q428 392 399 405 Q370 418 337 418 Q304 418 275.5 405 Q247 392 225.5 370 Q204 348 191.5 318.5 Q179 289 179 255 Q179 221 191.5 191.5 Q204 162 225.5 139.5 Q247 117 275.5 104 Q304 91 337 91 Z " />
<glyph glyph-name="c" unicode="c" horiz-adv-x="532" d="M462 45 Q427 25 399.5 14.5 Q372 4 343 1 Q283 -5 230 14 Q177 33 137 69.5 Q97 106 73.5 156.5 Q50 207 50 264 Q50 320 71 370.5 Q92 421 130.5 458 Q169 495 222 515 Q275 535 338 531 Q387 527 428 506 L385 402 Q361 412 348.5 415 Q336 418 315 418 Q240 418 201.5 380 Q163 342 163 266 Q163 190 203 151.5 Q243 113 315 113 Q329 113 339.5 114 Q350 115 360 118.5 Q370 122 381.5 127.5 Q393 133 409 142 L462 45 Z " />
<glyph glyph-name="d" unicode="d" horiz-adv-x="658" d="M588 742 L588 0 L479 0 L479 79 Q446 34 398 7.5 Q350 -19 293 -19 Q243 -19 198.5 2.5 Q154 24 121 61.5 Q88 99 69 149 Q50 199 50 256 Q50 313 69 363 Q88 413 121 450.5 Q154 488 198.5 509.5 Q243 531 293 531 Q350 531 398 504.5 Q446 478 479 433 L479 742 L588 742 Z M321 91 Q354 91 382.5 104 Q411 117 432.5 139.5 Q454 162 466.5 191.5 Q479 221 479 255 Q479 289 466.5 318.5 Q454 348 432.5 370 Q411 392 382.5 405 Q354 418 321 418 Q288 418 259.5 405 Q231 392 209.5 370 Q188 348 175.5 318.5 Q163 289 163 255 Q163 221 175.5 191.5 Q188 162 209.5 139.5 Q231 117 259.5 104 Q288 91 321 91 Z " />
<glyph glyph-name="e" unicode="e" horiz-adv-x="614" d="M308 534 Q364 534 403 517.5 Q442 501 468 476 Q494 451 509.5 420.5 Q525 390 532.5 362 Q540 334 541.5 312.5 Q543 291 543 283 L543 231 L159 231 Q159 220 167 199.5 Q175 179 192.5 158.5 Q210 138 238.5 123 Q267 108 308 108 Q350 108 383.5 116 Q417 124 442 134 Q471 145 494 160 L494 49 Q486 40 464.5 31 Q443 22 415 15.5 Q387 9 358 4.5 Q329 0 308 0 Q297 0 273.5 3 Q250 6 221 16.5 Q192 27 162 46 Q132 65 107 96 Q82 127 66 172.5 Q50 218 50 282 Q50 326 67.5 371 Q85 416 118 452 Q151 488 199 511 Q247 534 308 534 Z M434 320 Q430 354 415 380 Q402 403 377.5 422 Q353 441 309 441 Q265 441 236 426.5 Q207 412 190 392.5 Q173 373 166 352.5 Q159 332 159 320 L434 320 Z " />
<glyph glyph-name="f" unicode="f" horiz-adv-x="434" d="M364 636 Q323 636 299.5 633 Q276 630 264 622.5 Q252 615 248.5 602 Q245 589 245 569 L245 516 L364 516 L364 407 L245 407 L245 0 L136 0 L136 407 L50 407 L50 516 L135 516 L135 571 Q135 634 159 668 Q183 702 218 717.5 Q253 733 292.5 736 Q332 739 364 739 L364 636 L364 636 Z " />
<glyph glyph-name="g" unicode="g" horiz-adv-x="637" d="M557 503 L557 -1 Q557 -36 547 -74 Q537 -112 508 -144 Q479 -176 427 -197 Q375 -218 290 -218 Q232 -218 195 -211.5 Q158 -205 135 -197 Q109 -187 94 -175 L94 -67 Q115 -78 144 -87 Q169 -95 205.5 -101 Q242 -107 290 -107 Q338 -107 368.5 -97 Q399 -87 417 -71.5 Q435 -56 441.5 -36.5 Q448 -17 448 2 L448 63 Q416 34 376.5 17 Q337 0 292 0 Q242 0 198 21 Q154 42 121 78 Q88 114 69 162.5 Q50 211 50 266 Q50 321 69 370 Q88 419 121 455 Q154 491 198 512 Q242 533 292 533 Q337 533 376.5 516 Q416 499 448 469 L448 503 L557 503 Z M306 111 Q334 111 359.5 122.5 Q385 134 404.5 154.5 Q424 175 435.5 202 Q447 229 448 260 L448 275 Q447 306 435.5 333 Q424 360 404.5 380.5 Q385 401 359.5 412.5 Q334 424 306 424 Q277 424 251 411.5 Q225 399 205.5 378 Q186 357 175 328.5 Q164 300 164 268 Q164 235 175 206.5 Q186 178 205.5 157 Q225 136 251 123.5 Q277 111 306 111 Z " />
<glyph glyph-name="h" unicode="h" horiz-adv-x="580" d="M179 209 L179 0 L70 0 L70 742 L178 742 L178 415 Q191 448 214 474 Q234 497 265.5 515.5 Q297 534 345 534 Q379 534 411 521 Q443 508 467 484.5 Q491 461 505.5 429 Q520 397 520 358 L520 0 L412 0 L412 301 Q412 324 407.5 344.5 Q403 365 392.5 381 Q382 397 364.5 406 Q347 415 322 415 Q301 415 276 399 Q251 383 229.5 355 Q208 327 193.5 289.5 Q179 252 179 209 Z " />
<glyph glyph-name="i" unicode="i" horiz-adv-x="229" d="M159 622 L50 622 L50 742 L159 742 L159 622 Z M50 533 L159 533 L159 0 L50 0 L50 533 Z " />
<glyph glyph-name="j" unicode="j" horiz-adv-x="229" d="M159 622 L50 622 L50 742 L159 742 L159 622 Z M50 533 L159 533 L159 -218 L50 -218 L50 533 Z " />
<glyph glyph-name="k" unicode="k" horiz-adv-x="569" d="M70 742 L179 742 L179 306 L348 533 L481 533 L339 338 L519 0 L397 0 L268 240 L179 119 L179 0 L70 0 L70 742 L70 742 Z " />
<glyph glyph-name="l" unicode="l" horiz-adv-x="229" d="M159 0 L50 0 L50 742 L159 742 L159 0 L159 0 Z " />
<glyph glyph-name="m" unicode="m" horiz-adv-x="910" d="M70 0 L70 533 L179 533 L179 459 Q192 479 214 496 Q233 510 262.5 521.5 Q292 533 337 533 Q380 533 409.5 519.5 Q439 506 457 489.5 Q475 473 483 458 Q491 443 491 440 Q491 437 499 451 Q507 465 527 483 Q547 501 580 517 Q613 533 664 533 Q715 533 748.5 515 Q782 497 802.5 472 Q823 447 831.5 422 Q840 397 840 383 L840 0 L730 0 L730 333 Q730 346 721.5 360.5 Q713 375 699.5 386 Q686 397 668.5 404.5 Q651 412 632 412 Q577 412 542 380 Q507 348 507 284 L507 0 L397 0 L397 331 Q397 362 376 387 Q355 412 315 412 Q288 412 263.5 404 Q239 396 220 380 Q201 364 190 340 Q179 316 179 284 L179 0 L70 0 Z " />
<glyph glyph-name="n" unicode="n" horiz-adv-x="575" d="M70 0 L70 533 L178 533 L178 459 Q191 479 213 496 Q232 510 261.5 521.5 Q291 533 336 533 Q392 533 425.5 515.5 Q459 498 476.5 468.5 Q494 439 499.5 401.5 Q505 364 505 324 L505 0 L396 0 L396 331 Q396 362 375 387 Q354 412 314 412 Q287 412 262.5 404 Q238 396 219.5 380 Q201 364 189.5 340 Q178 316 178 284 L178 0 L70 0 Z " />
<glyph glyph-name="o" unicode="o" horiz-adv-x="633" d="M317 533 Q372 533 420.5 512 Q469 491 505 455 Q541 419 562 370 Q583 321 583 266 Q583 211 562 162.5 Q541 114 505 78 Q469 42 420.5 21 Q372 0 317 0 Q262 0 213.5 21 Q165 42 128.5 78 Q92 114 71 162.5 Q50 211 50 266 Q50 321 71 370 Q92 419 128.5 455 Q165 491 213.5 512 Q262 533 317 533 Z M317 104 Q351 104 380.5 116.5 Q410 129 432 151 Q454 173 467 202.5 Q480 232 480 266 Q480 300 467 329.5 Q454 359 432 381 Q410 403 380.5 416 Q351 429 317 429 Q283 429 253.5 416 Q224 403 202 381 Q180 359 167 329.5 Q154 300 154 266 Q154 232 167 202.5 Q180 173 202 151 Q224 129 253.5 116.5 Q283 104 317 104 Z " />
<glyph glyph-name="p" unicode="p" horiz-adv-x="654" d="M346 532 Q400 532 447 511 Q494 490 529 454 Q564 418 584 369.5 Q604 321 604 266 Q604 211 584 162.5 Q564 114 529 78 Q494 42 447 21 Q400 0 346 0 Q298 0 255.5 17 Q213 34 179 64 L179 -218 L70 -218 L70 533 L179 533 L179 469 Q213 498 255.5 515 Q298 532 346 532 Z M331 111 Q362 111 389.5 123.5 Q417 136 437.5 157 Q458 178 470 206.5 Q482 235 482 267 Q482 300 470 328.5 Q458 357 437.5 378 Q417 399 389.5 411 Q362 423 331 423 Q299 423 271.5 411 Q244 399 223.5 378 Q203 357 191 328.5 Q179 300 179 267 Q179 235 191 206.5 Q203 178 223.5 157 Q244 136 271.5 123.5 Q299 111 331 111 Z " />
<glyph glyph-name="q" unicode="q" horiz-adv-x="654" d="M584 533 L584 -218 L475 -218 L475 64 Q441 34 398.5 17 Q356 0 308 0 Q254 0 207 21 Q160 42 125 78 Q90 114 70 162.5 Q50 211 50 266 Q50 321 70 369.5 Q90 418 125 454 Q160 490 207 511 Q254 532 308 532 Q356 532 398.5 515 Q441 498 475 469 L475 533 L584 533 Z M323 111 Q354 111 382 123.5 Q410 136 430.5 157 Q451 178 463 206.5 Q475 235 475 267 Q475 300 463 328.5 Q451 357 430.5 378 Q410 399 382 411 Q354 423 323 423 Q292 423 264.5 411 Q237 399 216.5 378 Q196 357 184 328.5 Q172 300 172 267 Q172 235 184 206.5 Q196 178 216.5 157 Q237 136 264.5 123.5 Q292 111 323 111 Z " />
<glyph glyph-name="r" unicode="r" horiz-adv-x="432" d="M85 533 L194 533 L194 467 Q208 485 234 500 Q256 512 292 522.5 Q328 533 382 533 L382 424 Q355 424 322 419 Q289 414 260.5 402.5 Q232 391 213 372 Q194 353 194 325 L194 0 L85 0 L85 533 Z " />
<glyph glyph-name="s" unicode="s" horiz-adv-x="478" d="M230 532 Q259 532 281 526.5 Q303 521 319 515 Q337 507 351 498 L298 416 Q291 423 281 428 Q273 433 260 437 Q247 441 230 441 Q194 441 178.5 425 Q163 409 163 390 Q163 363 182.5 350.5 Q202 338 231.5 330.5 Q261 323 295.5 316.5 Q330 310 359.5 293.5 Q389 277 408.5 247 Q428 217 428 163 Q428 130 414.5 100 Q401 70 375.5 48 Q350 26 313 13 Q276 0 230 0 Q193 0 165 7.5 Q137 15 115.5 25.5 Q94 36 78 48 Q62 60 50 68 L104 150 Q146 116 181 105 Q216 94 230 94 Q282 94 299 112.5 Q316 131 316 163 Q316 194 296.5 208.5 Q277 223 248 232 Q219 241 184.5 248 Q150 255 121 270 Q92 285 72.5 312.5 Q53 340 53 390 Q53 428 68.5 455 Q84 482 109.5 499 Q135 516 166.5 524 Q198 532 230 532 Z " />
<glyph glyph-name="t" unicode="t" horiz-adv-x="454" d="M384 517 L384 408 L265 408 L265 0 L154 0 L154 408 L70 408 L70 517 L154 517 L154 703 L265 742 L265 517 L384 517 L384 517 Z " />
<glyph glyph-name="u" unicode="u" horiz-adv-x="536" d="M70 533 L179 533 L179 185 Q179 179 181.5 166.5 Q184 154 193 141 Q202 128 220 118.5 Q238 109 268 109 Q299 109 316.5 118.5 Q334 128 343 141 Q352 154 354.5 166 Q357 178 357 184 L357 533 L466 533 L466 185 Q466 181 464 165.5 Q462 150 455 129.5 Q448 109 434.5 86.5 Q421 64 399 44.5 Q377 25 345 12.5 Q313 0 268 0 Q223 0 190.5 12 Q158 24 136 42 Q114 60 101 82 Q88 104 81 125 Q74 146 72 162 Q70 178 70 185 L70 533 Z " />
<glyph glyph-name="v" unicode="v" horiz-adv-x="636" d="M586 533 L318 0 L50 533 L180 533 L318 253 L456 533 L586 533 L586 533 Z " />
<glyph glyph-name="w" unicode="w" horiz-adv-x="848" d="M798 534 L530 1 L424 212 L318 1 L50 534 L180 534 L318 254 L424 469 L488 339 L488 339 L530 254 L668 534 L798 534 L798 534 Z " />
<glyph glyph-name="x" unicode="x" horiz-adv-x="635" d="M94 533 L227 533 L317 385 L408 533 L540 533 L371 284 L565 0 L434 0 L317 185 L202 0 L70 0 L264 284 L94 533 L94 533 Z " />
<glyph glyph-name="y" unicode="y" horiz-adv-x="668" d="M70 533 L195 533 L335 190 L473 533 L598 533 L296 -218 L169 -218 L271 32 L70 533 L70 533 Z " />
<glyph glyph-name="z" unicode="z" horiz-adv-x="470" d="M93 533 L420 533 L220 108 L405 108 L405 0 L50 0 L250 425 L93 425 L93 533 L93 533 Z " />
<glyph glyph-name="zero" unicode="0" horiz-adv-x="586" d="M293 747 Q344 747 388.5 717.5 Q433 688 466 637.5 Q499 587 517.5 519 Q536 451 536 374 Q536 296 517.5 228 Q499 160 466 109.5 Q433 59 388.5 29.5 Q344 0 293 0 Q242 0 197.5 29.5 Q153 59 120 109.5 Q87 160 68.5 228 Q50 296 50 374 Q50 451 68.5 519 Q87 587 120 637.5 Q153 688 197.5 717.5 Q242 747 293 747 Z M293 114 Q327 114 352 134.5 Q377 155 394 190 Q411 225 419.5 272 Q428 319 428 372 Q428 426 419.5 473 Q411 520 394 555 Q377 590 352 610.5 Q327 631 293 631 Q260 631 235 610.5 Q210 590 193 555 Q176 520 167 473 Q158 426 158 372 Q158 319 167 272 Q176 225 193 190 Q210 155 235 134.5 Q260 114 293 114 Z " />
<glyph glyph-name="one" unicode="1" horiz-adv-x="407" d="M228 0 L228 527 L114 439 L50 527 L337 744 L337 0 L228 0 L228 0 Z " />
<glyph glyph-name="two" unicode="2" horiz-adv-x="544" d="M494 109 L494 0 L50 0 L105 88 Q146 154 171.5 197 Q197 240 215 270 Q229 293 240.5 312.5 Q252 332 265 352 Q278 372 293.5 395 Q309 418 330 449 Q339 462 348.5 479.5 Q358 497 363.5 516 Q369 535 368 554.5 Q367 574 355 590 Q338 611 307.5 620 Q277 629 250 620 Q212 607 212 559 L96 504 L96 559 Q96 617 126.5 664 Q157 711 213 730 Q275 750 340 732 Q373 723 400.5 704.5 Q428 686 448 660 Q489 607 484 534 Q479 461 426 385 Q405 354 390.5 331.5 Q376 309 364 290 Q352 271 340.5 252 Q329 233 315 210 Q304 191 288.5 165 Q273 139 255 109 L494 109 Z " />
<glyph glyph-name="three" unicode="3" horiz-adv-x="583" d="M255 1 Q153 12 50 91 L120 183 Q198 123 265 115 Q318 110 356 137 Q394 165 409 212 Q425 261 411 303 Q397 346 359.5 368.5 Q322 391 256 389 L254 389 L154 389 L291 633 L97 633 L97 740 L479 740 L345 496 Q391 484 429 460 Q497 414 521 339 Q534 299 533 257 Q532 215 519 175.5 Q506 136 481.5 101.5 Q457 67 423 43 Q360 0 282 0 Q274 0 267.5 0 Q261 0 255 1 Z " />
<glyph glyph-name="four" unicode="4" horiz-adv-x="572" d="M353 170 L50 170 L50 279 L273 742 L460 742 L460 279 L522 279 L522 170 L460 170 L460 0 L353 0 L353 170 L353 170 Z M353 658 L351 658 L178 279 L353 279 L353 658 L353 658 Z " />
<glyph glyph-name="five" unicode="5" horiz-adv-x="549" d="M439 743 L439 636 L225 636 L213 496 Q284 496 337.5 475.5 Q391 455 427 420 Q463 385 481 339 Q499 293 499 242 Q499 189 479 145 Q459 101 425 68.5 Q391 36 347.5 18 Q304 0 257 0 Q205 0 166.5 15.5 Q128 31 102 50 Q71 72 50 100 L111 174 Q160 126 210 114 Q260 102 300.5 116 Q341 130 366.5 164 Q392 198 392 242 Q392 289 374 318 Q356 347 330.5 362.5 Q305 378 278.5 383 Q252 388 234 388 L98 388 L128 743 L439 743 Z " />
<glyph glyph-name="six" unicode="6" horiz-adv-x="536" d="M420 743 L260 462 Q314 462 356.5 442 Q399 422 427.5 389 Q456 356 471 314 Q486 272 486 228 Q486 183 470 141.5 Q454 100 425 69 Q396 38 355.5 19.5 Q315 1 266 1 Q216 1 176 20.5 Q136 40 108 71.5 Q80 103 65 144 Q50 185 50 228 Q50 263 54.5 289 Q59 315 65 333 Q71 354 80 369 L293 743 L420 743 Z M160 228 Q160 205 168.5 184.5 Q177 164 191.5 148.5 Q206 133 225 124 Q244 115 266 115 Q290 115 310 124 Q330 133 344.5 148.5 Q359 164 367 184.5 Q375 205 375 228 Q375 279 344 310.5 Q313 342 266 342 Q244 342 225 333.5 Q206 325 191.5 310 Q177 295 168.5 274 Q160 253 160 228 Z " />
<glyph glyph-name="seven" unicode="7" horiz-adv-x="556" d="M91 741 L506 741 L175 0 L60 0 L344 635 L91 635 L91 741 L91 741 Z " />
<glyph glyph-name="eight" unicode="8" horiz-adv-x="605" d="M533 315 Q555 274 555 225 Q555 177 533 134 Q514 94 478 63 Q443 32 397.5 16 Q352 0 303 0 Q253 0 207.5 16 Q162 32 127 63 Q91 93 71 134 Q50 177 50 225 Q50 273 71 315 Q90 355 127 387 Q132 391 137 395 Q142 399 148 403 Q132 416 120.5 431.5 Q109 447 100 464 Q82 501 82 544 Q82 586 100 624 Q118 661 149 687 Q181 713 220.5 727.5 Q260 742 303 742 Q346 742 385 727.5 Q424 713 455 687 Q488 659 504 624 Q523 587 523 544 Q523 501 504 464 Q487 429 457 403 Q462 399 467.5 395 Q473 391 478 387 Q514 354 533 315 Z M303 630 Q280 630 260 623.5 Q240 617 225 605 Q210 593 201 577.5 Q192 562 192 544 Q192 526 201 510.5 Q210 495 225 483.5 Q240 472 260 465 Q280 458 303 458 Q325 458 345 465 Q365 472 380 483.5 Q395 495 404 510.5 Q413 526 413 544 Q413 562 404 577.5 Q395 593 380 605 Q365 617 345 623.5 Q325 630 303 630 Z M302 110 Q332 110 357.5 119 Q383 128 402.5 143.5 Q422 159 433 180 Q444 201 444 225 Q444 249 433 269.5 Q422 290 402.5 305.5 Q383 321 357.5 330 Q332 339 302 339 Q272 339 246.5 330 Q221 321 201.5 305.5 Q182 290 171 269.5 Q160 249 160 225 Q160 201 171 180 Q182 159 201.5 143.5 Q221 128 246.5 119 Q272 110 302 110 Z " />
<glyph glyph-name="nine" unicode="9" horiz-adv-x="536" d="M116 0 L276 281 Q222 281 179.5 301 Q137 321 108.5 354 Q80 387 65 429 Q50 471 50 515 Q50 560 66 601 Q82 642 111 673.5 Q140 705 180.5 723.5 Q221 742 270 742 Q320 742 360 722.5 Q400 703 428 671 Q456 639 471 598.5 Q486 558 486 515 Q486 480 481 454 Q476 428 471 410 Q464 389 456 374 L243 0 L116 0 Z M376 515 Q376 538 367.5 558.5 Q359 579 344.5 594.5 Q330 610 311 619 Q292 628 270 628 Q246 628 226 619 Q206 610 191.5 594.5 Q177 579 169 558.5 Q161 538 161 515 Q161 464 192 432.5 Q223 401 270 401 Q292 401 311 409 Q330 417 344.5 432 Q359 447 367.5 468 Q376 489 376 515 Z " />
<glyph glyph-name="A" unicode="A" horiz-adv-x="752" d="M591 0 L548 101 L203 101 L160 0 L50 0 L376 742 L702 0 L591 0 Z M250 210 L501 210 L376 503 L250 210 Z " />
<glyph glyph-name="hungarumlaut" unicode="&#x2dd;" horiz-adv-x="390" d="M208 742 L160 562 L50 562 L98 742 L208 742 Z M340 742 L292 562 L182 562 L230 742 L340 742 Z " />
<glyph glyph-name="comma" unicode="&#x2c;" horiz-adv-x="263" d="M208 118 L160 -62 L50 -62 L98 118 L208 118 L208 118 Z " />
<glyph glyph-name="exclam" unicode="&#x21;" horiz-adv-x="230" d="M60 209 L60 742 L169 742 L169 209 L60 209 L60 209 Z M170 109 L60 109 L60 0 L170 0 L170 109 L170 109 Z " />
<glyph glyph-name="colon" unicode="&#x3a;" horiz-adv-x="210" d="M160 109 L160 0 L50 0 L50 109 L160 109 Z M160 533 L160 423 L50 423 L50 533 L160 533 Z " />
<glyph glyph-name="semicolon" unicode="&#x3b;" horiz-adv-x="258" d="M208 535 L208 425 L98 425 L98 535 L208 535 Z M208 120 L159 -60 L50 -60 L98 120 L208 120 Z " />
<glyph glyph-name="period" unicode="&#x2e;" horiz-adv-x="230" d="M170 109 L170 0 L60 0 L60 109 L170 109 L170 109 Z " />
<glyph glyph-name="quotesingle" unicode="&#x27;" horiz-adv-x="198" d="M148 742 L118 630 L50 630 L80 742 L148 742 L148 742 Z " />
<glyph glyph-name="hyphen" unicode="&#x2d;" horiz-adv-x="495" d="M445 234 L50 234 L50 343 L445 343 L445 234 L445 234 Z " />
<glyph glyph-name="emdash" unicode="&#x2014;" horiz-adv-x="781" d="M731 234 L50 234 L50 343 L731 343 L731 234 L731 234 Z " />
<glyph glyph-name="underscore" unicode="&#x5f;" horiz-adv-x="781" d="M731 0 L50 0 L50 109 L731 109 L731 0 L731 0 Z " />
<glyph glyph-name="endash" unicode="&#x2013;" horiz-adv-x="495" d="M445 234 L50 234 L50 343 L445 343 L445 234 Z " />
<glyph glyph-name="bar" unicode="&#x7c;" horiz-adv-x="229" d="M169 -40 L60 -40 L60 782 L169 782 L169 -40 L169 -40 Z " />
<glyph glyph-name="slash" unicode="&#x2f;" horiz-adv-x="415" d="M159 -40 L50 -40 L256 782 L365 782 L159 -40 L159 -40 Z " />
<glyph glyph-name="backslash" unicode="&#x5c;" horiz-adv-x="415" d="M256 -40 L50 782 L159 782 L365 -40 L256 -40 L256 -40 Z " />
<glyph glyph-name="Aacute" unicode="&#xc1;" horiz-adv-x="752" d="M376 742 L702 0 L591 0 L548 101 L203 101 L160 0 L50 0 L376 742 Z M250 210 L501 210 L376 503 L250 210 Z M440 865 L410 753 L342 753 L372 865 L440 865 Z " />
<glyph glyph-name="Agrave" unicode="&#xc0;" horiz-adv-x="751" d="M375 742 L701 0 L590 0 L547 101 L203 101 L159 0 L50 0 L375 742 Z M249 210 L500 210 L375 503 L249 210 Z M409 753 L341 753 L311 865 L379 865 L409 753 Z " />
<glyph glyph-name="Eacute" unicode="&#xc9;" horiz-adv-x="566" d="M516 639 L169 639 L169 415 L449 415 L449 312 L169 312 L169 104 L516 104 L516 0 L60 0 L60 742 L516 742 L516 639 Z M337 865 L307 753 L239 753 L269 865 L337 865 Z " />
<glyph glyph-name="Egrave" unicode="&#xc8;" horiz-adv-x="566" d="M516 639 L169 639 L169 415 L449 415 L449 312 L169 312 L169 104 L516 104 L516 0 L60 0 L60 742 L516 742 L516 639 Z M337 753 L269 753 L239 865 L307 865 L337 753 Z " />
<glyph glyph-name="Oacute" unicode="&#xd3;" horiz-adv-x="843" d="M422 742 Q499 742 566.5 713 Q634 684 684.5 633.5 Q735 583 764 515.5 Q793 448 793 371 Q793 294 764 226.5 Q735 159 684.5 108.5 Q634 58 566.5 29 Q499 0 422 0 Q345 0 277.5 29 Q210 58 159.5 108.5 Q109 159 79.5 226.5 Q50 294 50 371 Q50 448 79.5 515.5 Q109 583 159.5 633.5 Q210 684 277.5 713 Q345 742 422 742 Z M422 122 Q473 122 518.5 141.5 Q564 161 598 194.5 Q632 228 651.5 273.5 Q671 319 671 371 Q671 423 651.5 468 Q632 513 598 547 Q564 581 518.5 600.5 Q473 620 422 620 Q370 620 324.5 600.5 Q279 581 245 547 Q211 513 191.5 468 Q172 423 172 371 Q172 319 191.5 273.5 Q211 228 245 194.5 Q279 161 324.5 141.5 Q370 122 422 122 Z M454 753 L385 753 L416 865 L484 865 L454 753 Z " />
<glyph glyph-name="Ograve" unicode="&#xd2;" horiz-adv-x="842" d="M421 742 Q498 742 565.5 713 Q633 684 683.5 633.5 Q734 583 763 515.5 Q792 448 792 371 Q792 294 763 226.5 Q734 159 683.5 108.5 Q633 58 565.5 29 Q498 0 421 0 Q344 0 276.5 29 Q209 58 158.5 108.5 Q108 159 79 226.5 Q50 294 50 371 Q50 448 79 515.5 Q108 583 158.5 633.5 Q209 684 276.5 713 Q344 742 421 742 Z M421 122 Q473 122 518 141.5 Q563 161 597 194.5 Q631 228 650.5 273.5 Q670 319 670 371 Q670 423 650.5 468 Q631 513 597 547 Q563 581 518 600.5 Q473 620 421 620 Q369 620 323.5 600.5 Q278 581 244.5 547 Q211 513 191.5 468 Q172 423 172 371 Q172 319 191.5 273.5 Q211 228 244.5 194.5 Q278 161 323.5 141.5 Q369 122 421 122 Z M387 753 L357 865 L425 865 L455 753 L387 753 Z " />
<glyph glyph-name="Uacute" unicode="&#xda;" horiz-adv-x="651" d="M601 742 L601 258 Q601 243 598 218 Q595 193 585.5 164 Q576 135 557.5 106 Q539 77 508.5 53.5 Q478 30 433.5 15 Q389 0 326 0 Q263 0 218 15 Q173 30 142.5 53.5 Q112 77 93.5 106 Q75 135 65.5 164 Q56 193 53 218 Q50 243 50 258 L50 742 L158 742 L158 258 Q158 235 164 209 Q170 183 188 160.5 Q206 138 239 123.5 Q272 109 326 109 Q379 109 411.5 123.5 Q444 138 462 160.5 Q480 183 486 208.5 Q492 234 492 257 L492 742 L601 742 Z M360 753 L291 753 L322 865 L390 865 L360 753 Z " />
<glyph glyph-name="Ugrave" unicode="&#xd9;" horiz-adv-x="652" d="M602 742 L602 258 Q602 243 599 218 Q596 193 586 164 Q576 135 558 106 Q540 77 509 53.5 Q478 30 433.5 15 Q389 0 326 0 Q263 0 218 15 Q173 30 142.5 53.5 Q112 77 93.5 106 Q75 135 65.5 164 Q56 193 53 218 Q50 243 50 258 L50 742 L158 742 L158 258 Q158 235 164 209 Q170 183 188 160.5 Q206 138 239 123.5 Q272 109 326 109 Q379 109 411.5 123.5 Q444 138 462 160.5 Q480 183 486 208.5 Q492 234 492 257 L492 742 L602 742 Z M289 753 L259 865 L327 865 L357 753 L289 753 Z " />
</font>
</svg>
